<?xml version="1.0" encoding="iso-8859-1"?>
<!-- Generator: Adobe Illustrator 19.0.0, SVG Export Plug-In . SVG Version: 6.00 Build 0)  -->
<svg version="1.1" id="Layer_1" xmlns="http://www.w3.org/2000/svg" xmlns:xlink="http://www.w3.org/1999/xlink" x="0px" y="0px"
	 viewBox="0 0 470 470" style="enable-background:new 0 0 470 470;" xml:space="preserve">
<g>
	<path d="M162.5,102.5c0-39.977,32.523-72.5,72.5-72.5s72.5,32.523,72.5,72.5V160h30v-57.5C337.5,45.981,291.519,0,235,0
		S132.5,45.981,132.5,102.5V160h30V102.5z"/>
	<path d="M77.5,190v280h315V190H77.5z M289.094,362.881l-21.213,21.213L235,351.213l-32.881,32.881l-21.213-21.213L213.787,330
		l-32.881-32.881l21.213-21.213L235,308.787l32.881-32.881l21.213,21.213L256.213,330L289.094,362.881z"/>
</g>
<g>
</g>
<g>
</g>
<g>
</g>
<g>
</g>
<g>
</g>
<g>
</g>
<g>
</g>
<g>
</g>
<g>
</g>
<g>
</g>
<g>
</g>
<g>
</g>
<g>
</g>
<g>
</g>
<g>
</g>
</svg>
