<?xml version="1.0" encoding="UTF-8" standalone="no"?>
<svg
   x="0px"
   y="0px"
   width="100px"
   height="100px"
   viewBox="0 0 100 100"
   enable-background="new 0 0 100 100"
   xml:space="preserve"
   version="1.1"
   id="svg4"
   sodipodi:docname="output-svgrepo-com.svg"
   inkscape:version="1.1.1 (3bf5ae0d25, 2021-09-20)"
   xmlns:inkscape="http://www.inkscape.org/namespaces/inkscape"
   xmlns:sodipodi="http://sodipodi.sourceforge.net/DTD/sodipodi-0.dtd"
   xmlns="http://www.w3.org/2000/svg"
   xmlns:svg="http://www.w3.org/2000/svg"><defs
   id="defs8" /><sodipodi:namedview
   id="namedview6"
   pagecolor="#ffffff"
   bordercolor="#666666"
   borderopacity="1.0"
   inkscape:pageshadow="2"
   inkscape:pageopacity="0.0"
   inkscape:pagecheckerboard="0"
   showgrid="false"
   inkscape:zoom="6.3"
   inkscape:cx="50"
   inkscape:cy="49.68254"
   inkscape:window-width="1920"
   inkscape:window-height="1027"
   inkscape:window-x="0"
   inkscape:window-y="0"
   inkscape:window-maximized="1"
   inkscape:current-layer="svg4" />
<path
   d="M20.8,53.8h41.5c1.1,0,1.6,1.4,0.9,2.1l-12,12c-0.8,0.8-0.8,1.9,0,2.6l2.8,2.8c0.8,0.8,1.9,0.8,2.6,0  l21.9-22c0.8-0.8,0.8-1.9,0-2.6L56.5,26.7c-0.8-0.8-1.9-0.8-2.6,0l-2.6,2.6c-0.8,0.8-0.8,1.9,0,2.6l12,12c0.8,0.9,0.3,2.3-0.9,2.3  H20.9c-1,0-1.9,0.8-1.9,1.8v3.8C19,52.8,19.8,53.8,20.8,53.8z"
   id="path2"
   style="fill:#d45500" />
</svg>
