<svg xmlns="http://www.w3.org/2000/svg" xmlns:xlink="http://www.w3.org/1999/xlink" viewBox="0 0 44.25 136.1"><defs><style>.cls-1{fill:url(#linear-gradient);}.cls-2{opacity:0.68;}.cls-3{fill:url(#linear-gradient-2);}.cls-4{fill:url(#linear-gradient-3);}.cls-5{fill:url(#linear-gradient-4);}.cls-6{fill:url(#linear-gradient-5);}.cls-7{fill:url(#linear-gradient-6);}.cls-8{fill:#fff;opacity:0.51;}</style><linearGradient id="linear-gradient" y1="75.99" x2="44.25" y2="75.99" gradientUnits="userSpaceOnUse"><stop offset="0" stop-color="#333"/><stop offset="0.01" stop-color="#3a3a3a"/><stop offset="0.12" stop-color="#6d6d6d"/><stop offset="0.2" stop-color="#8d8d8d"/><stop offset="0.24" stop-color="#999"/><stop offset="0.38" stop-color="#cfcfcf"/><stop offset="0.44" stop-color="#e6e6e6"/><stop offset="0.77" stop-color="#666"/><stop offset="0.9" stop-color="#343434"/><stop offset="0.98" stop-color="#1a1a1a"/></linearGradient><linearGradient id="linear-gradient-2" x1="22.12" y1="15.87" x2="22.12" y2="136.1" gradientUnits="userSpaceOnUse"><stop offset="0" stop-color="#fff" stop-opacity="0"/><stop offset="0" stop-color="#fff" stop-opacity="0.02"/><stop offset="0.03" stop-color="#fff" stop-opacity="0.18"/><stop offset="0.06" stop-color="#fff" stop-opacity="0.3"/><stop offset="0.09" stop-color="#fff" stop-opacity="0.37"/><stop offset="0.1" stop-color="#fff" stop-opacity="0.4"/><stop offset="0.12" stop-color="#fff" stop-opacity="0.33"/><stop offset="0.16" stop-color="#fff" stop-opacity="0.2"/><stop offset="0.19" stop-color="#fff" stop-opacity="0.13"/><stop offset="0.21" stop-color="#fff" stop-opacity="0.1"/><stop offset="0.39" stop-color="#0f0f0f" stop-opacity="0.01"/><stop offset="0.4" stop-opacity="0"/><stop offset="0.94" stop-opacity="0"/><stop offset="1" stop-opacity="0.9"/></linearGradient><linearGradient id="linear-gradient-3" x1="13.05" y1="14.88" x2="31.2" y2="14.88" gradientUnits="userSpaceOnUse"><stop offset="0" stop-color="#4d4d4d"/><stop offset="0.2" stop-color="#b4b4b4"/><stop offset="0.29" stop-color="#dfdfdf"/><stop offset="0.3" stop-color="#e5e5e5"/><stop offset="0.36" stop-color="#f8f8f8"/><stop offset="0.4" stop-color="#fff"/><stop offset="0.51" stop-color="#dcdcdc"/><stop offset="0.79" stop-color="#858585"/><stop offset="0.84" stop-color="#6d6d6d"/><stop offset="1" stop-color="#333"/></linearGradient><linearGradient id="linear-gradient-4" x1="19.66" y1="8.1" x2="24.59" y2="8.1" gradientUnits="userSpaceOnUse"><stop offset="0" stop-color="#401d00"/><stop offset="0.01" stop-color="#432002"/><stop offset="0.12" stop-color="#6e4c1e"/><stop offset="0.21" stop-color="#8d6c32"/><stop offset="0.3" stop-color="#9f7f3e"/><stop offset="0.35" stop-color="#a68642"/><stop offset="0.38" stop-color="#b69245"/><stop offset="0.45" stop-color="#e8b750"/><stop offset="0.51" stop-color="#cfa141"/><stop offset="0.73" stop-color="#78550b"/><stop offset="0.81" stop-color="#603d08"/><stop offset="1" stop-color="#260300"/></linearGradient><linearGradient id="linear-gradient-5" x1="16.37" y1="1.83" x2="27.88" y2="1.83" gradientUnits="userSpaceOnUse"><stop offset="0" stop-color="#313131"/><stop offset="0.04" stop-color="#585858"/><stop offset="0.08" stop-color="#787878"/><stop offset="0.11" stop-color="#8b8b8b"/><stop offset="0.13" stop-color="#929292"/><stop offset="0.19" stop-color="#646464"/><stop offset="0.34" stop-color="#929292"/><stop offset="0.52" stop-color="#646464"/><stop offset="0.7" stop-color="#929292"/><stop offset="0.84" stop-color="#646464"/><stop offset="0.91" stop-color="#929292"/><stop offset="0.93" stop-color="#717171"/><stop offset="1" stop-color="#1a1a1a"/></linearGradient><linearGradient id="linear-gradient-6" x1="18.72" y1="5.93" x2="18.72" y2="10.28" gradientUnits="userSpaceOnUse"><stop offset="0" stop-color="#401d00"/><stop offset="0.01" stop-color="#432002"/><stop offset="0.1" stop-color="#6e4c1e"/><stop offset="0.18" stop-color="#8d6c32"/><stop offset="0.24" stop-color="#9f7f3e"/><stop offset="0.29" stop-color="#a68642"/><stop offset="0.44" stop-color="#e8b750"/><stop offset="0.52" stop-color="#cfa141"/><stop offset="0.79" stop-color="#78550b"/><stop offset="0.85" stop-color="#603d08"/><stop offset="1" stop-color="#260300"/></linearGradient></defs><g id="Layer_2" data-name="Layer 2"><g id="Layer_1-2" data-name="Layer 1"><path class="cls-1" d="M19.62,15.87h5A19.62,19.62,0,0,1,44.25,35.49V130a6.13,6.13,0,0,1-6.13,6.13h-32A6.13,6.13,0,0,1,0,130V35.49A19.62,19.62,0,0,1,19.62,15.87Z"/><g class="cls-2"><path class="cls-3" d="M38.12,136.1h-32A6.13,6.13,0,0,1,0,130V35.49A19.61,19.61,0,0,1,19.62,15.87h5A19.61,19.61,0,0,1,44.25,35.49V130A6.13,6.13,0,0,1,38.12,136.1Z"/></g><path class="cls-4" d="M13.41,12.59H30.84a.36.36,0,0,1,.36.36v4.21a0,0,0,0,1,0,0H13a0,0,0,0,1,0,0V13A.36.36,0,0,1,13.41,12.59Z"/><rect class="cls-5" x="19.66" y="3.62" width="4.92" height="8.98"/><path class="cls-6" d="M18,0h8.19a1.65,1.65,0,0,1,1.65,1.65v2a0,0,0,0,1,0,0H16.37a0,0,0,0,1,0,0v-2A1.65,1.65,0,0,1,18,0Z"/><path class="cls-7" d="M15.65,5.93h4A2.17,2.17,0,0,1,21.78,8.1v0a2.17,2.17,0,0,1-2.17,2.17h-4a0,0,0,0,1,0,0V5.93A0,0,0,0,1,15.65,5.93Z"/><path class="cls-8" d="M18,0A2.68,2.68,0,0,1,19.8.91a.5.5,0,0,0,.75,0A2.43,2.43,0,0,1,22.26,0"/><path class="cls-8" d="M26.5,0a2.72,2.72,0,0,0-1.78.91.5.5,0,0,1-.75,0A2.41,2.41,0,0,0,22.26,0"/></g></g></svg>