<svg xmlns="http://www.w3.org/2000/svg" xmlns:xlink="http://www.w3.org/1999/xlink" viewBox="0 0 128.61 25.06"><defs><style>.cls-1{fill:url(#radial-gradient);}.cls-2{fill:url(#linear-gradient);}.cls-3{fill:url(#linear-gradient-2);}.cls-4{fill:url(#linear-gradient-3);}.cls-5{fill:url(#linear-gradient-4);}.cls-6{fill:#ccc;}.cls-7{fill:url(#linear-gradient-5);}</style><radialGradient id="radial-gradient" cx="58.43" cy="42.58" fx="20.78695622084777" fy="57.22659261243296" r="212.49" gradientTransform="translate(-1.56) scale(1.01 1)" gradientUnits="userSpaceOnUse"><stop offset="0" stop-color="#5d5e5f"/><stop offset="0.18" stop-color="#4d4d4d"/><stop offset="0.21" stop-color="#676767"/><stop offset="0.27" stop-color="#999"/><stop offset="0.28" stop-color="#858585"/><stop offset="0.34" stop-color="#333"/><stop offset="0.93" stop-color="#525252"/></radialGradient><linearGradient id="linear-gradient" x1="84.91" y1="13.48" x2="128.61" y2="13.48" gradientUnits="userSpaceOnUse"><stop offset="0" stop-color="#babbbd"/><stop offset="0.39" stop-color="#d9dadb"/><stop offset="0.4" stop-color="#d8d9da"/><stop offset="0.44" stop-color="#a8a8a8"/><stop offset="0.85" stop-color="#8e8e8e"/><stop offset="0.99" stop-color="#e6e6e6"/></linearGradient><linearGradient id="linear-gradient-2" x1="75.64" y1="10.55" x2="86.21" y2="-16.79" gradientUnits="userSpaceOnUse"><stop offset="0" stop-color="#3e3f40"/><stop offset="0.08" stop-color="#6a6c6e"/><stop offset="0.27" stop-color="#d9dadb"/><stop offset="0.28" stop-color="#d6d7d8"/><stop offset="0.37" stop-color="#a4a6a7"/><stop offset="0.41" stop-color="#a8a8a8"/><stop offset="0.49" stop-color="#8e8e8e"/><stop offset="0.68" stop-color="#747577"/><stop offset="0.7" stop-color="#707172"/><stop offset="0.74" stop-color="#686868"/><stop offset="0.82" stop-color="#939393"/><stop offset="0.93" stop-color="#5b5b5b"/><stop offset="1" stop-color="#373839"/></linearGradient><linearGradient id="linear-gradient-3" x1="719.33" y1="13.48" x2="763.03" y2="13.48" gradientTransform="matrix(-1, 0, 0, 1, 763.03, 0)" xlink:href="#linear-gradient"/><linearGradient id="linear-gradient-4" x1="710.06" y1="10.55" x2="720.63" y2="-16.79" gradientTransform="matrix(-1, 0, 0, 1, 763.03, 0)" xlink:href="#linear-gradient-2"/><linearGradient id="linear-gradient-5" x1="940.66" y1="162.55" x2="940.66" y2="156.49" gradientTransform="translate(-133.9 945.57) rotate(-90)" gradientUnits="userSpaceOnUse"><stop offset="0" stop-color="#3e3f40"/><stop offset="0.08" stop-color="#333"/><stop offset="0.23" stop-color="#666"/><stop offset="0.29" stop-color="gray"/><stop offset="0.36" stop-color="#b3b3b3"/><stop offset="0.48" stop-color="#868686"/><stop offset="0.57" stop-color="#666"/><stop offset="0.82" stop-color="#4d4d4d"/><stop offset="0.93" stop-color="#333"/><stop offset="1" stop-color="#373839"/></linearGradient></defs><g id="Layer_2" data-name="Layer 2"><g id="Layer_1-2" data-name="Layer 1"><path class="cls-1" d="M.91,25.06V17.37a4.48,4.48,0,0,1,4.5-4.47H8a6.56,6.56,0,0,0,3.22-.82c3.12-1.73,12.23-5.77,31.66-7.62a.86.86,0,0,0,.79-.86V2.88a1,1,0,0,0-1-1H85.89a1,1,0,0,0-1,1V3.6a.87.87,0,0,0,.79.86c19.43,1.85,28.54,5.89,31.66,7.62a6.59,6.59,0,0,0,3.22.82h2.63a4.49,4.49,0,0,1,4.5,4.47v7.69Z"/><path class="cls-2" d="M85.89,1.9a1,1,0,0,0-1,1V3.6a.87.87,0,0,0,.79.86c19.43,1.85,28.54,5.89,31.66,7.62a6.59,6.59,0,0,0,3.22.82h2.63a4.49,4.49,0,0,1,4.5,4.47v7.69h.52a.33.33,0,0,0,.27-.11.33.33,0,0,0,.11-.26V17.37a5.39,5.39,0,0,0-5.4-5.37h-2.68a5.6,5.6,0,0,1-2.71-.69c-3-1.66-12-5.71-31.19-7.64l-.58-.06a.26.26,0,0,1-.24-.29V2.88a.08.08,0,0,1,.07-.08h2.87V1.9Z"/><path class="cls-3" d="M88.76,0H70V3.51H83.64A.56.56,0,0,0,84.2,3V2.73a1.51,1.51,0,0,1,1.52-1.51h3a.35.35,0,0,0,.35-.35V.35A.35.35,0,0,0,88.76,0Z"/><path class="cls-4" d="M42.72,1.9a1,1,0,0,1,1,1V3.6a.86.86,0,0,1-.79.86c-19.43,1.85-28.54,5.89-31.66,7.62A6.56,6.56,0,0,1,8,12.9H5.41a4.48,4.48,0,0,0-4.5,4.47v7.69H.38A.36.36,0,0,1,.11,25,.36.36,0,0,1,0,24.69V17.37A5.39,5.39,0,0,1,5.41,12H8.08a5.6,5.6,0,0,0,2.71-.69c3-1.66,12-5.71,31.19-7.64l.58-.06a.26.26,0,0,0,.24-.29V2.88a.09.09,0,0,0-.08-.08H39.85V1.9Z"/><path class="cls-5" d="M39.85,0H58.64V3.51H45A.56.56,0,0,1,44.41,3V2.73a1.51,1.51,0,0,0-1.52-1.51h-3a.35.35,0,0,1-.34-.35V.35A.34.34,0,0,1,39.85,0Z"/><polygon class="cls-6" points="29.59 1.92 29.59 6.29 21.65 8.12 21.65 1.92 29.59 1.92"/><polygon class="cls-7" points="28.65 1.92 28.63 6.53 22.62 7.91 22.59 1.92 28.65 1.92"/></g></g></svg>