<svg xmlns="http://www.w3.org/2000/svg" xmlns:xlink="http://www.w3.org/1999/xlink" viewBox="0 0 128.61 117.73"><defs><style>.cls-1{fill:url(#radial-gradient);}.cls-2{fill:url(#linear-gradient);}.cls-3{fill:url(#linear-gradient-2);}.cls-4{fill:url(#linear-gradient-3);}.cls-5{fill:url(#linear-gradient-4);}.cls-6{fill:#ccc;}.cls-7{fill:url(#linear-gradient-5);}.cls-8{fill:none;stroke:#ccc;stroke-miterlimit:10;stroke-width:0.52px;}.cls-9{fill:url(#linear-gradient-6);}.cls-10{fill:#ededed;}.cls-11{fill:url(#linear-gradient-7);}.cls-12{fill:url(#linear-gradient-8);}.cls-13{fill:url(#linear-gradient-9);}.cls-14{fill:url(#linear-gradient-10);}.cls-15{fill:url(#linear-gradient-11);}.cls-16{fill:url(#linear-gradient-12);}.cls-17{fill:url(#linear-gradient-13);}.cls-18{fill:url(#linear-gradient-14);}.cls-19{fill:url(#linear-gradient-15);}.cls-20{fill:url(#linear-gradient-16);}.cls-21{fill:url(#linear-gradient-17);}.cls-22{fill:url(#linear-gradient-18);}</style><radialGradient id="radial-gradient" cx="58.43" cy="58.38" fx="20.78695622084777" fy="73.02203936307814" r="212.49" gradientTransform="translate(-1.56) scale(1.01 1)" gradientUnits="userSpaceOnUse"><stop offset="0" stop-color="#5d5e5f"/><stop offset="0.18" stop-color="#4d4d4d"/><stop offset="0.21" stop-color="#676767"/><stop offset="0.27" stop-color="#999"/><stop offset="0.28" stop-color="#858585"/><stop offset="0.34" stop-color="#333"/><stop offset="0.93" stop-color="#525252"/></radialGradient><linearGradient id="linear-gradient" x1="84.91" y1="29.28" x2="128.61" y2="29.28" gradientUnits="userSpaceOnUse"><stop offset="0" stop-color="#babbbd"/><stop offset="0.39" stop-color="#d9dadb"/><stop offset="0.4" stop-color="#d8d9da"/><stop offset="0.44" stop-color="#a8a8a8"/><stop offset="0.85" stop-color="#8e8e8e"/><stop offset="0.99" stop-color="#e6e6e6"/></linearGradient><linearGradient id="linear-gradient-2" x1="75.64" y1="26.34" x2="86.21" y2="-1" gradientUnits="userSpaceOnUse"><stop offset="0" stop-color="#3e3f40"/><stop offset="0.08" stop-color="#6a6c6e"/><stop offset="0.27" stop-color="#d9dadb"/><stop offset="0.28" stop-color="#d6d7d8"/><stop offset="0.37" stop-color="#a4a6a7"/><stop offset="0.41" stop-color="#a8a8a8"/><stop offset="0.49" stop-color="#8e8e8e"/><stop offset="0.68" stop-color="#747577"/><stop offset="0.7" stop-color="#707172"/><stop offset="0.74" stop-color="#686868"/><stop offset="0.82" stop-color="#939393"/><stop offset="0.93" stop-color="#5b5b5b"/><stop offset="1" stop-color="#373839"/></linearGradient><linearGradient id="linear-gradient-3" x1="719.33" y1="29.28" x2="763.03" y2="29.28" gradientTransform="matrix(-1, 0, 0, 1, 763.03, 0)" xlink:href="#linear-gradient"/><linearGradient id="linear-gradient-4" x1="710.06" y1="26.34" x2="720.63" y2="-1" gradientTransform="matrix(-1, 0, 0, 1, 763.03, 0)" xlink:href="#linear-gradient-2"/><linearGradient id="linear-gradient-5" x1="814.88" y1="52.56" x2="814.88" y2="46.5" gradientTransform="translate(-23.91 835.59) rotate(-90)" gradientUnits="userSpaceOnUse"><stop offset="0" stop-color="#3e3f40"/><stop offset="0.08" stop-color="#333"/><stop offset="0.23" stop-color="#666"/><stop offset="0.29" stop-color="gray"/><stop offset="0.36" stop-color="#b3b3b3"/><stop offset="0.48" stop-color="#868686"/><stop offset="0.57" stop-color="#666"/><stop offset="0.82" stop-color="#4d4d4d"/><stop offset="0.93" stop-color="#333"/><stop offset="1" stop-color="#373839"/></linearGradient><linearGradient id="linear-gradient-6" x1="3113.64" y1="691.09" x2="3113.64" y2="676.46" gradientTransform="translate(-658.26 3130.16) rotate(-90)" gradientUnits="userSpaceOnUse"><stop offset="0" stop-color="#3e3f40"/><stop offset="0.08" stop-color="#6a6c6e"/><stop offset="0.27" stop-color="#d9dadb"/><stop offset="0.28" stop-color="#d6d7d8"/><stop offset="0.37" stop-color="#a4a6a7"/><stop offset="0.41" stop-color="#a8a8a8"/><stop offset="0.49" stop-color="#8e8e8e"/><stop offset="0.68" stop-color="#747577"/><stop offset="0.7" stop-color="#707172"/><stop offset="0.74" stop-color="#686868"/><stop offset="0.82" stop-color="#939393"/><stop offset="0.93" stop-color="#5b5b5b"/><stop offset="1" stop-color="#373839"/></linearGradient><linearGradient id="linear-gradient-7" x1="-63.59" y1="981.48" x2="-63.59" y2="979.4" gradientTransform="translate(1005.96 131.06) rotate(90)" xlink:href="#linear-gradient-6"/><linearGradient id="linear-gradient-8" x1="644.44" y1="20.78" x2="645.73" y2="20.78" gradientTransform="matrix(1, 0, 0, -1, -619.55, 27.89)" gradientUnits="userSpaceOnUse"><stop offset="0" stop-color="#0b1110"/><stop offset="0.08" stop-color="#373e3e"/><stop offset="0.27" stop-color="#a6acab"/><stop offset="0.28" stop-color="#a3a9a8"/><stop offset="0.37" stop-color="#717877"/><stop offset="0.41" stop-color="#757a78"/><stop offset="0.49" stop-color="#5b605e"/><stop offset="0.68" stop-color="#414747"/><stop offset="0.7" stop-color="#3d4342"/><stop offset="0.74" stop-color="#353a38"/><stop offset="0.82" stop-color="#606563"/><stop offset="0.93" stop-color="#282d2b"/><stop offset="1" stop-color="#040a09"/></linearGradient><linearGradient id="linear-gradient-9" x1="-103.53" y1="92.75" x2="-103.53" y2="86.76" gradientTransform="matrix(1, 0, 0, -1, 129.07, 103.61)" xlink:href="#linear-gradient-6"/><linearGradient id="linear-gradient-10" x1="644.22" y1="19.93" x2="645.95" y2="19.93" gradientTransform="matrix(1, 0, 0, -1, -619.55, 26.19)" gradientUnits="userSpaceOnUse"><stop offset="0" stop-color="#646566"/><stop offset="0.34" stop-color="#e6e6e6"/><stop offset="0.44" stop-color="#cacccd"/><stop offset="0.55" stop-color="#b4b4b4"/><stop offset="0.65" stop-color="#9a9b9d"/><stop offset="0.8" stop-color="#818181"/><stop offset="0.93" stop-color="#5d5e5f"/></linearGradient><linearGradient id="linear-gradient-11" x1="644.22" y1="21.88" x2="645.95" y2="21.88" gradientTransform="matrix(1, 0, 0, -1, -619.55, 30.09)" xlink:href="#linear-gradient-10"/><linearGradient id="linear-gradient-12" x1="643.95" y1="23.96" x2="646.22" y2="23.96" gradientTransform="matrix(1, 0, 0, -1, -619.55, 34.26)" xlink:href="#linear-gradient-8"/><linearGradient id="linear-gradient-13" x1="643.86" y1="22.99" x2="646.31" y2="22.99" gradientTransform="matrix(1, 0, 0, -1, -619.55, 32.3)" xlink:href="#linear-gradient-10"/><linearGradient id="linear-gradient-14" x1="643.86" y1="23.6" x2="646.31" y2="23.6" gradientTransform="matrix(1, 0, 0, -1, -619.55, 33.53)" xlink:href="#linear-gradient-10"/><linearGradient id="linear-gradient-15" x1="643.86" y1="24.17" x2="646.31" y2="24.17" gradientTransform="matrix(1, 0, 0, -1, -619.55, 34.66)" xlink:href="#linear-gradient-10"/><linearGradient id="linear-gradient-16" x1="643.86" y1="24.73" x2="646.31" y2="24.73" gradientTransform="matrix(1, 0, 0, -1, -619.55, 35.79)" xlink:href="#linear-gradient-10"/><linearGradient id="linear-gradient-17" x1="-104.76" y1="90.95" x2="-107.16" y2="88.56" gradientTransform="matrix(1, 0, 0, -1, 131.5, 101.19)" xlink:href="#linear-gradient-6"/><linearGradient id="linear-gradient-18" x1="-104.56" y1="90.39" x2="-106.77" y2="89.12" gradientTransform="matrix(1, 0, 0, -1, 131.2, 101.49)" gradientUnits="userSpaceOnUse"><stop offset="0" stop-color="#1a1a1a"/><stop offset="0.23" stop-color="#666"/><stop offset="1" stop-color="#1a1a1a"/></linearGradient></defs><g id="Layer_2" data-name="Layer 2"><g id="Layer_1-2" data-name="Layer 1"><path class="cls-1" d="M.91,40.86V33.17a4.49,4.49,0,0,1,4.5-4.48H8a6.66,6.66,0,0,0,3.22-.81c3.12-1.73,12.23-5.77,31.66-7.62a.88.88,0,0,0,.79-.86v-.73a1,1,0,0,0-1-1H85.89a1,1,0,0,0-1,1v.73a.88.88,0,0,0,.79.86c19.43,1.85,28.54,5.89,31.66,7.62a6.69,6.69,0,0,0,3.22.81h2.63a4.5,4.5,0,0,1,4.5,4.48v7.69Z"/><path class="cls-2" d="M85.89,17.7a1,1,0,0,0-1,1v.73a.88.88,0,0,0,.79.86c19.43,1.85,28.54,5.89,31.66,7.62a6.69,6.69,0,0,0,3.22.81h2.63a4.5,4.5,0,0,1,4.5,4.48v7.69h.52a.37.37,0,0,0,.27-.11.33.33,0,0,0,.11-.27V33.17a5.39,5.39,0,0,0-5.4-5.38h-2.68a5.6,5.6,0,0,1-2.71-.69c-3-1.65-12-5.71-31.19-7.63l-.58-.06a.26.26,0,0,1-.24-.29v-.44a.07.07,0,0,1,.07-.08h2.87v-.9Z"/><path class="cls-3" d="M88.76,15.8H70v3.51H83.64a.56.56,0,0,0,.56-.56v-.23A1.52,1.52,0,0,1,85.72,17h3a.35.35,0,0,0,.35-.34v-.53A.35.35,0,0,0,88.76,15.8Z"/><path class="cls-4" d="M42.72,17.7a1,1,0,0,1,1,1v.73a.88.88,0,0,1-.79.86c-19.43,1.85-28.54,5.89-31.66,7.62A6.66,6.66,0,0,1,8,28.69H5.41a4.49,4.49,0,0,0-4.5,4.48v7.69H.38a.4.4,0,0,1-.27-.11A.37.37,0,0,1,0,40.48V33.17a5.39,5.39,0,0,1,5.41-5.38H8.08a5.6,5.6,0,0,0,2.71-.69c3-1.65,12-5.71,31.19-7.63l.58-.06a.26.26,0,0,0,.24-.29v-.44a.08.08,0,0,0-.08-.08H39.85v-.9Z"/><path class="cls-5" d="M39.85,15.8H58.64v3.51H45a.56.56,0,0,1-.57-.56v-.23A1.52,1.52,0,0,0,42.89,17h-3a.34.34,0,0,1-.34-.34v-.53A.34.34,0,0,1,39.85,15.8Z"/><polygon class="cls-6" points="29.59 17.71 29.59 22.09 21.65 23.92 21.65 17.71 29.59 17.71"/><polygon class="cls-7" points="28.65 17.71 28.63 22.33 22.62 23.7 22.59 17.71 28.65 17.71"/><path class="cls-8" d="M25.53,10.87V4.93A4.67,4.67,0,0,0,20.87.26H6.13"/><rect class="cls-9" x="18.2" y="15.82" width="14.63" height="1.39"/><ellipse class="cls-10" cx="28.42" cy="15.86" rx="2.65" ry="0.03"/><path class="cls-11" d="M24.47,117.28V17.22h2.08V117.28c0,.25-.46.45-1,.45h0C24.94,117.73,24.47,117.53,24.47,117.28Z"/><rect class="cls-12" x="24.89" y="6.85" width="1.28" height="0.53" transform="translate(51.07 14.22) rotate(180)"/><rect class="cls-13" x="23.56" y="10.87" width="3.95" height="5.98" transform="translate(39.39 -11.68) rotate(90)"/><path class="cls-14" d="M24.67,5.47H26.4a0,0,0,0,1,0,0V6.68A.37.37,0,0,1,26,7H25a.37.37,0,0,1-.37-.37V5.47A0,0,0,0,1,24.67,5.47Z" transform="translate(51.07 12.52) rotate(180)"/><rect class="cls-15" x="24.67" y="7.27" width="1.72" height="1.88" transform="translate(51.07 16.42) rotate(180)"/><rect class="cls-16" x="24.4" y="9.36" width="2.26" height="1.88" transform="translate(51.07 20.59) rotate(180)"/><path class="cls-17" d="M24.31,9.08h2.44a0,0,0,0,1,0,0v.16a.32.32,0,0,1-.32.32h-1.8a.32.32,0,0,1-.32-.32V9.08A0,0,0,0,1,24.31,9.08Z" transform="translate(51.07 18.63) rotate(180)"/><rect class="cls-18" x="24.31" y="9.73" width="2.44" height="0.4" transform="translate(51.07 19.86) rotate(180)"/><rect class="cls-19" x="24.31" y="10.29" width="2.44" height="0.4" transform="translate(51.07 20.99) rotate(180)"/><rect class="cls-20" x="24.31" y="10.86" width="2.44" height="0.4" transform="translate(51.07 22.12) rotate(180)"/><rect class="cls-21" x="25.43" y="9.14" width="0.21" height="4.59" transform="translate(36.96 -14.1) rotate(90)"/><rect class="cls-22" x="25.38" y="9.44" width="0.3" height="4.59" transform="translate(37.26 -13.8) rotate(90)"/><ellipse class="cls-10" cx="26.88" cy="11.89" rx="1.21" ry="0.02"/><ellipse class="cls-10" cx="25.88" cy="7.27" rx="0.43"/><ellipse class="cls-10" cx="25.88" cy="10.86" rx="0.43" ry="0.01"/><ellipse class="cls-10" cx="25.88" cy="10.3" rx="0.43" ry="0.01"/><ellipse class="cls-10" cx="25.88" cy="9.73" rx="0.43" ry="0.01"/><ellipse class="cls-10" cx="25.88" cy="9.08" rx="0.43" ry="0.01"/></g></g></svg>