<svg xmlns="http://www.w3.org/2000/svg" xmlns:xlink="http://www.w3.org/1999/xlink" viewBox="0 0 11.36 25.01"><defs><style>.cls-1,.cls-5{opacity:0.64;}.cls-1{fill:url(#linear-gradient);}.cls-2{fill:url(#linear-gradient-2);}.cls-3{fill:url(#linear-gradient-3);}.cls-4{fill:url(#linear-gradient-4);}.cls-5{fill:url(#linear-gradient-5);}</style><linearGradient id="linear-gradient" x1="4.5" y1="16.12" x2="6.86" y2="16.12" gradientUnits="userSpaceOnUse"><stop offset="0" stop-color="#9999bd"/><stop offset="0.19" stop-color="#e6e6ff"/><stop offset="0.26" stop-color="#d9daff"/><stop offset="0.45" stop-color="#dcddff"/><stop offset="0.59" stop-color="#e5e5ff"/><stop offset="0.6" stop-color="#e6e6ff"/><stop offset="0.7" stop-color="#d1d1ec"/><stop offset="0.9" stop-color="#9b9bbd"/><stop offset="1" stop-color="#8080a4"/></linearGradient><linearGradient id="linear-gradient-2" x1="1.73" y1="6.13" x2="9.63" y2="6.13" gradientUnits="userSpaceOnUse"><stop offset="0" stop-color="#da4e22"/><stop offset="0.19" stop-color="#da823a"/><stop offset="0.26" stop-color="#da8d5a"/><stop offset="0.4" stop-color="#da8c57"/><stop offset="0.5" stop-color="#da894e"/><stop offset="0.58" stop-color="#da843e"/><stop offset="0.6" stop-color="#da823a"/><stop offset="0.73" stop-color="#da6d2e"/><stop offset="0.99" stop-color="#da370e"/><stop offset="1" stop-color="#da350d"/></linearGradient><linearGradient id="linear-gradient-3" y1="0.4" x2="11.36" y2="0.4" gradientUnits="userSpaceOnUse"><stop offset="0" stop-color="#ff5b28"/><stop offset="0.08" stop-color="#ff9844"/><stop offset="0.14" stop-color="#ffa56a"/><stop offset="0.2" stop-color="#ffa467"/><stop offset="0.25" stop-color="#ffa15e"/><stop offset="0.3" stop-color="#ff9c4e"/><stop offset="0.32" stop-color="#ff9844"/><stop offset="0.51" stop-color="#ff8338"/><stop offset="0.9" stop-color="#ff4d18"/><stop offset="1" stop-color="#ff3e0f"/></linearGradient><linearGradient id="linear-gradient-4" x1="1.73" y1="22.25" x2="9.63" y2="22.25" gradientUnits="userSpaceOnUse"><stop offset="0" stop-color="#d14533"/><stop offset="0.19" stop-color="#d1764a"/><stop offset="0.26" stop-color="#d18669"/><stop offset="0.4" stop-color="#d18566"/><stop offset="0.5" stop-color="#d1805d"/><stop offset="0.59" stop-color="#d1784d"/><stop offset="0.6" stop-color="#d1764a"/><stop offset="0.73" stop-color="#d1613e"/><stop offset="1" stop-color="#d12c1e"/></linearGradient><linearGradient id="linear-gradient-5" x1="1.01" y1="8.8" x2="10.35" y2="8.8" xlink:href="#linear-gradient"/></defs><g id="Layer_2" data-name="Layer 2"><g id="Layer_1-2" data-name="Layer 1"><path class="cls-1" d="M4.5,8.55H6.86a0,0,0,0,1,0,0V23a.69.69,0,0,1-.69.69h-1A.69.69,0,0,1,4.5,23V8.55A0,0,0,0,1,4.5,8.55Z"/><path class="cls-2" d="M9.25.42H2.11a.39.39,0,0,0-.38.39V11.46a.38.38,0,0,0,.38.38H3.26a.76.76,0,0,1,1.51,0H6.55a.76.76,0,0,1,1.51,0H9.25a.38.38,0,0,0,.38-.38V.81A.39.39,0,0,0,9.25.42Z"/><path class="cls-3" d="M10.66,0H.71A.71.71,0,0,0,0,.71v0a.1.1,0,0,0,.1.1H11.26a.09.09,0,0,0,.1-.1v0A.7.7,0,0,0,10.66,0Z"/><path class="cls-4" d="M9,19.48H2.4a.67.67,0,0,0-.67.67l.61,4.17A.64.64,0,0,0,2.9,25H8.46A.64.64,0,0,0,9,24.32l.6-4.17A.67.67,0,0,0,9,19.48Z"/><path class="cls-5" d="M1,2.32h9.34a0,0,0,0,1,0,0V14a1.26,1.26,0,0,1-1.26,1.26H2.28A1.26,1.26,0,0,1,1,14V2.32A0,0,0,0,1,1,2.32Z"/></g></g></svg>