<svg xmlns="http://www.w3.org/2000/svg" xmlns:xlink="http://www.w3.org/1999/xlink" viewBox="0 0 81.4 109.61"><defs><style>.cls-1,.cls-5{opacity:0.64;}.cls-1{fill:url(#linear-gradient);}.cls-2{fill:url(#linear-gradient-2);}.cls-3{fill:url(#linear-gradient-3);}.cls-4{fill:url(#linear-gradient-4);}.cls-5{fill:url(#linear-gradient-5);}.cls-6{fill:url(#linear-gradient-6);}.cls-7{fill:url(#linear-gradient-7);}</style><linearGradient id="linear-gradient" x1="39.52" y1="16.12" x2="41.88" y2="16.12" gradientUnits="userSpaceOnUse"><stop offset="0" stop-color="#9999bd"/><stop offset="0.19" stop-color="#e6e6ff"/><stop offset="0.26" stop-color="#d9daff"/><stop offset="0.45" stop-color="#dcddff"/><stop offset="0.59" stop-color="#e5e5ff"/><stop offset="0.6" stop-color="#e6e6ff"/><stop offset="0.7" stop-color="#d1d1ec"/><stop offset="0.9" stop-color="#9b9bbd"/><stop offset="1" stop-color="#8080a4"/></linearGradient><linearGradient id="linear-gradient-2" x1="36.75" y1="6.13" x2="44.65" y2="6.13" gradientUnits="userSpaceOnUse"><stop offset="0" stop-color="#da4e22"/><stop offset="0.19" stop-color="#da823a"/><stop offset="0.26" stop-color="#da8d5a"/><stop offset="0.4" stop-color="#da8c57"/><stop offset="0.5" stop-color="#da894e"/><stop offset="0.58" stop-color="#da843e"/><stop offset="0.6" stop-color="#da823a"/><stop offset="0.73" stop-color="#da6d2e"/><stop offset="0.99" stop-color="#da370e"/><stop offset="1" stop-color="#da350d"/></linearGradient><linearGradient id="linear-gradient-3" x1="35.02" y1="0.4" x2="46.38" y2="0.4" gradientUnits="userSpaceOnUse"><stop offset="0" stop-color="#ff5b28"/><stop offset="0.08" stop-color="#ff9844"/><stop offset="0.14" stop-color="#ffa56a"/><stop offset="0.2" stop-color="#ffa467"/><stop offset="0.25" stop-color="#ffa15e"/><stop offset="0.3" stop-color="#ff9c4e"/><stop offset="0.32" stop-color="#ff9844"/><stop offset="0.51" stop-color="#ff8338"/><stop offset="0.9" stop-color="#ff4d18"/><stop offset="1" stop-color="#ff3e0f"/></linearGradient><linearGradient id="linear-gradient-4" x1="36.75" y1="22.25" x2="44.65" y2="22.25" gradientUnits="userSpaceOnUse"><stop offset="0" stop-color="#d14533"/><stop offset="0.19" stop-color="#d1764a"/><stop offset="0.26" stop-color="#d18669"/><stop offset="0.4" stop-color="#d18566"/><stop offset="0.5" stop-color="#d1805d"/><stop offset="0.59" stop-color="#d1784d"/><stop offset="0.6" stop-color="#d1764a"/><stop offset="0.73" stop-color="#d1613e"/><stop offset="1" stop-color="#d12c1e"/></linearGradient><linearGradient id="linear-gradient-5" x1="36.03" y1="8.8" x2="45.37" y2="8.8" xlink:href="#linear-gradient"/><linearGradient id="linear-gradient-6" x1="5.36" y1="69.61" x2="76.04" y2="69.61" gradientUnits="userSpaceOnUse"><stop offset="0" stop-color="#999"/><stop offset="0.19" stop-color="#e6e6e6"/><stop offset="0.26" stop-color="#d9dadb"/><stop offset="0.45" stop-color="#dcdddd"/><stop offset="0.59" stop-color="#e5e5e5"/><stop offset="0.6" stop-color="#e6e6e6"/><stop offset="0.7" stop-color="#d1d1d1"/><stop offset="0.9" stop-color="#9b9b9b"/><stop offset="1" stop-color="gray"/></linearGradient><linearGradient id="linear-gradient-7" x1="0" y1="-1090.2" x2="81.4" y2="-1090.2" gradientTransform="matrix(1, 0, 0, -1, 0, -1065.39)" xlink:href="#linear-gradient-6"/></defs><g id="Layer_2" data-name="Layer 2"><g id="Layer_1-2" data-name="Layer 1"><path class="cls-1" d="M39.52,8.55h2.36a0,0,0,0,1,0,0V23a.69.69,0,0,1-.69.69h-1a.69.69,0,0,1-.69-.69V8.55A0,0,0,0,1,39.52,8.55Z"/><path class="cls-2" d="M44.27.42H37.13a.39.39,0,0,0-.38.39V11.46a.38.38,0,0,0,.38.38h1.15a.76.76,0,0,1,1.51,0h1.78a.76.76,0,0,1,1.51,0h1.19a.38.38,0,0,0,.38-.38V.81A.39.39,0,0,0,44.27.42Z"/><path class="cls-3" d="M45.68,0h-10a.7.7,0,0,0-.7.71v0a.09.09,0,0,0,.1.1H46.28a.09.09,0,0,0,.1-.1v0A.7.7,0,0,0,45.68,0Z"/><path class="cls-4" d="M44,19.48H37.42a.67.67,0,0,0-.67.67l.6,4.17a.64.64,0,0,0,.57.69h5.56a.64.64,0,0,0,.57-.69l.6-4.17A.67.67,0,0,0,44,19.48Z"/><path class="cls-5" d="M36,2.32h9.34a0,0,0,0,1,0,0V14a1.26,1.26,0,0,1-1.26,1.26H37.3A1.26,1.26,0,0,1,36,14V2.32A0,0,0,0,1,36,2.32Z"/><path class="cls-6" d="M71.09,109.61H10.31A2.29,2.29,0,0,1,8,107.39L5.36,29.62H76l-2.66,77.77A2.29,2.29,0,0,1,71.09,109.61Z"/><path class="cls-7" d="M78.11,20.86H3.29a.63.63,0,0,0-.58.39L.05,27.9a.62.62,0,0,0,.58.86H80.77a.62.62,0,0,0,.58-.86l-2.66-6.65A.63.63,0,0,0,78.11,20.86Z"/></g></g></svg>