<svg xmlns="http://www.w3.org/2000/svg" xmlns:xlink="http://www.w3.org/1999/xlink" viewBox="0 0 86.26 140.45"><defs><style>.cls-1{fill:url(#linear-gradient);}.cls-2{fill:url(#linear-gradient-2);}.cls-3{fill:url(#linear-gradient-3);}.cls-4{fill:url(#linear-gradient-4);}.cls-5{fill:url(#linear-gradient-5);}.cls-6{fill:url(#linear-gradient-6);}.cls-7{fill:url(#linear-gradient-7);}.cls-8{fill:url(#linear-gradient-8);}.cls-10,.cls-9{fill:none;stroke:#fff;stroke-linecap:round;stroke-miterlimit:10;}.cls-9{stroke-width:0.05px;}.cls-10{stroke-width:0.08px;}.cls-11{fill:#fff;}.cls-12{fill:red;}.cls-13{fill:url(#linear-gradient-9);}.cls-14{fill:url(#linear-gradient-10);}.cls-15{fill:url(#linear-gradient-11);}.cls-16{fill:url(#linear-gradient-12);}.cls-17{opacity:0.75;}.cls-18{fill:#666;}.cls-19{fill:url(#linear-gradient-13);}.cls-20{fill:url(#linear-gradient-14);}.cls-21{fill:url(#linear-gradient-15);}.cls-22{fill:url(#linear-gradient-16);}.cls-23{fill:url(#linear-gradient-17);}.cls-24{fill:url(#linear-gradient-18);}.cls-25{fill:url(#linear-gradient-19);}.cls-26{fill:url(#linear-gradient-20);}.cls-27{fill:url(#linear-gradient-21);}.cls-28{fill:url(#linear-gradient-22);}.cls-29{fill:url(#linear-gradient-23);}.cls-30{fill:url(#linear-gradient-24);}.cls-31{fill:url(#linear-gradient-25);}.cls-32{fill:url(#linear-gradient-26);}.cls-33{fill:url(#linear-gradient-27);}.cls-34{fill:url(#linear-gradient-28);}.cls-35{fill:url(#linear-gradient-29);}.cls-36{fill:url(#linear-gradient-30);}.cls-37{fill:url(#linear-gradient-31);}.cls-38{fill:url(#linear-gradient-32);}.cls-39{fill:url(#linear-gradient-33);}.cls-40{fill:url(#linear-gradient-34);}.cls-41{fill:url(#linear-gradient-35);}.cls-42{fill:url(#linear-gradient-36);}.cls-43{fill:url(#linear-gradient-37);}.cls-44{fill:url(#linear-gradient-38);}.cls-45{fill:url(#linear-gradient-39);}.cls-46{fill:url(#linear-gradient-40);}.cls-47{fill:#ccc;}</style><linearGradient id="linear-gradient" x1="42.64" y1="-0.07" x2="42.64" y2="3.03" gradientUnits="userSpaceOnUse"><stop offset="0" stop-color="#3e3f40"/><stop offset="0.13" stop-color="#6a6c6e"/><stop offset="0.27" stop-color="#d9dadb"/><stop offset="0.28" stop-color="#d6d7d8"/><stop offset="0.37" stop-color="#a4a6a7"/><stop offset="0.41" stop-color="#a8a8a8"/><stop offset="0.49" stop-color="#8e8e8e"/><stop offset="0.68" stop-color="#747577"/><stop offset="0.7" stop-color="#707172"/><stop offset="0.74" stop-color="#686868"/><stop offset="0.82" stop-color="#939393"/><stop offset="0.93" stop-color="#5b5b5b"/><stop offset="1" stop-color="#373839"/></linearGradient><linearGradient id="linear-gradient-2" x1="-4" y1="127.03" x2="132.32" y2="-54.29" xlink:href="#linear-gradient"/><linearGradient id="linear-gradient-3" x1="36.12" y1="143.03" x2="64.57" y2="68.25" gradientUnits="userSpaceOnUse"><stop offset="0" stop-color="#1a1a1a"/><stop offset="0.08" stop-color="#1a1a1a"/><stop offset="0.27" stop-color="#4d4d4d"/><stop offset="0.37" stop-color="#333"/><stop offset="0.41" stop-color="#333"/><stop offset="0.49" stop-color="#4d4d4d"/><stop offset="0.68" stop-color="#333"/><stop offset="0.74" stop-color="#333"/><stop offset="0.82" stop-color="#4d4d4d"/><stop offset="0.93" stop-color="#1a1a1a"/><stop offset="1" stop-color="#1a1a1a"/></linearGradient><linearGradient id="linear-gradient-4" x1="0.89" y1="64.55" x2="85.37" y2="64.55" gradientUnits="userSpaceOnUse"><stop offset="0.88" stop-opacity="0"/><stop offset="0.92" stop-color="#070707" stop-opacity="0.06"/><stop offset="0.96" stop-color="#1b1b1b" stop-opacity="0.27"/><stop offset="0.99" stop-color="#333" stop-opacity="0.5"/></linearGradient><linearGradient id="linear-gradient-5" x1="136.39" y1="258.12" x2="220.87" y2="258.12" gradientTransform="translate(221.76 322.51) rotate(180)" gradientUnits="userSpaceOnUse"><stop offset="0.88" stop-color="#fff" stop-opacity="0"/><stop offset="0.9" stop-color="#fff" stop-opacity="0.01"/><stop offset="0.92" stop-color="#fff" stop-opacity="0.05"/><stop offset="0.94" stop-color="#fff" stop-opacity="0.12"/><stop offset="0.95" stop-color="#fff" stop-opacity="0.22"/><stop offset="0.97" stop-color="#fff" stop-opacity="0.34"/><stop offset="0.98" stop-color="#fff" stop-opacity="0.49"/><stop offset="0.98" stop-color="#fff" stop-opacity="0.5"/></linearGradient><linearGradient id="linear-gradient-6" x1="37.61" y1="23.65" x2="63.55" y2="-45.94" xlink:href="#linear-gradient-3"/><linearGradient id="linear-gradient-7" x1="43.13" y1="8.09" x2="43.13" y2="-13" xlink:href="#linear-gradient-3"/><linearGradient id="linear-gradient-8" x1="11.7" y1="4.22" x2="74.56" y2="4.22" gradientUnits="userSpaceOnUse"><stop offset="0.01" stop-color="#1a1a1a"/><stop offset="0.03" stop-color="#4d4d4d"/><stop offset="0.04" stop-color="#333"/><stop offset="0.25" stop-color="#333"/><stop offset="0.7" stop-color="#666"/><stop offset="0.96" stop-color="#1a1a1a"/><stop offset="0.97" stop-color="#4d4d4d"/><stop offset="1" stop-color="#1a1a1a"/></linearGradient><linearGradient id="linear-gradient-9" x1="10.85" y1="145.58" x2="16.07" y2="131.84" gradientUnits="userSpaceOnUse"><stop offset="0" stop-color="#1a1a1a"/><stop offset="0.08" stop-color="#1a1a1a"/><stop offset="0.27" stop-color="#4d4d4d"/><stop offset="0.37" stop-color="#333"/><stop offset="0.41" stop-color="#333"/><stop offset="0.49" stop-color="#4d4d4d"/><stop offset="0.65" stop-color="#333"/><stop offset="0.8" stop-color="#333"/><stop offset="0.82" stop-color="#4d4d4d"/><stop offset="0.93" stop-color="#1a1a1a"/></linearGradient><linearGradient id="linear-gradient-10" x1="15.07" y1="132.8" x2="15.11" y2="140.82" xlink:href="#linear-gradient-3"/><linearGradient id="linear-gradient-11" x1="66.93" y1="145.58" x2="72.16" y2="131.84" xlink:href="#linear-gradient-9"/><linearGradient id="linear-gradient-12" x1="71.16" y1="132.8" x2="71.2" y2="140.82" xlink:href="#linear-gradient-3"/><linearGradient id="linear-gradient-13" x1="26.69" y1="37.86" x2="60.77" y2="23.47" xlink:href="#linear-gradient"/><linearGradient id="linear-gradient-14" x1="34.84" y1="43.73" x2="48.79" y2="12.52" xlink:href="#linear-gradient"/><linearGradient id="linear-gradient-15" x1="28.87" y1="41.06" x2="42.82" y2="9.85" xlink:href="#linear-gradient"/><linearGradient id="linear-gradient-16" x1="46.78" y1="49.07" x2="60.73" y2="17.86" xlink:href="#linear-gradient"/><linearGradient id="linear-gradient-17" x1="40.67" y1="46.34" x2="54.62" y2="15.13" xlink:href="#linear-gradient"/><linearGradient id="linear-gradient-18" x1="31.31" y1="42.15" x2="45.26" y2="10.94" xlink:href="#linear-gradient"/><linearGradient id="linear-gradient-19" x1="32.65" y1="42.76" x2="46.6" y2="11.54" xlink:href="#linear-gradient"/><linearGradient id="linear-gradient-20" x1="34.42" y1="43.55" x2="48.37" y2="12.33" xlink:href="#linear-gradient"/><linearGradient id="linear-gradient-21" x1="36.2" y1="44.34" x2="50.15" y2="13.13" xlink:href="#linear-gradient"/><linearGradient id="linear-gradient-22" x1="38.69" y1="45.45" x2="52.64" y2="14.24" xlink:href="#linear-gradient"/><linearGradient id="linear-gradient-23" x1="42.3" y1="47.07" x2="56.25" y2="15.86" xlink:href="#linear-gradient"/><linearGradient id="linear-gradient-24" x1="44.54" y1="48.07" x2="58.49" y2="16.86" xlink:href="#linear-gradient"/><linearGradient id="linear-gradient-25" x1="31.27" y1="42.14" x2="45.22" y2="10.92" xlink:href="#linear-gradient"/><linearGradient id="linear-gradient-26" x1="32.06" y1="42.49" x2="46.01" y2="11.28" xlink:href="#linear-gradient"/><linearGradient id="linear-gradient-27" x1="32.77" y1="42.81" x2="46.72" y2="11.6" xlink:href="#linear-gradient"/><linearGradient id="linear-gradient-28" x1="35.2" y1="43.9" x2="49.15" y2="12.68" xlink:href="#linear-gradient"/><linearGradient id="linear-gradient-29" x1="36.47" y1="44.46" x2="50.42" y2="13.25" xlink:href="#linear-gradient"/><linearGradient id="linear-gradient-30" x1="37.12" y1="44.75" x2="51.07" y2="13.54" gradientTransform="translate(75.75 -6.18) rotate(88.28)" xlink:href="#linear-gradient"/><linearGradient id="linear-gradient-31" x1="37.86" y1="45.09" x2="51.82" y2="13.87" xlink:href="#linear-gradient"/><linearGradient id="linear-gradient-32" x1="39.28" y1="45.72" x2="53.23" y2="14.51" xlink:href="#linear-gradient"/><linearGradient id="linear-gradient-33" x1="34.03" y1="43.37" x2="47.98" y2="12.16" xlink:href="#linear-gradient"/><linearGradient id="linear-gradient-34" x1="40.33" y1="46.19" x2="54.29" y2="14.98" xlink:href="#linear-gradient"/><linearGradient id="linear-gradient-35" x1="41.24" y1="46.59" x2="55.19" y2="15.38" xlink:href="#linear-gradient"/><linearGradient id="linear-gradient-36" x1="42.22" y1="47.03" x2="56.17" y2="15.82" xlink:href="#linear-gradient"/><linearGradient id="linear-gradient-37" x1="43.29" y1="47.51" x2="57.24" y2="16.3" gradientTransform="translate(4.47 -5.4) rotate(6.67)" xlink:href="#linear-gradient"/><linearGradient id="linear-gradient-38" x1="43.98" y1="47.82" x2="57.93" y2="16.61" xlink:href="#linear-gradient"/><linearGradient id="linear-gradient-39" x1="45.02" y1="48.28" x2="58.97" y2="17.07" xlink:href="#linear-gradient"/><linearGradient id="linear-gradient-40" x1="26.29" y1="39.91" x2="40.24" y2="8.7" xlink:href="#linear-gradient"/></defs><g id="Layer_2" data-name="Layer 2"><g id="Layer_1-2" data-name="Layer 1"><rect class="cls-1" x="29.3" width="26.69" height="6.92" rx="3.19"/><rect class="cls-2" x="0.89" y="9.74" width="84.48" height="109.19"/><rect class="cls-3" y="119.37" width="86.26" height="10.46" rx="1.04"/><rect class="cls-4" x="0.89" y="9.74" width="84.48" height="109.63"/><rect class="cls-5" x="0.89" y="9.74" width="84.48" height="109.3"/><path class="cls-6" d="M.45,8.09H85.81a0,0,0,0,1,0,0V9.55a.19.19,0,0,1-.19.19H.64a.19.19,0,0,1-.19-.19V8.09a0,0,0,0,1,0,0Z"/><path class="cls-7" d="M80.17,2a.75.75,0,0,0-.55-.22H74.56L72.93,6.38a.49.49,0,0,1-.46.33H13.79a.48.48,0,0,1-.46-.33L11.7,1.73H6.63A.74.74,0,0,0,6.09,2L.45,8.09H85.81Z"/><path class="cls-8" d="M13.79,6.71H72.47a.49.49,0,0,0,.46-.33l1.63-4.65H11.7l1.63,4.65A.48.48,0,0,0,13.79,6.71Z"/><ellipse class="cls-9" cx="16.48" cy="4.32" rx="1.73" ry="1.2"/><path class="cls-10" d="M17.09,3.84a.56.56,0,0,1,.3.47c0,.35-.41.63-.91.63s-.91-.28-.91-.63a.58.58,0,0,1,.32-.48"/><line class="cls-10" x1="16.48" y1="4.39" x2="16.48" y2="3.58"/><path class="cls-11" d="M22.35,5.52c-1,0-1.79-.56-1.79-1.24s.8-1.23,1.79-1.23,1.8.55,1.8,1.23S23.35,5.52,22.35,5.52Zm0-2.38c-.91,0-1.66.51-1.66,1.14s.75,1.14,1.66,1.14S24,4.91,24,4.28,23.27,3.14,22.35,3.14Z"/><path class="cls-11" d="M22.3,4.9V3.81L21.94,4v-.2l.36-.22h.27V4.9Z"/><path class="cls-11" d="M28.23,5.52c-1,0-1.8-.56-1.8-1.24s.8-1.23,1.8-1.23S30,3.6,30,4.28,29.22,5.52,28.23,5.52Zm0-2.38c-.92,0-1.67.51-1.67,1.14s.75,1.14,1.67,1.14,1.66-.51,1.66-1.14S29.14,3.14,28.23,3.14Z"/><path class="cls-11" d="M27.71,4.9V4.73l.72-.6.08-.08a.29.29,0,0,0,0-.09.15.15,0,0,0-.07-.14.3.3,0,0,0-.2-.06h-.1a.19.19,0,0,0-.09,0,.09.09,0,0,0-.06.06A.16.16,0,0,0,28,4h-.27a.42.42,0,0,1,0-.15.43.43,0,0,1,.12-.11A.44.44,0,0,1,28,3.63a.78.78,0,0,1,.22,0l.22,0a.45.45,0,0,1,.17.08.29.29,0,0,1,.11.11.26.26,0,0,1,0,.15.24.24,0,0,1,0,.15.92.92,0,0,1-.14.13L28,4.73h.76V4.9Z"/><path class="cls-11" d="M34.1,5.52c-1,0-1.8-.56-1.8-1.24s.81-1.23,1.8-1.23,1.8.55,1.8,1.23S35.09,5.52,34.1,5.52Zm0-2.38c-.92,0-1.67.51-1.67,1.14s.75,1.14,1.67,1.14,1.66-.51,1.66-1.14S35,3.14,34.1,3.14Z"/><path class="cls-11" d="M34.71,4.53a.25.25,0,0,1-.05.17.43.43,0,0,1-.12.11.49.49,0,0,1-.18.08l-.22,0-.22,0a1,1,0,0,1-.18-.07.69.69,0,0,1-.13-.11.3.3,0,0,1,0-.16h.27a.16.16,0,0,0,0,.09l.07.06.09,0h.12a.41.41,0,0,0,.21,0,.18.18,0,0,0,.09-.16.16.16,0,0,0-.07-.15.43.43,0,0,0-.24-.06h0V4.16h0a.29.29,0,0,0,.21-.06A.15.15,0,0,0,34.41,4a.17.17,0,0,0-.08-.15.38.38,0,0,0-.19-.05.37.37,0,0,0-.2.05.16.16,0,0,0-.08.14h-.27a.25.25,0,0,1,0-.15.43.43,0,0,1,.12-.11l.17-.07a.68.68,0,0,1,.21,0l.21,0a.49.49,0,0,1,.18.08.38.38,0,0,1,.11.11.26.26,0,0,1,0,.15.27.27,0,0,1-.06.17.4.4,0,0,1-.17.1.5.5,0,0,1,.19.11A.25.25,0,0,1,34.71,4.53Z"/><path class="cls-11" d="M40,5.52c-1,0-1.8-.56-1.8-1.24S39,3.05,40,3.05s1.8.55,1.8,1.23S41,5.52,40,5.52Zm0-2.38c-.92,0-1.67.51-1.67,1.14S39.05,5.42,40,5.42s1.67-.51,1.67-1.14S40.89,3.14,40,3.14Z"/><path class="cls-11" d="M40.29,4.7v.2H40V4.7h-.76V4.53l.66-.92h.29l-.66.92H40v-.3h.26v.3h.2V4.7Z"/><path class="cls-11" d="M57.66,5.52c-1,0-1.8-.56-1.8-1.24s.8-1.23,1.8-1.23,1.79.55,1.79,1.23S58.65,5.52,57.66,5.52Zm0-2.38c-.92,0-1.67.51-1.67,1.14s.75,1.15,1.67,1.15,1.66-.52,1.66-1.15S58.57,3.14,57.66,3.14Z"/><path class="cls-11" d="M57.62,3.76l-.73.88s0,.08,0,.08h1.45s.07,0,0-.08l-.73-.88A0,0,0,0,0,57.62,3.76Z"/><path class="cls-11" d="M63.89,5.52c-1,0-1.8-.56-1.8-1.24s.81-1.23,1.8-1.23,1.8.55,1.8,1.23S64.88,5.52,63.89,5.52Zm0-2.38c-.92,0-1.67.51-1.67,1.14S63,5.43,63.89,5.43s1.67-.52,1.67-1.15S64.81,3.14,63.89,3.14Z"/><path class="cls-11" d="M63.93,4.85,64.66,4a.05.05,0,0,0,0-.08H63.16a0,0,0,0,0,0,.08l.72.88A.06.06,0,0,0,63.93,4.85Z"/><path class="cls-11" d="M69.4,5.52c-1,0-1.8-.56-1.8-1.24s.81-1.23,1.8-1.23,1.8.55,1.8,1.23S70.39,5.52,69.4,5.52Zm0-2.38c-.92,0-1.67.51-1.67,1.14s.75,1.15,1.67,1.15,1.67-.52,1.67-1.15S70.32,3.14,69.4,3.14Z"/><path class="cls-11" d="M68.87,4.47a.17.17,0,0,1,0,.1.24.24,0,0,1-.09.08.4.4,0,0,1-.13,0l-.16,0a.8.8,0,0,1-.23,0,.48.48,0,0,1-.18-.08l.12-.08a.31.31,0,0,0,.13.06l.16,0a.42.42,0,0,0,.18,0,.1.1,0,0,0,.06-.09.11.11,0,0,0,0-.09l-.12,0h-.14a.52.52,0,0,1-.21-.07.16.16,0,0,1-.09-.15.16.16,0,0,1,0-.09A.27.27,0,0,1,68.19,4l.12,0h.16a.59.59,0,0,1,.2,0,.46.46,0,0,1,.16.07l-.11.07a.21.21,0,0,0-.12,0l-.13,0a.25.25,0,0,0-.16,0,.11.11,0,0,0,0,.09.06.06,0,0,0,0,0l0,0,0,0,.08,0h.13l.13,0,.09,0A.18.18,0,0,1,68.87,4.47Z"/><path class="cls-11" d="M69.1,4.7V3.9h.73V4h-.55v.24h.47v.1h-.47v.24h.55V4.7Z"/><path class="cls-11" d="M70.46,4V4.7h-.17V4H70V3.9h.8V4Z"/><rect class="cls-11" x="44.85" y="2.59" width="1.29" height="0.05"/><polygon class="cls-11" points="45.92 2.86 45.01 2.4 45.08 2.37 45.99 2.83 45.92 2.86"/><rect class="cls-11" x="45.45" y="2.29" width="0.1" height="0.64"/><polygon class="cls-11" points="45.08 2.86 45.01 2.83 45.92 2.37 45.99 2.4 45.08 2.86"/><path class="cls-11" d="M49.11,2.49a.08.08,0,0,1,0,0l-.06,0-.09,0h-.22l-.09,0a.1.1,0,0,1-.06,0s0,0,0,0a.07.07,0,0,1,0-.06.15.15,0,0,1,.06,0l.09,0h.22l.09,0,.06,0A.14.14,0,0,1,49.11,2.49Zm-.14,0a0,0,0,0,0,0,0l0,0,0,0h-.05a.2.2,0,0,0-.11,0,.05.05,0,0,0,0,.1.2.2,0,0,0,.11,0,.16.16,0,0,0,.1,0A.05.05,0,0,0,49,2.49Z"/><path class="cls-11" d="M50,2.76a.23.23,0,0,1-.14.13.76.76,0,0,1-.27,0l-.17,0-.13,0a.15.15,0,0,1-.06,0l0,0s0,0,0-.07V2.57s0,0,0-.07l0,0s0,0,.06,0l.13,0,.17,0a.68.68,0,0,1,.27,0,.23.23,0,0,1,.14.13h-.18s0,0-.08-.07a.31.31,0,0,0-.15,0,.29.29,0,0,0-.17,0l0,0,0,0a.09.09,0,0,1,0,0v.15a.09.09,0,0,1,0,0l0,0,0,0a.29.29,0,0,0,.17,0,.38.38,0,0,0,.16,0,.27.27,0,0,0,.08-.07Z"/><path class="cls-12" d="M46,4.56l.15.07L46,4.7h-.86L45,4.63l.15-.07Z"/><path class="cls-12" d="M47.06,3.65v.69l-.14.06-.14-.06V3.65l.14-.06Zm0,.85v.69l-.14.06-.14-.06V4.5l.14-.07Zm1.51-1,.15.06-.15.07H47.09L47,3.57l.14-.06Zm0,.84.15.07-.15.07H47.1L47,4.42l.15-.07Zm0,.85.15.06-.15.07H47.1L47,5.26l.15-.06Zm.31-.7v.69l-.14.06-.14-.06V4.5l.14-.07Z"/><path class="cls-12" d="M49.78,3.65v.69l-.14.06-.14-.06V3.65l.14-.06Zm0,.85v.69l-.14.06-.14-.06V4.5l.14-.07Zm1.51-1,.15.06-.15.07H49.82l-.15-.07.15-.06Zm0,.84.15.07-.15.07H49.82l-.14-.07.14-.07Zm0,.85.15.06-.15.07H49.82l-.14-.07.14-.06Zm.32-.7v.69l-.14.06-.14-.06V4.5l.14-.07Z"/><polygon class="cls-13" points="11.28 129.83 11.28 139.03 12.67 139.03 12.67 132.52 17.51 132.52 17.51 139.03 18.9 139.03 18.9 129.83 11.28 129.83"/><rect class="cls-14" x="13.16" y="132.77" width="3.86" height="7.68"/><polygon class="cls-15" points="67.37 129.83 67.37 139.03 68.76 139.03 68.76 132.52 73.59 132.52 73.59 139.03 74.98 139.03 74.98 129.83 67.37 129.83"/><rect class="cls-16" x="69.25" y="132.77" width="3.86" height="7.68"/><g class="cls-17"><path class="cls-11" d="M42.6,24.52c-9.79,0-15.41,2.73-15.41,2.73v8.17s5.67,2.72,15.41,2.72S58,35.39,58,35.39V27.22s-5.6-2.7-15.4-2.7M57.37,34.93A39.47,39.47,0,0,1,42.6,37.46,40.08,40.08,0,0,1,27.82,35V27.71A39.73,39.73,0,0,1,42.6,25.2a39.81,39.81,0,0,1,14.77,2.48Z"/><path class="cls-11" d="M41.2,25.82c-.46,0-.92.08-1.37.13-.21,0-.21,0-.21.16v.16c0,.13,0,.13.21.11l.26,0c.09,0,.09,0,.09,0v1.15c0,.14,0,.14.21.14h.28c.21,0,.21,0,.21-.14v-1.2c0-.06,0-.06.08-.06h.24c.21,0,.21,0,.21-.15V26c0-.14,0-.14-.21-.13m2.07,0H43c-.21,0-.21,0-.21.14v.48c0,.09,0,.09-.14.09h-.12c-.13,0-.13,0-.13-.09v-.49c0-.14,0-.14-.21-.13H41.9c-.21,0-.21,0-.21.15v1.61c0,.14,0,.14.21.14h.29c.21,0,.21,0,.21-.14V27c0-.09,0-.08.13-.08h.11c.14,0,.14,0,.14.08v.56c0,.09,0,.09.13.09h.36c.21,0,.21,0,.21-.14V25.94c0-.13,0-.14-.21-.14m1.37.53.57.05c.21,0,.21,0,.21-.11v-.16c0-.13,0-.13-.21-.16-.4-.05-.8-.09-1.2-.11-.21,0-.21,0-.21.12v1.59c0,.14,0,.14.21.14h1.2c.21,0,.21,0,.21-.13V27.4c0-.13,0-.13-.21-.13l-.58,0c-.13,0-.13,0-.13-.09v-.08c0-.08,0-.08.13-.08L45,27c.21,0,.21,0,.21-.12v-.16c0-.13,0-.13-.21-.15l-.38,0c-.14,0-.14,0-.14-.1V26.4c0-.08,0-.08.14-.07"/><path class="cls-11" d="M33.57,28.42a.69.69,0,0,1,.68.68v1.78a.63.63,0,0,1-.4.65l.77,2.59h-.77l-.73-2.52h-.27v2.52h-.73v-5.7Zm-.72.71v1.75h.49a.17.17,0,0,0,.18-.17v-1.4a.18.18,0,0,0-.18-.18Z"/><path class="cls-11" d="M55.06,28.42a.69.69,0,0,1,.68.68v1.78a.63.63,0,0,1-.4.65l.77,2.59h-.77L54.6,31.6h-.26v2.52h-.73v-5.7Zm-.72.71v1.75h.49a.16.16,0,0,0,.17-.17v-1.4a.17.17,0,0,0-.17-.18Z"/><path class="cls-11" d="M47.73,28.42a.68.68,0,0,1,.67.68v1.78a.63.63,0,0,1-.4.65l.78,2.59H48l-.73-2.52H47v2.52h-.73v-5.7Zm-.72.71v1.75h.49a.16.16,0,0,0,.17-.17v-1.4a.17.17,0,0,0-.17-.18Z"/><path class="cls-11" d="M35.49,28.42h.9l.72,5.7h-.74l-.15-1.26h-.59l-.13,1.26h-.74Zm.22,3.76h.43l-.21-1.89h0Z"/><rect class="cls-11" x="37.55" y="28.42" width="0.73" height="5.7"/><polygon class="cls-11" points="40.41 31.62 40.42 31.62 40.39 30.45 40.39 28.42 41.08 28.42 41.08 34.12 40.42 34.12 39.66 30.92 39.66 30.92 39.69 32.09 39.69 34.12 38.99 34.12 38.99 28.42 39.65 28.42 40.41 31.62"/><polygon class="cls-11" points="41.81 28.42 43.62 28.42 43.62 29.13 42.54 29.13 42.54 30.92 43.54 30.92 43.54 31.63 42.54 31.63 42.54 34.12 41.81 34.12 41.81 28.42"/><path class="cls-11" d="M44.35,28.42h.9l.72,5.7h-.75l-.14-1.26h-.59l-.14,1.26h-.73Zm.22,3.76H45l-.21-1.89h0Z"/><polygon class="cls-11" points="48.8 28.42 50.84 28.42 50.84 29.13 50.18 29.13 50.18 34.12 49.45 34.12 49.45 29.13 48.8 29.13 48.8 28.42"/><polygon class="cls-11" points="51.25 28.42 53.09 28.42 53.09 29.13 51.98 29.13 51.98 30.92 53.02 30.92 53.02 31.63 51.98 31.63 51.98 33.41 53.09 33.41 53.09 34.12 51.25 34.12 51.25 28.42"/><path class="cls-11" d="M34,35.94c-.07,0-.07,0-.1.06l-.05.11c0,.07,0,.07-.1,0l-.24,0c-.06,0-.07,0,0-.1L34,34.74c0-.07,0-.06.12-.05l.28,0c.08,0,.09,0,.1.09.07.52.11.86.17,1.39,0,.08,0,.1-.07.09l-.23,0c-.08,0-.08,0-.09-.08v-.12c0-.08,0-.08-.09-.09Zm.23-.36s0,0,0,0l0-.29s0,0,0,0l0,0-.11.27s0,0,0,0Z"/><path class="cls-11" d="M35.28,34.85c.11,0,.11,0,.1.12l-.12,1c0,.07,0,.07.06.08l.12,0c.11,0,.11,0,.09.13l0,.14c0,.11,0,.11-.12.09l-.45,0c-.11,0-.11,0-.09-.13L35,34.93c0-.12,0-.12.13-.1Z"/><path class="cls-11" d="M36.08,34.94c.11,0,.11,0,.09.13l-.11,1c0,.07,0,.07.07.08l.11,0c.12,0,.12,0,.1.12v.14c0,.11,0,.11-.13.1l-.44-.05c-.11,0-.11,0-.1-.13L35.81,35c0-.11,0-.11.12-.1Z"/><path class="cls-11" d="M39,35.22a.34.34,0,0,1,.36.34v.15a.41.41,0,0,1-.2.34s0,0,0,0l.21.62c0,.06,0,.06-.05.06l-.28,0c-.07,0-.07,0-.09-.06l-.14-.43s0,0-.07,0l-.06,0s0,0,0,.07l0,.26c0,.12,0,.12-.12.11h-.16c-.11,0-.11,0-.1-.12l.09-1.29c0-.12,0-.12.12-.11Zm-.34.56c0,.12,0,.11.06.09l.17-.09c.09-.06.08-.21,0-.22h-.14c-.05,0-.06,0-.06,0Z"/><path class="cls-11" d="M40,36.54c-.08,0-.08,0-.1.07l0,.12c0,.06,0,.06-.1.06h-.24c-.06,0-.07,0,0-.09.17-.51.27-.84.44-1.34,0-.08,0-.07.11-.07h.29c.08,0,.08,0,.1.08.12.52.19.85.31,1.38,0,.07,0,.09-.06.08h-.23c-.08,0-.08,0-.1-.07l0-.12c0-.08,0-.08-.09-.08Zm.19-.38s0,0,0,0l-.05-.29,0,0a0,0,0,0,0,0,0l-.08.28s0,0,0,0Z"/><rect class="cls-11" x="40.36" y="35.89" width="1.52" height="0.38" rx="0.11" transform="translate(3.82 76.1) rotate(-88.28)"/><path class="cls-11" d="M42.12,35.75s.06,0,.07,0v-.28c0-.12,0-.12.11-.11h.15c.11,0,.11,0,.11.11l0,1.3c0,.11,0,.11-.12.11h-.14c-.11,0-.11,0-.11-.12v-.27s0,0-.29-.38c0,0-.06,0-.06,0v.64c0,.11,0,.11-.11.11h-.14c-.11,0-.11,0-.11-.12l0-1.29c0-.12,0-.12.11-.11h.15c.11,0,.09,0,.16.1Z"/><path class="cls-11" d="M44.26,36.16a.51.51,0,0,1,0,.22.42.42,0,0,1-.42.48H43.4c-.12,0-.12,0-.12-.11l0-1.3c0-.11,0-.11.11-.12h.48a.36.36,0,0,1,.36.36.38.38,0,0,1-.08.3,0,0,0,0,0,0,0,.38.38,0,0,1,.13.12m-.51-.24a.09.09,0,0,0,.1-.1v-.07c0-.06,0-.1-.11-.1h-.06s0,0,0,.07v.13s0,.06,0,.06Zm0,.61a.12.12,0,0,0,.12-.13v0a.13.13,0,0,0-.13-.13h-.09s0,0,0,.07v.18c0,.05,0,.06,0,.06Z"/><path class="cls-11" d="M38,36a.43.43,0,0,1,0,.23.41.41,0,0,1-.47.42l-.47,0c-.12,0-.12,0-.11-.12l.12-1.29c0-.11,0-.12.12-.11l.48.05a.37.37,0,0,1,.32.4.38.38,0,0,1-.11.29,0,0,0,0,0,0,0A.32.32,0,0,1,38,36m-.48-.29c.07,0,.11,0,.11-.09v-.07c0-.06,0-.1-.1-.11h-.06s0,0,0,.06v.13c0,.05,0,.07,0,.07Zm0,.61a.12.12,0,0,0,.13-.12v0a.12.12,0,0,0-.11-.14h-.09s0,0-.05.07v.17c0,.05,0,.07,0,.07Z"/><path class="cls-11" d="M45.06,35.3a.34.34,0,0,1,.39.29v.15a.42.42,0,0,1-.16.37,0,0,0,0,0,0,0l.29.6s0,.06,0,.06h-.28c-.07,0-.07,0-.09,0L45,36.35s0,0-.07,0l-.06,0a.07.07,0,0,0,0,.07l0,.27c0,.11,0,.11-.11.11h-.16c-.11,0-.11,0-.12-.11l0-1.29c0-.11,0-.11.11-.12Zm-.27.59c0,.12,0,.11.07.08a.83.83,0,0,0,.15-.11c.08-.07.06-.22,0-.21h-.14c-.05,0-.06,0-.06.05Z"/><path class="cls-11" d="M46.58,36.62c0,.11,0,.11-.1.12l-.66,0c-.11,0-.11,0-.12-.11l-.08-1.29c0-.11,0-.11.1-.12l.66,0c.11,0,.11,0,.12.1v.15c0,.11,0,.11-.11.12l-.31,0c-.07,0-.07,0-.07.07v.06c0,.07,0,.07.07.07h.21c.12,0,.12,0,.12.1V36c0,.12,0,.12-.1.12l-.21,0c-.07,0-.07,0-.07.07v.07c0,.07,0,.07.08.07l.31,0c.11,0,.11,0,.12.1Z"/><path class="cls-11" d="M47.5,36.15l-.07.45c0,.06,0,.06-.06.06l-.19,0c-.06,0-.07,0-.09,0l-.49-1.36s0-.07,0-.08l.28,0s0,0,.07,0l.17.46c0,.05,0,.05.05.05s0,0,0-.05c0-.28,0-.32.08-.52,0,0,0,0,0,0l.13,0s0,0,0,0c.07.19.08.23.18.49,0,0,0,0,0,0s0,0,0-.06l.08-.48c0-.07,0-.07.06-.07l.27,0c.06,0,.06,0,.06.07l-.23,1.42c0,.05,0,.05-.07.06l-.2,0s-.06,0-.07-.05l-.16-.43s0,0,0,0,0,0,0,0"/><rect class="cls-11" x="48.47" y="35" width="0.38" height="1.52" rx="0.11" transform="translate(-3.82 5.89) rotate(-6.67)"/><path class="cls-11" d="M49.61,35.29s.06,0,.06,0l0-.28c0-.11,0-.11.09-.13l.14,0c.12,0,.12,0,.13.1l.17,1.29c0,.11,0,.11-.09.12l-.14,0c-.11,0-.11,0-.13-.1l0-.27s0,0-.34-.33c0,0-.05,0-.05,0l.08.64c0,.11,0,.11-.09.13l-.14,0c-.11,0-.11,0-.12-.1l-.18-1.29c0-.11,0-.11.1-.12l.15,0c.11,0,.09,0,.17.07Z"/><path class="cls-11" d="M51,36.21c-.44.07-.7-.21-.77-.64s.08-.79.52-.86l.43-.07c.11,0,.11,0,.13.1l0,.14c0,.11,0,.11-.1.13l-.42.07c-.2,0-.2.24-.17.42s.09.38.3.35H51c.06,0,.08,0,.07-.11v-.07s0,0,0,0h0c-.11,0-.11,0-.13-.09l0-.14c0-.11,0-.11.09-.13l.32,0c.11,0,.11,0,.13.09l.08.52c0,.31-.09.33-.34.37h0Z"/><path class="cls-11" d="M31.47,29.25v1.07c0,.64-.15.79-.53.83h0c.43.07.51.15.51.9v.64c0,1.45-.13,1.42-1.06,1.42h-1v-5.7h1.39C31.13,28.42,31.47,28.61,31.47,29.25Zm-1.39,2.34v1.75h.38c.27,0,.28-.07.28-.32V31.93c0-.33,0-.34-.34-.34Zm0-2.46v1.75h.38c.27,0,.28-.07.28-.33V29.47c0-.33,0-.34-.34-.34Z"/><path class="cls-18" d="M42.49,24.2c-9.8,0-15.42,2.72-15.42,2.72V35.1s5.67,2.72,15.42,2.72,15.39-2.75,15.39-2.75V26.9s-5.6-2.7-15.39-2.7M57.25,34.61a39.45,39.45,0,0,1-14.76,2.53,40.1,40.1,0,0,1-14.79-2.5V27.38a40.06,40.06,0,0,1,14.79-2.5,39.79,39.79,0,0,1,14.76,2.48Z"/><path class="cls-18" d="M41.08,25.5c-.46,0-.91.07-1.37.13-.21,0-.21,0-.21.16V26c0,.12,0,.12.21.1L40,26c.08,0,.08,0,.08,0v1.16c0,.14,0,.14.21.14h.29c.2,0,.2,0,.2-.14V26c0-.06,0-.06.09-.06l.23,0c.21,0,.21,0,.21-.14v-.18c0-.14,0-.14-.21-.13m2.08,0h-.29c-.21,0-.21,0-.21.13v.49c0,.09,0,.09-.13.09h-.12c-.14,0-.14,0-.14-.09V25.6c0-.14,0-.14-.2-.14h-.29c-.21,0-.21,0-.21.15v1.61c0,.14,0,.14.21.14h.29c.21,0,.21,0,.21-.15v-.5c0-.09,0-.08.13-.08h.12c.13,0,.13,0,.13.08v.56c0,.09,0,.09.13.09h.36c.21,0,.21,0,.21-.14V25.62c0-.14,0-.14-.2-.15m1.36.53.57.05c.21,0,.21,0,.21-.1v-.16c0-.13,0-.13-.21-.16q-.6-.07-1.2-.12c-.21,0-.21,0-.21.13v1.59c0,.14,0,.14.21.14h1.2c.21,0,.21,0,.21-.13v-.16c0-.13,0-.13-.21-.13l-.57,0c-.14,0-.14,0-.14-.09v-.08c0-.08,0-.08.14-.08l.38,0c.21,0,.21,0,.21-.12v-.16c0-.13,0-.13-.21-.15l-.38,0c-.13,0-.13,0-.13-.1v-.07c0-.09,0-.09.13-.08"/><path class="cls-18" d="M33.45,28.1a.69.69,0,0,1,.68.68v1.78a.63.63,0,0,1-.4.65l.78,2.59h-.78L33,31.28h-.26V33.8H32V28.1Zm-.71.71v1.75h.48a.17.17,0,0,0,.18-.18V29a.18.18,0,0,0-.18-.18Z"/><path class="cls-18" d="M54.94,28.1a.69.69,0,0,1,.68.68v1.78a.63.63,0,0,1-.4.65L56,33.8h-.77l-.73-2.52h-.27V33.8h-.73V28.1Zm-.72.71v1.75h.49a.17.17,0,0,0,.18-.18V29a.18.18,0,0,0-.18-.18Z"/><path class="cls-18" d="M47.61,28.1a.69.69,0,0,1,.68.68v1.78a.64.64,0,0,1-.41.65l.78,2.59h-.78l-.73-2.52h-.26V33.8h-.73V28.1Zm-.72.71v1.75h.49a.17.17,0,0,0,.17-.18V29a.17.17,0,0,0-.17-.18Z"/><path class="cls-18" d="M35.37,28.1h.9L37,33.8h-.74l-.15-1.26h-.58l-.14,1.26h-.73Zm.22,3.75H36L35.82,30h0Z"/><rect class="cls-18" x="37.43" y="28.1" width="0.73" height="5.7"/><polygon class="cls-18" points="40.29 31.3 40.3 31.3 40.27 30.13 40.27 28.1 40.96 28.1 40.96 33.8 40.31 33.8 39.55 30.59 39.54 30.59 39.57 31.77 39.57 33.8 38.88 33.8 38.88 28.1 39.53 28.1 40.29 31.3"/><polygon class="cls-18" points="41.69 28.1 43.5 28.1 43.5 28.81 42.42 28.81 42.42 30.59 43.42 30.59 43.42 31.31 42.42 31.31 42.42 33.8 41.69 33.8 41.69 28.1"/><path class="cls-18" d="M44.23,28.1h.9l.72,5.7h-.74L45,32.54h-.59l-.13,1.26H43.5Zm.22,3.75h.43L44.67,30h0Z"/><polygon class="cls-18" points="48.68 28.1 50.72 28.1 50.72 28.81 50.06 28.81 50.06 33.8 49.33 33.8 49.33 28.81 48.68 28.81 48.68 28.1"/><polygon class="cls-18" points="51.13 28.1 52.98 28.1 52.98 28.81 51.86 28.81 51.86 30.59 52.9 30.59 52.9 31.31 51.86 31.31 51.86 33.08 52.98 33.08 52.98 33.8 51.13 33.8 51.13 28.1"/><path class="cls-18" d="M33.86,35.61c-.07,0-.07,0-.1.07l0,.11c0,.06,0,.06-.1.05l-.23,0c-.07,0-.08,0,0-.1.21-.49.34-.8.56-1.29,0-.07,0-.07.12-.06l.28,0c.08,0,.09,0,.1.09.07.52.11.86.17,1.39,0,.08,0,.09-.06.08l-.24,0c-.08,0-.08,0-.08-.08v-.12c0-.08,0-.08-.09-.09Zm.23-.35s0,0,0,0l0-.29s0,0,0,0,0,0,0,0L34,35.2s0,0,0,0Z"/><path class="cls-18" d="M35.16,34.52c.12,0,.12,0,.1.13l-.12,1c0,.07,0,.07.06.08l.12,0c.11,0,.11,0,.09.12V36c0,.11,0,.11-.13.09l-.44,0c-.12,0-.12,0-.1-.13l.17-1.29c0-.11,0-.11.12-.09Z"/><path class="cls-18" d="M36,34.62c.11,0,.11,0,.1.13l-.12,1c0,.07,0,.07.07.08h.12c.11,0,.11,0,.1.13l0,.14c0,.11,0,.11-.13.1l-.44-.05c-.11,0-.11,0-.1-.13l.15-1.28c0-.12,0-.12.12-.1Z"/><path class="cls-18" d="M38.92,34.9a.34.34,0,0,1,.35.34v.15a.41.41,0,0,1-.2.34s0,0,0,0l.21.62c0,.06,0,.06,0,0h-.28c-.07,0-.07,0-.09-.06s-.05-.15-.14-.43c0,0,0,0-.06,0l-.07,0s0,0,0,.07l0,.26c0,.12,0,.12-.12.11h-.16c-.11,0-.11,0-.1-.12L38.23,35c0-.12,0-.12.12-.11Zm-.34.56c0,.11,0,.11.06.08a.79.79,0,0,0,.16-.08c.09-.06.08-.22,0-.22h-.14s-.06,0-.06,0Z"/><path class="cls-18" d="M39.9,36.22c-.08,0-.08,0-.1.07l0,.11c0,.07,0,.07-.1.07h-.24c-.06,0-.07,0,0-.1.17-.51.27-.83.44-1.33,0-.08,0-.08.11-.07h.29c.08,0,.09,0,.1.08.13.52.2.85.31,1.37,0,.08,0,.09-.06.09h-.23c-.08,0-.08,0-.09-.07l0-.12c0-.08,0-.08-.1-.08Zm.19-.38s0,0,0,0l0-.29a0,0,0,0,0,0,0s0,0,0,0L40,35.8s0,0,0,0Z"/><rect class="cls-18" x="40.24" y="35.57" width="1.52" height="0.38" rx="0.11" transform="translate(4.03 75.67) rotate(-88.28)"/><path class="cls-18" d="M42,35.43s.06,0,.06,0v-.28c0-.12,0-.12.12-.12h.14c.11,0,.11,0,.11.11l0,1.3c0,.11,0,.11-.11.11h-.15c-.11,0-.11,0-.11-.12v-.27s0,0-.29-.38c0,0-.06,0-.06,0v.65c0,.11,0,.11-.11.11h-.14c-.11,0-.11,0-.11-.12l0-1.29c0-.12,0-.12.11-.12h.15c.12,0,.09,0,.16.09Z"/><path class="cls-18" d="M44.14,35.84a.72.72,0,0,1,0,.22.43.43,0,0,1-.43.48h-.47c-.12,0-.12,0-.12-.12l0-1.29c0-.11,0-.11.11-.12h.48a.37.37,0,0,1,.36.37.39.39,0,0,1-.08.3,0,0,0,0,0,0,0,.31.31,0,0,1,.13.12m-.51-.24c.07,0,.11-.05.1-.1v-.07c0-.06,0-.1-.11-.1h-.06s0,0,0,.07v.13c0,.06,0,.07,0,.07Zm0,.61a.13.13,0,0,0,.12-.13v0a.12.12,0,0,0-.12-.13h-.1s0,0,0,.07v.18c0,.05,0,.06,0,.06Z"/><path class="cls-18" d="M37.91,35.67a.43.43,0,0,1,0,.23.41.41,0,0,1-.47.42l-.47,0c-.11,0-.11,0-.1-.12L37,34.87c0-.11,0-.12.12-.11l.48.05a.35.35,0,0,1,.32.4.38.38,0,0,1-.11.29s0,0,0,0a.34.34,0,0,1,.11.14m-.48-.3a.1.1,0,0,0,.12-.08v-.07c0-.06,0-.1-.1-.11h-.06s0,0,0,.06v.13c0,.05,0,.07,0,.07Zm0,.62a.13.13,0,0,0,.13-.12v0a.12.12,0,0,0-.11-.14h-.09s0,0,0,.07l0,.17c0,.05,0,.07,0,.07Z"/><path class="cls-18" d="M45,35a.33.33,0,0,1,.39.29v.15a.4.4,0,0,1-.16.37,0,0,0,0,0,0,0l.29.6s0,.06,0,.06h-.29c-.07,0-.07,0-.09,0S45,36.3,44.85,36c0,0,0,0-.07,0l-.06,0s0,0,0,.07v.26c0,.12,0,.12-.11.12h-.16c-.11,0-.11,0-.11-.11l-.06-1.29c0-.12,0-.12.11-.12Zm-.28.59c0,.11,0,.11.07.08a.83.83,0,0,0,.15-.11c.09-.07.06-.22,0-.22h-.14s-.06,0-.06.05Z"/><path class="cls-18" d="M46.46,36.3c0,.11,0,.11-.1.12l-.65,0c-.12,0-.12,0-.12-.11l-.09-1.29c0-.11,0-.11.11-.12l.65,0c.11,0,.11,0,.12.1v.14c0,.12,0,.12-.11.12l-.31,0c-.07,0-.07,0-.07.07v.06c0,.07,0,.07.07.07l.21,0c.12,0,.12,0,.12.11v.14c0,.12,0,.12-.1.12l-.21,0c-.07,0-.07,0-.07.07V36c0,.07,0,.07.07.07l.31,0c.12,0,.12,0,.12.1Z"/><path class="cls-18" d="M47.38,35.83l-.06.45c0,.06,0,.06-.07.06l-.19,0c-.06,0-.07,0-.09,0L46.48,35s0-.07,0-.08l.28,0s.05,0,.07,0l.17.46c0,.05,0,.05.05.05s0,0,0-.06c0-.27.05-.31.08-.51,0,0,0,0,0,0h.13s0,0,0,0c.07.19.08.23.18.49,0,0,0,0,0,0s0,0,0-.06l.08-.49c0-.06,0-.06.06-.06l.28,0s.06,0,0,.08l-.23,1.42c0,.05,0,.05-.07.06h-.2s0,0-.07,0l-.15-.42s0,0,0,0l0,0"/><rect class="cls-18" x="48.36" y="34.68" width="0.38" height="1.52" rx="0.11" transform="translate(-3.79 5.88) rotate(-6.67)"/><path class="cls-18" d="M49.49,35s.06,0,.06,0l0-.28c0-.11,0-.11.1-.13l.14,0c.11,0,.11,0,.12.1l.18,1.28c0,.12,0,.12-.1.13l-.14,0c-.11,0-.11,0-.13-.1l0-.27s0,0-.35-.33c0,0,0,0,0,0l.09.64c0,.11,0,.11-.1.13H49.1c-.11,0-.11,0-.12-.09l-.18-1.29c0-.11,0-.11.1-.12l.15,0c.11,0,.09,0,.17.07Z"/><path class="cls-18" d="M50.85,35.89c-.44.07-.7-.21-.77-.64s.08-.79.53-.86l.42-.07c.11,0,.11,0,.13.1l0,.14c0,.11,0,.11-.09.13l-.43.06c-.2,0-.2.25-.17.43s.09.38.3.35h.07c.06,0,.08,0,.07-.11v-.07c0-.05,0,0-.05,0h0c-.11,0-.11,0-.13-.09l0-.14c0-.11,0-.11.1-.13l.31,0c.11,0,.11,0,.13.09l.08.52c.05.3-.09.33-.34.37h0Z"/><path class="cls-18" d="M31.35,28.93V30c0,.64-.14.78-.53.82v0c.44.06.51.15.51.9v.64c0,1.45-.12,1.42-1.06,1.42h-1V28.1h1.39C31,28.1,31.35,28.29,31.35,28.93ZM30,31.27V33h.38c.27,0,.28-.07.28-.33V31.61c0-.33,0-.34-.34-.34Zm0-2.46v1.75h.38c.27,0,.28-.07.28-.33V29.15c0-.33,0-.34-.34-.34Z"/><path class="cls-19" d="M42.54,24.37c-9.79,0-15.41,2.73-15.41,2.73v8.17S32.8,38,42.54,38s15.4-2.76,15.4-2.76V27.07s-5.6-2.7-15.4-2.7M57.31,34.79a39.78,39.78,0,0,1-14.77,2.52,40.21,40.21,0,0,1-14.79-2.5V27.56a39.85,39.85,0,0,1,14.79-2.51,40.09,40.09,0,0,1,14.77,2.48Z"/><path class="cls-20" d="M41.14,25.68c-.46,0-.92.07-1.37.13-.21,0-.21,0-.21.15v.16c0,.13,0,.13.21.11l.26,0c.09,0,.09,0,.09.05v1.16c0,.13,0,.13.21.13h.28c.21,0,.21,0,.21-.14V26.2c0-.05,0-.05.08-.06h.24c.21,0,.21,0,.21-.15V25.8c0-.14,0-.14-.21-.12m2.07,0h-.29c-.2,0-.2,0-.2.14v.48c0,.09,0,.09-.14.09h-.12c-.13,0-.13,0-.13-.09v-.48c0-.14,0-.15-.21-.14h-.28c-.21,0-.21,0-.21.15V27.4c0,.14,0,.14.21.14h.29c.2,0,.2,0,.2-.14v-.51c0-.09,0-.08.14-.08h.11c.13,0,.13,0,.13.08v.56c0,.09,0,.09.14.09h.36c.21,0,.21,0,.21-.14V25.8c0-.14,0-.14-.21-.15m1.36.53.58.05c.2,0,.2,0,.2-.11V26c0-.12,0-.13-.2-.15q-.6-.07-1.2-.12c-.21,0-.21,0-.21.12V27.4c0,.14,0,.14.2.14h1.21c.2,0,.2,0,.2-.13v-.16c0-.12,0-.12-.2-.13l-.58,0c-.13,0-.13,0-.13-.08v-.08c0-.09,0-.09.13-.08H45c.21,0,.21,0,.21-.12v-.16c0-.13,0-.13-.21-.14l-.39,0c-.13,0-.13,0-.13-.09v-.08c0-.08,0-.08.13-.07"/><path class="cls-21" d="M33.51,28.27a.69.69,0,0,1,.68.69v1.77a.65.65,0,0,1-.4.65L34.56,34h-.77l-.74-2.52h-.26V34h-.73v-5.7Zm-.72.72v1.75h.49a.17.17,0,0,0,.17-.18V29.17a.17.17,0,0,0-.17-.18Z"/><path class="cls-22" d="M55,28.27a.68.68,0,0,1,.67.69v1.77a.63.63,0,0,1-.4.65L56.05,34h-.78l-.73-2.52h-.26V34h-.73v-5.7Zm-.72.72v1.75h.49a.17.17,0,0,0,.17-.18V29.17a.17.17,0,0,0-.17-.18Z"/><path class="cls-23" d="M47.66,28.27a.69.69,0,0,1,.68.69v1.77a.63.63,0,0,1-.4.65L48.72,34h-.78l-.73-2.52H47V34h-.73v-5.7ZM47,29v1.75h.48a.18.18,0,0,0,.18-.18V29.17a.17.17,0,0,0-.18-.18Z"/><path class="cls-24" d="M35.43,28.27h.9l.72,5.7H36.3l-.14-1.26h-.59L35.43,34H34.7ZM35.65,32h.43l-.21-1.89h0Z"/><rect class="cls-25" x="37.49" y="28.27" width="0.73" height="5.7"/><polygon class="cls-26" points="40.35 31.48 40.36 31.48 40.33 30.3 40.33 28.27 41.02 28.27 41.02 33.97 40.36 33.97 39.6 30.77 39.59 30.77 39.62 31.94 39.62 33.97 38.93 33.97 38.93 28.27 39.59 28.27 40.35 31.48"/><polygon class="cls-27" points="41.75 28.27 43.56 28.27 43.56 28.99 42.48 28.99 42.48 30.77 43.48 30.77 43.48 31.48 42.48 31.48 42.48 33.97 41.75 33.97 41.75 28.27"/><path class="cls-28" d="M44.28,28.27h.9l.73,5.7h-.75L45,32.71h-.59L44.29,34h-.73ZM44.51,32h.43l-.21-1.89h0Z"/><polygon class="cls-29" points="48.73 28.27 50.77 28.27 50.77 28.99 50.12 28.99 50.12 33.97 49.39 33.97 49.39 28.99 48.73 28.99 48.73 28.27"/><polygon class="cls-30" points="51.19 28.27 53.03 28.27 53.03 28.99 51.92 28.99 51.92 30.77 52.96 30.77 52.96 31.48 51.92 31.48 51.92 33.26 53.03 33.26 53.03 33.97 51.19 33.97 51.19 28.27"/><path class="cls-31" d="M33.92,35.79c-.08,0-.08,0-.11.06l0,.11c0,.07,0,.07-.1.06l-.24,0c-.06,0-.07,0,0-.1.21-.49.35-.8.57-1.28,0-.07,0-.07.12-.06l.28,0c.08,0,.09,0,.1.09.07.53.1.86.17,1.4,0,.07,0,.09-.07.08l-.23,0c-.08,0-.08,0-.09-.08v-.12c0-.08,0-.08-.08-.09Zm.23-.35s0,0,0,0l0-.29,0,0,0,0-.11.27s0,0,0,0Z"/><path class="cls-32" d="M35.22,34.7c.11,0,.11,0,.1.13l-.13,1c0,.07,0,.07.07.08h.11c.12,0,.12,0,.1.13l0,.14c0,.11,0,.11-.12.1l-.45-.06c-.11,0-.11,0-.09-.13L35,34.78c0-.11,0-.11.13-.1Z"/><path class="cls-33" d="M36,34.8c.12,0,.12,0,.1.12l-.11,1c0,.08,0,.08.06.08l.12,0c.11,0,.11,0,.1.12v.15c0,.11,0,.11-.13.09l-.44-.05c-.12,0-.12,0-.1-.12l.15-1.29c0-.11,0-.11.12-.1Z"/><path class="cls-34" d="M39,35.07c.18,0,.37.13.36.34v.15a.44.44,0,0,1-.21.35,0,0,0,0,0,0,0l.22.62c0,.06,0,.06,0,.06l-.28,0c-.08,0-.08,0-.09-.05l-.14-.44s0,0-.07,0l-.07,0a.11.11,0,0,0,0,.06v.27c0,.11,0,.11-.13.1H38.3c-.11,0-.11,0-.11-.12l.09-1.29c0-.11,0-.11.12-.11Zm-.34.57c0,.11,0,.1.06.08l.16-.09c.1-.06.09-.21,0-.22h-.13c-.05,0-.06,0-.06.05Z"/><path class="cls-35" d="M40,36.39c-.08,0-.08,0-.1.07l0,.12c0,.07,0,.07-.1.06h-.24c-.06,0-.07,0-.05-.09.16-.51.27-.84.44-1.34,0-.07,0-.07.11-.07h.29c.07,0,.08,0,.1.08.12.52.19.85.31,1.38,0,.07,0,.09-.06.09l-.23,0c-.08,0-.08,0-.1-.07l0-.12c0-.07,0-.07-.09-.08Zm.19-.37s0,0,0,0l0-.28s0,0,0,0,0,0,0,0L40,36s0,0,0,0Z"/><rect class="cls-36" x="40.3" y="35.74" width="1.52" height="0.38" rx="0.11" transform="translate(3.91 75.9) rotate(-88.28)"/><path class="cls-37" d="M42.06,35.6s.06,0,.06,0v-.29c0-.11,0-.11.11-.11h.14c.12,0,.12,0,.12.11l0,1.3c0,.11,0,.11-.12.11h-.14c-.11,0-.11,0-.11-.11v-.28s0,0-.29-.38c0,0,0,0,0,0v.64c0,.11,0,.11-.11.11h-.14c-.11,0-.11,0-.11-.11l0-1.3c0-.11,0-.11.11-.11h.15c.11,0,.09,0,.16.1Z"/><path class="cls-38" d="M44.19,36a.41.41,0,0,1,0,.23.41.41,0,0,1-.42.47h-.48c-.11,0-.11,0-.11-.11l0-1.3c0-.11,0-.11.11-.11h.49a.36.36,0,0,1,.36.36.38.38,0,0,1-.08.3,0,0,0,0,0,0,0,.27.27,0,0,1,.12.12m-.51-.24a.1.1,0,0,0,.11-.1V35.6c0-.06,0-.09-.11-.09h-.07s0,0,0,.07v.13s0,.06,0,.06Zm0,.61a.12.12,0,0,0,.12-.13v0c0-.07-.05-.14-.13-.13h-.09s0,0,0,.07v.17s0,.07,0,.07Z"/><path class="cls-39" d="M38,35.84a.59.59,0,0,1,0,.23.41.41,0,0,1-.47.42l-.48,0c-.11,0-.11,0-.1-.12L37.05,35c0-.11,0-.11.12-.1l.48,0a.37.37,0,0,1,.32.4.38.38,0,0,1-.11.29,0,0,0,0,0,0,0,.32.32,0,0,1,.11.13m-.48-.29a.09.09,0,0,0,.11-.09v-.07a.1.1,0,0,0-.1-.11h-.07s0,0,0,.07v.13c0,.05,0,.06,0,.06Zm0,.61a.12.12,0,0,0,.13-.12v0a.13.13,0,0,0-.11-.15h-.1s0,0,0,.06v.18s0,.06,0,.06Z"/><path class="cls-40" d="M45,35.15a.34.34,0,0,1,.39.29v.15a.44.44,0,0,1-.16.37s0,0,0,0l.29.6c0,.06,0,.06-.05.06h-.28c-.07,0-.07,0-.09,0s-.07-.15-.19-.42c0,0,0,0-.07,0l-.06,0a.08.08,0,0,0,0,.08v.26c0,.11,0,.11-.1.12H44.5c-.11,0-.11,0-.12-.11l-.05-1.29c0-.11,0-.11.11-.12Zm-.27.6c0,.11,0,.1.07.07l.15-.1c.08-.07,0-.23,0-.22h-.13c-.05,0-.06,0-.06.06Z"/><path class="cls-41" d="M46.52,36.47c0,.11,0,.11-.1.12l-.66,0c-.11,0-.11,0-.12-.1l-.08-1.3c0-.11,0-.11.1-.12l.66,0c.11,0,.11,0,.12.11v.14c0,.11,0,.11-.11.12l-.31,0c-.07,0-.07,0-.07.08v.06c0,.07,0,.07.08.06h.21c.11,0,.11,0,.12.1v.15c0,.11,0,.11-.1.12h-.21c-.08,0-.08,0-.07.08v.06c0,.08,0,.08.08.07l.31,0c.11,0,.11,0,.12.11Z"/><path class="cls-42" d="M47.44,36l-.07.44c0,.06,0,.06-.06.07h-.2s-.07,0-.08,0l-.49-1.35s0-.08,0-.08l.27,0s.06,0,.08,0l.17.46c0,.05,0,.06,0,.06s0,0,0-.06c0-.28,0-.31.08-.51,0,0,0,0,.05,0h.12s0,0,.06,0l.17.49s0,0,.05,0,0,0,0-.06l.07-.48c0-.06,0-.06.07-.07l.27,0c.06,0,.06,0,.06.07L48,36.4c0,.05,0,.05-.08.06l-.19,0s-.06,0-.08,0L47.49,36s0,0,0,0,0,0,0,0"/><rect class="cls-43" x="48.41" y="34.86" width="0.38" height="1.52" rx="0.11" transform="translate(-3.81 5.89) rotate(-6.67)"/><path class="cls-44" d="M49.55,35.14s.06,0,.05,0l0-.29c0-.11,0-.11.09-.13h.14c.12,0,.12,0,.13.09l.17,1.29c0,.11,0,.11-.09.12l-.14,0c-.12,0-.12,0-.13-.09l0-.27s0,0-.34-.34c0,0-.06,0,0,0l.08.63c0,.12,0,.12-.09.13l-.14,0c-.11,0-.11,0-.13-.1l-.17-1.28c0-.11,0-.11.1-.13l.14,0c.12,0,.1,0,.18.07Z"/><path class="cls-45" d="M50.9,36.07c-.44.07-.69-.22-.76-.65s.07-.78.52-.86l.42-.06c.12,0,.12,0,.13.09l0,.14c0,.11,0,.11-.1.13l-.42.07c-.21,0-.2.24-.17.42s.09.38.3.35h.07c.06,0,.08,0,.07-.11l0-.07s0,0,0,0h0c-.11,0-.11,0-.13-.1l0-.14c0-.11,0-.11.09-.13l.31,0c.12,0,.12,0,.13.1l.09.52c0,.3-.09.32-.34.36h0Z"/><path class="cls-46" d="M31.41,29.1v1.07c0,.64-.15.79-.53.83h0c.43.07.5.15.5.9v.64c0,1.45-.12,1.42-1.05,1.42h-1v-5.7h1.4C31.07,28.27,31.41,28.46,31.41,29.1ZM30,31.44v1.75h.38c.26,0,.28-.07.27-.33V31.78c0-.33,0-.34-.35-.34ZM30,29v1.75h.38c.26,0,.28-.07.27-.33V29.33c0-.34,0-.35-.35-.35Z"/></g><polygon class="cls-47" points="6.71 1.75 23.25 1.7 39.79 1.75 23.25 1.8 6.71 1.75"/><path class="cls-47" d="M.41,8c0,.12.08,0,.12.07H8.1l7.69,0H8.1l-3.84,0H.53s-.08-.05-.12.06Z"/><polygon class="cls-47" points="15.79 119.5 50.58 119.45 85.36 119.5 50.58 119.55 15.79 119.5"/><path class="cls-47" d="M42.48,6.73H68.21l4.28,0a.47.47,0,0,0,.4-.26l.18-.5.37-1,.73-2-.7,2-.34,1L73,6.46a.53.53,0,0,1-.45.31l-4.29,0H42.48Z"/></g></g></svg>