<svg xmlns="http://www.w3.org/2000/svg" xmlns:xlink="http://www.w3.org/1999/xlink" viewBox="0 0 184.89 122.05"><defs><style>.cls-1{isolation:isolate;}.cls-2{fill:url(#linear-gradient);}.cls-28,.cls-3,.cls-32,.cls-33,.cls-35,.cls-37,.cls-39,.cls-41,.cls-43,.cls-45,.cls-47,.cls-49,.cls-51,.cls-53,.cls-54,.cls-55,.cls-57,.cls-59,.cls-61,.cls-63,.cls-65,.cls-67,.cls-69,.cls-71,.cls-73{mix-blend-mode:multiply;}.cls-3{opacity:0.22;}.cls-4{fill:url(#linear-gradient-2);}.cls-5{fill:url(#linear-gradient-3);}.cls-6{fill:url(#linear-gradient-4);}.cls-7{fill:url(#linear-gradient-5);}.cls-8{fill:url(#linear-gradient-6);}.cls-9{fill:url(#linear-gradient-7);}.cls-10{fill:url(#linear-gradient-8);}.cls-11{fill:url(#linear-gradient-9);}.cls-12{fill:url(#linear-gradient-10);}.cls-13{fill:url(#linear-gradient-11);}.cls-14{fill:url(#linear-gradient-12);}.cls-15{fill:url(#linear-gradient-13);}.cls-16{fill:url(#linear-gradient-14);}.cls-17{fill:url(#linear-gradient-15);}.cls-18{fill:url(#linear-gradient-16);}.cls-19{fill:url(#linear-gradient-17);}.cls-20{fill:url(#linear-gradient-18);}.cls-21{fill:url(#linear-gradient-19);}.cls-22{fill:url(#linear-gradient-20);}.cls-23{fill:url(#linear-gradient-21);}.cls-24{fill:url(#linear-gradient-22);}.cls-25{fill:url(#linear-gradient-23);}.cls-26{fill:url(#linear-gradient-24);}.cls-27{fill:url(#linear-gradient-25);}.cls-28{opacity:0.3;}.cls-29{fill:url(#linear-gradient-26);}.cls-30{fill:url(#linear-gradient-27);}.cls-31{mix-blend-mode:overlay;opacity:0.61;}.cls-32,.cls-33,.cls-35,.cls-37,.cls-39,.cls-41,.cls-43,.cls-45,.cls-47,.cls-49,.cls-51,.cls-54,.cls-55,.cls-57,.cls-59,.cls-61,.cls-63,.cls-65,.cls-67,.cls-69,.cls-71,.cls-73{opacity:0.39;}.cls-32{fill:url(#linear-gradient-28);}.cls-33,.cls-34{fill:url(#linear-gradient-29);}.cls-35,.cls-36{fill:url(#linear-gradient-31);}.cls-37,.cls-38{fill:url(#linear-gradient-33);}.cls-39,.cls-40{fill:url(#linear-gradient-35);}.cls-41,.cls-42{fill:url(#linear-gradient-37);}.cls-43,.cls-44{fill:url(#linear-gradient-39);}.cls-45,.cls-46{fill:url(#linear-gradient-41);}.cls-47,.cls-48{fill:url(#linear-gradient-43);}.cls-49,.cls-50{fill:url(#linear-gradient-45);}.cls-51,.cls-52{fill:url(#linear-gradient-47);}.cls-53{opacity:0.47;}.cls-54{fill:url(#linear-gradient-49);}.cls-55,.cls-56{fill:url(#linear-gradient-50);}.cls-57,.cls-58{fill:url(#linear-gradient-52);}.cls-59,.cls-60{fill:url(#linear-gradient-54);}.cls-61,.cls-62{fill:url(#linear-gradient-56);}.cls-63,.cls-64{fill:url(#linear-gradient-58);}.cls-65,.cls-66{fill:url(#linear-gradient-60);}.cls-67,.cls-68{fill:url(#linear-gradient-62);}.cls-69,.cls-70{fill:url(#linear-gradient-64);}.cls-71,.cls-72{fill:url(#linear-gradient-66);}.cls-73,.cls-74{fill:url(#linear-gradient-68);}</style><linearGradient id="linear-gradient" x1="1275.65" y1="402.93" x2="1275.65" y2="395.82" gradientTransform="translate(1385.8 514.29) rotate(180)" gradientUnits="userSpaceOnUse"><stop offset="0" stop-color="#18191a"/><stop offset="0.08" stop-color="#444648"/><stop offset="0.27" stop-color="#b3b4b5"/><stop offset="0.28" stop-color="#b0b1b2"/><stop offset="0.37" stop-color="#7e8081"/><stop offset="0.41" stop-color="#828282"/><stop offset="0.49" stop-color="#686868"/><stop offset="0.68" stop-color="#4e4f51"/><stop offset="0.7" stop-color="#4a4b4c"/><stop offset="0.74" stop-color="#424242"/><stop offset="0.82" stop-color="#6d6d6d"/><stop offset="0.93" stop-color="#353535"/><stop offset="1" stop-color="#111213"/></linearGradient><linearGradient id="linear-gradient-2" x1="1341.68" y1="98.91" x2="1341.68" y2="93.91" gradientTransform="matrix(1, 0, 0, -1.57, -1253.43, 182.13)" gradientUnits="userSpaceOnUse"><stop offset="0"/><stop offset="0.08" stop-color="#050709"/><stop offset="0.27" stop-color="#747576"/><stop offset="0.28" stop-color="#717273"/><stop offset="0.37" stop-color="#3f4142"/><stop offset="0.41" stop-color="#434343"/><stop offset="0.49" stop-color="#292929"/><stop offset="0.68" stop-color="#0f1012"/><stop offset="0.7" stop-color="#0b0c0d"/><stop offset="0.74" stop-color="#030303"/><stop offset="0.82" stop-color="#2e2e2e"/><stop offset="0.93"/><stop offset="1"/></linearGradient><linearGradient id="linear-gradient-3" x1="1341.22" y1="105.01" x2="1341.22" y2="100.01" gradientTransform="matrix(1, 0, 0, -1.57, -1252.98, 201.26)" xlink:href="#linear-gradient-2"/><linearGradient id="linear-gradient-4" x1="1340.77" y1="111.1" x2="1340.77" y2="106.1" gradientTransform="matrix(1, 0, 0, -1.57, -1252.53, 220.4)" xlink:href="#linear-gradient-2"/><linearGradient id="linear-gradient-5" x1="1340.32" y1="117.19" x2="1340.32" y2="112.19" gradientTransform="matrix(1, 0, 0, -1.57, -1252.07, 239.53)" xlink:href="#linear-gradient-2"/><linearGradient id="linear-gradient-6" x1="1339.86" y1="123.29" x2="1339.86" y2="118.29" gradientTransform="matrix(1, 0, 0, -1.57, -1251.62, 258.66)" xlink:href="#linear-gradient-2"/><linearGradient id="linear-gradient-7" x1="1339.41" y1="129.38" x2="1339.41" y2="124.38" gradientTransform="matrix(1, 0, 0, -1.57, -1251.17, 277.8)" xlink:href="#linear-gradient-2"/><linearGradient id="linear-gradient-8" x1="1338.96" y1="135.48" x2="1338.96" y2="130.48" gradientTransform="matrix(1, 0, 0, -1.57, -1250.71, 296.93)" xlink:href="#linear-gradient-2"/><linearGradient id="linear-gradient-9" x1="1338.5" y1="141.57" x2="1338.5" y2="136.57" gradientTransform="matrix(1, 0, 0, -1.57, -1250.26, 316.06)" xlink:href="#linear-gradient-2"/><linearGradient id="linear-gradient-10" x1="1338.05" y1="147.67" x2="1338.05" y2="142.67" gradientTransform="matrix(1, 0, 0, -1.57, -1249.81, 335.2)" xlink:href="#linear-gradient-2"/><linearGradient id="linear-gradient-11" x1="159.79" y1="103.92" x2="166.68" y2="103.92" gradientUnits="userSpaceOnUse"><stop offset="0" stop-color="#18191a"/><stop offset="0.1" stop-color="#444648"/><stop offset="0.12" stop-color="#4c4e50"/><stop offset="0.26" stop-color="#7e8081"/><stop offset="0.28" stop-color="#828282"/><stop offset="0.45" stop-color="#686868"/><stop offset="0.63" stop-color="#4e4f51"/><stop offset="0.75" stop-color="#2b2b2b"/><stop offset="0.89" stop-color="#353535"/><stop offset="1" stop-color="#111213"/></linearGradient><linearGradient id="linear-gradient-12" x1="70.54" y1="27.54" x2="70.54" y2="19.7" gradientTransform="matrix(1, 0, 0, 1, 0, 0)" xlink:href="#linear-gradient"/><linearGradient id="linear-gradient-13" x1="21.08" y1="11.92" x2="27.97" y2="11.92" xlink:href="#linear-gradient-11"/><linearGradient id="linear-gradient-14" x1="1.28" y1="30.73" x2="1.28" y2="16.44" gradientTransform="translate(2.55 47.17) rotate(180)" xlink:href="#linear-gradient"/><linearGradient id="linear-gradient-15" x1="183.61" y1="122.05" x2="183.61" y2="107.77" gradientUnits="userSpaceOnUse"><stop offset="0" stop-color="#1a1b1c"/><stop offset="0.08" stop-color="#46484a"/><stop offset="0.27" stop-color="#b5b6b7"/><stop offset="0.28" stop-color="#b2b3b4"/><stop offset="0.37" stop-color="#808283"/><stop offset="0.41" stop-color="#848484"/><stop offset="0.49" stop-color="#6a6a6a"/><stop offset="0.68" stop-color="#505153"/><stop offset="0.7" stop-color="#4c4d4e"/><stop offset="0.74" stop-color="#444"/><stop offset="0.82" stop-color="#6f6f6f"/><stop offset="0.93" stop-color="#373737"/><stop offset="1" stop-color="#131415"/></linearGradient><linearGradient id="linear-gradient-16" x1="95.32" y1="58.16" x2="95.32" y2="53.16" gradientTransform="translate(-7.01 -61.31) scale(1 1.57)" gradientUnits="userSpaceOnUse"><stop offset="0" stop-color="#3e3f40"/><stop offset="0.08" stop-color="#6a6c6e"/><stop offset="0.27" stop-color="#999"/><stop offset="0.37" stop-color="#a4a6a7"/><stop offset="0.41" stop-color="#a8a8a8"/><stop offset="0.49" stop-color="#8e8e8e"/><stop offset="0.68" stop-color="#747577"/><stop offset="0.7" stop-color="#707172"/><stop offset="0.74" stop-color="#686868"/><stop offset="0.82" stop-color="#939393"/><stop offset="0.93" stop-color="#5b5b5b"/><stop offset="1" stop-color="#373839"/></linearGradient><linearGradient id="linear-gradient-17" x1="94.86" y1="64.25" x2="94.86" y2="59.25" gradientTransform="translate(-6.56 -61.3) scale(1 1.57)" xlink:href="#linear-gradient-16"/><linearGradient id="linear-gradient-18" x1="94.41" y1="70.35" x2="94.41" y2="65.35" gradientTransform="translate(-6.11 -61.29) scale(1 1.57)" xlink:href="#linear-gradient-16"/><linearGradient id="linear-gradient-19" x1="93.96" y1="76.44" x2="93.96" y2="71.44" gradientTransform="translate(-5.65 -61.28) scale(1 1.57)" xlink:href="#linear-gradient-16"/><linearGradient id="linear-gradient-20" x1="93.5" y1="82.54" x2="93.5" y2="77.54" gradientTransform="translate(-5.2 -61.27) scale(1 1.57)" xlink:href="#linear-gradient-16"/><linearGradient id="linear-gradient-21" x1="93.05" y1="88.63" x2="93.05" y2="83.63" gradientTransform="translate(-4.75 -61.26) scale(1 1.57)" xlink:href="#linear-gradient-16"/><linearGradient id="linear-gradient-22" x1="92.6" y1="94.73" x2="92.6" y2="89.73" gradientTransform="translate(-4.29 -61.24) scale(1 1.57)" xlink:href="#linear-gradient-16"/><linearGradient id="linear-gradient-23" x1="92.14" y1="100.82" x2="92.14" y2="95.82" gradientTransform="translate(-3.84 -61.23) scale(1 1.57)" xlink:href="#linear-gradient-16"/><linearGradient id="linear-gradient-24" x1="91.69" y1="106.91" x2="91.69" y2="101.91" gradientTransform="translate(-3.39 -61.22) scale(1 1.57)" xlink:href="#linear-gradient-16"/><linearGradient id="linear-gradient-25" x1="91.24" y1="113.01" x2="91.24" y2="108.01" gradientTransform="translate(-2.93 -61.21) scale(1 1.57)" xlink:href="#linear-gradient-16"/><linearGradient id="linear-gradient-26" x1="156.09" y1="92.84" x2="170.38" y2="92.84" gradientTransform="translate(70.39 256.08) rotate(-90)" xlink:href="#linear-gradient-15"/><linearGradient id="linear-gradient-27" x1="17.47" y1="1.28" x2="31.76" y2="1.28" gradientTransform="translate(23.34 25.89) rotate(-90)" xlink:href="#linear-gradient"/><linearGradient id="linear-gradient-28" x1="33.71" y1="69.09" x2="141.14" y2="69.09" gradientUnits="userSpaceOnUse"><stop offset="0" stop-color="#b3b3b3" stop-opacity="0.5"/><stop offset="0" stop-color="#afafaf" stop-opacity="0.51"/><stop offset="0.03" stop-color="#787878" stop-opacity="0.64"/><stop offset="0.05" stop-color="#515151" stop-opacity="0.73"/><stop offset="0.09" stop-color="#3a3a3a" stop-opacity="0.78"/><stop offset="0.13" stop-color="#333" stop-opacity="0.8"/><stop offset="0.2" stop-color="#5f5f5f" stop-opacity="0.77"/><stop offset="0.33" stop-color="#ccc" stop-opacity="0.7"/><stop offset="0.33" stop-color="#c7c7c7" stop-opacity="0.68"/><stop offset="0.41" stop-color="#9c9c9c" stop-opacity="0.55"/><stop offset="0.48" stop-color="#797979" stop-opacity="0.44"/><stop offset="0.55" stop-color="#616161" stop-opacity="0.36"/><stop offset="0.61" stop-color="#525252" stop-opacity="0.32"/><stop offset="0.67" stop-color="#4d4d4d" stop-opacity="0.3"/><stop offset="0.69" stop-color="#484848" stop-opacity="0.4"/><stop offset="0.79" stop-color="#383838" stop-opacity="0.7"/><stop offset="0.91" stop-color="#333" stop-opacity="0.8"/><stop offset="0.93" stop-color="#383838" stop-opacity="0.8"/><stop offset="0.96" stop-color="#474747" stop-opacity="0.8"/><stop offset="0.98" stop-color="#606060" stop-opacity="0.8"/><stop offset="1" stop-color="gray" stop-opacity="0.8"/></linearGradient><linearGradient id="linear-gradient-29" x1="33.71" y1="26.01" x2="141.14" y2="26.01" xlink:href="#linear-gradient-28"/><linearGradient id="linear-gradient-31" x1="33.71" y1="35.58" x2="141.14" y2="35.58" xlink:href="#linear-gradient-28"/><linearGradient id="linear-gradient-33" x1="33.71" y1="45.16" x2="141.14" y2="45.16" xlink:href="#linear-gradient-28"/><linearGradient id="linear-gradient-35" x1="33.71" y1="54.73" x2="141.14" y2="54.73" xlink:href="#linear-gradient-28"/><linearGradient id="linear-gradient-37" x1="33.71" y1="64.3" x2="141.14" y2="64.3" xlink:href="#linear-gradient-28"/><linearGradient id="linear-gradient-39" x1="33.71" y1="73.87" x2="141.14" y2="73.87" xlink:href="#linear-gradient-28"/><linearGradient id="linear-gradient-41" x1="33.71" y1="83.44" x2="141.14" y2="83.44" xlink:href="#linear-gradient-28"/><linearGradient id="linear-gradient-43" x1="33.71" y1="93.02" x2="141.14" y2="93.02" xlink:href="#linear-gradient-28"/><linearGradient id="linear-gradient-45" x1="33.71" y1="102.59" x2="141.14" y2="102.59" xlink:href="#linear-gradient-28"/><linearGradient id="linear-gradient-47" x1="33.71" y1="112.16" x2="141.14" y2="112.16" xlink:href="#linear-gradient-28"/><linearGradient id="linear-gradient-49" x1="33.71" y1="69.27" x2="141.14" y2="69.27" gradientUnits="userSpaceOnUse"><stop offset="0" stop-color="#fff" stop-opacity="0.8"/><stop offset="0" stop-color="#d7d7d7" stop-opacity="0.76"/><stop offset="0.01" stop-color="#ababab" stop-opacity="0.73"/><stop offset="0.01" stop-color="#838383" stop-opacity="0.69"/><stop offset="0.02" stop-color="#626262" stop-opacity="0.66"/><stop offset="0.02" stop-color="#474747" stop-opacity="0.64"/><stop offset="0.03" stop-color="#333" stop-opacity="0.62"/><stop offset="0.03" stop-color="#252525" stop-opacity="0.61"/><stop offset="0.05" stop-color="#1c1c1c" stop-opacity="0.6"/><stop offset="0.07" stop-color="#1a1a1a" stop-opacity="0.6"/><stop offset="0.33" stop-color="#fff" stop-opacity="0.7"/><stop offset="0.94" stop-color="#1a1a1a" stop-opacity="0.6"/><stop offset="1" stop-color="#fff" stop-opacity="0.6"/></linearGradient><linearGradient id="linear-gradient-50" x1="33.71" y1="26.19" x2="141.14" y2="26.19" xlink:href="#linear-gradient-49"/><linearGradient id="linear-gradient-52" x1="33.71" y1="35.76" x2="141.14" y2="35.76" xlink:href="#linear-gradient-49"/><linearGradient id="linear-gradient-54" x1="33.71" y1="45.34" x2="141.14" y2="45.34" xlink:href="#linear-gradient-49"/><linearGradient id="linear-gradient-56" x1="33.71" y1="54.91" x2="141.14" y2="54.91" xlink:href="#linear-gradient-49"/><linearGradient id="linear-gradient-58" x1="33.71" y1="64.48" x2="141.14" y2="64.48" xlink:href="#linear-gradient-49"/><linearGradient id="linear-gradient-60" x1="33.71" y1="74.05" x2="141.14" y2="74.05" xlink:href="#linear-gradient-49"/><linearGradient id="linear-gradient-62" x1="33.71" y1="83.62" x2="141.14" y2="83.62" xlink:href="#linear-gradient-49"/><linearGradient id="linear-gradient-64" x1="33.71" y1="93.2" x2="141.14" y2="93.2" xlink:href="#linear-gradient-49"/><linearGradient id="linear-gradient-66" x1="33.71" y1="102.77" x2="141.14" y2="102.77" xlink:href="#linear-gradient-49"/><linearGradient id="linear-gradient-68" x1="33.71" y1="112.34" x2="141.14" y2="112.34" xlink:href="#linear-gradient-49"/></defs><g class="cls-1"><g id="Layer_2" data-name="Layer 2"><g id="Layer_1-2" data-name="Layer 1"><polyline class="cls-2" points="122.78 111.36 182.33 111.36 182.33 118.47 37.97 118.47"/><path class="cls-3" d="M39.7,118.47H156.09c-4.09-.66-11.63-4.56-12-7.12H39.7Z"/><rect class="cls-4" x="33.74" y="26.95" width="109" height="7.84" rx="3.92" transform="matrix(-1, -0.05, 0.05, -1, 174.93, 65.89)"/><rect class="cls-5" x="33.74" y="36.53" width="109" height="7.84" rx="3.92" transform="translate(174.47 85.03) rotate(-177.29)"/><rect class="cls-6" x="33.74" y="46.1" width="109" height="7.84" rx="3.92" transform="translate(174.02 104.16) rotate(-177.29)"/><rect class="cls-7" x="33.74" y="55.67" width="109" height="7.84" rx="3.92" transform="translate(173.57 123.29) rotate(-177.29)"/><rect class="cls-8" x="33.74" y="65.24" width="109" height="7.84" rx="3.92" transform="translate(173.11 142.43) rotate(-177.29)"/><rect class="cls-9" x="33.74" y="74.81" width="109" height="7.84" rx="3.92" transform="translate(172.66 161.56) rotate(-177.29)"/><rect class="cls-10" x="33.74" y="84.39" width="109" height="7.84" rx="3.92" transform="translate(172.21 180.69) rotate(-177.29)"/><rect class="cls-11" x="33.74" y="93.96" width="109" height="7.84" rx="3.92" transform="translate(171.75 199.83) rotate(-177.29)"/><rect class="cls-12" x="33.74" y="103.53" width="109" height="7.84" rx="3.92" transform="translate(171.3 218.96) rotate(-177.29)"/><path class="cls-13" d="M166.68,112.44c0,1.92-6.89,2.06-6.89,0V93.91h6.89Z"/><polyline class="cls-14" points="58.64 27.54 2.52 27.54 2.52 19.7 138.56 19.7"/><path class="cls-15" d="M28,19.9c0,1.8-6.89,1.93-6.89,0V2.55H28Z"/><rect class="cls-16" y="16.44" width="2.55" height="14.29" transform="translate(2.55 47.17) rotate(-180)"/><rect class="cls-17" x="182.33" y="107.77" width="2.55" height="14.29"/><rect class="cls-18" x="33.8" y="22.09" width="109" height="7.84" rx="3.92" transform="translate(-1.13 4.21) rotate(-2.71)"/><rect class="cls-19" x="33.8" y="31.66" width="109" height="7.84" rx="3.92" transform="matrix(1, -0.05, 0.05, 1, -1.59, 4.22)"/><rect class="cls-20" x="33.8" y="41.23" width="109" height="7.84" rx="3.92" transform="translate(-2.04 4.23) rotate(-2.71)"/><rect class="cls-21" x="33.8" y="50.81" width="109" height="7.84" rx="3.92" transform="translate(-2.49 4.24) rotate(-2.71)"/><rect class="cls-22" x="33.8" y="60.38" width="109" height="7.84" rx="3.92" transform="translate(-2.94 4.25) rotate(-2.71)"/><rect class="cls-23" x="33.8" y="69.95" width="109" height="7.84" rx="3.92" transform="translate(-3.4 4.26) rotate(-2.71)"/><rect class="cls-24" x="33.8" y="79.52" width="109" height="7.84" rx="3.92" transform="translate(-3.85 4.27) rotate(-2.71)"/><rect class="cls-25" x="33.8" y="89.09" width="109" height="7.84" rx="3.92" transform="translate(-4.3 4.28) rotate(-2.71)"/><rect class="cls-26" x="33.8" y="98.67" width="109" height="7.84" rx="3.92" transform="translate(-4.76 4.3) rotate(-2.71)"/><rect class="cls-27" x="33.8" y="108.24" width="109" height="7.84" rx="3.92" transform="translate(-5.21 4.31) rotate(-2.71)"/><path class="cls-28" d="M28,5.83C28,4.6,23.1,3.24,21.08,4.6v-2H28Z"/><rect class="cls-29" x="161.96" y="85.7" width="2.55" height="14.29" transform="translate(256.08 -70.39) rotate(90)"/><path class="cls-28" d="M166.68,99.5c0-2-4.87-4.3-6.89-2V94.12h6.89Z"/><path class="cls-28" d="M6.27,27.54C3,27.69,3.16,20,4.09,19.7H2.52v7.84Z"/><rect class="cls-30" x="23.34" y="-5.87" width="2.55" height="14.29" transform="translate(25.89 -23.34) rotate(90)"/><g class="cls-31"><path class="cls-32" d="M139,113.68,38,118.47a3.92,3.92,0,0,1-4.1-3.73h0a3.91,3.91,0,0,1,3.73-4.1l101-4.79a3.92,3.92,0,0,1,.37,7.83Zm0-9.57L38,108.9a3.92,3.92,0,0,1-.37-7.84l101-4.78a3.92,3.92,0,0,1,.37,7.83Zm0-9.57L38,99.33a3.92,3.92,0,0,1-.37-7.84l101-4.79a3.92,3.92,0,0,1,.37,7.84ZM139,85,38,89.76a3.92,3.92,0,0,1-.37-7.84l101-4.79A3.92,3.92,0,0,1,139,85Zm0-9.57L38,80.18a3.92,3.92,0,0,1-.37-7.83l101-4.79A3.92,3.92,0,0,1,139,75.4Zm0-9.58L38,70.61a3.92,3.92,0,0,1-.37-7.83l101-4.79a3.92,3.92,0,0,1,.37,7.83Zm0-9.57L38,61a3.92,3.92,0,0,1-.37-7.84l101-4.78a3.92,3.92,0,0,1,.37,7.83Zm0-9.57L38,51.47a3.92,3.92,0,0,1-.37-7.84l101-4.79a3.92,3.92,0,0,1,.37,7.84Zm0-9.57L38,41.9a3.92,3.92,0,0,1-.37-7.84l101-4.79a3.92,3.92,0,0,1,.37,7.84Zm0-9.57L38,32.32a3.92,3.92,0,0,1-.37-7.83l101-4.79a3.92,3.92,0,0,1,.37,7.84Z"/><path class="cls-33" d="M138.64,19.7l-101,4.79A3.92,3.92,0,0,0,38,32.32l101-4.78a3.92,3.92,0,0,0-.37-7.84Z"/><path class="cls-34" d="M138.64,19.7l-101,4.79A3.92,3.92,0,0,0,38,32.32l101-4.78a3.92,3.92,0,0,0-.37-7.84Z"/><path class="cls-35" d="M138.64,29.27l-101,4.79A3.92,3.92,0,0,0,38,41.9l101-4.79a3.92,3.92,0,0,0-.37-7.84Z"/><path class="cls-36" d="M138.64,29.27l-101,4.79A3.92,3.92,0,0,0,38,41.9l101-4.79a3.92,3.92,0,0,0-.37-7.84Z"/><path class="cls-37" d="M138.64,38.84l-101,4.79A3.92,3.92,0,0,0,38,51.47l101-4.79a3.92,3.92,0,0,0-.37-7.84Z"/><path class="cls-38" d="M138.64,38.84l-101,4.79A3.92,3.92,0,0,0,38,51.47l101-4.79a3.92,3.92,0,0,0-.37-7.84Z"/><path class="cls-39" d="M138.64,48.42,37.6,53.2A3.92,3.92,0,0,0,38,61l101-4.79a3.92,3.92,0,0,0-.37-7.83Z"/><path class="cls-40" d="M138.64,48.42,37.6,53.2A3.92,3.92,0,0,0,38,61l101-4.79a3.92,3.92,0,0,0-.37-7.83Z"/><path class="cls-41" d="M138.64,58l-101,4.79A3.92,3.92,0,0,0,38,70.61l101-4.79a3.92,3.92,0,0,0-.37-7.83Z"/><path class="cls-42" d="M138.64,58l-101,4.79A3.92,3.92,0,0,0,38,70.61l101-4.79a3.92,3.92,0,0,0-.37-7.83Z"/><path class="cls-43" d="M138.64,67.56l-101,4.79A3.92,3.92,0,0,0,38,80.18L139,75.4a3.92,3.92,0,0,0-.37-7.84Z"/><path class="cls-44" d="M138.64,67.56l-101,4.79A3.92,3.92,0,0,0,38,80.18L139,75.4a3.92,3.92,0,0,0-.37-7.84Z"/><path class="cls-45" d="M138.64,77.13l-101,4.79A3.92,3.92,0,0,0,38,89.76L139,85a3.92,3.92,0,0,0-.37-7.84Z"/><path class="cls-46" d="M138.64,77.13l-101,4.79A3.92,3.92,0,0,0,38,89.76L139,85a3.92,3.92,0,0,0-.37-7.84Z"/><path class="cls-47" d="M138.64,86.7l-101,4.79A3.92,3.92,0,0,0,38,99.33l101-4.79a3.92,3.92,0,0,0-.37-7.84Z"/><path class="cls-48" d="M138.64,86.7l-101,4.79A3.92,3.92,0,0,0,38,99.33l101-4.79a3.92,3.92,0,0,0-.37-7.84Z"/><path class="cls-49" d="M138.64,96.28l-101,4.78A3.92,3.92,0,0,0,38,108.9l101-4.79a3.92,3.92,0,0,0-.37-7.83Z"/><path class="cls-50" d="M138.64,96.28l-101,4.78A3.92,3.92,0,0,0,38,108.9l101-4.79a3.92,3.92,0,0,0-.37-7.83Z"/><path class="cls-51" d="M138.64,105.85l-101,4.79a3.91,3.91,0,0,0-3.73,4.1h0a3.92,3.92,0,0,0,4.1,3.73l101-4.79a3.92,3.92,0,0,0-.37-7.83Z"/><path class="cls-52" d="M138.64,105.85l-101,4.79a3.91,3.91,0,0,0-3.73,4.1h0a3.92,3.92,0,0,0,4.1,3.73l101-4.79a3.92,3.92,0,0,0-.37-7.83Z"/></g><g class="cls-53"><path class="cls-54" d="M139,113.86,38,118.65a3.92,3.92,0,0,1-4.1-3.73h0a3.91,3.91,0,0,1,3.73-4.1l101-4.79a3.92,3.92,0,0,1,.37,7.83Zm0-9.57L38,109.08a3.92,3.92,0,1,1-.37-7.83l101-4.79a3.92,3.92,0,0,1,.37,7.83Zm0-9.57L38,99.51a3.92,3.92,0,0,1-.37-7.84l101-4.79a3.92,3.92,0,0,1,.37,7.84Zm0-9.57L38,89.94a3.92,3.92,0,0,1-.37-7.84l101-4.79a3.92,3.92,0,0,1,.37,7.84Zm0-9.57L38,80.36a3.92,3.92,0,0,1-.37-7.83l101-4.79a3.92,3.92,0,0,1,.37,7.84ZM139,66,38,70.79A3.92,3.92,0,1,1,37.6,63l101-4.79A3.92,3.92,0,0,1,139,66Zm0-9.57L38,61.22a3.92,3.92,0,0,1-.37-7.83l101-4.79a3.92,3.92,0,0,1,.37,7.83Zm0-9.57L38,51.65a3.92,3.92,0,0,1-.37-7.84l101-4.79a3.92,3.92,0,0,1,.37,7.84Zm0-9.57L38,42.08a3.92,3.92,0,0,1-.37-7.84l101-4.79a3.92,3.92,0,0,1,.37,7.84Zm0-9.57L38,32.5a3.92,3.92,0,0,1-.37-7.83l101-4.79a3.92,3.92,0,0,1,.37,7.84Z"/><path class="cls-55" d="M138.64,19.88l-101,4.79A3.92,3.92,0,0,0,38,32.5l101-4.78a3.92,3.92,0,0,0-.37-7.84Z"/><path class="cls-56" d="M138.64,19.88l-101,4.79A3.92,3.92,0,0,0,38,32.5l101-4.78a3.92,3.92,0,0,0-.37-7.84Z"/><path class="cls-57" d="M138.64,29.45l-101,4.79A3.92,3.92,0,0,0,38,42.08l101-4.79a3.92,3.92,0,0,0-.37-7.84Z"/><path class="cls-58" d="M138.64,29.45l-101,4.79A3.92,3.92,0,0,0,38,42.08l101-4.79a3.92,3.92,0,0,0-.37-7.84Z"/><path class="cls-59" d="M138.64,39l-101,4.79A3.92,3.92,0,0,0,38,51.65l101-4.79a3.92,3.92,0,0,0-.37-7.84Z"/><path class="cls-60" d="M138.64,39l-101,4.79A3.92,3.92,0,0,0,38,51.65l101-4.79a3.92,3.92,0,0,0-.37-7.84Z"/><path class="cls-61" d="M138.64,48.6l-101,4.79A3.92,3.92,0,0,0,38,61.22l101-4.79a3.92,3.92,0,0,0-.37-7.83Z"/><path class="cls-62" d="M138.64,48.6l-101,4.79A3.92,3.92,0,0,0,38,61.22l101-4.79a3.92,3.92,0,0,0-.37-7.83Z"/><path class="cls-63" d="M138.64,58.17,37.6,63A3.92,3.92,0,1,0,38,70.79L139,66a3.92,3.92,0,0,0-.37-7.83Z"/><path class="cls-64" d="M138.64,58.17,37.6,63A3.92,3.92,0,1,0,38,70.79L139,66a3.92,3.92,0,0,0-.37-7.83Z"/><path class="cls-65" d="M138.64,67.74l-101,4.79A3.92,3.92,0,0,0,38,80.36l101-4.78a3.92,3.92,0,0,0-.37-7.84Z"/><path class="cls-66" d="M138.64,67.74l-101,4.79A3.92,3.92,0,0,0,38,80.36l101-4.78a3.92,3.92,0,0,0-.37-7.84Z"/><path class="cls-67" d="M138.64,77.31,37.6,82.1A3.92,3.92,0,0,0,38,89.94l101-4.79a3.92,3.92,0,0,0-.37-7.84Z"/><path class="cls-68" d="M138.64,77.31,37.6,82.1A3.92,3.92,0,0,0,38,89.94l101-4.79a3.92,3.92,0,0,0-.37-7.84Z"/><path class="cls-69" d="M138.64,86.88l-101,4.79A3.92,3.92,0,0,0,38,99.51l101-4.79a3.92,3.92,0,0,0-.37-7.84Z"/><path class="cls-70" d="M138.64,86.88l-101,4.79A3.92,3.92,0,0,0,38,99.51l101-4.79a3.92,3.92,0,0,0-.37-7.84Z"/><path class="cls-71" d="M138.64,96.46l-101,4.79a3.92,3.92,0,1,0,.37,7.83l101-4.79a3.92,3.92,0,0,0-.37-7.83Z"/><path class="cls-72" d="M138.64,96.46l-101,4.79a3.92,3.92,0,1,0,.37,7.83l101-4.79a3.92,3.92,0,0,0-.37-7.83Z"/><path class="cls-73" d="M138.64,106l-101,4.79a3.91,3.91,0,0,0-3.73,4.1h0a3.92,3.92,0,0,0,4.1,3.73l101-4.79a3.92,3.92,0,0,0-.37-7.83Z"/><path class="cls-74" d="M138.64,106l-101,4.79a3.91,3.91,0,0,0-3.73,4.1h0a3.92,3.92,0,0,0,4.1,3.73l101-4.79a3.92,3.92,0,0,0-.37-7.83Z"/></g></g></g></g></svg>