<svg xmlns="http://www.w3.org/2000/svg" xmlns:xlink="http://www.w3.org/1999/xlink" viewBox="0 0 107.87 45.3"><defs><style>.cls-1{isolation:isolate;}.cls-2{fill:url(#linear-gradient);}.cls-3{fill:url(#linear-gradient-2);}.cls-24,.cls-25,.cls-27,.cls-29,.cls-31,.cls-33,.cls-35,.cls-4{mix-blend-mode:multiply;}.cls-4{opacity:0.3;}.cls-5{fill:url(#linear-gradient-3);}.cls-6{fill:url(#linear-gradient-4);}.cls-7{fill:url(#linear-gradient-5);}.cls-8{fill:url(#linear-gradient-6);}.cls-9{fill:url(#linear-gradient-7);}.cls-10{fill:url(#linear-gradient-8);}.cls-11{fill:url(#linear-gradient-9);}.cls-12{fill:url(#linear-gradient-10);}.cls-13{fill:url(#linear-gradient-11);}.cls-14{fill:url(#linear-gradient-12);}.cls-15{fill:url(#linear-gradient-13);}.cls-16{fill:url(#linear-gradient-14);}.cls-17{fill:url(#linear-gradient-15);}.cls-18{fill:url(#linear-gradient-16);}.cls-19{fill:url(#linear-gradient-17);}.cls-20{fill:url(#linear-gradient-18);}.cls-21{mix-blend-mode:overlay;opacity:0.61;}.cls-22{fill:url(#linear-gradient-19);}.cls-23{fill:url(#linear-gradient-20);}.cls-24,.cls-25,.cls-27,.cls-29,.cls-31,.cls-33,.cls-35{opacity:0.39;}.cls-24{fill:url(#linear-gradient-21);}.cls-25,.cls-26{fill:url(#linear-gradient-22);}.cls-27,.cls-28{fill:url(#linear-gradient-24);}.cls-29,.cls-30{fill:url(#linear-gradient-26);}.cls-31,.cls-32{fill:url(#linear-gradient-28);}.cls-33,.cls-34{fill:url(#linear-gradient-30);}.cls-35,.cls-36{fill:url(#linear-gradient-32);}</style><linearGradient id="linear-gradient" x1="29.21" y1="436.16" x2="29.24" y2="433.45" gradientTransform="matrix(1, 0.05, 0.07, -1.57, -18.91, 719.21)" gradientUnits="userSpaceOnUse"><stop offset="0" stop-color="#3e3f40"/><stop offset="0.08" stop-color="#6a6c6e"/><stop offset="0.27" stop-color="#999"/><stop offset="0.37" stop-color="#a4a6a7"/><stop offset="0.41" stop-color="#a8a8a8"/><stop offset="0.49" stop-color="#8e8e8e"/><stop offset="0.68" stop-color="#747577"/><stop offset="0.7" stop-color="#707172"/><stop offset="0.74" stop-color="#686868"/><stop offset="0.82" stop-color="#939393"/><stop offset="0.93" stop-color="#5b5b5b"/><stop offset="1" stop-color="#373839"/></linearGradient><linearGradient id="linear-gradient-2" x1="90.44" y1="448.01" x2="90.47" y2="445.35" gradientTransform="matrix(1, 0.02, 0.02, -1.57, -5.44, 739.83)" xlink:href="#linear-gradient"/><linearGradient id="linear-gradient-3" x1="1313.81" y1="122.55" x2="1313.81" y2="119.02" gradientTransform="matrix(-1, -0.05, -0.07, 1.57, 1364.94, -118.35)" gradientUnits="userSpaceOnUse"><stop offset="0"/><stop offset="0.08" stop-color="#050709"/><stop offset="0.27" stop-color="#747576"/><stop offset="0.28" stop-color="#717273"/><stop offset="0.37" stop-color="#3f4142"/><stop offset="0.41" stop-color="#434343"/><stop offset="0.49" stop-color="#292929"/><stop offset="0.68" stop-color="#0f1012"/><stop offset="0.7" stop-color="#0b0c0d"/><stop offset="0.74" stop-color="#030303"/><stop offset="0.82" stop-color="#2e2e2e"/><stop offset="0.93"/><stop offset="1"/></linearGradient><linearGradient id="linear-gradient-4" x1="1313.57" y1="125.8" x2="1313.57" y2="122.26" xlink:href="#linear-gradient-3"/><linearGradient id="linear-gradient-5" x1="1313.33" y1="129.04" x2="1313.33" y2="125.51" xlink:href="#linear-gradient-3"/><linearGradient id="linear-gradient-6" x1="1313.09" y1="132.29" x2="1313.09" y2="128.75" xlink:href="#linear-gradient-3"/><linearGradient id="linear-gradient-7" x1="1312.85" y1="135.53" x2="1312.85" y2="131.99" xlink:href="#linear-gradient-3"/><linearGradient id="linear-gradient-8" x1="1312.61" y1="138.75" x2="1312.61" y2="135.21" xlink:href="#linear-gradient-3"/><linearGradient id="linear-gradient-9" x1="56.36" y1="85.76" x2="56.39" y2="83.04" gradientTransform="matrix(1, -0.05, 0.07, 1.57, -18.91, -118.35)" xlink:href="#linear-gradient"/><linearGradient id="linear-gradient-10" x1="55.51" y1="82.45" x2="55.54" y2="79.73" gradientTransform="matrix(1, -0.05, 0.07, 1.57, -18.91, -118.35)" xlink:href="#linear-gradient"/><linearGradient id="linear-gradient-11" x1="98.94" y1="93.94" x2="98.96" y2="91.28" gradientTransform="matrix(1, -0.02, 0.02, 1.57, -5.44, -138.97)" xlink:href="#linear-gradient"/><linearGradient id="linear-gradient-12" x1="56.12" y1="89" x2="56.15" y2="86.29" gradientTransform="matrix(1, -0.05, 0.07, 1.57, -18.91, -118.35)" xlink:href="#linear-gradient"/><linearGradient id="linear-gradient-13" x1="55.88" y1="92.25" x2="55.9" y2="89.53" gradientTransform="matrix(1, -0.05, 0.07, 1.57, -18.91, -118.35)" xlink:href="#linear-gradient"/><linearGradient id="linear-gradient-14" x1="55.64" y1="95.49" x2="55.66" y2="92.78" gradientTransform="matrix(1, -0.05, 0.07, 1.57, -18.91, -118.35)" xlink:href="#linear-gradient"/><linearGradient id="linear-gradient-15" x1="55.4" y1="98.74" x2="55.42" y2="96.02" gradientTransform="matrix(1, -0.05, 0.07, 1.57, -18.91, -118.35)" xlink:href="#linear-gradient"/><linearGradient id="linear-gradient-16" x1="55.16" y1="101.96" x2="55.18" y2="99.24" gradientTransform="matrix(1, -0.05, 0.07, 1.57, -18.91, -118.35)" xlink:href="#linear-gradient"/><linearGradient id="linear-gradient-17" x1="1125.54" y1="9.56" x2="1125.54" gradientTransform="matrix(-1, 0, 0, 1, 1232.73, 0)" gradientUnits="userSpaceOnUse"><stop offset="0" stop-color="#18191a"/><stop offset="0.08" stop-color="#444648"/><stop offset="0.27" stop-color="#b3b4b5"/><stop offset="0.28" stop-color="#b0b1b2"/><stop offset="0.37" stop-color="#7e8081"/><stop offset="0.41" stop-color="#828282"/><stop offset="0.49" stop-color="#686868"/><stop offset="0.68" stop-color="#4e4f51"/><stop offset="0.7" stop-color="#4a4b4c"/><stop offset="0.74" stop-color="#424242"/><stop offset="0.82" stop-color="#6d6d6d"/><stop offset="0.93" stop-color="#353535"/><stop offset="1" stop-color="#111213"/></linearGradient><linearGradient id="linear-gradient-18" x1="1125.54" y1="45.3" x2="1125.54" y2="35.74" xlink:href="#linear-gradient-17"/><linearGradient id="linear-gradient-19" x1="-0.15" y1="727.51" x2="105.02" y2="727.51" gradientTransform="matrix(1, 0, 0, -1, 0, 766.69)" gradientUnits="userSpaceOnUse"><stop offset="0" stop-color="#4d4d4d" stop-opacity="0.5"/><stop offset="0.13" stop-color="#333" stop-opacity="0.8"/><stop offset="0.33" stop-color="#333" stop-opacity="0.7"/><stop offset="0.45" stop-color="#414141" stop-opacity="0.65"/><stop offset="0.67" stop-color="#4d4d4d" stop-opacity="0.6"/><stop offset="0.71" stop-color="#444" stop-opacity="0.67"/><stop offset="0.91" stop-color="#333" stop-opacity="0.8"/><stop offset="0.93" stop-color="#383838" stop-opacity="0.8"/><stop offset="0.96" stop-color="#474747" stop-opacity="0.8"/><stop offset="0.98" stop-color="#606060" stop-opacity="0.8"/><stop offset="1" stop-color="gray" stop-opacity="0.8"/></linearGradient><linearGradient id="linear-gradient-20" x1="-0.15" y1="6.03" x2="104.84" y2="6.03" gradientUnits="userSpaceOnUse"><stop offset="0" stop-color="#b3b3b3" stop-opacity="0.5"/><stop offset="0" stop-color="#afafaf" stop-opacity="0.51"/><stop offset="0.03" stop-color="#787878" stop-opacity="0.64"/><stop offset="0.05" stop-color="#515151" stop-opacity="0.73"/><stop offset="0.09" stop-color="#3a3a3a" stop-opacity="0.78"/><stop offset="0.13" stop-color="#333" stop-opacity="0.8"/><stop offset="0.2" stop-color="#5f5f5f" stop-opacity="0.77"/><stop offset="0.33" stop-color="#ccc" stop-opacity="0.7"/><stop offset="0.33" stop-color="#c7c7c7" stop-opacity="0.68"/><stop offset="0.41" stop-color="#9c9c9c" stop-opacity="0.55"/><stop offset="0.48" stop-color="#797979" stop-opacity="0.44"/><stop offset="0.55" stop-color="#616161" stop-opacity="0.36"/><stop offset="0.61" stop-color="#525252" stop-opacity="0.32"/><stop offset="0.67" stop-color="#4d4d4d" stop-opacity="0.3"/><stop offset="0.69" stop-color="#484848" stop-opacity="0.4"/><stop offset="0.79" stop-color="#383838" stop-opacity="0.7"/><stop offset="0.91" stop-color="#333" stop-opacity="0.8"/><stop offset="0.93" stop-color="#383838" stop-opacity="0.8"/><stop offset="0.96" stop-color="#474747" stop-opacity="0.8"/><stop offset="0.98" stop-color="#606060" stop-opacity="0.8"/><stop offset="1" stop-color="gray" stop-opacity="0.8"/></linearGradient><linearGradient id="linear-gradient-21" x1="-0.12" y1="23.88" x2="85.9" y2="23.88" xlink:href="#linear-gradient-20"/><linearGradient id="linear-gradient-22" x1="-0.12" y1="11.16" x2="85.9" y2="11.16" xlink:href="#linear-gradient-20"/><linearGradient id="linear-gradient-24" x1="-0.12" y1="16.26" x2="85.9" y2="16.26" xlink:href="#linear-gradient-20"/><linearGradient id="linear-gradient-26" x1="-0.12" y1="21.35" x2="85.9" y2="21.35" xlink:href="#linear-gradient-20"/><linearGradient id="linear-gradient-28" x1="-0.12" y1="26.45" x2="85.9" y2="26.45" xlink:href="#linear-gradient-20"/><linearGradient id="linear-gradient-30" x1="-0.12" y1="31.55" x2="85.9" y2="31.55" xlink:href="#linear-gradient-20"/><linearGradient id="linear-gradient-32" x1="-0.12" y1="36.6" x2="85.9" y2="36.6" xlink:href="#linear-gradient-20"/></defs><g class="cls-1"><g id="Layer_2" data-name="Layer 2"><g id="Layer_1-2" data-name="Layer 1"><path class="cls-2" d="M85.19,38.43,2.28,35.88A2.11,2.11,0,0,0,0,37.83v.07a2.08,2.08,0,0,0,2,2.15L85,42.6"/><polyline class="cls-3" points="84.98 42.6 106.39 42.6 106.46 38.43 85.22 38.44"/><path class="cls-4" d="M104.38,42.6c1.81.08,1.72-4,1.21-4.17h.87V42.6Z"/><path class="cls-5" d="M2.07,9.55,85,12.1a2.09,2.09,0,0,0,2.23-1.95v-.07a2.1,2.1,0,0,0-2-2.15L2.28,5.38A2.11,2.11,0,0,0,0,7.33V7.4A2.08,2.08,0,0,0,2.07,9.55Z"/><path class="cls-6" d="M2.07,14.65,85,17.2a2.1,2.1,0,0,0,2.23-1.95v-.07a2.09,2.09,0,0,0-2-2.15L2.28,10.48A2.11,2.11,0,0,0,0,12.43v.07A2.09,2.09,0,0,0,2.07,14.65Z"/><path class="cls-7" d="M2.07,19.74,85,22.3a2.1,2.1,0,0,0,2.23-2v-.07a2.1,2.1,0,0,0-2-2.15L2.28,15.57a2.11,2.11,0,0,0-2.24,2v.07A2.07,2.07,0,0,0,2.07,19.74Z"/><path class="cls-8" d="M2.07,24.84,85,27.39a2.09,2.09,0,0,0,2.23-1.95v-.07a2.1,2.1,0,0,0-2-2.15L2.28,20.67A2.11,2.11,0,0,0,0,22.62v.07A2.08,2.08,0,0,0,2.07,24.84Z"/><path class="cls-9" d="M2.07,29.94,85,32.49a2.1,2.1,0,0,0,2.23-2v-.06a2.09,2.09,0,0,0-2-2.15L2.28,25.76a2.12,2.12,0,0,0-2.24,2v.07A2.09,2.09,0,0,0,2.07,29.94Z"/><path class="cls-10" d="M2.07,35,85,37.54a2.09,2.09,0,0,0,2.23-1.95v-.07a2.1,2.1,0,0,0-2-2.15L2.28,30.82a2.11,2.11,0,0,0-2.24,2v.07A2.08,2.08,0,0,0,2.07,35Z"/><path class="cls-11" d="M85.23,12.06,2.31,14.61A2.1,2.1,0,0,1,.08,12.66v-.07a2.1,2.1,0,0,1,2-2.15L85,7.89a2.11,2.11,0,0,1,2.24,2v.07A2.09,2.09,0,0,1,85.23,12.06Z"/><path class="cls-12" d="M85.19,6.87,2.28,9.43A2.11,2.11,0,0,1,0,7.47V7.4a2.09,2.09,0,0,1,2-2.15L85,2.7"/><polyline class="cls-13" points="84.98 2.7 106.39 2.7 106.46 6.88 85.22 6.87"/><path class="cls-14" d="M85.23,17.15,2.31,19.71a2.1,2.1,0,0,1-2.23-2v-.07a2.09,2.09,0,0,1,2-2.14L85,13a2.11,2.11,0,0,1,2.24,2V15A2.07,2.07,0,0,1,85.23,17.15Z"/><path class="cls-15" d="M85.23,22.25,2.31,24.8A2.09,2.09,0,0,1,.08,22.85v-.07a2.1,2.1,0,0,1,2-2.15L85,18.08a2.11,2.11,0,0,1,2.24,2v.07A2.08,2.08,0,0,1,85.23,22.25Z"/><path class="cls-16" d="M85.23,27.35,2.31,29.9A2.1,2.1,0,0,1,.08,28v-.07a2.09,2.09,0,0,1,2-2.15L85,23.18a2.11,2.11,0,0,1,2.24,1.95v.07A2.09,2.09,0,0,1,85.23,27.35Z"/><path class="cls-17" d="M85.23,32.44,2.31,35A2.11,2.11,0,0,1,.08,33V33a2.1,2.1,0,0,1,2-2.15L85,28.27a2.11,2.11,0,0,1,2.24,2v.06A2.08,2.08,0,0,1,85.23,32.44Z"/><path class="cls-18" d="M85.23,37.5,2.31,40.05A2.09,2.09,0,0,1,.08,38.1V38a2.1,2.1,0,0,1,2-2.15L85,33.33a2.11,2.11,0,0,1,2.24,2v.07A2.08,2.08,0,0,1,85.23,37.5Z"/><path class="cls-4" d="M104.4,6.88c1.8.09,1.72-4,1.21-4.17h.87V6.88Z"/><rect class="cls-19" x="106.5" width="1.38" height="9.56"/><rect class="cls-20" x="106.5" y="35.74" width="1.38" height="9.56"/><g class="cls-21"><path class="cls-22" d="M85.1,42.5l-83-2.45a2.13,2.13,0,1,1,.21-4.26l83,2.54c1,.05,21.29.08,21.29.08v4.18S86.3,42.56,85.1,42.5Z"/></g><g class="cls-21"><path class="cls-23" d="M84.91,2.71,2.07,5.25A2.14,2.14,0,0,0,0,7.44a2.16,2.16,0,0,0,2.28,2L85.12,6.88c1,0,21.29-.08,21.29-.08V2.62S86.11,2.65,84.91,2.71Z"/><path class="cls-24" d="M85.12,37.41,2.28,40A2.14,2.14,0,0,1,0,38H0a2.13,2.13,0,0,1,2.07-2.19l82.84-2.55a2.16,2.16,0,0,1,2.28,2A2.12,2.12,0,0,1,85.12,37.41Zm0-5L2.28,34.91a2.16,2.16,0,0,1-2.28-2,2.12,2.12,0,0,1,2.07-2.18l82.84-2.55a2.09,2.09,0,1,1,.21,4.17Zm0-5.1L2.28,29.81a2.09,2.09,0,1,1-.21-4.17l82.84-2.55a2.15,2.15,0,0,1,2.28,2A2.12,2.12,0,0,1,85.12,27.26Zm0-5.09L2.28,24.71a2.09,2.09,0,1,1-.21-4.17L84.91,18a2.16,2.16,0,0,1,2.28,2A2.13,2.13,0,0,1,85.12,22.17Zm0-5.1L2.28,19.62a2.16,2.16,0,0,1-2.28-2,2.12,2.12,0,0,1,2.07-2.18L84.91,12.9a2.09,2.09,0,1,1,.21,4.17Zm0-5.1L2.28,14.52a2.09,2.09,0,1,1-.21-4.17L84.91,7.8a2.16,2.16,0,0,1,2.28,2A2.12,2.12,0,0,1,85.12,12Z"/><path class="cls-25" d="M84.91,7.8,2.07,10.35a2.09,2.09,0,1,0,.21,4.17L85.12,12a2.12,2.12,0,0,0,2.07-2.18A2.16,2.16,0,0,0,84.91,7.8Z"/><path class="cls-26" d="M84.91,7.8,2.07,10.35a2.09,2.09,0,1,0,.21,4.17L85.12,12a2.12,2.12,0,0,0,2.07-2.18A2.16,2.16,0,0,0,84.91,7.8Z"/><path class="cls-27" d="M84.91,12.9,2.07,15.45A2.12,2.12,0,0,0,0,17.63a2.16,2.16,0,0,0,2.28,2l82.84-2.55a2.09,2.09,0,1,0-.21-4.17Z"/><path class="cls-28" d="M84.91,12.9,2.07,15.45A2.12,2.12,0,0,0,0,17.63a2.16,2.16,0,0,0,2.28,2l82.84-2.55a2.09,2.09,0,1,0-.21-4.17Z"/><path class="cls-29" d="M84.91,18,2.07,20.54a2.09,2.09,0,1,0,.21,4.17l82.84-2.54A2.13,2.13,0,0,0,87.19,20,2.16,2.16,0,0,0,84.91,18Z"/><path class="cls-30" d="M84.91,18,2.07,20.54a2.09,2.09,0,1,0,.21,4.17l82.84-2.54A2.13,2.13,0,0,0,87.19,20,2.16,2.16,0,0,0,84.91,18Z"/><path class="cls-31" d="M84.91,23.09,2.07,25.64a2.09,2.09,0,1,0,.21,4.17l82.84-2.55a2.12,2.12,0,0,0,2.07-2.18A2.15,2.15,0,0,0,84.91,23.09Z"/><path class="cls-32" d="M84.91,23.09,2.07,25.64a2.09,2.09,0,1,0,.21,4.17l82.84-2.55a2.12,2.12,0,0,0,2.07-2.18A2.15,2.15,0,0,0,84.91,23.09Z"/><path class="cls-33" d="M84.91,28.19,2.07,30.74A2.12,2.12,0,0,0,0,32.92a2.16,2.16,0,0,0,2.28,2l82.84-2.55a2.09,2.09,0,1,0-.21-4.17Z"/><path class="cls-34" d="M84.91,28.19,2.07,30.74A2.12,2.12,0,0,0,0,32.92a2.16,2.16,0,0,0,2.28,2l82.84-2.55a2.09,2.09,0,1,0-.21-4.17Z"/><path class="cls-35" d="M84.91,33.24,2.07,35.79A2.13,2.13,0,0,0,0,38H0a2.14,2.14,0,0,0,2.28,2l82.84-2.55a2.12,2.12,0,0,0,2.07-2.18A2.16,2.16,0,0,0,84.91,33.24Z"/><path class="cls-36" d="M84.91,33.24,2.07,35.79A2.13,2.13,0,0,0,0,38H0a2.14,2.14,0,0,0,2.28,2l82.84-2.55a2.12,2.12,0,0,0,2.07-2.18A2.16,2.16,0,0,0,84.91,33.24Z"/></g></g></g></g></svg>