<svg xmlns="http://www.w3.org/2000/svg" xmlns:xlink="http://www.w3.org/1999/xlink" viewBox="0 0 186.05 51.2"><defs><style>.cls-1{isolation:isolate;}.cls-2{fill:url(#linear-gradient);}.cls-3{fill:url(#linear-gradient-2);}.cls-4{mix-blend-mode:multiply;opacity:0.3;}.cls-5{fill:url(#linear-gradient-3);}.cls-6{fill:url(#linear-gradient-4);}.cls-7{fill:url(#linear-gradient-5);}.cls-8{fill:#fff;}.cls-9{fill:#1a1a1a;}</style><linearGradient id="linear-gradient" x1="27.04" y1="47.57" x2="38.59" y2="47.57" gradientUnits="userSpaceOnUse"><stop offset="0" stop-color="#1a1a1a"/><stop offset="0.08" stop-color="#1a1a1a"/><stop offset="0.27" stop-color="#4d4d4d"/><stop offset="0.37" stop-color="#333"/><stop offset="0.41" stop-color="#333"/><stop offset="0.49" stop-color="#4d4d4d"/><stop offset="0.68" stop-color="#333"/><stop offset="0.74" stop-color="#333"/><stop offset="0.82" stop-color="#4d4d4d"/><stop offset="0.93" stop-color="#1a1a1a"/><stop offset="1" stop-color="#1a1a1a"/></linearGradient><linearGradient id="linear-gradient-2" x1="146.19" y1="47.57" x2="157.74" y2="47.57" xlink:href="#linear-gradient"/><linearGradient id="linear-gradient-3" x1="63.31" y1="73.43" x2="107.62" y2="-3.31" gradientUnits="userSpaceOnUse"><stop offset="0" stop-color="#3e3f40"/><stop offset="0.08" stop-color="#6a6c6e"/><stop offset="0.27" stop-color="#d9dadb"/><stop offset="0.28" stop-color="#d6d7d8"/><stop offset="0.37" stop-color="#a4a6a7"/><stop offset="0.41" stop-color="#a8a8a8"/><stop offset="0.49" stop-color="#8e8e8e"/><stop offset="0.56" stop-color="#747577"/><stop offset="0.59" stop-color="#707172"/><stop offset="0.67" stop-color="#686868"/><stop offset="0.9" stop-color="#939393"/><stop offset="0.95" stop-color="#757575"/><stop offset="1" stop-color="#5b5b5b"/></linearGradient><linearGradient id="linear-gradient-4" x1="69.58" y1="41.19" x2="104.59" y2="-19.44" xlink:href="#linear-gradient-3"/><linearGradient id="linear-gradient-5" x1="72.51" y1="60.03" x2="103.33" y2="6.65" gradientTransform="matrix(1, 0, 0, -13.73, 0, 376.76)" xlink:href="#linear-gradient-3"/></defs><g class="cls-1"><g id="Layer_2" data-name="Layer 2"><g id="Layer_1-2" data-name="Layer 1"><path class="cls-2" d="M35.77,51.2H29.86a.87.87,0,0,1-.85-.58l-2-6.68H38.59l-2,6.68A.87.87,0,0,1,35.77,51.2Z"/><path class="cls-3" d="M154.92,51.2H149a.87.87,0,0,1-.85-.58l-2-6.68h11.55l-2,6.68A.87.87,0,0,1,154.92,51.2Z"/><path class="cls-4" d="M37,50.22c-5.7-5.1-8.87-2.11-8.87-2.11L27,43.94H38.59Z"/><path class="cls-4" d="M156.13,50.22c-5.7-5.1-8.87-2.11-8.87-2.11l-1.07-4.17h11.55Z"/><path class="cls-5" d="M9.86,1.58H176.19a0,0,0,0,1,0,0v40.6a.67.67,0,0,1-.67.67h-165a.67.67,0,0,1-.67-.67V1.58A0,0,0,0,1,9.86,1.58Z"/><rect class="cls-6" y="0.17" width="186.05" height="0.85"/><rect class="cls-7" x="10.63" y="43.09" width="165.03" height="0.4"/><path class="cls-4" d="M176.19,16.82,18.2,7.69a5.62,5.62,0,0,1-1.81-.37L9.86,4.81V1.58L0,1H186.05l-9.86.56Z"/><path class="cls-8" d="M.08.11C3.64,0,7.2,0,10.75,0L21.43,0,42.77.11,21.43.18,10.75.2C7.2.2,3.64.26.08.11Z"/><rect class="cls-9" x="44.24" y="28.11" width="1.74" height="9.94" rx="0.87"/><rect class="cls-9" x="48.25" y="28.11" width="1.74" height="9.94" rx="0.87"/><rect class="cls-9" x="52.25" y="28.11" width="1.74" height="9.94" rx="0.87"/><rect class="cls-9" x="56.25" y="28.11" width="1.74" height="9.94" rx="0.87"/><rect class="cls-9" x="60.26" y="28.11" width="1.74" height="9.94" rx="0.87"/><rect class="cls-9" x="64.26" y="28.11" width="1.74" height="9.94" rx="0.87"/><rect class="cls-9" x="68.26" y="28.11" width="1.74" height="9.94" rx="0.87"/><rect class="cls-9" x="72.26" y="28.11" width="1.74" height="9.94" rx="0.87"/><rect class="cls-9" x="76.27" y="28.11" width="1.74" height="9.94" rx="0.87"/><rect class="cls-9" x="80.27" y="28.11" width="1.74" height="9.94" rx="0.87"/><rect class="cls-9" x="84.27" y="28.11" width="1.74" height="9.94" rx="0.87"/><rect class="cls-9" x="88.27" y="28.11" width="1.74" height="9.94" rx="0.87"/><rect class="cls-9" x="92.28" y="28.11" width="1.74" height="9.94" rx="0.87"/><rect class="cls-9" x="96.28" y="28.11" width="1.74" height="9.94" rx="0.87"/><rect class="cls-9" x="100.28" y="28.11" width="1.74" height="9.94" rx="0.87"/><rect class="cls-9" x="104.29" y="28.11" width="1.74" height="9.94" rx="0.87"/><rect class="cls-9" x="108.29" y="28.11" width="1.74" height="9.94" rx="0.87"/><rect class="cls-9" x="112.29" y="28.11" width="1.74" height="9.94" rx="0.87"/><rect class="cls-9" x="116.29" y="28.11" width="1.74" height="9.94" rx="0.87"/><rect class="cls-9" x="120.3" y="28.11" width="1.74" height="9.94" rx="0.87"/><rect class="cls-9" x="124.3" y="28.11" width="1.74" height="9.94" rx="0.87"/><rect class="cls-9" x="128.3" y="28.11" width="1.74" height="9.94" rx="0.87"/><rect class="cls-9" x="132.3" y="28.11" width="1.74" height="9.94" rx="0.87"/><rect class="cls-9" x="136.31" y="28.11" width="1.74" height="9.94" rx="0.87"/><rect class="cls-9" x="140.31" y="28.11" width="1.74" height="9.94" rx="0.87"/></g></g></g></svg>