<svg xmlns="http://www.w3.org/2000/svg" xmlns:xlink="http://www.w3.org/1999/xlink" viewBox="0 0 120.36 68.6"><defs><style>.cls-1{isolation:isolate;}.cls-2{fill:url(#linear-gradient);}.cls-3{fill:url(#linear-gradient-2);}.cls-4{fill:#fff;}.cls-5{fill:url(#linear-gradient-3);}.cls-6{fill:url(#linear-gradient-4);}.cls-7{fill:url(#linear-gradient-5);}.cls-8{fill:url(#radial-gradient);}.cls-9{fill:none;stroke:#fff;stroke-miterlimit:10;stroke-width:0.5px;}.cls-10{mix-blend-mode:multiply;opacity:0.3;}.cls-11{fill:#333;}.cls-12{fill:#1a1a1a;}</style><linearGradient id="linear-gradient" x1="32.2" y1="82.96" x2="74.08" y2="10.42" gradientUnits="userSpaceOnUse"><stop offset="0" stop-color="#3e3f40"/><stop offset="0.08" stop-color="#6a6c6e"/><stop offset="0.27" stop-color="#d9dadb"/><stop offset="0.28" stop-color="#d6d7d8"/><stop offset="0.37" stop-color="#a4a6a7"/><stop offset="0.41" stop-color="#a8a8a8"/><stop offset="0.49" stop-color="#8e8e8e"/><stop offset="0.56" stop-color="#747577"/><stop offset="0.59" stop-color="#707172"/><stop offset="0.67" stop-color="#686868"/><stop offset="0.9" stop-color="#939393"/><stop offset="0.95" stop-color="#757575"/><stop offset="1" stop-color="#5b5b5b"/></linearGradient><linearGradient id="linear-gradient-2" x1="50.65" y1="66.7" x2="69.64" y2="2.69" gradientUnits="userSpaceOnUse"><stop offset="0.01"/><stop offset="0.08"/><stop offset="0.17" stop-color="#1c2626"/><stop offset="0.25" stop-color="#364040"/><stop offset="0.28" stop-color="#454f4f"/><stop offset="0.33" stop-color="#5f6969"/><stop offset="0.36" stop-color="#697373"/><stop offset="0.4" stop-color="#596363"/><stop offset="0.47" stop-color="#303a3a"/><stop offset="0.5" stop-color="#1c2626"/><stop offset="0.85" stop-color="#030d0d"/><stop offset="0.94" stop-color="#333"/><stop offset="1" stop-color="#040404"/><stop offset="1"/></linearGradient><linearGradient id="linear-gradient-3" x1="67.29" y1="47.51" x2="98.19" y2="-1.09" gradientUnits="userSpaceOnUse"><stop offset="0" stop-color="#0b0c0d"/><stop offset="0.08" stop-color="#37393b"/><stop offset="0.27" stop-color="#a6a7a8"/><stop offset="0.28" stop-color="#a3a4a5"/><stop offset="0.37" stop-color="#717374"/><stop offset="0.41" stop-color="#757575"/><stop offset="0.49" stop-color="#5b5b5b"/><stop offset="0.56" stop-color="#414244"/><stop offset="0.59" stop-color="#3d3e3f"/><stop offset="0.67" stop-color="#353535"/><stop offset="0.9" stop-color="#606060"/><stop offset="0.95" stop-color="#424242"/><stop offset="1" stop-color="#282828"/></linearGradient><linearGradient id="linear-gradient-4" x1="76" y1="53.05" x2="106.91" y2="4.45" xlink:href="#linear-gradient-3"/><linearGradient id="linear-gradient-5" x1="81.11" y1="9.62" x2="81.11" y2="50.38" xlink:href="#linear-gradient"/><radialGradient id="radial-gradient" cx="80.41" cy="22.87" r="8.87" xlink:href="#linear-gradient-3"/></defs><g class="cls-1"><g id="Layer_2" data-name="Layer 2"><g id="Layer_1-2" data-name="Layer 1"><path class="cls-2" d="M110.5.17H10A9.87,9.87,0,0,0,.11,10V58.73A9.87,9.87,0,0,0,10,68.6H110.5a9.86,9.86,0,0,0,9.86-9.87V10A9.86,9.86,0,0,0,110.5.17ZM4.5,54.8a1.74,1.74,0,1,1,1.74-1.73A1.73,1.73,0,0,1,4.5,54.8Zm0-37.57A1.74,1.74,0,1,1,6.24,15.5,1.72,1.72,0,0,1,4.5,17.23ZM116,54.8a1.74,1.74,0,1,1,1.74-1.73A1.74,1.74,0,0,1,116,54.8Zm0-37.57a1.74,1.74,0,1,1,1.74-1.73A1.73,1.73,0,0,1,116,17.23Z"/><rect class="cls-3" x="15.44" y="9.54" width="89.6" height="49.69" rx="7"/><path class="cls-4" d="M94.38,24.05a17.11,17.11,0,0,1,3.77,8.4A17.7,17.7,0,0,1,97,41.63a18.42,18.42,0,0,1-2.38,4,17.46,17.46,0,0,1-3.39,3.26,16.49,16.49,0,0,1-4.13,2.23,16.89,16.89,0,0,1-4.6,1.05A18.28,18.28,0,0,1,77.79,52a17.73,17.73,0,0,1-4.49-1.51,17.65,17.65,0,0,1-7-6.28,17.7,17.7,0,0,1-.45-18.29l1.53.9a16.1,16.1,0,0,0,.15,16.62,15.05,15.05,0,0,0,2.78,3.38,15.53,15.53,0,0,0,3.59,2.53A16,16,0,0,0,78,50.81a16.72,16.72,0,0,0,4.41.29,16.29,16.29,0,0,0,8.27-2.94,16.49,16.49,0,0,0,3.27-3,18,18,0,0,0,2.33-3.8,17,17,0,0,0,1.25-8.79A16.68,16.68,0,0,0,94,24.33Z"/><path class="cls-5" d="M66.56,35.58A14.28,14.28,0,0,0,77.07,49.34V21.82A14.27,14.27,0,0,0,66.56,35.58Z"/><path class="cls-6" d="M95.11,35.58A14.29,14.29,0,0,0,85.14,22V49.19A14.27,14.27,0,0,0,95.11,35.58Z"/><path class="cls-7" d="M80.84,21.3a14.24,14.24,0,0,0-3.77.52V49.34a14.66,14.66,0,0,0,3.77.51,14.22,14.22,0,0,0,4.3-.66V22A14.22,14.22,0,0,0,80.84,21.3Z"/><ellipse class="cls-8" cx="81.11" cy="24.74" rx="1.15" ry="0.96"/><path class="cls-4" d="M80.28,15.54c0,.13,0,.23,0,.33a.88.88,0,0,1,0,.24.52.52,0,0,1-.07.21.64.64,0,0,1-.13.17.68.68,0,0,1-.26.18,1,1,0,0,1-.68,0,.76.76,0,0,1-.26-.18.64.64,0,0,1-.13-.17.74.74,0,0,1-.07-.21.88.88,0,0,1,0-.24v-.65a1,1,0,0,1,0-.25.68.68,0,0,1,.07-.2.52.52,0,0,1,.13-.17.76.76,0,0,1,.26-.18,1,1,0,0,1,.68,0,.68.68,0,0,1,.26.18.52.52,0,0,1,.13.17.48.48,0,0,1,.07.2,1,1,0,0,1,0,.25C80.28,15.32,80.28,15.42,80.28,15.54Zm-.36,0v-.29a1.23,1.23,0,0,0,0-.2.4.4,0,0,0,0-.13.36.36,0,0,0-.07-.1.45.45,0,0,0-.35-.14.46.46,0,0,0-.35.14.86.86,0,0,0-.07.1,1.27,1.27,0,0,0,0,.14s0,.12,0,.19v.58c0,.08,0,.15,0,.2a1.27,1.27,0,0,0,0,.14l.07.1a.54.54,0,0,0,.16.1.47.47,0,0,0,.38,0,.54.54,0,0,0,.16-.1.61.61,0,0,0,.07-.1.47.47,0,0,0,0-.14,1,1,0,0,0,0-.2Z"/><path class="cls-4" d="M80.91,14.7v.71h1v.31h-1v1h-.36V14.38H82v.32Z"/><path class="cls-4" d="M82.57,14.7v.71h1v.31h-1v1h-.35V14.38H83.7v.32Z"/><path class="cls-4" d="M94.89,22.37a.64.64,0,0,1,0,.28.6.6,0,0,1-.14.21.67.67,0,0,1-.22.13.7.7,0,0,1-.73-.13.8.8,0,0,1-.15-.21.82.82,0,0,1,0-.28v-1a.78.78,0,0,1,0-.28.8.8,0,0,1,.15-.21.57.57,0,0,1,.21-.13.7.7,0,0,1,.52,0,.54.54,0,0,1,.22.13.6.6,0,0,1,.14.21.61.61,0,0,1,0,.28Zm-.33-1a.43.43,0,0,0-.09-.28.3.3,0,0,0-.25-.1.32.32,0,0,0-.25.1.43.43,0,0,0-.09.28v1a.4.4,0,0,0,.09.27.33.33,0,0,0,.25.11.31.31,0,0,0,.25-.11.4.4,0,0,0,.09-.27Z"/><path class="cls-4" d="M33.54,15.53v-.68h-.63v.68h-.24V14h.24v.67h.63V14h.24v1.56Z"/><path class="cls-4" d="M35.26,14.75c0,.08,0,.15,0,.22a.78.78,0,0,1,0,.16.57.57,0,0,1,0,.14l-.09.12a.42.42,0,0,1-.18.11.53.53,0,0,1-.23,0,.51.51,0,0,1-.22,0,.42.42,0,0,1-.18-.11.47.47,0,0,1-.09-.12.58.58,0,0,1-.05-.14.81.81,0,0,1,0-.16,2.43,2.43,0,0,1,0-.44.81.81,0,0,1,0-.16.58.58,0,0,1,.05-.14.47.47,0,0,1,.09-.12.42.42,0,0,1,.18-.11.51.51,0,0,1,.22,0,.53.53,0,0,1,.23,0,.42.42,0,0,1,.18.11l.09.12a.57.57,0,0,1,0,.14.78.78,0,0,1,0,.16C35.25,14.6,35.26,14.67,35.26,14.75Zm-.24,0a1.21,1.21,0,0,0,0-.2.53.53,0,0,0,0-.13.12.12,0,0,0,0-.09.25.25,0,0,0,0-.07.34.34,0,0,0-.24-.09.32.32,0,0,0-.23.09l-.05.07a.29.29,0,0,0,0,.09.51.51,0,0,0,0,.13v.39a.52.52,0,0,0,0,.14.29.29,0,0,0,0,.09l.05.07.1.07a.3.3,0,0,0,.13,0,.27.27,0,0,0,.13,0,.41.41,0,0,0,.11-.07l0-.07a.16.16,0,0,0,0-.09A.53.53,0,0,0,35,15,1.21,1.21,0,0,0,35,14.75Z"/><path class="cls-4" d="M36.7,15a.59.59,0,0,1,0,.23.66.66,0,0,1-.12.17.52.52,0,0,1-.18.1.62.62,0,0,1-.44,0,.52.52,0,0,1-.18-.1.66.66,0,0,1-.12-.17.85.85,0,0,1,0-.23V14h.24v1a.33.33,0,0,0,.09.25.3.3,0,0,0,.23.09.32.32,0,0,0,.24-.09.33.33,0,0,0,.09-.25V14h.23Z"/><path class="cls-4" d="M38,15.53l-.33-.66h-.3v.66h-.23V14h.6a.6.6,0,0,1,.2,0l.16.1a.42.42,0,0,1,.09.14.41.41,0,0,1,0,.19.4.4,0,0,1-.09.27.44.44,0,0,1-.22.14l.36.69Zm0-1.1a.21.21,0,0,0-.07-.18.26.26,0,0,0-.19-.07h-.36v.49h.36a.31.31,0,0,0,.19-.06A.21.21,0,0,0,37.94,14.43Z"/><path class="cls-4" d="M47.19,15.53v-1l-.36.76h-.17l-.37-.76v1h-.24V14h.24l.45,1,.45-1h.24v1.56Z"/><path class="cls-4" d="M47.83,15.53V14h.24v1.56Z"/><path class="cls-4" d="M49.44,15.53l-.72-1.1v1.1h-.24V14h.22l.72,1.1V14h.23v1.56Z"/><path class="cls-4" d="M51.16,15a.85.85,0,0,1,0,.23.66.66,0,0,1-.12.17.52.52,0,0,1-.18.1.54.54,0,0,1-.22,0,.51.51,0,0,1-.22,0,.52.52,0,0,1-.18-.1.66.66,0,0,1-.12-.17A.59.59,0,0,1,50,15V14h.23v1a.33.33,0,0,0,.09.25.32.32,0,0,0,.24.09.3.3,0,0,0,.23-.09.33.33,0,0,0,.09-.25V14h.24Z"/><path class="cls-4" d="M52.07,14.18v1.35h-.24V14.18H51.4V14h1.1v.21Z"/><path class="cls-4" d="M52.77,15.53V14h1v.21H53v.46h.65v.21H53v.47h.76v.21Z"/><path class="cls-4" d="M39.48,40V38h-.42v-.28h1.12V38h-.41V40Z"/><path class="cls-4" d="M40.69,40V37.69H41V40Z"/><path class="cls-4" d="M41.84,38.38V40h-.26V37.69h.36l.37,1.6.36-1.6H43V40h-.26V38.35L42.38,40h-.16Z"/><path class="cls-4" d="M43.62,37.69h.94V38h-.65v.72h.59V39h-.59v.75h.67V40h-1Z"/><path class="cls-4" d="M45.4,39.14h0V40h-.28V37.69h.48a.5.5,0,0,1,.52.56v.32a.49.49,0,0,1-.4.55l.49.9h-.34Zm0-1.17v.89h.17c.16,0,.26-.09.26-.3v-.3c0-.21-.1-.29-.26-.29Z"/><circle class="cls-9" cx="42.79" cy="38.85" r="4.53"/><rect class="cls-9" x="28.32" y="16.94" width="29.25" height="10.37" rx="0.94"/><circle class="cls-9" cx="29.32" cy="38.85" r="4.53"/><line class="cls-9" x1="26.74" y1="38.85" x2="31.9" y2="38.85"/><circle class="cls-9" cx="56.25" cy="38.85" r="4.53"/><line class="cls-9" x1="53.68" y1="38.85" x2="58.83" y2="38.85"/><line class="cls-9" x1="56.25" y1="41.43" x2="56.25" y2="36.27"/><path class="cls-10" d="M88.33,35.32c0,8.07-2,14-3.19,14V22C86.36,21.87,88.33,27.26,88.33,35.32Z"/><path class="cls-11" d="M80.13,25.25a.86.86,0,0,1-.15-.79,1,1,0,0,1,.57-.6,1.31,1.31,0,0,1,1.52.35,1.28,1.28,0,0,0-1.5-.29,1.06,1.06,0,0,0-.55.55A.84.84,0,0,0,80.13,25.25Z"/><path class="cls-4" d="M82.15,24.33a.85.85,0,0,1,0,.76,1,1,0,0,1-.57.52,1.29,1.29,0,0,1-1.44-.31,1.29,1.29,0,0,0,1.43.28,1.1,1.1,0,0,0,.56-.5A.83.83,0,0,0,82.15,24.33Z"/><path class="cls-4" d="M69.17,43.81a13.84,13.84,0,0,1-2.68-9A14.22,14.22,0,0,1,70.06,26a14.15,14.15,0,0,1,17.6-3,14.48,14.48,0,0,0-9.25-1.36A14.27,14.27,0,0,0,70.3,26.2a14,14,0,0,0-3.59,8.58A14.33,14.33,0,0,0,69.17,43.81Z"/><path class="cls-12" d="M95.09,34.43a13.86,13.86,0,0,1-5.55,12.64,13.9,13.9,0,0,1-6.6,2.72A13.81,13.81,0,0,1,75.88,49a14.73,14.73,0,0,0,7,.61,15,15,0,0,0,3.4-1,14.57,14.57,0,0,0,7.4-7.28A15.13,15.13,0,0,0,95,34.43Z"/><path class="cls-4" d="M101.14.17l-70,.14-17.5,0c-1.46,0-2.93,0-4.36,0A9.35,9.35,0,0,0,5.19,1.59,9.71,9.71,0,0,0,.38,8.41a30,30,0,0,0-.16,4.35v4.38l0,8.75L.11,43.39,0,25.89l0-8.75V12.76A30.58,30.58,0,0,1,.15,8.38,10,10,0,0,1,5,1.33,9.76,9.76,0,0,1,9.25,0c1.48-.08,2.92,0,4.39,0l17.5,0Z"/><path class="cls-4" d="M105,41.43c.14,3,.2,6.09.21,9.14,0,.77,0,1.51,0,2.31a7.85,7.85,0,0,1-.56,2.28,7.35,7.35,0,0,1-3.11,3.43,7.55,7.55,0,0,1-2.2.8,12.16,12.16,0,0,1-2.32.12H92.48l-9.15,0c-12.2,0-24.39-.06-36.59-.17,12.2-.11,24.39-.14,36.59-.16l9.15,0h4.57A11.8,11.8,0,0,0,99.29,59a7,7,0,0,0,2.08-.76,6.78,6.78,0,0,0,3.42-5.39c0-.72,0-1.51,0-2.27C104.84,47.52,104.9,44.47,105,41.43Z"/><path d="M15.44,36.84,15.29,25.7l0-5.57V17.35a9,9,0,0,1,.28-2.82,7.21,7.21,0,0,1,6.25-5.19c1-.07,1.87,0,2.81,0l11.14,0L58,9.4l22.29.14L58,9.68l-22.28.07-11.14,0c-.92,0-1.88,0-2.76,0a6.73,6.73,0,0,0-5.88,4.84,8.65,8.65,0,0,0-.29,2.7v2.78l-.05,5.57Z"/><path class="cls-4" d="M28.52,51.51v1.2H28v-2.3h.68l.18,1.05.17-1.05h.68v2.3h-.48V51.49L29,52.71h-.23Z"/><path class="cls-4" d="M30.26,52.12V51a.66.66,0,0,1,1.32,0v1.12a.61.61,0,0,1-.66.64A.6.6,0,0,1,30.26,52.12Zm.75,0V51c0-.09,0-.13-.09-.13s-.1,0-.1.13V52.1c0,.1,0,.13.1.13S31,52.2,31,52.1Z"/><path class="cls-4" d="M32.64,52.08v.63h-.55v-2.3h.67a.58.58,0,0,1,.62.63v.4a.59.59,0,0,1-.65.64Zm0-1.16v.66h0a.12.12,0,0,0,.13-.13v-.39c0-.1-.05-.14-.11-.14Z"/><path class="cls-4" d="M35.06,51.09h-.52V51c0-.11,0-.15-.1-.15s-.09,0-.09.11.11.21.31.37a1,1,0,0,1,.45.8.6.6,0,0,1-.65.64.58.58,0,0,1-.64-.64V52h.53v.12c0,.12,0,.15.11.15s.09,0,.09-.11a.49.49,0,0,0-.26-.36,1,1,0,0,1-.48-.81.59.59,0,0,1,.64-.63.55.55,0,0,1,.61.63Z"/><path class="cls-4" d="M36.18,52.75a.56.56,0,0,1-.59-.62V51a.56.56,0,0,1,.59-.61.52.52,0,0,1,.56.56v.24h-.29V51c0-.2-.11-.3-.27-.3s-.3.11-.3.35v1.12c0,.24.13.35.29.35s.28-.1.28-.32v-.36h-.29v-.28h.58v.65A.54.54,0,0,1,36.18,52.75Z"/><path class="cls-4" d="M37.31,50.41h.92v.28h-.64v.71h.58v.28h-.58v.75h.67v.28h-.95Z"/><path class="cls-4" d="M39.74,51.08h-.27V51c0-.23-.11-.33-.23-.33s-.23.11-.23.29a.52.52,0,0,0,.32.46.81.81,0,0,1,.46.73c0,.35-.16.62-.54.62s-.54-.16-.54-.66V52H39v.09c0,.28.09.39.27.39s.24-.11.24-.33a.56.56,0,0,0-.35-.5.76.76,0,0,1-.41-.69c0-.36.19-.58.5-.58s.5.18.5.6Z"/><path class="cls-4" d="M41.1,51.24V51c0-.22-.1-.32-.25-.32s-.27.11-.27.35v1.12c0,.24.12.35.26.35s.26-.1.26-.32v-.23h.29v.24a.53.53,0,0,1-.54.59.55.55,0,0,1-.56-.62V51a.54.54,0,0,1,.56-.61.52.52,0,0,1,.54.58v.28Z"/><path class="cls-4" d="M42.76,51.71h-.53v1h-.29v-2.3h.29v1h.53v-1h.29v2.3h-.29Z"/><path class="cls-4" d="M44.43,51l-.22,1.68h-.36l-.3-2.3h.28l.2,1.87.25-1.87h.3l.26,1.91.21-1.91h.27l-.3,2.3h-.38Z"/><path class="cls-4" d="M45.82,52.71v-2.3h.28v2.3Z"/><path class="cls-4" d="M47,51.08v1.63H46.7v-2.3H47L47.55,52V50.41h.25v2.3h-.28Z"/><path class="cls-4" d="M48.39,50.41h.55a.56.56,0,0,1,.57.62v1.06a.55.55,0,0,1-.57.62h-.55Zm.29.28v1.74h.24c.17,0,.3-.11.3-.34V51c0-.23-.13-.34-.29-.34Z"/><path class="cls-4" d="M50.08,52.71v-2.3h.29v2.3Z"/><path class="cls-4" d="M51.52,52.75a.56.56,0,0,1-.58-.62V51a.55.55,0,0,1,.59-.61.51.51,0,0,1,.55.56v.24h-.29V51c0-.2-.11-.3-.27-.3s-.29.11-.29.35v1.12c0,.24.12.35.28.35s.28-.1.28-.32v-.36h-.28v-.28h.57v.65A.54.54,0,0,1,51.52,52.75Z"/><path class="cls-4" d="M52.93,51.75v1h-.28v-2.3h.28v1l.45-1h.31l-.53,1.15.55,1.15h-.33Z"/><path class="cls-4" d="M54.19,50.41h.93v.28h-.64v.71h.57v.28h-.57v.75h.66v.28h-1Z"/><path class="cls-4" d="M55.66,52.71v-2.3H56v2.3Z"/><path class="cls-4" d="M56.86,52.71v-2h-.4v-.28h1.1v.28h-.41v2Z"/></g></g></g></svg>