<svg xmlns="http://www.w3.org/2000/svg" xmlns:xlink="http://www.w3.org/1999/xlink" viewBox="0 0 52.13 90.93"><defs><style>.cls-1{fill:url(#radial-gradient);}.cls-2{fill:url(#linear-gradient);}.cls-3{fill:url(#linear-gradient-2);}.cls-4{fill:url(#linear-gradient-3);}.cls-5{fill:url(#linear-gradient-4);}.cls-6{fill:url(#linear-gradient-5);}</style><radialGradient id="radial-gradient" cx="50.16" cy="36.23" r="29.04" gradientTransform="translate(-18.9) scale(0.95 1)" gradientUnits="userSpaceOnUse"><stop offset="0" stop-color="#3e3f40"/><stop offset="0.08" stop-color="#6a6c6e"/><stop offset="0.27" stop-color="#d9dadb"/><stop offset="0.28" stop-color="#d6d7d8"/><stop offset="0.37" stop-color="#a4a6a7"/><stop offset="0.41" stop-color="#a8a8a8"/><stop offset="0.49" stop-color="#8e8e8e"/><stop offset="0.68" stop-color="#747577"/><stop offset="0.7" stop-color="#707172"/><stop offset="0.74" stop-color="#686868"/><stop offset="0.82" stop-color="#939393"/><stop offset="0.93" stop-color="#5b5b5b"/><stop offset="1" stop-color="#373839"/></radialGradient><linearGradient id="linear-gradient" x1="0.38" y1="48.92" x2="51.75" y2="48.92" gradientTransform="matrix(1, 0, 0, 1, 0, 0)" xlink:href="#radial-gradient"/><linearGradient id="linear-gradient-2" x1="0.06" y1="10.53" x2="52.07" y2="10.53" gradientUnits="userSpaceOnUse"><stop offset="0" stop-color="#1a1a1a"/><stop offset="0.08" stop-color="#1a1a1a"/><stop offset="0.27" stop-color="#4d4d4d"/><stop offset="0.37" stop-color="#333"/><stop offset="0.41" stop-color="#333"/><stop offset="0.49" stop-color="#4d4d4d"/><stop offset="0.68" stop-color="#333"/><stop offset="0.74" stop-color="#333"/><stop offset="0.82" stop-color="#4d4d4d"/><stop offset="0.93" stop-color="#1a1a1a"/><stop offset="1" stop-color="#1a1a1a"/></linearGradient><linearGradient id="linear-gradient-3" x1="12.11" y1="15.65" x2="12.11" y2="5.41" gradientUnits="userSpaceOnUse"><stop offset="0" stop-color="#1a1a1a"/><stop offset="0.08" stop-color="#1a1a1a"/><stop offset="0.18" stop-color="#666"/><stop offset="0.18" stop-color="#656565"/><stop offset="0.26" stop-color="#333"/><stop offset="0.76" stop-color="#333"/><stop offset="0.87" stop-color="#1a1a1a"/><stop offset="1" stop-color="#1a1a1a"/></linearGradient><linearGradient id="linear-gradient-4" x1="40.02" y1="15.65" x2="40.02" y2="5.41" xlink:href="#linear-gradient-3"/><linearGradient id="linear-gradient-5" x1="0" y1="83.79" x2="52.13" y2="83.79" xlink:href="#linear-gradient-2"/></defs><g id="Layer_2" data-name="Layer 2"><g id="Layer_1-2" data-name="Layer 1"><ellipse class="cls-1" cx="26.07" cy="16.11" rx="13.95" ry="3.46"/><rect class="cls-2" x="0.38" y="21.62" width="51.37" height="54.61"/><path class="cls-3" d="M50,13.55V2a2,2,0,0,0-2-2H4A2,2,0,0,0,2,2V13.55a2.11,2.11,0,0,1-2,2.09v5.1a.32.32,0,0,0,.32.32H51.75a.32.32,0,0,0,.32-.32V15.65A2.11,2.11,0,0,1,50,13.55Zm-7.4-.9a3,3,0,0,1-3,3H12.5a3,3,0,0,1-3-3V8.41a3,3,0,0,1,3-3H39.63a3,3,0,0,1,3,3Z"/><path class="cls-4" d="M11.73,12.65V8.41a3,3,0,0,1,3-3H12.5a3,3,0,0,0-3,3v4.24a3,3,0,0,0,3,3h2.23A3,3,0,0,1,11.73,12.65Z"/><path class="cls-5" d="M39.63,5.41H37.4a3,3,0,0,1,3,3v4.24a3,3,0,0,1-3,3h2.23a3,3,0,0,0,3-3V8.41A3,3,0,0,0,39.63,5.41Z"/><path class="cls-6" d="M1.15,82.65l.32,7.57a.73.73,0,0,0,.73.71H21.26a1.22,1.22,0,0,0,1.21-1l1.15-6.25a2.54,2.54,0,0,1,1.8-2,2.46,2.46,0,0,1,3.07,1.94l1.17,6.36a1.23,1.23,0,0,0,1.21,1H49.93a.73.73,0,0,0,.73-.71L51,82.65a1.13,1.13,0,0,1,1.1-1.12l.05-4.47a.37.37,0,0,0-.37-.41H.38a.38.38,0,0,0-.38.41l.05,4.47A1.13,1.13,0,0,1,1.15,82.65Z"/></g></g></svg>