<svg xmlns="http://www.w3.org/2000/svg" xmlns:xlink="http://www.w3.org/1999/xlink" viewBox="0 0 88.98 100.17"><defs><style>.cls-1{fill:url(#linear-gradient);}.cls-2,.cls-3,.cls-5,.cls-6{opacity:0.9;}.cls-2{fill:url(#linear-gradient-2);}.cls-3{fill:url(#linear-gradient-3);}.cls-4{fill:url(#linear-gradient-4);}.cls-5{fill:url(#linear-gradient-5);}.cls-6{fill:url(#linear-gradient-6);}.cls-7,.cls-8{opacity:0.85;}.cls-7{fill:url(#linear-gradient-7);}.cls-8{fill:url(#linear-gradient-8);}.cls-9{fill:url(#linear-gradient-9);}.cls-10{fill:url(#linear-gradient-10);}.cls-11{fill:url(#linear-gradient-11);}.cls-12{fill:url(#linear-gradient-12);}.cls-13{fill:url(#linear-gradient-13);}</style><linearGradient id="linear-gradient" x1="3.41" y1="50.08" x2="86.3" y2="50.08" gradientUnits="userSpaceOnUse"><stop offset="0" stop-color="#3e3f40"/><stop offset="0.08" stop-color="#6a6c6e"/><stop offset="0.39" stop-color="#d9dadb"/><stop offset="0.43" stop-color="#bebfc0"/><stop offset="0.49" stop-color="#8e8e8e"/><stop offset="0.68" stop-color="#747577"/><stop offset="0.7" stop-color="#707172"/><stop offset="0.74" stop-color="#686868"/><stop offset="0.82" stop-color="#939393"/><stop offset="0.93" stop-color="#5b5b5b"/><stop offset="1" stop-color="#373839"/></linearGradient><linearGradient id="linear-gradient-2" x1="44.69" y1="85.95" x2="44.69" y2="84.63" gradientUnits="userSpaceOnUse"><stop offset="0" stop-color="#0e0f0d"/><stop offset="0.08" stop-color="#3a3c3b"/><stop offset="0.27" stop-color="#a9aaa8"/><stop offset="0.28" stop-color="#a6a7a5"/><stop offset="0.37" stop-color="#747674"/><stop offset="0.41" stop-color="#787875"/><stop offset="0.49" stop-color="#5e5e5b"/><stop offset="0.68" stop-color="#444544"/><stop offset="0.7" stop-color="#40413f"/><stop offset="0.74" stop-color="#383835"/><stop offset="0.82" stop-color="#636360"/><stop offset="0.93" stop-color="#2b2b28"/><stop offset="1" stop-color="#070806"/></linearGradient><linearGradient id="linear-gradient-3" x1="44.52" y1="22.45" x2="44.52" y2="21.21" gradientUnits="userSpaceOnUse"><stop offset="0" stop-color="#0e0f0d"/><stop offset="0.08" stop-color="#3a3c3b"/><stop offset="0.37" stop-color="#747674"/><stop offset="0.41" stop-color="#787875"/><stop offset="0.49" stop-color="#5e5e5b"/><stop offset="0.68" stop-color="#444544"/><stop offset="0.7" stop-color="#40413f"/><stop offset="0.74" stop-color="#383835"/><stop offset="0.82" stop-color="#636360"/><stop offset="0.93" stop-color="#2b2b28"/><stop offset="1" stop-color="#070806"/></linearGradient><linearGradient id="linear-gradient-4" x1="5.11" y1="50.08" x2="85.81" y2="50.08" gradientUnits="userSpaceOnUse"><stop offset="0" stop-color="#333" stop-opacity="0.5"/><stop offset="0.03" stop-color="#141414" stop-opacity="0.56"/><stop offset="0.06" stop-opacity="0.6"/><stop offset="0.09" stop-color="#0e0e0e" stop-opacity="0.6"/><stop offset="0.14" stop-color="#333" stop-opacity="0.6"/><stop offset="0.21" stop-color="#707070" stop-opacity="0.6"/><stop offset="0.28" stop-color="#c4c4c4" stop-opacity="0.6"/><stop offset="0.31" stop-color="#f2f2f2" stop-opacity="0.6"/><stop offset="0.33" stop-color="#d3d3d3" stop-opacity="0.53"/><stop offset="0.35" stop-color="#a4a4a4" stop-opacity="0.41"/><stop offset="0.37" stop-color="#7b7b7b" stop-opacity="0.31"/><stop offset="0.4" stop-color="#5a5a5a" stop-opacity="0.24"/><stop offset="0.43" stop-color="#414141" stop-opacity="0.17"/><stop offset="0.47" stop-color="#2f2f2f" stop-opacity="0.13"/><stop offset="0.52" stop-color="#252525" stop-opacity="0.11"/><stop offset="0.66" stop-color="#222" stop-opacity="0.1"/><stop offset="0.66" stop-color="#222" stop-opacity="0.1"/><stop offset="0.81" stop-opacity="0"/><stop offset="0.87" stop-color="#030303" stop-opacity="0.06"/><stop offset="0.92" stop-color="#0e0e0e" stop-opacity="0.27"/><stop offset="0.96" stop-color="#1f1f1f" stop-opacity="0.6"/><stop offset="1" stop-color="#333"/></linearGradient><linearGradient id="linear-gradient-5" x1="44.49" y1="34.69" x2="44.49" y2="41.37" gradientUnits="userSpaceOnUse"><stop offset="0" stop-color="#3e3f40"/><stop offset="0.08" stop-color="#6a6c6e"/><stop offset="0.27" stop-color="#d9dadb"/><stop offset="0.28" stop-color="#d6d7d8"/><stop offset="0.37" stop-color="#a4a6a7"/><stop offset="0.41" stop-color="#a8a8a8"/><stop offset="0.49" stop-color="#8e8e8e"/><stop offset="0.68" stop-color="#747577"/><stop offset="0.7" stop-color="#707172"/><stop offset="0.74" stop-color="#686868"/><stop offset="0.82" stop-color="#939393"/><stop offset="0.93" stop-color="#5b5b5b"/><stop offset="1" stop-color="#373839"/></linearGradient><linearGradient id="linear-gradient-6" x1="44.49" y1="64.66" x2="44.49" y2="71.34" xlink:href="#linear-gradient-5"/><linearGradient id="linear-gradient-7" y1="38.04" x2="88.83" y2="38.04" gradientUnits="userSpaceOnUse"><stop offset="0" stop-color="#1a1a1a" stop-opacity="0.9"/><stop offset="0.06" stop-color="#2e2f2f" stop-opacity="0.85"/><stop offset="0.16" stop-color="#636566" stop-opacity="0.72"/><stop offset="0.17" stop-color="#6a6c6e" stop-opacity="0.7"/><stop offset="0.2" stop-color="#727476" stop-opacity="0.7"/><stop offset="0.23" stop-color="#8a8c8e" stop-opacity="0.7"/><stop offset="0.27" stop-color="#b2b3b4" stop-opacity="0.7"/><stop offset="0.31" stop-color="#e8e9e9" stop-opacity="0.7"/><stop offset="0.32" stop-color="#fff" stop-opacity="0.7"/><stop offset="0.41" stop-color="#cfcfcf" stop-opacity="0.53"/><stop offset="0.49" stop-color="#a8a8a8" stop-opacity="0.4"/><stop offset="0.55" stop-color="#8a8b8c" stop-opacity="0.4"/><stop offset="0.63" stop-color="#797a7c" stop-opacity="0.4"/><stop offset="0.84" stop-color="#747577" stop-opacity="0.4"/><stop offset="0.92" stop-color="#3f4041" stop-opacity="0.69"/><stop offset="0.99" stop-color="#1a1a1a" stop-opacity="0.9"/></linearGradient><linearGradient id="linear-gradient-8" y1="68" x2="88.83" y2="68" gradientUnits="userSpaceOnUse"><stop offset="0" stop-color="#1a1a1a" stop-opacity="0.9"/><stop offset="0.04" stop-color="#2e2f2f" stop-opacity="0.85"/><stop offset="0.13" stop-color="#636566" stop-opacity="0.72"/><stop offset="0.14" stop-color="#6a6c6e" stop-opacity="0.7"/><stop offset="0.17" stop-color="#757778" stop-opacity="0.7"/><stop offset="0.21" stop-color="#929495" stop-opacity="0.7"/><stop offset="0.27" stop-color="#c3c4c4" stop-opacity="0.7"/><stop offset="0.32" stop-color="#fff" stop-opacity="0.7"/><stop offset="0.41" stop-color="#cfcfcf" stop-opacity="0.53"/><stop offset="0.49" stop-color="#a8a8a8" stop-opacity="0.4"/><stop offset="0.55" stop-color="#8a8b8c" stop-opacity="0.4"/><stop offset="0.63" stop-color="#797a7c" stop-opacity="0.4"/><stop offset="0.84" stop-color="#747577" stop-opacity="0.4"/><stop offset="0.92" stop-color="#3f4041" stop-opacity="0.69"/><stop offset="0.99" stop-color="#1a1a1a" stop-opacity="0.9"/></linearGradient><linearGradient id="linear-gradient-9" x1="44.49" x2="44.49" y2="100.17" gradientUnits="userSpaceOnUse"><stop offset="0" stop-color="#fff" stop-opacity="0.6"/><stop offset="0.04" stop-color="#fff" stop-opacity="0.1"/><stop offset="0.18" stop-color="#0f0f0f" stop-opacity="0.01"/><stop offset="0.19" stop-opacity="0"/><stop offset="0.22" stop-opacity="0.4"/><stop offset="0.25" stop-color="#fff" stop-opacity="0"/><stop offset="0.33" stop-color="#777" stop-opacity="0"/><stop offset="0.82" stop-opacity="0"/><stop offset="0.86" stop-opacity="0.4"/><stop offset="0.89" stop-color="#fff" stop-opacity="0"/><stop offset="0.95" stop-opacity="0"/><stop offset="0.97" stop-color="#040404" stop-opacity="0.13"/><stop offset="0.98" stop-color="#111" stop-opacity="0.52"/><stop offset="0.99" stop-color="#1a1a1a" stop-opacity="0.8"/></linearGradient><linearGradient id="linear-gradient-10" x1="12.75" y1="87.29" x2="18.08" y2="87.29" gradientUnits="userSpaceOnUse"><stop offset="0" stop-color="#999"/><stop offset="0.19" stop-color="#e6e6e6"/><stop offset="0.26" stop-color="#d9dadb"/><stop offset="0.45" stop-color="#dcdddd"/><stop offset="0.59" stop-color="#e5e5e5"/><stop offset="0.6" stop-color="#e6e6e6"/><stop offset="0.7" stop-color="#d1d1d1"/><stop offset="0.9" stop-color="#9b9b9b"/><stop offset="1" stop-color="gray"/></linearGradient><linearGradient id="linear-gradient-11" x1="15.76" y1="88.67" x2="15.76" y2="85.9" gradientUnits="userSpaceOnUse"><stop offset="0.53"/><stop offset="0.59" stop-color="#070707"/><stop offset="1" stop-color="#333"/></linearGradient><linearGradient id="linear-gradient-12" x1="75.63" y1="87.29" x2="70.3" y2="87.29" xlink:href="#linear-gradient-10"/><linearGradient id="linear-gradient-13" x1="72.63" y1="88.67" x2="72.63" y2="85.91" gradientUnits="userSpaceOnUse"><stop offset="0.53"/><stop offset="0.59" stop-color="#070707"/><stop offset="1" stop-color="#333"/></linearGradient></defs><g id="Layer_2" data-name="Layer 2"><g id="Layer_1-2" data-name="Layer 1"><path class="cls-1" d="M87.39,64.2V41.83a.75.75,0,0,1,.38-.64c1.61-.92,1.61-5.39,0-6.32a.73.73,0,0,1-.38-.63V23.11A.89.89,0,0,0,87,22.3a1,1,0,0,1-.55-.88c0-.39,0,.2.36,0a.7.7,0,0,0,.43-.61V16.91a.48.48,0,0,0-.37-.48,2.28,2.28,0,0,1-1.91-2.25V9.35a2.3,2.3,0,0,1,1.91-2.26.46.46,0,0,0,.37-.47V3.73A3.74,3.74,0,0,0,83.46,0H5.76A3.72,3.72,0,0,0,2,3.73V6.62a.45.45,0,0,0,.36.47A2.29,2.29,0,0,1,4.31,9.35v4.83A2.27,2.27,0,0,1,2.4,16.43a.47.47,0,0,0-.36.48v3.94a.68.68,0,0,0,.43.61c.32.16.35-.43.35,0a1,1,0,0,1-.54.88.9.9,0,0,0-.45.81v11a.74.74,0,0,1-.48.68c-1.78.77-1.78,5.72,0,6.49a.73.73,0,0,1,.48.68V64.07a.74.74,0,0,1-.48.69c-1.78.77-1.78,5.72,0,6.49a.73.73,0,0,1,.48.68V84.06a.71.71,0,0,0,.44.62,1,1,0,0,1,.55.89c0,.41-.5.11-.72.26a.51.51,0,0,0-.27.52V97.53a2.69,2.69,0,0,0,2.75,2.64H84.65a2.69,2.69,0,0,0,2.74-2.64v-11a.94.94,0,0,0-.17-.54c-.13-.18-.82.09-.82-.39a1,1,0,0,1,.56-.89.7.7,0,0,0,.43-.62V71.8a.75.75,0,0,1,.38-.64c1.61-.92,1.61-5.4,0-6.32A.74.74,0,0,1,87.39,64.2Z"/><path class="cls-2" d="M2.81,85.39c.06.54-.15.52-.7.52H87.26c-.54,0-.86.2-.86-.34a.85.85,0,0,1,.86-.94H2.11C2.66,84.63,2.8,85.23,2.81,85.39Z"/><path class="cls-3" d="M3,21.46a1,1,0,0,1-1,1H87a1,1,0,0,1-1-1c0-.54.24-.05.78-.05H2.23C2.77,21.41,3,20.92,3,21.46Z"/><path class="cls-4" d="M87.39,64.2V41.83a.75.75,0,0,1,.38-.64c1.61-.92,1.61-5.39,0-6.32a.73.73,0,0,1-.38-.63V23.11A.89.89,0,0,0,87,22.3a1,1,0,0,1-.55-.88c0-.39,0,.2.36,0a.7.7,0,0,0,.43-.61V16.91a.48.48,0,0,0-.37-.48,2.28,2.28,0,0,1-1.91-2.25V9.35a2.3,2.3,0,0,1,1.91-2.26.46.46,0,0,0,.37-.47V3.73A3.74,3.74,0,0,0,83.46,0H5.76A3.72,3.72,0,0,0,2,3.73V6.62a.45.45,0,0,0,.36.47A2.29,2.29,0,0,1,4.31,9.35v4.83A2.27,2.27,0,0,1,2.4,16.43a.47.47,0,0,0-.36.48v3.94a.68.68,0,0,0,.43.61c.32.16.35-.43.35,0a1,1,0,0,1-.54.88.9.9,0,0,0-.45.81v11a.74.74,0,0,1-.48.68c-1.78.77-1.78,5.72,0,6.49a.73.73,0,0,1,.48.68V64.07a.74.74,0,0,1-.48.69c-1.78.77-1.78,5.72,0,6.49a.73.73,0,0,1,.48.68V84.06a.71.71,0,0,0,.44.62,1,1,0,0,1,.55.89c0,.41-.54.14-.72.26a.5.5,0,0,0-.27.52V97.53a2.69,2.69,0,0,0,2.75,2.64H84.65a2.69,2.69,0,0,0,2.74-2.64v-11a1,1,0,0,0-.17-.54c-.1-.16-.82.09-.82-.39a1,1,0,0,1,.56-.89.7.7,0,0,0,.43-.62V71.8a.75.75,0,0,1,.38-.64c1.61-.92,1.61-5.4,0-6.32A.74.74,0,0,1,87.39,64.2Z"/><path class="cls-5" d="M44.49,41.38H87.14c2.44,0,2.44-6.69,0-6.69H1.83c-2.44,0-2.44,6.69,0,6.69Z"/><path class="cls-6" d="M44.49,71.35H87.14c2.44,0,2.44-6.69,0-6.69H1.83c-2.44,0-2.44,6.69,0,6.69Z"/><path class="cls-7" d="M44.49,41.38H87.14c2.44,0,2.44-6.69,0-6.69H1.83c-2.44,0-2.44,6.69,0,6.69Z"/><path class="cls-8" d="M44.49,71.35H87.14c2.44,0,2.44-6.69,0-6.69H1.83c-2.44,0-2.44,6.69,0,6.69Z"/><path class="cls-9" d="M87.38,64.2V41.83a.75.75,0,0,1,.38-.64c1.61-.92,1.61-5.39,0-6.32a.73.73,0,0,1-.38-.63V23.11a.89.89,0,0,0-.44-.81,1,1,0,0,1-.55-.88c0-.39,0,.2.36,0a.7.7,0,0,0,.43-.61V16.91a.48.48,0,0,0-.37-.48,2.28,2.28,0,0,1-1.91-2.25V9.35a2.3,2.3,0,0,1,1.91-2.26.46.46,0,0,0,.37-.47V3.73A3.74,3.74,0,0,0,83.45,0H5.76A3.73,3.73,0,0,0,2,3.73V6.62a.46.46,0,0,0,.37.47A2.29,2.29,0,0,1,4.3,9.35v4.83a2.27,2.27,0,0,1-1.9,2.25.48.48,0,0,0-.37.48v3.94a.68.68,0,0,0,.43.61c.33.16.35-.43.35,0a1,1,0,0,1-.54.88.89.89,0,0,0-.44.81v11a.75.75,0,0,1-.49.68c-1.78.77-1.78,5.72,0,6.49a.74.74,0,0,1,.49.68V64.07a.75.75,0,0,1-.49.69c-1.78.77-1.78,5.72,0,6.49a.74.74,0,0,1,.49.68V84.06a.7.7,0,0,0,.43.62,1,1,0,0,1,.55.89c0,.41-.57.17-.71.26a.5.5,0,0,0-.27.52V97.53a2.69,2.69,0,0,0,2.74,2.64H84.64a2.69,2.69,0,0,0,2.74-2.64v-11a1,1,0,0,0-.17-.54c-.14-.23-.82.09-.82-.39a1,1,0,0,1,.56-.89.7.7,0,0,0,.43-.62V71.8a.75.75,0,0,1,.38-.64c1.61-.92,1.61-5.4,0-6.32A.74.74,0,0,1,87.38,64.2Z"/><path class="cls-10" d="M12.75,85.9h5.33a0,0,0,0,1,0,0V86a2.66,2.66,0,0,1-2.66,2.66h0A2.66,2.66,0,0,1,12.75,86V85.9A0,0,0,0,1,12.75,85.9Z"/><path class="cls-11" d="M15.76,88.67h0A2.66,2.66,0,0,1,13.1,86V85.9h5.33V86A2.67,2.67,0,0,1,15.76,88.67Z"/><path class="cls-12" d="M70.3,85.91h5.33a0,0,0,0,1,0,0V86A2.66,2.66,0,0,1,73,88.67h0A2.66,2.66,0,0,1,70.3,86v-.11a0,0,0,0,1,0,0Z"/><path class="cls-13" d="M72.63,88.67h0A2.66,2.66,0,0,1,70,86v-.1h5.33V86A2.66,2.66,0,0,1,72.63,88.67Z"/></g></g></svg>