<svg xmlns="http://www.w3.org/2000/svg" xmlns:xlink="http://www.w3.org/1999/xlink" viewBox="0 0 126.03 182.4"><defs><style>.cls-1{isolation:isolate;}.cls-2{fill:url(#linear-gradient);}.cls-3{fill:#c6c4a5;}.cls-4{fill:url(#linear-gradient-2);}.cls-5{fill:url(#linear-gradient-3);}.cls-6{mix-blend-mode:multiply;opacity:0.3;}.cls-7{fill:url(#linear-gradient-4);}</style><linearGradient id="linear-gradient" x1="-11.87" y1="162.2" x2="137.92" y2="12.41" gradientUnits="userSpaceOnUse"><stop offset="0" stop-color="#373839"/><stop offset="0.07" stop-color="#333"/><stop offset="0.18" stop-color="#4d4d4d"/><stop offset="0.43" stop-color="#666"/><stop offset="0.52" stop-color="#868686"/><stop offset="0.64" stop-color="#b3b3b3"/><stop offset="0.71" stop-color="gray"/><stop offset="0.77" stop-color="#666"/><stop offset="0.92" stop-color="#333"/><stop offset="1" stop-color="#3e3f40"/></linearGradient><linearGradient id="linear-gradient-2" y1="86.93" x2="126.03" y2="86.93" gradientUnits="userSpaceOnUse"><stop offset="0" stop-color="#3e3f40"/><stop offset="0.08" stop-color="#6a6c6e"/><stop offset="0.27" stop-color="#d9dadb"/><stop offset="0.28" stop-color="#d6d7d8"/><stop offset="0.37" stop-color="#a4a6a7"/><stop offset="0.41" stop-color="#a8a8a8"/><stop offset="0.49" stop-color="#8e8e8e"/><stop offset="0.68" stop-color="#747577"/><stop offset="0.7" stop-color="#707172"/><stop offset="0.74" stop-color="#686868"/><stop offset="0.82" stop-color="#939393"/><stop offset="0.93" stop-color="#5b5b5b"/><stop offset="1" stop-color="#373839"/></linearGradient><linearGradient id="linear-gradient-3" x1="7.9" y1="178.77" x2="19.46" y2="178.77" gradientUnits="userSpaceOnUse"><stop offset="0" stop-color="#1a1a1a"/><stop offset="0.08" stop-color="#1a1a1a"/><stop offset="0.27" stop-color="#4d4d4d"/><stop offset="0.37" stop-color="#333"/><stop offset="0.41" stop-color="#333"/><stop offset="0.49" stop-color="#4d4d4d"/><stop offset="0.68" stop-color="#333"/><stop offset="0.74" stop-color="#333"/><stop offset="0.82" stop-color="#4d4d4d"/><stop offset="0.93" stop-color="#1a1a1a"/><stop offset="1" stop-color="#1a1a1a"/></linearGradient><linearGradient id="linear-gradient-4" x1="106.47" y1="178.77" x2="118.03" y2="178.77" xlink:href="#linear-gradient-3"/></defs><g class="cls-1"><g id="Layer_2" data-name="Layer 2"><g id="Layer_1-2" data-name="Layer 1"><rect class="cls-2" x="0.03" y="0.52" width="126" height="173.59"/><path class="cls-3" d="M125,1.45c-.84.32-120.78-.29-124,0l0,171c.84-.28,120.78.26,124,0Zm-7,151a6.82,6.82,0,0,1-7,6.55H15a6.82,6.82,0,0,1-7-6.55L8,20.42a7.23,7.23,0,0,1,7-7.4H111a7.24,7.24,0,0,1,7,7.4Z"/><path class="cls-4" d="M15.42,1.37c23.6,0,70.19.18,94.32.18,9.17,0,15.1,0,15.29-.1l0,171c-.65.05-6.11.07-14.4.07-23.61,0-70.19-.15-94.32-.15-9.17,0-15.1,0-15.28.08l0-171c.65-.06,6.1-.08,14.39-.08M15,159H111a6.82,6.82,0,0,0,7-6.55l0-132.06a7.24,7.24,0,0,0-7-7.4H15.07a7.23,7.23,0,0,0-7,7.4L8,152.48A6.82,6.82,0,0,0,15,159M126,0l-1.24.47c-.62,0-3.85.08-15.05.08C97.61.55,79.55.5,62.09.46,44.91.42,27.16.37,15.42.37,3.28.37,1.34.42.94.46L0,.54v.91l0,171v1.39l1.21-.41c.59,0,3.78-.06,15.07-.06,12.13,0,30.18,0,47.64.07,17.18,0,34.94.08,46.68.08,12.14,0,14.08,0,14.48-.07l.92-.08v-.92l0-171V0ZM15,158a5.82,5.82,0,0,1-6-5.55l0-132a6.24,6.24,0,0,1,6-6.41H111a6.23,6.23,0,0,1,6,6.4l0,132.06a5.82,5.82,0,0,1-6,5.55Z"/><path class="cls-5" d="M16.64,182.4H10.73a.87.87,0,0,1-.85-.58l-2-6.68H19.46l-2,6.68A.85.85,0,0,1,16.64,182.4Z"/><path class="cls-6" d="M17.84,181.42c-5.7-5.1-8.86-2.11-8.86-2.11L7.9,175.14H19.46Z"/><path class="cls-7" d="M115.21,182.4h-5.92a.85.85,0,0,1-.84-.58l-2-6.68H118l-2,6.68A.85.85,0,0,1,115.21,182.4Z"/><path class="cls-6" d="M116.41,181.42c-5.7-5.1-8.87-2.11-8.87-2.11l-1.07-4.17H118Z"/></g></g></g></svg>