<svg xmlns="http://www.w3.org/2000/svg" viewBox="0 0 124.03 31.06"><defs><style>.cls-1{fill:none;}.cls-2{fill:#636363;}.cls-3{fill:#c6c4a5;}</style></defs><g id="Layer_2" data-name="Layer 2"><g id="Layer_1-2" data-name="Layer 1"><rect class="cls-1" width="124.03" height="31.06"/><path class="cls-2" d="M115.89,29V28a6.24,6.24,0,0,0-6-6.41H13.93a6.24,6.24,0,0,0-6,6.41v1h-1V2.09h1v1a6.24,6.24,0,0,0,6,6.41h95.92a6.24,6.24,0,0,0,6-6.41v-1h1V29Z"/><path class="cls-3" d="M116.89,3.09h0a7.24,7.24,0,0,1-7,7.41H13.93A7.26,7.26,0,0,1,6.87,3.09H4.61V28H6.87a7.26,7.26,0,0,1,7.06-7.41h95.92a7.24,7.24,0,0,1,7,7.41h2.52V3.09Z"/></g></g></svg>