<svg xmlns="http://www.w3.org/2000/svg" xmlns:xlink="http://www.w3.org/1999/xlink" viewBox="0 0 126.03 369.41"><defs><style>.cls-1{isolation:isolate;}.cls-2{fill:url(#linear-gradient);}.cls-3{fill:#c6c4a5;}.cls-4{fill:url(#linear-gradient-2);}.cls-5{fill:url(#linear-gradient-3);}.cls-6{mix-blend-mode:multiply;opacity:0.3;}.cls-7{fill:url(#linear-gradient-4);}</style><linearGradient id="linear-gradient" x1="-58.72" y1="302.77" x2="184.78" y2="59.27" gradientUnits="userSpaceOnUse"><stop offset="0" stop-color="#3e3f40"/><stop offset="0.08" stop-color="#333"/><stop offset="0.23" stop-color="#666"/><stop offset="0.29" stop-color="gray"/><stop offset="0.36" stop-color="#b3b3b3"/><stop offset="0.48" stop-color="#868686"/><stop offset="0.57" stop-color="#666"/><stop offset="0.82" stop-color="#4d4d4d"/><stop offset="0.93" stop-color="#333"/><stop offset="1" stop-color="#373839"/></linearGradient><linearGradient id="linear-gradient-2" y1="180.64" x2="126.03" y2="180.64" gradientUnits="userSpaceOnUse"><stop offset="0" stop-color="#3e3f40"/><stop offset="0.08" stop-color="#6a6c6e"/><stop offset="0.27" stop-color="#d9dadb"/><stop offset="0.28" stop-color="#d6d7d8"/><stop offset="0.37" stop-color="#a4a6a7"/><stop offset="0.41" stop-color="#a8a8a8"/><stop offset="0.49" stop-color="#8e8e8e"/><stop offset="0.68" stop-color="#747577"/><stop offset="0.7" stop-color="#707172"/><stop offset="0.74" stop-color="#686868"/><stop offset="0.82" stop-color="#939393"/><stop offset="0.93" stop-color="#5b5b5b"/><stop offset="1" stop-color="#373839"/></linearGradient><linearGradient id="linear-gradient-3" x1="7.97" y1="365.78" x2="19.52" y2="365.78" gradientUnits="userSpaceOnUse"><stop offset="0" stop-color="#1a1a1a"/><stop offset="0.08" stop-color="#1a1a1a"/><stop offset="0.27" stop-color="#4d4d4d"/><stop offset="0.37" stop-color="#333"/><stop offset="0.41" stop-color="#333"/><stop offset="0.49" stop-color="#4d4d4d"/><stop offset="0.68" stop-color="#333"/><stop offset="0.74" stop-color="#333"/><stop offset="0.82" stop-color="#4d4d4d"/><stop offset="0.93" stop-color="#1a1a1a"/><stop offset="1" stop-color="#1a1a1a"/></linearGradient><linearGradient id="linear-gradient-4" x1="106.53" y1="365.78" x2="118.09" y2="365.78" xlink:href="#linear-gradient-3"/></defs><g class="cls-1"><g id="Layer_2" data-name="Layer 2"><g id="Layer_1-2" data-name="Layer 1"><rect class="cls-2" x="0.03" y="0.52" width="126" height="361"/><path class="cls-3" d="M125,1.45c-.84.32-120.78-.29-124,0L1,359.89c.84-.29,120.78.25,124,0Zm-7,338.44a6.82,6.82,0,0,1-7,6.56H15a6.82,6.82,0,0,1-7-6.56L8,20.43a7.23,7.23,0,0,1,7-7.41H111a7.24,7.24,0,0,1,7,7.41Z"/><path class="cls-4" d="M15.42,1.37c23.6,0,70.19.18,94.32.18,9.17,0,15.1,0,15.29-.1l0,358.44c-.65.05-6.11.07-14.4.07-23.61,0-70.2-.16-94.32-.16-9.17,0-15.1,0-15.28.09L1,1.45c.65-.06,6.1-.08,14.39-.08M15,346.45H111a6.82,6.82,0,0,0,7-6.56l0-319.46A7.24,7.24,0,0,0,111,13H15.07a7.23,7.23,0,0,0-7,7.41L8,339.89a6.82,6.82,0,0,0,7,6.56M126,0l-1.24.47c-.62,0-3.85.08-15.05.08C97.61.55,79.55.5,62.08.46,44.91.42,27.15.37,15.42.37,3.28.37,1.34.42.94.46L0,.54v.91L0,359.89v1.39l1.21-.41c.59,0,3.78-.07,15.07-.07,12.13,0,30.18,0,47.64.08,17.17,0,34.94.08,46.68.08,12.14,0,14.08,0,14.48-.08l.92-.07v-.92L126,1.45V0ZM15,345.45a5.82,5.82,0,0,1-6-5.56L9,20.43a6.24,6.24,0,0,1,6-6.41H111a6.24,6.24,0,0,1,6,6.41l0,319.46a5.82,5.82,0,0,1-6,5.56Z"/><path class="cls-5" d="M16.7,369.41H10.79a.87.87,0,0,1-.85-.57l-2-6.69H19.52l-2,6.69A.87.87,0,0,1,16.7,369.41Z"/><path class="cls-6" d="M17.9,368.44C12.2,363.33,9,366.32,9,366.32L8,362.15H19.52Z"/><path class="cls-7" d="M115.27,369.41h-5.91a.87.87,0,0,1-.85-.57l-2-6.69h11.56l-2,6.69A.85.85,0,0,1,115.27,369.41Z"/><path class="cls-6" d="M116.47,368.44c-5.7-5.11-8.86-2.12-8.86-2.12l-1.08-4.17h11.56Z"/></g></g></g></svg>