<svg xmlns="http://www.w3.org/2000/svg" xmlns:xlink="http://www.w3.org/1999/xlink" viewBox="0 0 251.66 181"><defs><style>.cls-1{isolation:isolate;}.cls-2{fill:url(#linear-gradient);}.cls-3{fill:url(#linear-gradient-3);}.cls-4{fill:#c6c4a5;stroke-miterlimit:10;stroke:url(#linear-gradient-4);}.cls-5{fill:url(#linear-gradient-5);}.cls-6{fill:url(#linear-gradient-6);}.cls-7{mix-blend-mode:multiply;opacity:0.3;}</style><linearGradient id="linear-gradient" x1="37.94" y1="131.13" x2="225.82" y2="35.93" gradientUnits="userSpaceOnUse"><stop offset="0" stop-color="#999"/><stop offset="0.19" stop-color="#e6e6e6"/><stop offset="0.26" stop-color="#d9dadb"/><stop offset="0.45" stop-color="#dcdddd"/><stop offset="0.59" stop-color="#e5e5e5"/><stop offset="0.6" stop-color="#e6e6e6"/><stop offset="0.7" stop-color="#d1d1d1"/><stop offset="0.9" stop-color="#9b9b9b"/><stop offset="1" stop-color="gray"/></linearGradient><linearGradient id="linear-gradient-3" x1="48.41" y1="186.08" x2="215.21" y2="-28.25" xlink:href="#linear-gradient"/><linearGradient id="linear-gradient-4" x1="0.47" y1="86.29" x2="251.16" y2="86.29" xlink:href="#linear-gradient"/><linearGradient id="linear-gradient-5" x1="12.6" y1="177.37" x2="24.15" y2="177.37" gradientUnits="userSpaceOnUse"><stop offset="0" stop-color="#1a1a1a"/><stop offset="0.08" stop-color="#1a1a1a"/><stop offset="0.27" stop-color="#4d4d4d"/><stop offset="0.37" stop-color="#333"/><stop offset="0.41" stop-color="#333"/><stop offset="0.49" stop-color="#4d4d4d"/><stop offset="0.68" stop-color="#333"/><stop offset="0.74" stop-color="#333"/><stop offset="0.82" stop-color="#4d4d4d"/><stop offset="0.93" stop-color="#1a1a1a"/><stop offset="1" stop-color="#1a1a1a"/></linearGradient><linearGradient id="linear-gradient-6" x1="225.91" y1="177.37" x2="237.47" y2="177.37" xlink:href="#linear-gradient-5"/></defs><g class="cls-1"><g id="Layer_2" data-name="Layer 2"><g id="Layer_1-2" data-name="Layer 1"><rect class="cls-2" width="251.66" height="173.19"/><path class="cls-2" d="M250.66.94C249.8,1,1,.94,1,.94L1,171.56c.84-.28,246.44.26,249.67,0ZM186,104l.4,46.6a7.41,7.41,0,0,1-7.41,7.5H15a6.83,6.83,0,0,1-7-6.56V.94L243.66.82v91a7.42,7.42,0,0,1-7.42,7.41H190.69A4.7,4.7,0,0,0,186,104Z"/><rect class="cls-3" width="251.66" height="173.19"/><path class="cls-4" d="M250.66.94C249.8,1,1,.94,1,.94L1,171.56c.84-.28,246.44.26,249.67,0ZM186,104l.4,46.6a7.41,7.41,0,0,1-7.41,7.5H15a6.83,6.83,0,0,1-7-6.56V.94L243.66.82v91a7.42,7.42,0,0,1-7.42,7.41H190.69A4.7,4.7,0,0,0,186,104Z"/><path class="cls-5" d="M21.33,181H15.42a.86.86,0,0,1-.85-.57l-2-6.69H24.15l-2,6.69A.86.86,0,0,1,21.33,181Z"/><path class="cls-6" d="M234.65,181h-5.92a.85.85,0,0,1-.84-.57l-2-6.69h11.56l-2,6.69A.85.85,0,0,1,234.65,181Z"/><path class="cls-7" d="M22.54,180c-5.7-5.1-8.87-2.11-8.87-2.11l-1.07-4.18H24.15Z"/><path class="cls-7" d="M235.85,180c-5.7-5.1-8.87-2.11-8.87-2.11l-1.07-4.18h11.56Z"/></g></g></g></svg>