<svg xmlns="http://www.w3.org/2000/svg" viewBox="0 0 36 36"><defs><style>.cls-1{opacity:0.55;}.cls-2{fill:#333;}.cls-3{fill:#b3b3b3;}</style></defs><g id="Layer_2" data-name="Layer 2"><g id="Layer_1-2" data-name="Layer 1"><g class="cls-1"><path class="cls-2" d="M4.28.25H31.72a4,4,0,0,1,4,4V31.73a4,4,0,0,1-4,4H4.27a4,4,0,0,1-4-4V4.28A4,4,0,0,1,4.28.25Z"/><path class="cls-3" d="M31.72.5A3.78,3.78,0,0,1,35.5,4.28V31.72a3.78,3.78,0,0,1-3.78,3.78H4.28A3.78,3.78,0,0,1,.5,31.72V4.28A3.78,3.78,0,0,1,4.28.5H31.72m0-.5H4.28A4.27,4.27,0,0,0,0,4.28V31.72A4.27,4.27,0,0,0,4.28,36H31.72A4.27,4.27,0,0,0,36,31.72V4.28A4.27,4.27,0,0,0,31.72,0Z"/></g></g></g></svg>