<svg xmlns="http://www.w3.org/2000/svg" viewBox="0 0 73.18 26.5"><defs><style>.cls-1{opacity:0.55;}.cls-2{fill:#333;}.cls-3{fill:#b3b3b3;}</style></defs><g id="Layer_2" data-name="Layer 2"><g id="Layer_1-2" data-name="Layer 1"><g class="cls-1"><path class="cls-2" d="M4.28.25H68.9a4,4,0,0,1,4,4V22.22a4,4,0,0,1-4,4H4.28a4,4,0,0,1-4-4V4.28A4,4,0,0,1,4.28.25Z"/><path class="cls-3" d="M68.9.5a3.78,3.78,0,0,1,3.78,3.78V22.22A3.78,3.78,0,0,1,68.9,26H4.28A3.78,3.78,0,0,1,.5,22.22V4.28A3.78,3.78,0,0,1,4.28.5H68.9m0-.5H4.28A4.27,4.27,0,0,0,0,4.28V22.22A4.28,4.28,0,0,0,4.28,26.5H68.9a4.28,4.28,0,0,0,4.28-4.28V4.28A4.28,4.28,0,0,0,68.9,0Z"/></g></g></g></svg>