<svg xmlns="http://www.w3.org/2000/svg" xmlns:xlink="http://www.w3.org/1999/xlink" viewBox="0 0 119.6 63.83"><defs><style>.cls-1{fill:url(#linear-gradient);}.cls-2{fill:url(#linear-gradient-2);}.cls-3{fill:url(#linear-gradient-3);}.cls-4{fill:url(#linear-gradient-4);}.cls-5{fill:#edffff;}.cls-10,.cls-11,.cls-12,.cls-13,.cls-14,.cls-15,.cls-16,.cls-17,.cls-18,.cls-19,.cls-6,.cls-7,.cls-8,.cls-9{fill:none;stroke-miterlimit:10;}.cls-6{stroke:#333;stroke-linecap:round;stroke-width:2px;opacity:0.51;}.cls-7{stroke:url(#linear-gradient-5);}.cls-8{stroke:url(#linear-gradient-6);}.cls-9{stroke:url(#linear-gradient-7);}.cls-10{stroke:url(#linear-gradient-8);}.cls-11{stroke:url(#linear-gradient-9);}.cls-12{stroke:url(#linear-gradient-10);}.cls-13{stroke:url(#linear-gradient-11);}.cls-14{stroke:url(#linear-gradient-12);}.cls-15{stroke:url(#linear-gradient-13);}.cls-16{stroke:url(#linear-gradient-14);}.cls-17{stroke:url(#linear-gradient-15);}.cls-18{stroke:url(#linear-gradient-16);}.cls-19{stroke:url(#linear-gradient-17);}.cls-20{fill:url(#linear-gradient-18);}.cls-21{fill:url(#linear-gradient-19);}.cls-22{fill:url(#linear-gradient-20);}.cls-23{opacity:0.17;}</style><linearGradient id="linear-gradient" x1="371.93" y1="-351.55" x2="420.3" y2="-351.55" gradientTransform="translate(-387.17 384.07)" gradientUnits="userSpaceOnUse"><stop offset="0" stop-color="#6a6c6e"/><stop offset="0.03" stop-color="#3e3f40"/><stop offset="0.32" stop-color="#d9dadb"/><stop offset="0.33" stop-color="#d6d7d8"/><stop offset="0.48" stop-color="#a4a6a7"/><stop offset="0.54" stop-color="#a8a8a8"/><stop offset="0.59" stop-color="#8e8e8e"/><stop offset="0.68" stop-color="#747577"/><stop offset="0.7" stop-color="#707172"/><stop offset="0.74" stop-color="#686868"/><stop offset="0.82" stop-color="#939393"/><stop offset="0.93" stop-color="#5b5b5b"/><stop offset="1" stop-color="#373839"/></linearGradient><linearGradient id="linear-gradient-2" x1="371.93" y1="-309.86" x2="420.3" y2="-309.86" gradientTransform="translate(-345.48 342.39)" xlink:href="#linear-gradient"/><linearGradient id="linear-gradient-3" x1="381.61" y1="-272.47" x2="410.62" y2="-272.47" gradientTransform="translate(-308.1 305)" xlink:href="#linear-gradient"/><linearGradient id="linear-gradient-4" x1="371.93" y1="-265.68" x2="420.3" y2="-265.68" gradientTransform="translate(-301.3 298.21)" xlink:href="#linear-gradient"/><linearGradient id="linear-gradient-5" x1="370.16" y1="-316.41" x2="371.16" y2="-316.41" gradientTransform="translate(361.3 427.24) rotate(-90)" gradientUnits="userSpaceOnUse"><stop offset="0" stop-color="#3e3f40"/><stop offset="0.08" stop-color="#6a6c6e"/><stop offset="0.26" stop-color="#d9dadb"/><stop offset="0.27" stop-color="#d6d7d8"/><stop offset="0.36" stop-color="#a4a6a7"/><stop offset="0.49" stop-color="#a8a8a8"/><stop offset="0.54" stop-color="#8e8e8e"/><stop offset="0.68" stop-color="#747577"/><stop offset="0.7" stop-color="#707172"/><stop offset="0.74" stop-color="#686868"/><stop offset="0.82" stop-color="#939393"/><stop offset="0.93" stop-color="#5b5b5b"/><stop offset="1" stop-color="#373839"/></linearGradient><linearGradient id="linear-gradient-6" x1="374.22" y1="-316.39" x2="375.22" y2="-316.39" gradientTransform="matrix(0, -1, 1, 0, 361.28, 427.29)" xlink:href="#linear-gradient-5"/><linearGradient id="linear-gradient-7" x1="378.29" y1="-316.37" x2="379.29" y2="-316.37" gradientTransform="matrix(0, -1, 1, 0, 361.25, 427.34)" xlink:href="#linear-gradient-5"/><linearGradient id="linear-gradient-8" x1="382.36" y1="-316.35" x2="383.36" y2="-316.35" gradientTransform="translate(361.23 427.39) rotate(-90)" xlink:href="#linear-gradient-5"/><linearGradient id="linear-gradient-9" x1="386.43" y1="-316.33" x2="387.43" y2="-316.33" gradientTransform="matrix(0, -1, 1, 0, 361.21, 427.44)" xlink:href="#linear-gradient-5"/><linearGradient id="linear-gradient-10" x1="390.5" y1="-316.32" x2="391.5" y2="-316.32" gradientTransform="translate(361.19 427.49) rotate(-90)" xlink:href="#linear-gradient-5"/><linearGradient id="linear-gradient-11" x1="394.57" y1="-316.3" x2="395.57" y2="-316.3" gradientTransform="matrix(0, -1, 1, 0, 361.17, 427.54)" xlink:href="#linear-gradient-5"/><linearGradient id="linear-gradient-12" x1="398.63" y1="-316.28" x2="399.63" y2="-316.28" gradientTransform="matrix(0, -1, 1, 0, 361.15, 427.59)" xlink:href="#linear-gradient-5"/><linearGradient id="linear-gradient-13" x1="402.7" y1="-316.26" x2="403.7" y2="-316.26" gradientTransform="translate(361.13 427.64) rotate(-90)" xlink:href="#linear-gradient-5"/><linearGradient id="linear-gradient-14" x1="406.77" y1="-316.25" x2="407.77" y2="-316.25" gradientTransform="translate(361.11 427.69) rotate(-90)" xlink:href="#linear-gradient-5"/><linearGradient id="linear-gradient-15" x1="410.84" y1="-316.23" x2="411.84" y2="-316.23" gradientTransform="matrix(0, -1, 1, 0, 361.09, 427.74)" xlink:href="#linear-gradient-5"/><linearGradient id="linear-gradient-16" x1="414.91" y1="-316.21" x2="415.91" y2="-316.21" gradientTransform="translate(361.07 427.8) rotate(-90)" xlink:href="#linear-gradient-5"/><linearGradient id="linear-gradient-17" x1="418.98" y1="-316.19" x2="419.98" y2="-316.19" gradientTransform="matrix(0, -1, 1, 0, 361.04, 427.85)" xlink:href="#linear-gradient-5"/><linearGradient id="linear-gradient-18" x1="374.32" y1="-252.46" x2="417.91" y2="-252.46" gradientTransform="translate(-288.09 284.99)" xlink:href="#linear-gradient"/><linearGradient id="linear-gradient-19" x1="423.27" y1="-243.49" x2="423.27" y2="-261.43" gradientTransform="translate(-315.25 257.83)" xlink:href="#linear-gradient"/><linearGradient id="linear-gradient-20" x1="374.22" y1="-243.49" x2="374.22" y2="-261.43" gradientTransform="translate(360.49 428.64) rotate(-90)" xlink:href="#linear-gradient"/></defs><g id="Layer_2" data-name="Layer 2"><g id="Layer_1-2" data-name="Layer 1"><path class="cls-1" d="M-9,23.9h35.8a6.28,6.28,0,0,1,6.28,6.28v11a0,0,0,0,1,0,0H-15.24a0,0,0,0,1,0,0v-11A6.28,6.28,0,0,1-9,23.9Z" transform="translate(-23.58 41.47) rotate(-90)"/><path class="cls-2" d="M26.45.3H74.81a0,0,0,0,1,0,0V61.67a3.09,3.09,0,0,1-3.09,3.09H29.54a3.09,3.09,0,0,1-3.09-3.09V.3A0,0,0,0,1,26.45.3Z" transform="translate(18.1 83.16) rotate(-90)"/><rect class="cls-3" x="73.51" y="27.37" width="29.02" height="10.32" transform="translate(55.49 120.55) rotate(-90)"/><rect class="cls-4" x="70.63" y="30.89" width="48.36" height="3.28" transform="translate(62.29 127.34) rotate(-90)"/><path class="cls-5" d="M.17,42.25s0-.41,0-1.14,0-1.77-.06-3S0,35.4,0,33.84,0,30.62,0,29s0-3.32,0-4.88,0-3,.05-4.26,0-2.28.07-3,0-1.14,0-1.14,0,.41,0,1.14,0,1.77.07,3,0,2.7,0,4.26,0,3.22,0,4.88,0,3.32,0,4.88,0,3,0,4.26-.05,2.28-.07,3S.17,42.25.17,42.25Z"/><path class="cls-5" d="M93.18,42.25s0-.41,0-1.14,0-1.77-.06-3,0-2.7,0-4.26,0-3.22,0-4.88,0-3.32,0-4.88,0-3,0-4.26,0-2.28.06-3,0-1.14,0-1.14,0,.41,0,1.14,0,1.77.06,3,0,2.7.06,4.26,0,3.22,0,4.88,0,3.32,0,4.88,0,3,0,4.26,0,2.28-.06,3S93.18,42.25,93.18,42.25Z"/><path class="cls-5" d="M18.4,42.25s0-.41,0-1.14,0-1.77-.06-3,0-2.7,0-4.26,0-3.22,0-4.88,0-3.32,0-4.88,0-3,0-4.26.05-2.28.06-3,0-1.14,0-1.14,0,.41,0,1.14,0,1.77.06,3,0,2.7.05,4.26,0,3.22,0,4.88,0,3.32,0,4.88,0,3-.05,4.26-.05,2.28-.06,3S18.4,42.25,18.4,42.25Z"/><line class="cls-6" x1="23.79" y1="55.9" x2="66.58" y2="55.9"/><line class="cls-7" x1="22.92" y1="56.58" x2="66.86" y2="56.58"/><line class="cls-6" x1="23.79" y1="51.88" x2="66.58" y2="51.88"/><line class="cls-8" x1="22.92" y1="52.56" x2="66.86" y2="52.56"/><line class="cls-6" x1="23.78" y1="47.86" x2="66.57" y2="47.86"/><line class="cls-9" x1="22.92" y1="48.55" x2="66.85" y2="48.55"/><line class="cls-6" x1="23.78" y1="43.85" x2="66.57" y2="43.85"/><line class="cls-10" x1="22.91" y1="44.53" x2="66.85" y2="44.53"/><line class="cls-6" x1="23.78" y1="39.83" x2="66.57" y2="39.83"/><line class="cls-11" x1="22.91" y1="40.51" x2="66.85" y2="40.51"/><line class="cls-6" x1="23.77" y1="35.81" x2="66.56" y2="35.81"/><line class="cls-12" x1="22.91" y1="36.49" x2="66.84" y2="36.49"/><line class="cls-6" x1="23.77" y1="31.79" x2="66.56" y2="31.79"/><line class="cls-13" x1="22.9" y1="32.47" x2="66.84" y2="32.47"/><line class="cls-6" x1="23.77" y1="27.78" x2="66.56" y2="27.78"/><line class="cls-14" x1="22.9" y1="28.46" x2="66.83" y2="28.46"/><line class="cls-6" x1="23.76" y1="23.76" x2="66.55" y2="23.76"/><line class="cls-15" x1="22.9" y1="24.44" x2="66.83" y2="24.44"/><line class="cls-6" x1="23.76" y1="19.74" x2="66.55" y2="19.74"/><line class="cls-16" x1="22.89" y1="20.42" x2="66.83" y2="20.42"/><line class="cls-6" x1="23.76" y1="15.72" x2="66.55" y2="15.72"/><line class="cls-17" x1="22.89" y1="16.4" x2="66.82" y2="16.4"/><line class="cls-6" x1="23.75" y1="11.7" x2="66.54" y2="11.7"/><line class="cls-18" x1="22.89" y1="12.38" x2="66.82" y2="12.39"/><line class="cls-6" x1="23.75" y1="7.69" x2="66.54" y2="7.69"/><line class="cls-19" x1="22.88" y1="8.37" x2="66.82" y2="8.37"/><rect class="cls-20" x="86.23" y="20.95" width="43.59" height="23.15" transform="translate(75.5 140.55) rotate(-90)"/><rect class="cls-21" x="102.66" y="-3.6" width="10.73" height="17.94" transform="translate(102.66 113.39) rotate(-90)"/><path class="cls-22" d="M117,54.32v9.51H99.06V54.32C99.06,41.86,117,42,117,54.32Z"/><path class="cls-23" d="M87.77,18H82.86V47H93.18a23.72,23.72,0,0,1-7.87-17.58C85.18,18,87.77,18,87.77,18Z"/><path class="cls-23" d="M99.09,10.73H96.45V54.32h2.61s-1.22-9.18-1.29-26.4S99.09,10.73,99.09,10.73Z"/><path class="cls-23" d="M111.89,45.94h0a18.25,18.25,0,0,1,5.68,3.32,11.1,11.1,0,0,1,2,2.45v2.72H117C117,50,114.76,47.23,111.89,45.94Z"/></g></g></svg>