<svg xmlns="http://www.w3.org/2000/svg" xmlns:xlink="http://www.w3.org/1999/xlink" viewBox="0 0 63.83 119.6"><defs><style>.cls-1{fill:url(#linear-gradient);}.cls-2{fill:url(#linear-gradient-2);}.cls-3{fill:url(#linear-gradient-3);}.cls-4{fill:url(#linear-gradient-4);}.cls-5{fill:#edffff;}.cls-10,.cls-11,.cls-12,.cls-13,.cls-14,.cls-15,.cls-16,.cls-17,.cls-18,.cls-19,.cls-6,.cls-7,.cls-8,.cls-9{fill:none;stroke-miterlimit:10;}.cls-6{stroke:#333;stroke-linecap:round;stroke-width:2px;opacity:0.51;}.cls-7{stroke:url(#linear-gradient-5);}.cls-8{stroke:url(#linear-gradient-6);}.cls-9{stroke:url(#linear-gradient-7);}.cls-10{stroke:url(#linear-gradient-8);}.cls-11{stroke:url(#linear-gradient-9);}.cls-12{stroke:url(#linear-gradient-10);}.cls-13{stroke:url(#linear-gradient-11);}.cls-14{stroke:url(#linear-gradient-12);}.cls-15{stroke:url(#linear-gradient-13);}.cls-16{stroke:url(#linear-gradient-14);}.cls-17{stroke:url(#linear-gradient-15);}.cls-18{stroke:url(#linear-gradient-16);}.cls-19{stroke:url(#linear-gradient-17);}.cls-20{fill:url(#linear-gradient-18);}.cls-21{fill:url(#linear-gradient-19);}.cls-22{fill:url(#linear-gradient-20);}.cls-23{opacity:0.17;}</style><linearGradient id="linear-gradient" x1="7.12" y1="8.94" x2="55.48" y2="8.94" gradientUnits="userSpaceOnUse"><stop offset="0" stop-color="#6a6c6e"/><stop offset="0.03" stop-color="#3e3f40"/><stop offset="0.32" stop-color="#d9dadb"/><stop offset="0.33" stop-color="#d6d7d8"/><stop offset="0.48" stop-color="#a4a6a7"/><stop offset="0.54" stop-color="#a8a8a8"/><stop offset="0.59" stop-color="#8e8e8e"/><stop offset="0.68" stop-color="#747577"/><stop offset="0.7" stop-color="#707172"/><stop offset="0.74" stop-color="#686868"/><stop offset="0.82" stop-color="#939393"/><stop offset="0.93" stop-color="#5b5b5b"/><stop offset="1" stop-color="#373839"/></linearGradient><linearGradient id="linear-gradient-2" x1="7.12" y1="50.63" x2="55.48" y2="50.63" xlink:href="#linear-gradient"/><linearGradient id="linear-gradient-3" x1="16.79" y1="88.02" x2="45.81" y2="88.02" xlink:href="#linear-gradient"/><linearGradient id="linear-gradient-4" x1="7.12" y1="94.81" x2="55.48" y2="94.81" xlink:href="#linear-gradient"/><linearGradient id="linear-gradient-5" x1="5.34" y1="44.09" x2="6.34" y2="44.09" gradientTransform="translate(1.41 0.81)" gradientUnits="userSpaceOnUse"><stop offset="0" stop-color="#3e3f40"/><stop offset="0.08" stop-color="#6a6c6e"/><stop offset="0.26" stop-color="#d9dadb"/><stop offset="0.27" stop-color="#d6d7d8"/><stop offset="0.36" stop-color="#a4a6a7"/><stop offset="0.49" stop-color="#a8a8a8"/><stop offset="0.54" stop-color="#8e8e8e"/><stop offset="0.68" stop-color="#747577"/><stop offset="0.7" stop-color="#707172"/><stop offset="0.74" stop-color="#686868"/><stop offset="0.82" stop-color="#939393"/><stop offset="0.93" stop-color="#5b5b5b"/><stop offset="1" stop-color="#373839"/></linearGradient><linearGradient id="linear-gradient-6" x1="9.41" y1="44.1" x2="10.41" y2="44.1" gradientTransform="translate(1.35 0.78)" xlink:href="#linear-gradient-5"/><linearGradient id="linear-gradient-7" x1="13.48" y1="44.12" x2="14.48" y2="44.12" gradientTransform="translate(1.3 0.76)" xlink:href="#linear-gradient-5"/><linearGradient id="linear-gradient-8" x1="17.55" y1="44.14" x2="18.55" y2="44.14" gradientTransform="translate(1.24 0.73)" xlink:href="#linear-gradient-5"/><linearGradient id="linear-gradient-9" x1="21.62" y1="44.16" x2="22.62" y2="44.16" gradientTransform="translate(1.19 0.7)" xlink:href="#linear-gradient-5"/><linearGradient id="linear-gradient-10" x1="25.69" y1="44.17" x2="26.69" y2="44.17" gradientTransform="translate(1.13 0.68)" xlink:href="#linear-gradient-5"/><linearGradient id="linear-gradient-11" x1="29.75" y1="44.19" x2="30.75" y2="44.19" gradientTransform="translate(1.08 0.65)" xlink:href="#linear-gradient-5"/><linearGradient id="linear-gradient-12" x1="33.82" y1="44.21" x2="34.82" y2="44.21" gradientTransform="translate(1.02 0.63)" xlink:href="#linear-gradient-5"/><linearGradient id="linear-gradient-13" x1="37.89" y1="44.23" x2="38.89" y2="44.23" gradientTransform="translate(0.97 0.6)" xlink:href="#linear-gradient-5"/><linearGradient id="linear-gradient-14" x1="41.96" y1="44.24" x2="42.96" y2="44.24" gradientTransform="translate(0.91 0.58)" xlink:href="#linear-gradient-5"/><linearGradient id="linear-gradient-15" x1="46.03" y1="44.26" x2="47.03" y2="44.26" gradientTransform="translate(0.9 0.59)" xlink:href="#linear-gradient-5"/><linearGradient id="linear-gradient-16" x1="50.1" y1="44.28" x2="51.1" y2="44.28" gradientTransform="translate(0.85 0.57)" xlink:href="#linear-gradient-5"/><linearGradient id="linear-gradient-17" x1="54.17" y1="44.3" x2="55.17" y2="44.3" gradientTransform="translate(0.8 0.55)" xlink:href="#linear-gradient-5"/><linearGradient id="linear-gradient-18" x1="9.51" y1="108.03" x2="53.1" y2="108.03" xlink:href="#linear-gradient"/><linearGradient id="linear-gradient-19" x1="58.46" y1="117" x2="58.46" y2="99.06" xlink:href="#linear-gradient"/><linearGradient id="linear-gradient-20" x1="9.41" y1="117" x2="9.41" y2="99.06" xlink:href="#linear-gradient"/></defs><g id="Layer_2" data-name="Layer 2"><g id="Layer_1-2" data-name="Layer 1"><path class="cls-1" d="M13.4.32H49.2A6.28,6.28,0,0,1,55.48,6.6v11a0,0,0,0,1,0,0H7.12a0,0,0,0,1,0,0V6.6A6.28,6.28,0,0,1,13.4.32Z"/><path class="cls-2" d="M7.12,18.4H55.48a0,0,0,0,1,0,0V79.77a3.09,3.09,0,0,1-3.09,3.09H10.21a3.09,3.09,0,0,1-3.09-3.09V18.4A0,0,0,0,1,7.12,18.4Z"/><rect class="cls-3" x="16.79" y="82.86" width="29.02" height="10.32"/><rect class="cls-4" x="7.12" y="93.18" width="48.36" height="3.28"/><path class="cls-5" d="M13.58.17l1.14,0,3-.06L22,0l4.88,0,4.88,0L36,.07l3,.07,1.14,0L39,.2,36,.27l-4.26,0-4.88,0L22,.32l-4.26,0-3-.07Z"/><path class="cls-5" d="M13.58,93.18l1.14,0,3-.06L22,93l4.88,0,4.88,0,4.26,0,3,.06,1.14,0-1.14,0-3,.06-4.26.06-4.88,0-4.88,0-4.26,0-3-.06Z"/><path class="cls-5" d="M13.58,18.4l1.14,0,3-.06,4.26,0,4.88,0,4.88,0,4.26,0,3,.06,1.14,0-1.14,0-3,.06-4.26.05-4.88,0-4.88,0-4.26-.05-3-.06Z"/><line class="cls-6" x1="7.93" y1="23.79" x2="7.93" y2="66.58"/><line class="cls-7" x1="7.25" y1="22.92" x2="7.25" y2="66.86"/><line class="cls-6" x1="11.95" y1="23.79" x2="11.95" y2="66.58"/><line class="cls-8" x1="11.27" y1="22.92" x2="11.27" y2="66.86"/><line class="cls-6" x1="15.97" y1="23.78" x2="15.97" y2="66.57"/><line class="cls-9" x1="15.28" y1="22.92" x2="15.28" y2="66.85"/><line class="cls-6" x1="19.98" y1="23.78" x2="19.98" y2="66.57"/><line class="cls-10" x1="19.3" y1="22.91" x2="19.3" y2="66.85"/><line class="cls-6" x1="24" y1="23.78" x2="24" y2="66.57"/><line class="cls-11" x1="23.32" y1="22.91" x2="23.32" y2="66.85"/><line class="cls-6" x1="28.02" y1="23.77" x2="28.02" y2="66.56"/><line class="cls-12" x1="27.34" y1="22.91" x2="27.34" y2="66.84"/><line class="cls-6" x1="32.04" y1="23.77" x2="32.04" y2="66.56"/><line class="cls-13" x1="31.36" y1="22.9" x2="31.36" y2="66.84"/><line class="cls-6" x1="36.06" y1="23.77" x2="36.06" y2="66.56"/><line class="cls-14" x1="35.37" y1="22.9" x2="35.37" y2="66.83"/><line class="cls-6" x1="40.07" y1="23.76" x2="40.07" y2="66.55"/><line class="cls-15" x1="39.39" y1="22.9" x2="39.39" y2="66.83"/><line class="cls-6" x1="44.09" y1="23.76" x2="44.09" y2="66.55"/><line class="cls-16" x1="43.41" y1="22.89" x2="43.41" y2="66.83"/><line class="cls-6" x1="48.11" y1="23.76" x2="48.11" y2="66.55"/><line class="cls-17" x1="47.43" y1="22.89" x2="47.43" y2="66.82"/><line class="cls-6" x1="52.13" y1="23.75" x2="52.13" y2="66.54"/><line class="cls-18" x1="51.45" y1="22.89" x2="51.45" y2="66.82"/><line class="cls-6" x1="56.14" y1="23.75" x2="56.14" y2="66.54"/><line class="cls-19" x1="55.46" y1="22.88" x2="55.46" y2="66.82"/><rect class="cls-20" x="9.51" y="96.45" width="43.59" height="23.15"/><rect class="cls-21" x="53.1" y="99.06" width="10.73" height="17.94"/><path class="cls-22" d="M9.51,117H0V99.06H9.51C22,99.06,21.85,117,9.51,117Z"/><path class="cls-23" d="M16.79,87.77V82.86h29V93.18a23.72,23.72,0,0,0-17.58-7.87C16.76,85.18,16.79,87.77,16.79,87.77Z"/><path class="cls-23" d="M9.51,99.09V96.45H53.1V102s-9.18-4.17-26.41-4.24S9.51,99.09,9.51,99.09Z"/></g></g></svg>