<svg xmlns="http://www.w3.org/2000/svg" xmlns:xlink="http://www.w3.org/1999/xlink" viewBox="0 0 63.82 119.63"><defs><style>.cls-1{fill:url(#linear-gradient);}.cls-2{fill:url(#linear-gradient-2);}.cls-3{fill:url(#linear-gradient-3);}.cls-4{fill:url(#linear-gradient-4);}.cls-5{fill:#edffff;}.cls-10,.cls-11,.cls-12,.cls-13,.cls-14,.cls-15,.cls-16,.cls-17,.cls-18,.cls-19,.cls-6,.cls-7,.cls-8,.cls-9{fill:none;stroke-miterlimit:10;}.cls-6{stroke:#333;stroke-linecap:round;stroke-width:2px;opacity:0.51;}.cls-7{stroke:url(#linear-gradient-5);}.cls-8{stroke:url(#linear-gradient-6);}.cls-9{stroke:url(#linear-gradient-7);}.cls-10{stroke:url(#linear-gradient-8);}.cls-11{stroke:url(#linear-gradient-9);}.cls-12{stroke:url(#linear-gradient-10);}.cls-13{stroke:url(#linear-gradient-11);}.cls-14{stroke:url(#linear-gradient-12);}.cls-15{stroke:url(#linear-gradient-13);}.cls-16{stroke:url(#linear-gradient-14);}.cls-17{stroke:url(#linear-gradient-15);}.cls-18{stroke:url(#linear-gradient-16);}.cls-19{stroke:url(#linear-gradient-17);}.cls-20{fill:url(#linear-gradient-18);}.cls-21{fill:url(#linear-gradient-19);}.cls-22{opacity:0.17;}.cls-23{fill:url(#linear-gradient-20);}</style><linearGradient id="linear-gradient" x1="569.49" y1="-120.07" x2="617.86" y2="-120.07" gradientTransform="translate(-561.15 231.07)" gradientUnits="userSpaceOnUse"><stop offset="0" stop-color="#6a6c6e"/><stop offset="0.03" stop-color="#3e3f40"/><stop offset="0.32" stop-color="#d9dadb"/><stop offset="0.33" stop-color="#d6d7d8"/><stop offset="0.48" stop-color="#a4a6a7"/><stop offset="0.54" stop-color="#a8a8a8"/><stop offset="0.59" stop-color="#8e8e8e"/><stop offset="0.68" stop-color="#747577"/><stop offset="0.7" stop-color="#707172"/><stop offset="0.74" stop-color="#686868"/><stop offset="0.82" stop-color="#939393"/><stop offset="0.93" stop-color="#5b5b5b"/><stop offset="1" stop-color="#373839"/></linearGradient><linearGradient id="linear-gradient-2" x1="569.49" y1="-78.39" x2="617.86" y2="-78.39" gradientTransform="translate(-561.15 147.7)" xlink:href="#linear-gradient"/><linearGradient id="linear-gradient-3" x1="579.17" y1="-41" x2="608.18" y2="-41" gradientTransform="translate(-561.15 72.93)" xlink:href="#linear-gradient"/><linearGradient id="linear-gradient-4" x1="569.49" y1="-34.2" x2="617.86" y2="-34.2" gradientTransform="translate(-561.15 59.34)" xlink:href="#linear-gradient"/><linearGradient id="linear-gradient-5" x1="567.72" y1="-84.93" x2="568.72" y2="-84.93" gradientTransform="translate(624.8 -9.88) rotate(180)" gradientUnits="userSpaceOnUse"><stop offset="0" stop-color="#3e3f40"/><stop offset="0.08" stop-color="#6a6c6e"/><stop offset="0.26" stop-color="#d9dadb"/><stop offset="0.27" stop-color="#d6d7d8"/><stop offset="0.36" stop-color="#a4a6a7"/><stop offset="0.49" stop-color="#a8a8a8"/><stop offset="0.54" stop-color="#8e8e8e"/><stop offset="0.68" stop-color="#747577"/><stop offset="0.7" stop-color="#707172"/><stop offset="0.74" stop-color="#686868"/><stop offset="0.82" stop-color="#939393"/><stop offset="0.93" stop-color="#5b5b5b"/><stop offset="1" stop-color="#373839"/></linearGradient><linearGradient id="linear-gradient-6" x1="571.78" y1="-84.91" x2="572.78" y2="-84.91" gradientTransform="translate(624.85 -9.85) rotate(180)" xlink:href="#linear-gradient-5"/><linearGradient id="linear-gradient-7" x1="575.85" y1="-84.9" x2="576.85" y2="-84.9" gradientTransform="translate(624.91 -9.83) rotate(180)" xlink:href="#linear-gradient-5"/><linearGradient id="linear-gradient-8" x1="579.92" y1="-84.88" x2="580.92" y2="-84.88" gradientTransform="translate(624.96 -9.8) rotate(180)" xlink:href="#linear-gradient-5"/><linearGradient id="linear-gradient-9" x1="583.99" y1="-84.86" x2="584.99" y2="-84.86" gradientTransform="translate(625.02 -9.78) rotate(180)" xlink:href="#linear-gradient-5"/><linearGradient id="linear-gradient-10" x1="588.06" y1="-84.84" x2="589.06" y2="-84.84" gradientTransform="translate(625.07 -9.75) rotate(180)" xlink:href="#linear-gradient-5"/><linearGradient id="linear-gradient-11" x1="592.13" y1="-84.83" x2="593.13" y2="-84.83" gradientTransform="translate(625.13 -9.72) rotate(180)" xlink:href="#linear-gradient-5"/><linearGradient id="linear-gradient-12" x1="596.19" y1="-84.81" x2="597.19" y2="-84.81" gradientTransform="translate(625.18 -9.7) rotate(180)" xlink:href="#linear-gradient-5"/><linearGradient id="linear-gradient-13" x1="600.26" y1="-84.79" x2="601.26" y2="-84.79" gradientTransform="translate(625.23 -9.67) rotate(180)" xlink:href="#linear-gradient-5"/><linearGradient id="linear-gradient-14" x1="604.33" y1="-84.77" x2="605.33" y2="-84.77" gradientTransform="translate(625.29 -9.65) rotate(180)" xlink:href="#linear-gradient-5"/><linearGradient id="linear-gradient-15" x1="608.4" y1="-84.76" x2="609.4" y2="-84.76" gradientTransform="translate(625.3 -9.67) rotate(180)" xlink:href="#linear-gradient-5"/><linearGradient id="linear-gradient-16" x1="612.47" y1="-84.74" x2="613.47" y2="-84.74" gradientTransform="translate(625.35 -9.65) rotate(180)" xlink:href="#linear-gradient-5"/><linearGradient id="linear-gradient-17" x1="616.53" y1="-84.72" x2="617.53" y2="-84.72" gradientTransform="translate(625.41 -9.62) rotate(180)" xlink:href="#linear-gradient-5"/><linearGradient id="linear-gradient-18" x1="571.88" y1="-20.99" x2="615.47" y2="-20.99" gradientTransform="translate(-561.15 32.91)" xlink:href="#linear-gradient"/><linearGradient id="linear-gradient-19" x1="620.84" y1="-12.02" x2="620.84" y2="-29.96" gradientTransform="translate(-615.47 32.91)" xlink:href="#linear-gradient"/><linearGradient id="linear-gradient-20" x1="571.79" y1="-12.02" x2="571.79" y2="-29.96" gradientTransform="translate(626.2 -9.07) rotate(180)" xlink:href="#linear-gradient"/></defs><g id="Layer_2" data-name="Layer 2"><g id="Layer_1-2" data-name="Layer 1"><path class="cls-1" d="M14.63,102.37h35.8a6.28,6.28,0,0,1,6.28,6.28v11a0,0,0,0,1,0,0H8.35a0,0,0,0,1,0,0v-11a6.28,6.28,0,0,1,6.28-6.28Z" transform="translate(65.06 222) rotate(-180)"/><path class="cls-2" d="M8.35,37.09H56.71a0,0,0,0,1,0,0V98.45a3.09,3.09,0,0,1-3.09,3.09H11.44a3.09,3.09,0,0,1-3.09-3.09V37.09a0,0,0,0,1,0,0Z" transform="translate(65.06 138.63) rotate(-180)"/><rect class="cls-3" x="18.02" y="26.77" width="29.02" height="10.32" transform="translate(65.06 63.86) rotate(-180)"/><rect class="cls-4" x="8.35" y="23.49" width="48.36" height="3.28" transform="translate(65.06 50.26) rotate(-180)"/><path class="cls-5" d="M39.9,102.31l-1.15,0-3,.06-4.26.06-4.88,0-4.88,0-4.25-.06-3-.06-1.14,0,1.14,0,3-.06,4.25,0,4.88,0,4.88,0,4.26,0,3,.06Z"/><path class="cls-5" d="M38.7.17,37.55.2l-3,.07-4.26,0L25.4.34l-4.88,0-4.25,0-3-.07-1.14,0,1.14,0,3-.07,4.25,0L25.4,0l4.88,0,4.26.06,3,.06Z"/><path class="cls-5" d="M38.7,23.49l-1.15,0-3,.06-4.26.05-4.88,0-4.88,0-4.25-.05-3-.06-1.14,0,1.14,0,3-.06,4.25,0,4.88,0,4.88,0,4.26,0,3,.06Z"/><path class="cls-5" d="M38.7,37.09l-1.15,0-3,.06-4.26.06-4.88,0-4.88,0-4.25-.06-3-.06-1.14,0,1.14,0,3-.06,4.25-.05,4.88,0,4.88,0,4.26.05,3,.06Z"/><line class="cls-6" x1="55.9" y1="96.16" x2="55.9" y2="53.37"/><line class="cls-7" x1="56.58" y1="97.02" x2="56.58" y2="53.09"/><line class="cls-6" x1="51.88" y1="96.16" x2="51.88" y2="53.37"/><line class="cls-8" x1="52.56" y1="97.03" x2="52.56" y2="53.09"/><line class="cls-6" x1="47.86" y1="96.16" x2="47.86" y2="53.37"/><line class="cls-9" x1="48.55" y1="97.03" x2="48.55" y2="53.09"/><line class="cls-6" x1="43.85" y1="96.17" x2="43.85" y2="53.38"/><line class="cls-10" x1="44.53" y1="97.03" x2="44.53" y2="53.1"/><line class="cls-6" x1="39.83" y1="96.17" x2="39.83" y2="53.38"/><line class="cls-11" x1="40.51" y1="97.04" x2="40.51" y2="53.1"/><line class="cls-6" x1="35.81" y1="96.17" x2="35.81" y2="53.38"/><line class="cls-12" x1="36.49" y1="97.04" x2="36.49" y2="53.1"/><line class="cls-6" x1="31.79" y1="96.18" x2="31.79" y2="53.39"/><line class="cls-13" x1="32.47" y1="97.04" x2="32.47" y2="53.11"/><line class="cls-6" x1="27.78" y1="96.18" x2="27.78" y2="53.39"/><line class="cls-14" x1="28.46" y1="97.05" x2="28.46" y2="53.11"/><line class="cls-6" x1="23.76" y1="96.18" x2="23.76" y2="53.39"/><line class="cls-15" x1="24.44" y1="97.05" x2="24.44" y2="53.11"/><line class="cls-6" x1="19.74" y1="96.19" x2="19.74" y2="53.4"/><line class="cls-16" x1="20.42" y1="97.05" x2="20.42" y2="53.12"/><line class="cls-6" x1="15.72" y1="96.19" x2="15.72" y2="53.4"/><line class="cls-17" x1="16.4" y1="97.06" x2="16.4" y2="53.12"/><line class="cls-6" x1="11.7" y1="96.19" x2="11.7" y2="53.4"/><line class="cls-18" x1="12.38" y1="97.06" x2="12.39" y2="53.13"/><line class="cls-6" x1="7.69" y1="96.2" x2="7.69" y2="53.41"/><line class="cls-19" x1="8.37" y1="97.06" x2="8.37" y2="53.13"/><rect class="cls-20" x="10.73" y="0.35" width="43.59" height="23.15" transform="translate(65.06 23.84) rotate(-180)"/><rect class="cls-21" y="2.95" width="10.73" height="17.94" transform="translate(10.73 23.84) rotate(-180)"/><path class="cls-22" d="M18,31.68V26.77H47V37.09a23.72,23.72,0,0,0-17.58-7.87C18,29.09,18,31.68,18,31.68Z"/><path class="cls-22" d="M45.83,15.78h0a18.12,18.12,0,0,0,3.31,5.69,11.2,11.2,0,0,0,2.45,2h2.73v-2.6C49.93,20.88,47.11,18.66,45.83,15.78Z"/><path class="cls-23" d="M54.31,3h9.51V20.89H54.31C41.84,20.89,42,3,54.31,3Z"/></g></g></svg>