<svg xmlns="http://www.w3.org/2000/svg" xmlns:xlink="http://www.w3.org/1999/xlink" viewBox="0 0 119.28 63.83"><defs><style>.cls-1{fill:url(#linear-gradient);}.cls-2{fill:url(#linear-gradient-2);}.cls-3{fill:url(#linear-gradient-3);}.cls-4{fill:url(#linear-gradient-4);}.cls-5{fill:#edffff;}.cls-10,.cls-11,.cls-12,.cls-13,.cls-14,.cls-15,.cls-16,.cls-17,.cls-18,.cls-19,.cls-6,.cls-7,.cls-8,.cls-9{fill:none;stroke-miterlimit:10;}.cls-6{stroke:#333;stroke-linecap:round;stroke-width:2px;opacity:0.51;}.cls-7{stroke:url(#linear-gradient-5);}.cls-8{stroke:url(#linear-gradient-6);}.cls-9{stroke:url(#linear-gradient-7);}.cls-10{stroke:url(#linear-gradient-8);}.cls-11{stroke:url(#linear-gradient-9);}.cls-12{stroke:url(#linear-gradient-10);}.cls-13{stroke:url(#linear-gradient-11);}.cls-14{stroke:url(#linear-gradient-12);}.cls-15{stroke:url(#linear-gradient-13);}.cls-16{stroke:url(#linear-gradient-14);}.cls-17{stroke:url(#linear-gradient-15);}.cls-18{stroke:url(#linear-gradient-16);}.cls-19{stroke:url(#linear-gradient-17);}.cls-20{fill:url(#linear-gradient-18);}.cls-21{fill:url(#linear-gradient-19);}.cls-22{fill:url(#linear-gradient-20);}.cls-23{opacity:0.17;}</style><linearGradient id="linear-gradient" x1="293.52" y1="177.77" x2="341.88" y2="177.77" gradientTransform="translate(-207.04 -146.46)" gradientUnits="userSpaceOnUse"><stop offset="0" stop-color="#6a6c6e"/><stop offset="0.03" stop-color="#3e3f40"/><stop offset="0.32" stop-color="#d9dadb"/><stop offset="0.33" stop-color="#d6d7d8"/><stop offset="0.48" stop-color="#a4a6a7"/><stop offset="0.54" stop-color="#a8a8a8"/><stop offset="0.59" stop-color="#8e8e8e"/><stop offset="0.68" stop-color="#747577"/><stop offset="0.7" stop-color="#707172"/><stop offset="0.74" stop-color="#686868"/><stop offset="0.82" stop-color="#939393"/><stop offset="0.93" stop-color="#5b5b5b"/><stop offset="1" stop-color="#373839"/></linearGradient><linearGradient id="linear-gradient-2" x1="293.52" y1="219.45" x2="341.88" y2="219.45" gradientTransform="translate(-248.73 -188.15)" xlink:href="#linear-gradient"/><linearGradient id="linear-gradient-3" x1="303.19" y1="256.84" x2="332.21" y2="256.84" gradientTransform="translate(-286.12 -225.53)" xlink:href="#linear-gradient"/><linearGradient id="linear-gradient-4" x1="293.52" y1="263.63" x2="341.88" y2="263.63" gradientTransform="translate(-292.91 -232.33)" xlink:href="#linear-gradient"/><linearGradient id="linear-gradient-5" x1="291.74" y1="212.91" x2="292.74" y2="212.91" gradientTransform="translate(287.62 -284.99) rotate(90)" gradientUnits="userSpaceOnUse"><stop offset="0" stop-color="#3e3f40"/><stop offset="0.08" stop-color="#6a6c6e"/><stop offset="0.26" stop-color="#d9dadb"/><stop offset="0.27" stop-color="#d6d7d8"/><stop offset="0.36" stop-color="#a4a6a7"/><stop offset="0.49" stop-color="#a8a8a8"/><stop offset="0.54" stop-color="#8e8e8e"/><stop offset="0.68" stop-color="#747577"/><stop offset="0.7" stop-color="#707172"/><stop offset="0.74" stop-color="#686868"/><stop offset="0.82" stop-color="#939393"/><stop offset="0.93" stop-color="#5b5b5b"/><stop offset="1" stop-color="#373839"/></linearGradient><linearGradient id="linear-gradient-6" x1="295.81" y1="212.92" x2="296.81" y2="212.92" gradientTransform="translate(287.64 -285.04) rotate(90)" xlink:href="#linear-gradient-5"/><linearGradient id="linear-gradient-7" x1="299.88" y1="212.94" x2="300.88" y2="212.94" gradientTransform="translate(287.66 -285.09) rotate(90)" xlink:href="#linear-gradient-5"/><linearGradient id="linear-gradient-8" x1="303.94" y1="212.96" x2="304.94" y2="212.96" gradientTransform="translate(287.68 -285.14) rotate(90)" xlink:href="#linear-gradient-5"/><linearGradient id="linear-gradient-9" x1="308.01" y1="212.97" x2="309.01" y2="212.97" gradientTransform="translate(287.7 -285.19) rotate(90)" xlink:href="#linear-gradient-5"/><linearGradient id="linear-gradient-10" x1="312.08" y1="212.99" x2="313.08" y2="212.99" gradientTransform="translate(287.72 -285.24) rotate(90)" xlink:href="#linear-gradient-5"/><linearGradient id="linear-gradient-11" x1="316.15" y1="213.01" x2="317.15" y2="213.01" gradientTransform="translate(287.74 -285.29) rotate(90)" xlink:href="#linear-gradient-5"/><linearGradient id="linear-gradient-12" x1="320.22" y1="213.03" x2="321.22" y2="213.03" gradientTransform="translate(287.76 -285.35) rotate(90)" xlink:href="#linear-gradient-5"/><linearGradient id="linear-gradient-13" x1="324.29" y1="213.04" x2="325.29" y2="213.04" gradientTransform="translate(287.78 -285.4) rotate(90)" xlink:href="#linear-gradient-5"/><linearGradient id="linear-gradient-14" x1="328.36" y1="213.06" x2="329.36" y2="213.06" gradientTransform="translate(287.8 -285.45) rotate(90)" xlink:href="#linear-gradient-5"/><linearGradient id="linear-gradient-15" x1="332.42" y1="213.08" x2="333.42" y2="213.08" gradientTransform="translate(287.82 -285.5) rotate(90)" xlink:href="#linear-gradient-5"/><linearGradient id="linear-gradient-16" x1="336.49" y1="213.1" x2="337.49" y2="213.1" gradientTransform="translate(287.84 -285.55) rotate(90)" xlink:href="#linear-gradient-5"/><linearGradient id="linear-gradient-17" x1="340.56" y1="213.11" x2="341.56" y2="213.11" gradientTransform="translate(287.87 -285.6) rotate(90)" xlink:href="#linear-gradient-5"/><linearGradient id="linear-gradient-18" x1="295.9" y1="276.85" x2="339.49" y2="276.85" gradientTransform="translate(-306.12 -245.54)" xlink:href="#linear-gradient"/><linearGradient id="linear-gradient-19" x1="344.86" y1="285.82" x2="344.86" y2="267.88" gradientTransform="translate(-333.29 -218.38)" xlink:href="#linear-gradient"/><linearGradient id="linear-gradient-20" x1="295.8" y1="285.82" x2="295.8" y2="267.88" gradientTransform="translate(288.42 -286.4) rotate(90)" xlink:href="#linear-gradient"/></defs><g id="Layer_2" data-name="Layer 2"><g id="Layer_1-2" data-name="Layer 1"><path class="cls-1" d="M92.76,22.68h35.8A6.28,6.28,0,0,1,134.84,29v11a0,0,0,0,1,0,0H86.47a0,0,0,0,1,0,0V29A6.28,6.28,0,0,1,92.76,22.68Z" transform="translate(141.96 -79.35) rotate(90)"/><path class="cls-2" d="M44.79-.92H93.15a0,0,0,0,1,0,0V60.44a3.09,3.09,0,0,1-3.09,3.09H47.88a3.09,3.09,0,0,1-3.09-3.09V-.92a0,0,0,0,1,0,0Z" transform="translate(100.27 -37.67) rotate(90)"/><rect class="cls-3" x="17.07" y="26.14" width="29.02" height="10.32" transform="translate(62.89 -0.28) rotate(90)"/><rect class="cls-4" x="0.61" y="29.66" width="48.36" height="3.28" transform="translate(56.09 6.52) rotate(90)"/><path class="cls-5" d="M102,10.78s0,.41,0,1.14,0,1.77.06,3,0,2.7.06,4.26,0,3.22,0,4.88,0,3.32,0,4.88,0,3-.05,4.26,0,2.28-.07,3,0,1.14,0,1.14,0-.41,0-1.14,0-1.77-.07-3,0-2.7-.05-4.26,0-3.22,0-4.88,0-3.32,0-4.88,0-3,.05-4.26,0-2.28.07-3S102,10.78,102,10.78Z"/><path class="cls-5" d="M36.74,10.78s0,.41,0,1.14,0,1.77.06,3,0,2.7,0,4.26,0,3.22,0,4.88,0,3.32,0,4.88,0,3,0,4.26-.05,2.28-.06,3,0,1.14,0,1.14,0-.41,0-1.14,0-1.77-.06-3,0-2.7-.06-4.26,0-3.22,0-4.88,0-3.32,0-4.88,0-3,.06-4.26,0-2.28.06-3S36.74,10.78,36.74,10.78Z"/><path class="cls-5" d="M.17,10.78s0,.41,0,1.14,0,1.77.07,3,0,2.7,0,4.26,0,3.22,0,4.88,0,3.32,0,4.88,0,3,0,4.26-.05,2.28-.07,3,0,1.14,0,1.14,0-.41,0-1.14,0-1.77-.07-3S0,30.51,0,29s0-3.22,0-4.88,0-3.32,0-4.88,0-3,.06-4.26,0-2.28.06-3S.17,10.78.17,10.78Z"/><path class="cls-5" d="M23.15,10.78s0,.41,0,1.14,0,1.77.06,3,0,2.7.06,4.26,0,3.22,0,4.88,0,3.32,0,4.88,0,3-.05,4.26-.05,2.28-.07,3,0,1.14,0,1.14,0-.41,0-1.14,0-1.77-.07-3S23,30.51,23,29s0-3.22,0-4.88,0-3.32,0-4.88,0-3,.05-4.26.05-2.28.07-3S23.15,10.78,23.15,10.78Z"/><line class="cls-6" x1="95.81" y1="7.93" x2="53.02" y2="7.93"/><line class="cls-7" x1="96.68" y1="7.25" x2="52.74" y2="7.25"/><line class="cls-6" x1="95.81" y1="11.95" x2="53.02" y2="11.95"/><line class="cls-8" x1="96.68" y1="11.27" x2="52.75" y2="11.27"/><line class="cls-6" x1="95.82" y1="15.97" x2="53.03" y2="15.97"/><line class="cls-9" x1="96.68" y1="15.29" x2="52.75" y2="15.29"/><line class="cls-6" x1="95.82" y1="19.98" x2="53.03" y2="19.98"/><line class="cls-10" x1="96.69" y1="19.3" x2="52.75" y2="19.3"/><line class="cls-6" x1="95.82" y1="24" x2="53.03" y2="24"/><line class="cls-11" x1="96.69" y1="23.32" x2="52.76" y2="23.32"/><line class="cls-6" x1="95.83" y1="28.02" x2="53.04" y2="28.02"/><line class="cls-12" x1="96.69" y1="27.34" x2="52.76" y2="27.34"/><line class="cls-6" x1="95.83" y1="32.04" x2="53.04" y2="32.04"/><line class="cls-13" x1="96.7" y1="31.36" x2="52.76" y2="31.36"/><line class="cls-6" x1="95.83" y1="36.06" x2="53.04" y2="36.06"/><line class="cls-14" x1="96.7" y1="35.37" x2="52.77" y2="35.37"/><line class="cls-6" x1="95.84" y1="40.07" x2="53.05" y2="40.07"/><line class="cls-15" x1="96.71" y1="39.39" x2="52.77" y2="39.39"/><line class="cls-6" x1="95.84" y1="44.09" x2="53.05" y2="44.09"/><line class="cls-16" x1="96.71" y1="43.41" x2="52.77" y2="43.41"/><line class="cls-6" x1="95.84" y1="48.11" x2="53.05" y2="48.11"/><line class="cls-17" x1="96.71" y1="47.43" x2="52.78" y2="47.43"/><line class="cls-6" x1="95.85" y1="52.13" x2="53.06" y2="52.13"/><line class="cls-18" x1="96.72" y1="51.45" x2="52.78" y2="51.45"/><line class="cls-6" x1="95.85" y1="56.15" x2="53.06" y2="56.15"/><line class="cls-19" x1="96.72" y1="55.46" x2="52.78" y2="55.46"/><rect class="cls-20" x="-10.22" y="19.73" width="43.59" height="23.15" transform="translate(42.88 19.73) rotate(90)"/><rect class="cls-21" x="6.21" y="49.49" width="10.73" height="17.94" transform="translate(70.04 46.89) rotate(90)"/><path class="cls-22" d="M2.6,9.51V0H20.54V9.51C20.54,22,2.6,21.85,2.6,9.51Z"/><path class="cls-23" d="M31.33,16.79H26.42v29H36.74a23.72,23.72,0,0,1-7.87-17.58C28.75,16.76,31.33,16.79,31.33,16.79Z"/></g></g></svg>