<svg xmlns="http://www.w3.org/2000/svg" xmlns:xlink="http://www.w3.org/1999/xlink" viewBox="0 0 125.81 12.73"><defs><style>.cls-1,.cls-3,.cls-4{fill:none;}.cls-1,.cls-3{stroke-miterlimit:10;}.cls-1{stroke:url(#linear-gradient);}.cls-2{fill:url(#linear-gradient-2);}.cls-3{stroke:url(#linear-gradient-3);}</style><linearGradient id="linear-gradient" x1="9.66" y1="6.3" x2="9.66" y2="7.3" gradientUnits="userSpaceOnUse"><stop offset="0" stop-color="#fff"/><stop offset="1" stop-color="gray"/></linearGradient><linearGradient id="linear-gradient-2" x1="62.91" y1="6.3" x2="62.91" y2="7.3" xlink:href="#linear-gradient"/><linearGradient id="linear-gradient-3" x1="116.16" y1="6.3" x2="116.16" y2="7.3" xlink:href="#linear-gradient"/></defs><g id="Layer_2" data-name="Layer 2"><g id="Layer_1-2" data-name="Layer 1"><line class="cls-1" x1="8.91" y1="6.8" x2="10.41" y2="6.8"/><path class="cls-2" d="M114.59,7.3h-3v-1h3Zm-3.85,0h-3v-1h3Zm-3.86,0h-3v-1h3ZM103,7.3h-3v-1h3Zm-3.86,0h-3v-1h3Zm-3.86,0h-3v-1h3Zm-3.86,0h-3v-1h3Zm-3.86,0h-3v-1h3Zm-3.86,0h-3v-1h3Zm-3.86,0h-3v-1h3ZM76,7.3H73v-1H76Zm-3.86,0H69.1v-1h3.05Zm-3.86,0H65.24v-1h3.05Zm-3.86,0H61.38v-1h3.05Zm-3.86,0h-3v-1h3Zm-3.86,0h-3v-1h3Zm-3.86,0h-3v-1h3ZM49,7.3H46v-1h3Zm-3.85,0h-3v-1h3Zm-3.86,0H38.23v-1h3.05Zm-3.86,0H34.37v-1h3.05Zm-3.86,0H30.51v-1h3.05Zm-3.86,0H26.65v-1H29.7Zm-3.86,0H22.79v-1h3.05ZM22,7.3h-3v-1h3Zm-3.86,0h-3v-1h3Zm-3.85,0h-3v-1h3Z"/><line class="cls-3" x1="115.41" y1="6.8" x2="116.91" y2="6.8"/><rect class="cls-4" width="125.81" height="12.73"/></g></g></svg>