<svg xmlns="http://www.w3.org/2000/svg" xmlns:xlink="http://www.w3.org/1999/xlink" viewBox="0 0 51.2 58.92"><defs><style>.cls-1{fill:none;stroke:#ccc;stroke-miterlimit:10;}.cls-2{fill:url(#linear-gradient);}.cls-3{fill:#ededed;}.cls-4{fill:url(#linear-gradient-2);}.cls-5{fill:url(#linear-gradient-3);}.cls-6{fill:url(#linear-gradient-4);}.cls-7{fill:url(#linear-gradient-5);}.cls-8{fill:url(#linear-gradient-6);}.cls-9{fill:url(#linear-gradient-7);}.cls-10{fill:url(#linear-gradient-8);}.cls-11{fill:url(#linear-gradient-9);}.cls-12{fill:url(#linear-gradient-10);}.cls-13{fill:url(#linear-gradient-11);}.cls-14{fill:url(#linear-gradient-12);}.cls-15{fill:url(#linear-gradient-13);}</style><linearGradient id="linear-gradient" x1="3398.49" y1="60.36" x2="3398.49" y2="88.46" gradientTransform="matrix(0, 1, 1, 0, -60.36, -3371.73)" gradientUnits="userSpaceOnUse"><stop offset="0" stop-color="#3e3f40"/><stop offset="0.08" stop-color="#6a6c6e"/><stop offset="0.27" stop-color="#d9dadb"/><stop offset="0.28" stop-color="#d6d7d8"/><stop offset="0.37" stop-color="#a4a6a7"/><stop offset="0.41" stop-color="#a8a8a8"/><stop offset="0.49" stop-color="#8e8e8e"/><stop offset="0.68" stop-color="#747577"/><stop offset="0.7" stop-color="#707172"/><stop offset="0.74" stop-color="#686868"/><stop offset="0.82" stop-color="#939393"/><stop offset="0.93" stop-color="#5b5b5b"/><stop offset="1" stop-color="#373839"/></linearGradient><linearGradient id="linear-gradient-2" x1="-895.71" y1="-274.43" x2="-895.71" y2="-277.61" gradientTransform="matrix(0, -1, -1, 0, -261.97, -883)" xlink:href="#linear-gradient"/><linearGradient id="linear-gradient-3" x1="88.22" y1="-1469.96" x2="90.68" y2="-1469.96" gradientTransform="matrix(1, 0, 0, -1, -75.51, -1424.87)" gradientUnits="userSpaceOnUse"><stop offset="0" stop-color="#0b1110"/><stop offset="0.08" stop-color="#373e3e"/><stop offset="0.27" stop-color="#a6acab"/><stop offset="0.28" stop-color="#a3a9a8"/><stop offset="0.37" stop-color="#717877"/><stop offset="0.41" stop-color="#757a78"/><stop offset="0.49" stop-color="#5b605e"/><stop offset="0.68" stop-color="#414747"/><stop offset="0.7" stop-color="#3d4342"/><stop offset="0.74" stop-color="#353a38"/><stop offset="0.82" stop-color="#606563"/><stop offset="0.93" stop-color="#282d2b"/><stop offset="1" stop-color="#040a09"/></linearGradient><linearGradient id="linear-gradient-4" x1="-910.33" y1="-536.96" x2="-910.33" y2="-548.45" gradientTransform="matrix(1, 0, 0, -1, 924.27, -510.57)" xlink:href="#linear-gradient"/><linearGradient id="linear-gradient-5" x1="87.8" y1="-1471.59" x2="91.1" y2="-1471.59" gradientTransform="matrix(1, 0, 0, -1, -75.51, -1424.87)" gradientUnits="userSpaceOnUse"><stop offset="0" stop-color="#646566"/><stop offset="0.34" stop-color="#e6e6e6"/><stop offset="0.44" stop-color="#cacccd"/><stop offset="0.55" stop-color="#b4b4b4"/><stop offset="0.65" stop-color="#9a9b9d"/><stop offset="0.8" stop-color="#818181"/><stop offset="0.93" stop-color="#5d5e5f"/></linearGradient><linearGradient id="linear-gradient-6" x1="87.8" y1="-1467.85" x2="91.1" y2="-1467.85" xlink:href="#linear-gradient-5"/><linearGradient id="linear-gradient-7" x1="87.28" y1="-1463.85" x2="91.62" y2="-1463.85" xlink:href="#linear-gradient-3"/><linearGradient id="linear-gradient-8" x1="87.1" y1="-1465.73" x2="91.8" y2="-1465.73" xlink:href="#linear-gradient-5"/><linearGradient id="linear-gradient-9" x1="87.1" y1="-1464.55" x2="91.8" y2="-1464.55" xlink:href="#linear-gradient-5"/><linearGradient id="linear-gradient-10" x1="87.1" y1="-1463.46" x2="91.8" y2="-1463.46" xlink:href="#linear-gradient-5"/><linearGradient id="linear-gradient-11" x1="87.1" y1="-1462.38" x2="91.8" y2="-1462.38" xlink:href="#linear-gradient-5"/><linearGradient id="linear-gradient-12" x1="-912.69" y1="-540.4" x2="-917.3" y2="-545.01" gradientTransform="matrix(1, 0, 0, -1, 928.93, -505.91)" xlink:href="#linear-gradient"/><linearGradient id="linear-gradient-13" x1="-912.29" y1="-541.48" x2="-916.54" y2="-543.93" gradientTransform="matrix(1, 0, 0, -1, 928.36, -506.49)" gradientUnits="userSpaceOnUse"><stop offset="0" stop-color="#1a1a1a"/><stop offset="0.23" stop-color="#666"/><stop offset="1" stop-color="#1a1a1a"/></linearGradient></defs><g id="Layer_2" data-name="Layer 2"><g id="Layer_1-2" data-name="Layer 1"><path class="cls-1" d="M13.94,38V49.45a9,9,0,0,0,9,9H51.2"/><rect class="cls-2" y="25.42" width="28.1" height="2.67"/><ellipse class="cls-3" cx="11.59" cy="25.49" rx="10.67" ry="0.07"/><path class="cls-4" d="M12.46.86V25.42h3.18V.86c0-.48-.71-.86-1.59-.86h0C13.17,0,12.46.38,12.46.86Z"/><rect class="cls-5" x="12.71" y="44.58" width="2.46" height="1.02"/><rect class="cls-6" x="10.14" y="26.39" width="7.59" height="11.49" transform="translate(-18.2 46.07) rotate(-90)"/><path class="cls-7" d="M12.28,45.21h3.31a0,0,0,0,1,0,0v2.32a.7.7,0,0,1-.7.7H13a.7.7,0,0,1-.7-.7V45.21A0,0,0,0,1,12.28,45.21Z"/><rect class="cls-8" x="12.28" y="41.18" width="3.31" height="3.61"/><rect class="cls-9" x="11.77" y="37.18" width="4.34" height="3.61"/><path class="cls-10" d="M11.59,40.39h4.69a0,0,0,0,1,0,0v.3a.62.62,0,0,1-.62.62H12.21a.62.62,0,0,1-.62-.62v-.3A0,0,0,0,1,11.59,40.39Z"/><rect class="cls-11" x="11.59" y="39.29" width="4.69" height="0.77"/><rect class="cls-12" x="11.59" y="38.21" width="4.69" height="0.77"/><rect class="cls-13" x="11.59" y="37.12" width="4.69" height="0.77"/><rect class="cls-14" x="13.74" y="32.39" width="0.4" height="8.81" transform="translate(-22.86 50.74) rotate(-90)"/><rect class="cls-15" x="13.65" y="31.82" width="0.58" height="8.81" transform="translate(-22.28 50.16) rotate(-90)"/><ellipse class="cls-3" cx="11.35" cy="35.91" rx="2.33" ry="0.04"/><ellipse class="cls-3" cx="13.28" cy="44.79" rx="0.83" ry="0.01"/><ellipse class="cls-3" cx="13.46" cy="48.24" rx="0.65" ry="0.01"/><ellipse class="cls-3" cx="13.28" cy="37.89" rx="0.83" ry="0.02"/><ellipse class="cls-3" cx="13.28" cy="38.96" rx="0.83" ry="0.02"/><ellipse class="cls-3" cx="13.28" cy="40.06" rx="0.83" ry="0.02"/><ellipse class="cls-3" cx="13.28" cy="41.32" rx="0.83" ry="0.02"/></g></g></svg>