<svg xmlns="http://www.w3.org/2000/svg" xmlns:xlink="http://www.w3.org/1999/xlink" viewBox="0 0 83.44 51.44"><defs><style>.cls-1{fill:none;stroke:#ccc;stroke-miterlimit:10;}.cls-2{fill:url(#linear-gradient);}.cls-3{fill:url(#linear-gradient-2);}.cls-4{fill:url(#linear-gradient-3);}.cls-5{fill:#ededed;}.cls-6{fill:#ccc;}.cls-7{fill:url(#linear-gradient-4);}.cls-8{fill:url(#linear-gradient-5);}.cls-9{fill:url(#linear-gradient-6);}.cls-10{fill:url(#linear-gradient-7);}.cls-11{fill:url(#linear-gradient-8);}.cls-12{fill:url(#linear-gradient-9);}.cls-13{fill:url(#linear-gradient-10);}.cls-14{fill:url(#linear-gradient-11);}.cls-15{fill:url(#linear-gradient-12);}.cls-16{fill:url(#linear-gradient-13);}.cls-17{fill:url(#linear-gradient-14);}</style><linearGradient id="linear-gradient" x1="129.31" y1="117.86" x2="131.77" y2="117.86" gradientTransform="translate(-60.94 -103.68)" gradientUnits="userSpaceOnUse"><stop offset="0" stop-color="#0b1110"/><stop offset="0.08" stop-color="#373e3e"/><stop offset="0.27" stop-color="#a6acab"/><stop offset="0.28" stop-color="#a3a9a8"/><stop offset="0.37" stop-color="#717877"/><stop offset="0.41" stop-color="#757a78"/><stop offset="0.49" stop-color="#5b605e"/><stop offset="0.68" stop-color="#414747"/><stop offset="0.7" stop-color="#3d4342"/><stop offset="0.74" stop-color="#353a38"/><stop offset="0.82" stop-color="#606563"/><stop offset="0.93" stop-color="#282d2b"/><stop offset="1" stop-color="#040a09"/></linearGradient><linearGradient id="linear-gradient-2" x1="128.89" y1="116.23" x2="132.2" y2="116.23" gradientTransform="translate(-59.31 -102.05)" gradientUnits="userSpaceOnUse"><stop offset="0" stop-color="#646566"/><stop offset="0.34" stop-color="#e6e6e6"/><stop offset="0.44" stop-color="#cacccd"/><stop offset="0.55" stop-color="#b4b4b4"/><stop offset="0.65" stop-color="#9a9b9d"/><stop offset="0.8" stop-color="#818181"/><stop offset="0.93" stop-color="#5d5e5f"/></linearGradient><linearGradient id="linear-gradient-3" x1="128.89" y1="119.97" x2="132.2" y2="119.97" gradientTransform="translate(-63.05 -105.79)" xlink:href="#linear-gradient-2"/><linearGradient id="linear-gradient-4" x1="145.14" y1="21.2" x2="145.14" y2="6.83" gradientTransform="matrix(1, 0, 0, -1, -102.26, 28.04)" gradientUnits="userSpaceOnUse"><stop offset="0" stop-color="#3e3f40"/><stop offset="0.08" stop-color="#333"/><stop offset="0.23" stop-color="#666"/><stop offset="0.29" stop-color="gray"/><stop offset="0.36" stop-color="#b3b3b3"/><stop offset="0.48" stop-color="#868686"/><stop offset="0.57" stop-color="#666"/><stop offset="0.82" stop-color="#4d4d4d"/><stop offset="0.93" stop-color="#333"/><stop offset="1" stop-color="#373839"/></linearGradient><linearGradient id="linear-gradient-5" x1="2145.57" y1="623.99" x2="2145.57" y2="595.89" gradientTransform="translate(-2094.25 -595.89)" gradientUnits="userSpaceOnUse"><stop offset="0" stop-color="#3e3f40"/><stop offset="0.08" stop-color="#6a6c6e"/><stop offset="0.27" stop-color="#d9dadb"/><stop offset="0.28" stop-color="#d6d7d8"/><stop offset="0.37" stop-color="#a4a6a7"/><stop offset="0.41" stop-color="#a8a8a8"/><stop offset="0.49" stop-color="#8e8e8e"/><stop offset="0.68" stop-color="#747577"/><stop offset="0.7" stop-color="#707172"/><stop offset="0.74" stop-color="#686868"/><stop offset="0.82" stop-color="#939393"/><stop offset="0.93" stop-color="#5b5b5b"/><stop offset="1" stop-color="#373839"/></linearGradient><linearGradient id="linear-gradient-6" x1="163.02" y1="-27.06" x2="163.02" y2="-30.26" gradientTransform="translate(188.02 -14.61) rotate(180)" xlink:href="#linear-gradient-5"/><linearGradient id="linear-gradient-7" x1="182.81" y1="-289.84" x2="182.81" y2="-301.33" gradientTransform="translate(-126.16 309.77)" xlink:href="#linear-gradient-5"/><linearGradient id="linear-gradient-8" x1="128.37" y1="123.97" x2="132.71" y2="123.97" gradientTransform="translate(-67.05 -109.79)" xlink:href="#linear-gradient"/><linearGradient id="linear-gradient-9" x1="128.2" y1="122.1" x2="132.89" y2="122.1" gradientTransform="translate(-65.17 -107.92)" xlink:href="#linear-gradient-2"/><linearGradient id="linear-gradient-10" x1="128.2" y1="123.27" x2="132.89" y2="123.27" gradientTransform="translate(-66.35 -109.09)" xlink:href="#linear-gradient-2"/><linearGradient id="linear-gradient-11" x1="128.2" y1="124.36" x2="132.89" y2="124.36" gradientTransform="translate(-67.44 -110.18)" xlink:href="#linear-gradient-2"/><linearGradient id="linear-gradient-12" x1="128.2" y1="125.45" x2="132.89" y2="125.45" gradientTransform="translate(-68.52 -111.27)" xlink:href="#linear-gradient-2"/><linearGradient id="linear-gradient-13" x1="180.45" y1="-293.28" x2="175.85" y2="-297.89" gradientTransform="translate(-116.84 309.77)" xlink:href="#linear-gradient-5"/><linearGradient id="linear-gradient-14" x1="180.85" y1="-294.36" x2="176.6" y2="-296.81" gradientTransform="translate(-117.99 309.77)" gradientUnits="userSpaceOnUse"><stop offset="0" stop-color="#1a1a1a"/><stop offset="0.23" stop-color="#666"/><stop offset="1" stop-color="#1a1a1a"/></linearGradient></defs><g id="Layer_2" data-name="Layer 2"><g id="Layer_1-2" data-name="Layer 1"><path class="cls-1" d="M62.57,14.18H74a9,9,0,0,1,9,9V51.44"/><rect class="cls-2" x="68.37" y="13.67" width="2.46" height="1.02" transform="translate(83.78 -55.42) rotate(90)"/><path class="cls-3" d="M70.29,12.67h1.9a.7.7,0,0,1,.7.7v2.32a0,0,0,0,1,0,0H69.58a0,0,0,0,1,0,0V13.37A.7.7,0,0,1,70.29,12.67Z" transform="translate(85.42 -57.06) rotate(90)"/><rect class="cls-4" x="65.84" y="12.38" width="3.31" height="3.61" transform="translate(81.68 -53.32) rotate(90)"/><ellipse class="cls-5" cx="69.3" cy="13.52" rx="0.01" ry="0.83"/><ellipse class="cls-5" cx="72.75" cy="13.7" rx="0.01" ry="0.65"/><rect class="cls-6" x="36.06" y="4.34" width="13.63" height="19.36" transform="translate(85.75 28.04) rotate(180)"/><rect class="cls-7" x="36.06" y="6.83" width="13.63" height="14.37" transform="translate(85.75 28.04) rotate(180)"/><rect class="cls-8" x="49.99" width="2.67" height="28.1"/><ellipse class="cls-5" cx="52.57" cy="14.05" rx="0.07" ry="10.67"/><path class="cls-9" d="M.86,12.45H50v3.2H.86c-.48,0-.86-.72-.86-1.6H0C0,13.17.38,12.45.86,12.45Z"/><rect class="cls-10" x="52.85" y="8.44" width="7.59" height="11.49" transform="translate(113.3 28.36) rotate(180)"/><rect class="cls-11" x="61.32" y="12.38" width="4.34" height="3.61" transform="translate(77.67 -49.31) rotate(90)"/><path class="cls-12" d="M63.65,13.72h3.45a.62.62,0,0,1,.62.62v.3a0,0,0,0,1,0,0H63a0,0,0,0,1,0,0v-.3A.62.62,0,0,1,63.65,13.72Z" transform="translate(79.55 -51.19) rotate(90)"/><rect class="cls-13" x="61.85" y="13.79" width="4.69" height="0.77" transform="translate(78.37 -50.01) rotate(90)"/><rect class="cls-14" x="60.76" y="13.79" width="4.69" height="0.77" transform="translate(77.29 -48.93) rotate(90)"/><rect class="cls-15" x="59.67" y="13.79" width="4.69" height="0.77" transform="translate(76.2 -47.84) rotate(90)"/><rect class="cls-16" x="61.11" y="9.78" width="0.4" height="8.81" transform="translate(122.62 28.36) rotate(180)"/><rect class="cls-17" x="60.45" y="9.78" width="0.58" height="8.81" transform="translate(121.47 28.36) rotate(180)"/><ellipse class="cls-5" cx="60.42" cy="11.59" rx="0.04" ry="2.33"/><ellipse class="cls-5" cx="62.4" cy="13.52" rx="0.02" ry="0.83"/><ellipse class="cls-5" cx="63.48" cy="13.52" rx="0.02" ry="0.83"/><ellipse class="cls-5" cx="64.58" cy="13.52" rx="0.02" ry="0.83"/><ellipse class="cls-5" cx="65.83" cy="13.52" rx="0.02" ry="0.83"/></g></g></svg>