<svg xmlns="http://www.w3.org/2000/svg" xmlns:xlink="http://www.w3.org/1999/xlink" viewBox="0 0 83.44 51.44"><defs><style>.cls-1{fill:none;stroke:#ccc;stroke-miterlimit:10;}.cls-2{fill:url(#linear-gradient);}.cls-3{fill:url(#linear-gradient-2);}.cls-4{fill:url(#linear-gradient-3);}.cls-5{fill:#ededed;}.cls-6{fill:url(#linear-gradient-4);}.cls-7{fill:url(#linear-gradient-5);}.cls-8{fill:url(#linear-gradient-6);}.cls-9{fill:url(#linear-gradient-7);}.cls-10{fill:url(#linear-gradient-8);}.cls-11{fill:url(#linear-gradient-9);}.cls-12{fill:url(#linear-gradient-10);}.cls-13{fill:url(#linear-gradient-11);}.cls-14{fill:url(#linear-gradient-12);}.cls-15{fill:url(#linear-gradient-13);}</style><linearGradient id="linear-gradient" x1="211.52" y1="37.87" x2="213.98" y2="37.87" gradientTransform="translate(-143.14 -23.69)" gradientUnits="userSpaceOnUse"><stop offset="0" stop-color="#0b1110"/><stop offset="0.08" stop-color="#373e3e"/><stop offset="0.27" stop-color="#a6acab"/><stop offset="0.28" stop-color="#a3a9a8"/><stop offset="0.37" stop-color="#717877"/><stop offset="0.41" stop-color="#757a78"/><stop offset="0.49" stop-color="#5b605e"/><stop offset="0.68" stop-color="#414747"/><stop offset="0.7" stop-color="#3d4342"/><stop offset="0.74" stop-color="#353a38"/><stop offset="0.82" stop-color="#606563"/><stop offset="0.93" stop-color="#282d2b"/><stop offset="1" stop-color="#040a09"/></linearGradient><linearGradient id="linear-gradient-2" x1="211.09" y1="36.24" x2="214.4" y2="36.24" gradientTransform="translate(-141.51 -22.06)" gradientUnits="userSpaceOnUse"><stop offset="0" stop-color="#646566"/><stop offset="0.34" stop-color="#e6e6e6"/><stop offset="0.44" stop-color="#cacccd"/><stop offset="0.55" stop-color="#b4b4b4"/><stop offset="0.65" stop-color="#9a9b9d"/><stop offset="0.8" stop-color="#818181"/><stop offset="0.93" stop-color="#5d5e5f"/></linearGradient><linearGradient id="linear-gradient-3" x1="211.09" y1="39.98" x2="214.4" y2="39.98" gradientTransform="translate(-145.25 -25.8)" xlink:href="#linear-gradient-2"/><linearGradient id="linear-gradient-4" x1="2145.57" y1="623.99" x2="2145.57" y2="595.89" gradientTransform="translate(-2094.25 -595.89)" gradientUnits="userSpaceOnUse"><stop offset="0" stop-color="#3e3f40"/><stop offset="0.08" stop-color="#6a6c6e"/><stop offset="0.27" stop-color="#d9dadb"/><stop offset="0.28" stop-color="#d6d7d8"/><stop offset="0.37" stop-color="#a4a6a7"/><stop offset="0.41" stop-color="#a8a8a8"/><stop offset="0.49" stop-color="#8e8e8e"/><stop offset="0.68" stop-color="#747577"/><stop offset="0.7" stop-color="#707172"/><stop offset="0.74" stop-color="#686868"/><stop offset="0.82" stop-color="#939393"/><stop offset="0.93" stop-color="#5b5b5b"/><stop offset="1" stop-color="#373839"/></linearGradient><linearGradient id="linear-gradient-5" x1="165.24" y1="-189.17" x2="165.24" y2="-192.54" gradientTransform="translate(190.23 -176.8) rotate(180)" xlink:href="#linear-gradient-4"/><linearGradient id="linear-gradient-6" x1="185.03" y1="-452.04" x2="185.03" y2="-463.53" gradientTransform="translate(-128.38 471.96)" xlink:href="#linear-gradient-4"/><linearGradient id="linear-gradient-7" x1="210.57" y1="43.99" x2="214.92" y2="43.99" gradientTransform="translate(-149.25 -29.8)" xlink:href="#linear-gradient"/><linearGradient id="linear-gradient-8" x1="210.4" y1="42.11" x2="215.09" y2="42.11" gradientTransform="translate(-147.38 -27.93)" xlink:href="#linear-gradient-2"/><linearGradient id="linear-gradient-9" x1="210.4" y1="43.28" x2="215.09" y2="43.28" gradientTransform="translate(-148.55 -29.1)" xlink:href="#linear-gradient-2"/><linearGradient id="linear-gradient-10" x1="210.4" y1="44.37" x2="215.09" y2="44.37" gradientTransform="translate(-149.64 -30.19)" xlink:href="#linear-gradient-2"/><linearGradient id="linear-gradient-11" x1="210.4" y1="45.46" x2="215.09" y2="45.46" gradientTransform="translate(-150.73 -31.28)" xlink:href="#linear-gradient-2"/><linearGradient id="linear-gradient-12" x1="182.67" y1="-455.48" x2="178.06" y2="-460.08" gradientTransform="translate(-119.05 471.96)" xlink:href="#linear-gradient-4"/><linearGradient id="linear-gradient-13" x1="183.06" y1="-456.56" x2="178.82" y2="-459.01" gradientTransform="translate(-120.2 471.96)" gradientUnits="userSpaceOnUse"><stop offset="0" stop-color="#1a1a1a"/><stop offset="0.23" stop-color="#666"/><stop offset="1" stop-color="#1a1a1a"/></linearGradient></defs><g id="Layer_2" data-name="Layer 2"><g id="Layer_1-2" data-name="Layer 1"><path class="cls-1" d="M62.57,14.18H74a9,9,0,0,1,9,9V51.44"/><rect class="cls-2" x="68.37" y="13.67" width="2.46" height="1.02" transform="translate(83.78 -55.42) rotate(90)"/><path class="cls-3" d="M70.29,12.67h1.9a.7.7,0,0,1,.7.7v2.32a0,0,0,0,1,0,0H69.58a0,0,0,0,1,0,0V13.37A.7.7,0,0,1,70.29,12.67Z" transform="translate(85.42 -57.06) rotate(90)"/><rect class="cls-4" x="65.84" y="12.38" width="3.31" height="3.61" transform="translate(81.68 -53.32) rotate(90)"/><ellipse class="cls-5" cx="69.3" cy="13.52" rx="0.01" ry="0.83"/><ellipse class="cls-5" cx="72.75" cy="13.7" rx="0.01" ry="0.65"/><rect class="cls-6" x="49.99" width="2.67" height="28.1"/><ellipse class="cls-5" cx="52.57" cy="14.05" rx="0.07" ry="10.67"/><path class="cls-7" d="M.86,12.37H50v3.37H.86C.38,15.74,0,15,0,14.05H0C0,13.12.38,12.37.86,12.37Z"/><rect class="cls-8" x="52.85" y="8.44" width="7.59" height="11.49" transform="translate(113.3 28.36) rotate(180)"/><rect class="cls-9" x="61.32" y="12.38" width="4.34" height="3.61" transform="translate(77.67 -49.31) rotate(90)"/><path class="cls-10" d="M63.65,13.72h3.45a.62.62,0,0,1,.62.62v.3a0,0,0,0,1,0,0H63a0,0,0,0,1,0,0v-.3A.62.62,0,0,1,63.65,13.72Z" transform="translate(79.55 -51.19) rotate(90)"/><rect class="cls-11" x="61.85" y="13.79" width="4.69" height="0.77" transform="translate(78.37 -50.01) rotate(90)"/><rect class="cls-12" x="60.76" y="13.79" width="4.69" height="0.77" transform="translate(77.29 -48.93) rotate(90)"/><rect class="cls-13" x="59.67" y="13.79" width="4.69" height="0.77" transform="translate(76.2 -47.84) rotate(90)"/><rect class="cls-14" x="61.11" y="9.78" width="0.4" height="8.81" transform="translate(122.62 28.36) rotate(180)"/><rect class="cls-15" x="60.45" y="9.78" width="0.58" height="8.81" transform="translate(121.47 28.36) rotate(180)"/><ellipse class="cls-5" cx="60.42" cy="11.59" rx="0.04" ry="2.33"/><ellipse class="cls-5" cx="62.4" cy="13.52" rx="0.02" ry="0.83"/><ellipse class="cls-5" cx="63.48" cy="13.52" rx="0.02" ry="0.83"/><ellipse class="cls-5" cx="64.58" cy="13.52" rx="0.02" ry="0.83"/><ellipse class="cls-5" cx="65.83" cy="13.52" rx="0.02" ry="0.83"/></g></g></svg>