<svg xmlns="http://www.w3.org/2000/svg" xmlns:xlink="http://www.w3.org/1999/xlink" viewBox="0 0 83.48 51.2"><defs><style>.cls-1{fill:none;stroke:#ccc;stroke-miterlimit:10;}.cls-2{fill:url(#linear-gradient);}.cls-3{fill:#ededed;}.cls-4{fill:url(#linear-gradient-2);}.cls-5{fill:url(#linear-gradient-3);}.cls-6{fill:url(#linear-gradient-4);}.cls-7{fill:url(#linear-gradient-5);}.cls-8{fill:url(#linear-gradient-6);}.cls-9{fill:url(#linear-gradient-7);}.cls-10{fill:url(#linear-gradient-8);}.cls-11{fill:url(#linear-gradient-9);}.cls-12{fill:url(#linear-gradient-10);}.cls-13{fill:url(#linear-gradient-11);}.cls-14{fill:url(#linear-gradient-12);}.cls-15{fill:url(#linear-gradient-13);}</style><linearGradient id="linear-gradient" x1="2505.44" y1="595.89" x2="2505.44" y2="623.99" gradientTransform="matrix(-1, 0, 0, 1, 2537.6, -595.89)" gradientUnits="userSpaceOnUse"><stop offset="0" stop-color="#3e3f40"/><stop offset="0.08" stop-color="#6a6c6e"/><stop offset="0.27" stop-color="#d9dadb"/><stop offset="0.28" stop-color="#d6d7d8"/><stop offset="0.37" stop-color="#a4a6a7"/><stop offset="0.41" stop-color="#a8a8a8"/><stop offset="0.49" stop-color="#8e8e8e"/><stop offset="0.68" stop-color="#747577"/><stop offset="0.7" stop-color="#707172"/><stop offset="0.74" stop-color="#686868"/><stop offset="0.82" stop-color="#939393"/><stop offset="0.93" stop-color="#5b5b5b"/><stop offset="1" stop-color="#373839"/></linearGradient><linearGradient id="linear-gradient-2" x1="58.49" y1="-189.44" x2="58.49" y2="-193.23" gradientTransform="matrix(1, 0, 0, -1, 0, -177.29)" xlink:href="#linear-gradient"/><linearGradient id="linear-gradient-3" x1="338.08" y1="-242.37" x2="340.54" y2="-242.37" gradientTransform="matrix(1, 0, 0, -1, -325.48, -228.43)" gradientUnits="userSpaceOnUse"><stop offset="0" stop-color="#0b1110"/><stop offset="0.08" stop-color="#373e3e"/><stop offset="0.27" stop-color="#a6acab"/><stop offset="0.28" stop-color="#a3a9a8"/><stop offset="0.37" stop-color="#717877"/><stop offset="0.41" stop-color="#757a78"/><stop offset="0.49" stop-color="#5b605e"/><stop offset="0.68" stop-color="#414747"/><stop offset="0.7" stop-color="#3d4342"/><stop offset="0.74" stop-color="#353a38"/><stop offset="0.82" stop-color="#606563"/><stop offset="0.93" stop-color="#282d2b"/><stop offset="1" stop-color="#040a09"/></linearGradient><linearGradient id="linear-gradient-4" x1="31.58" y1="-452.28" x2="31.58" y2="-463.77" gradientTransform="matrix(1, 0, 0, -1, -4.8, -444.08)" xlink:href="#linear-gradient"/><linearGradient id="linear-gradient-5" x1="337.65" y1="-244" x2="340.96" y2="-244" gradientTransform="matrix(1, 0, 0, -1, -327.11, -230.06)" gradientUnits="userSpaceOnUse"><stop offset="0" stop-color="#646566"/><stop offset="0.34" stop-color="#e6e6e6"/><stop offset="0.44" stop-color="#cacccd"/><stop offset="0.55" stop-color="#b4b4b4"/><stop offset="0.65" stop-color="#9a9b9d"/><stop offset="0.8" stop-color="#818181"/><stop offset="0.93" stop-color="#5d5e5f"/></linearGradient><linearGradient id="linear-gradient-6" x1="337.65" y1="-240.26" x2="340.96" y2="-240.26" gradientTransform="matrix(1, 0, 0, -1, -323.37, -226.32)" xlink:href="#linear-gradient-5"/><linearGradient id="linear-gradient-7" x1="337.13" y1="-236.26" x2="341.48" y2="-236.26" gradientTransform="matrix(1, 0, 0, -1, -319.36, -222.32)" xlink:href="#linear-gradient-3"/><linearGradient id="linear-gradient-8" x1="336.96" y1="-238.14" x2="341.65" y2="-238.14" gradientTransform="matrix(1, 0, 0, -1, -321.24, -224.2)" xlink:href="#linear-gradient-5"/><linearGradient id="linear-gradient-9" x1="336.96" y1="-236.96" x2="341.65" y2="-236.96" gradientTransform="matrix(1, 0, 0, -1, -320.07, -223.02)" xlink:href="#linear-gradient-5"/><linearGradient id="linear-gradient-10" x1="336.96" y1="-235.87" x2="341.65" y2="-235.87" gradientTransform="matrix(1, 0, 0, -1, -318.98, -221.93)" xlink:href="#linear-gradient-5"/><linearGradient id="linear-gradient-11" x1="336.96" y1="-234.79" x2="341.65" y2="-234.79" gradientTransform="matrix(1, 0, 0, -1, -317.89, -220.85)" xlink:href="#linear-gradient-5"/><linearGradient id="linear-gradient-12" x1="29.22" y1="-455.72" x2="24.62" y2="-460.33" gradientTransform="matrix(1, 0, 0, -1, -4.8, -444.08)" xlink:href="#linear-gradient"/><linearGradient id="linear-gradient-13" x1="29.62" y1="-456.8" x2="25.37" y2="-459.25" gradientTransform="matrix(1, 0, 0, -1, -4.8, -444.08)" gradientUnits="userSpaceOnUse"><stop offset="0" stop-color="#1a1a1a"/><stop offset="0.23" stop-color="#666"/><stop offset="1" stop-color="#1a1a1a"/></linearGradient></defs><g id="Layer_2" data-name="Layer 2"><g id="Layer_1-2" data-name="Layer 1"><path class="cls-1" d="M20.88,13.94H9.47a9,9,0,0,0-9,9V51.2"/><rect class="cls-2" x="30.82" width="2.67" height="28.1"/><ellipse class="cls-3" cx="30.91" cy="14.05" rx="0.07" ry="10.67"/><path class="cls-4" d="M82.62,12.16H33.5v3.78H82.62c.48,0,.86-.84.86-1.89h0C83.48,13,83.1,12.16,82.62,12.16Z"/><rect class="cls-5" x="12.6" y="13.43" width="2.46" height="1.02" transform="translate(27.77 0.11) rotate(90)"/><rect class="cls-6" x="22.99" y="8.19" width="7.59" height="11.49"/><path class="cls-7" d="M10.54,12.43h3.31a0,0,0,0,1,0,0v2.32a.7.7,0,0,1-.7.7h-1.9a.7.7,0,0,1-.7-.7V12.43A0,0,0,0,1,10.54,12.43Z" transform="translate(26.14 1.74) rotate(90)"/><rect class="cls-8" x="14.28" y="12.14" width="3.31" height="3.61" transform="translate(29.88 -2) rotate(90)"/><rect class="cls-9" x="17.77" y="12.14" width="4.34" height="3.61" transform="translate(33.88 -6) rotate(90)"/><path class="cls-10" d="M15.72,13.48h4.69a0,0,0,0,1,0,0v.3a.62.62,0,0,1-.62.62H16.34a.62.62,0,0,1-.62-.62v-.3A0,0,0,0,1,15.72,13.48Z" transform="translate(32 -4.12) rotate(90)"/><rect class="cls-11" x="16.89" y="13.55" width="4.69" height="0.77" transform="translate(33.18 -5.3) rotate(90)"/><rect class="cls-12" x="17.98" y="13.55" width="4.69" height="0.77" transform="translate(34.27 -6.39) rotate(90)"/><rect class="cls-13" x="19.07" y="13.55" width="4.69" height="0.77" transform="translate(35.35 -7.47) rotate(90)"/><rect class="cls-14" x="21.92" y="9.53" width="0.4" height="8.81"/><rect class="cls-15" x="22.41" y="9.53" width="0.58" height="8.81"/><ellipse class="cls-3" cx="23.01" cy="11.35" rx="0.04" ry="2.33"/><ellipse class="cls-3" cx="14.13" cy="13.28" rx="0.01" ry="0.83"/><ellipse class="cls-3" cx="10.68" cy="13.46" rx="0.01" ry="0.65"/><ellipse class="cls-3" cx="21.03" cy="13.28" rx="0.02" ry="0.83"/><ellipse class="cls-3" cx="19.96" cy="13.28" rx="0.02" ry="0.83"/><ellipse class="cls-3" cx="18.85" cy="13.28" rx="0.02" ry="0.83"/><ellipse class="cls-3" cx="17.6" cy="13.28" rx="0.02" ry="0.83"/></g></g></svg>