<svg xmlns="http://www.w3.org/2000/svg" xmlns:xlink="http://www.w3.org/1999/xlink" viewBox="0 0 51.2 58.92"><defs><style>.cls-1{fill:none;stroke:#ccc;stroke-miterlimit:10;}.cls-2{fill:url(#linear-gradient);}.cls-3{fill:#ededed;}.cls-4{fill:url(#linear-gradient-2);}.cls-5{fill:url(#linear-gradient-3);}.cls-6{fill:url(#linear-gradient-4);}.cls-7{fill:url(#linear-gradient-5);}.cls-8{fill:url(#linear-gradient-6);}.cls-9{fill:url(#linear-gradient-7);}.cls-10{fill:url(#linear-gradient-8);}.cls-11{fill:url(#linear-gradient-9);}.cls-12{fill:url(#linear-gradient-10);}.cls-13{fill:url(#linear-gradient-11);}.cls-14{fill:url(#linear-gradient-12);}.cls-15{fill:url(#linear-gradient-13);}</style><linearGradient id="linear-gradient" x1="2184.83" y1="-279.5" x2="2184.83" y2="-251.4" gradientTransform="matrix(0, -1, -1, 0, -228.3, 2216.99)" gradientUnits="userSpaceOnUse"><stop offset="0" stop-color="#3e3f40"/><stop offset="0.08" stop-color="#6a6c6e"/><stop offset="0.27" stop-color="#d9dadb"/><stop offset="0.28" stop-color="#d6d7d8"/><stop offset="0.37" stop-color="#a4a6a7"/><stop offset="0.41" stop-color="#a8a8a8"/><stop offset="0.49" stop-color="#8e8e8e"/><stop offset="0.68" stop-color="#747577"/><stop offset="0.7" stop-color="#707172"/><stop offset="0.74" stop-color="#686868"/><stop offset="0.82" stop-color="#939393"/><stop offset="0.93" stop-color="#5b5b5b"/><stop offset="1" stop-color="#373839"/></linearGradient><linearGradient id="linear-gradient-2" x1="317.95" y1="468.68" x2="317.95" y2="465.01" gradientTransform="matrix(0, 1, 1, 0, -429.69, -271.74)" xlink:href="#linear-gradient"/><linearGradient id="linear-gradient-3" x1="-453.14" y1="-54.8" x2="-450.68" y2="-54.8" gradientTransform="matrix(1, 0, 0, -1, 489.18, -40.97)" gradientUnits="userSpaceOnUse"><stop offset="0" stop-color="#0b1110"/><stop offset="0.08" stop-color="#373e3e"/><stop offset="0.27" stop-color="#a6acab"/><stop offset="0.28" stop-color="#a3a9a8"/><stop offset="0.37" stop-color="#717877"/><stop offset="0.41" stop-color="#757a78"/><stop offset="0.49" stop-color="#5b605e"/><stop offset="0.68" stop-color="#414747"/><stop offset="0.7" stop-color="#3d4342"/><stop offset="0.74" stop-color="#353a38"/><stop offset="0.82" stop-color="#606563"/><stop offset="0.93" stop-color="#282d2b"/><stop offset="1" stop-color="#040a09"/></linearGradient><linearGradient id="linear-gradient-4" x1="303.33" y1="205.9" x2="303.33" y2="194.41" gradientTransform="matrix(1, 0, 0, -1, -266.06, 226.94)" xlink:href="#linear-gradient"/><linearGradient id="linear-gradient-5" x1="-453.57" y1="-56.43" x2="-450.26" y2="-56.43" gradientTransform="matrix(1, 0, 0, -1, 489.18, -44.24)" gradientUnits="userSpaceOnUse"><stop offset="0" stop-color="#646566"/><stop offset="0.34" stop-color="#e6e6e6"/><stop offset="0.44" stop-color="#cacccd"/><stop offset="0.55" stop-color="#b4b4b4"/><stop offset="0.65" stop-color="#9a9b9d"/><stop offset="0.8" stop-color="#818181"/><stop offset="0.93" stop-color="#5d5e5f"/></linearGradient><linearGradient id="linear-gradient-6" x1="-453.57" y1="-52.69" x2="-450.26" y2="-52.69" gradientTransform="matrix(1, 0, 0, -1, 489.18, -36.76)" xlink:href="#linear-gradient-5"/><linearGradient id="linear-gradient-7" x1="-454.08" y1="-48.69" x2="-449.74" y2="-48.69" gradientTransform="matrix(1, 0, 0, -1, 489.18, -28.75)" xlink:href="#linear-gradient-3"/><linearGradient id="linear-gradient-8" x1="-454.26" y1="-50.56" x2="-449.57" y2="-50.56" gradientTransform="matrix(1, 0, 0, -1, 489.18, -32.5)" xlink:href="#linear-gradient-5"/><linearGradient id="linear-gradient-9" x1="-454.26" y1="-49.39" x2="-449.57" y2="-49.39" gradientTransform="matrix(1, 0, 0, -1, 489.18, -30.15)" xlink:href="#linear-gradient-5"/><linearGradient id="linear-gradient-10" x1="-454.26" y1="-48.3" x2="-449.57" y2="-48.3" gradientTransform="matrix(1, 0, 0, -1, 489.18, -27.97)" xlink:href="#linear-gradient-5"/><linearGradient id="linear-gradient-11" x1="-454.26" y1="-47.22" x2="-449.57" y2="-47.22" gradientTransform="matrix(1, 0, 0, -1, 489.18, -25.8)" xlink:href="#linear-gradient-5"/><linearGradient id="linear-gradient-12" x1="300.97" y1="202.46" x2="296.36" y2="197.85" gradientTransform="matrix(1, 0, 0, -1, -261.4, 222.28)" xlink:href="#linear-gradient"/><linearGradient id="linear-gradient-13" x1="301.37" y1="201.38" x2="297.12" y2="198.93" gradientTransform="matrix(1, 0, 0, -1, -261.98, 222.85)" gradientUnits="userSpaceOnUse"><stop offset="0" stop-color="#1a1a1a"/><stop offset="0.23" stop-color="#666"/><stop offset="1" stop-color="#1a1a1a"/></linearGradient></defs><g id="Layer_2" data-name="Layer 2"><g id="Layer_1-2" data-name="Layer 1"><path class="cls-1" d="M37.26,20.88V9.47a9,9,0,0,0-9-9H0"/><rect class="cls-2" x="23.1" y="30.82" width="28.1" height="2.67"/><ellipse class="cls-3" cx="39.61" cy="33.43" rx="10.67" ry="0.07"/><path class="cls-4" d="M39,58.06V33.5H35.32V58.06c0,.47.82.86,1.83.86h0C38.17,58.92,39,58.53,39,58.06Z"/><rect class="cls-5" x="36.03" y="13.32" width="2.46" height="1.02" transform="translate(74.53 27.66) rotate(180)"/><rect class="cls-6" x="33.47" y="21.04" width="7.59" height="11.49" transform="translate(64.05 -10.48) rotate(90)"/><path class="cls-7" d="M35.61,10.68h3.31a0,0,0,0,1,0,0V13a.7.7,0,0,1-.7.7h-1.9a.7.7,0,0,1-.7-.7V10.68A0,0,0,0,1,35.61,10.68Z" transform="translate(74.53 24.39) rotate(180)"/><rect class="cls-8" x="35.61" y="14.13" width="3.31" height="3.61" transform="translate(74.53 31.87) rotate(180)"/><rect class="cls-9" x="35.09" y="18.14" width="4.34" height="3.61" transform="translate(74.53 39.88) rotate(180)"/><path class="cls-10" d="M34.92,17.6h4.69a0,0,0,0,1,0,0v.3a.62.62,0,0,1-.62.62H35.54a.62.62,0,0,1-.62-.62v-.3A0,0,0,0,1,34.92,17.6Z" transform="translate(74.53 36.13) rotate(180)"/><rect class="cls-11" x="34.92" y="18.85" width="4.69" height="0.77" transform="translate(74.53 38.48) rotate(180)"/><rect class="cls-12" x="34.92" y="19.94" width="4.69" height="0.77" transform="translate(74.53 40.65) rotate(180)"/><rect class="cls-13" x="34.92" y="21.03" width="4.69" height="0.77" transform="translate(74.53 42.83) rotate(180)"/><rect class="cls-14" x="37.06" y="17.72" width="0.4" height="8.81" transform="translate(59.39 -15.14) rotate(90)"/><rect class="cls-15" x="36.98" y="18.29" width="0.58" height="8.81" transform="translate(59.96 -14.57) rotate(90)"/><ellipse class="cls-3" cx="39.86" cy="23.01" rx="2.33" ry="0.04"/><ellipse class="cls-3" cx="37.92" cy="14.13" rx="0.83" ry="0.01"/><ellipse class="cls-3" cx="37.75" cy="10.68" rx="0.65" ry="0.01"/><ellipse class="cls-3" cx="37.92" cy="21.03" rx="0.83" ry="0.02"/><ellipse class="cls-3" cx="37.92" cy="19.96" rx="0.83" ry="0.02"/><ellipse class="cls-3" cx="37.92" cy="18.85" rx="0.83" ry="0.02"/><ellipse class="cls-3" cx="37.92" cy="17.6" rx="0.83" ry="0.02"/></g></g></svg>