<svg xmlns="http://www.w3.org/2000/svg" xmlns:xlink="http://www.w3.org/1999/xlink" viewBox="0 0 51.27 180.82"><defs><style>.cls-1{fill:none;stroke:#ccc;stroke-miterlimit:10;}.cls-2{fill:url(#linear-gradient);}.cls-3{fill:#ededed;}.cls-4{fill:url(#linear-gradient-2);}.cls-5{fill:url(#linear-gradient-3);}.cls-6{fill:url(#linear-gradient-4);}.cls-7{fill:url(#linear-gradient-5);}.cls-8{fill:url(#linear-gradient-6);}.cls-9{fill:url(#linear-gradient-7);}.cls-10{fill:url(#linear-gradient-8);}.cls-11{fill:url(#linear-gradient-9);}.cls-12{fill:url(#linear-gradient-10);}.cls-13{fill:url(#linear-gradient-11);}.cls-14{fill:url(#linear-gradient-12);}.cls-15{fill:url(#linear-gradient-13);}</style><linearGradient id="linear-gradient" x1="2015.59" y1="383.45" x2="2015.59" y2="355.35" gradientTransform="translate(-332.17 2047.31) rotate(-90)" gradientUnits="userSpaceOnUse"><stop offset="0" stop-color="#3e3f40"/><stop offset="0.08" stop-color="#6a6c6e"/><stop offset="0.27" stop-color="#d9dadb"/><stop offset="0.28" stop-color="#d6d7d8"/><stop offset="0.37" stop-color="#a4a6a7"/><stop offset="0.41" stop-color="#a8a8a8"/><stop offset="0.49" stop-color="#8e8e8e"/><stop offset="0.68" stop-color="#747577"/><stop offset="0.7" stop-color="#707172"/><stop offset="0.74" stop-color="#686868"/><stop offset="0.82" stop-color="#939393"/><stop offset="0.93" stop-color="#5b5b5b"/><stop offset="1" stop-color="#373839"/></linearGradient><linearGradient id="linear-gradient-2" x1="301.97" y1="-112.11" x2="301.97" y2="-116.11" gradientTransform="translate(-76.89 -195.03) rotate(90)" xlink:href="#linear-gradient"/><linearGradient id="linear-gradient-3" x1="-124.63" y1="27.33" x2="-122.17" y2="27.33" gradientTransform="matrix(1, 0, 0, -1, 160.66, 40.99)" gradientUnits="userSpaceOnUse"><stop offset="0" stop-color="#0b1110"/><stop offset="0.08" stop-color="#373e3e"/><stop offset="0.27" stop-color="#a6acab"/><stop offset="0.28" stop-color="#a3a9a8"/><stop offset="0.37" stop-color="#717877"/><stop offset="0.41" stop-color="#757a78"/><stop offset="0.49" stop-color="#5b605e"/><stop offset="0.68" stop-color="#414747"/><stop offset="0.7" stop-color="#3d4342"/><stop offset="0.74" stop-color="#353a38"/><stop offset="0.82" stop-color="#606563"/><stop offset="0.93" stop-color="#282d2b"/><stop offset="1" stop-color="#040a09"/></linearGradient><linearGradient id="linear-gradient-4" x1="235.31" y1="-218.86" x2="235.31" y2="-230.35" gradientTransform="matrix(1, 0, 0, -1, -198.05, -197.99)" xlink:href="#linear-gradient"/><linearGradient id="linear-gradient-5" x1="-125.05" y1="25.7" x2="-121.75" y2="25.7" gradientTransform="matrix(1, 0, 0, -1, 160.66, 37.72)" gradientUnits="userSpaceOnUse"><stop offset="0" stop-color="#646566"/><stop offset="0.34" stop-color="#e6e6e6"/><stop offset="0.44" stop-color="#cacccd"/><stop offset="0.55" stop-color="#b4b4b4"/><stop offset="0.65" stop-color="#9a9b9d"/><stop offset="0.8" stop-color="#818181"/><stop offset="0.93" stop-color="#5d5e5f"/></linearGradient><linearGradient id="linear-gradient-6" x1="-125.05" y1="29.44" x2="-121.75" y2="29.44" gradientTransform="matrix(1, 0, 0, -1, 160.66, 45.2)" xlink:href="#linear-gradient-5"/><linearGradient id="linear-gradient-7" x1="-125.57" y1="33.44" x2="-121.23" y2="33.44" gradientTransform="matrix(1, 0, 0, -1, 160.66, 53.21)" xlink:href="#linear-gradient-3"/><linearGradient id="linear-gradient-8" x1="-125.75" y1="31.56" x2="-121.05" y2="31.56" gradientTransform="matrix(1, 0, 0, -1, 160.66, 49.46)" xlink:href="#linear-gradient-5"/><linearGradient id="linear-gradient-9" x1="-125.75" y1="32.74" x2="-121.05" y2="32.74" gradientTransform="matrix(1, 0, 0, -1, 160.66, 51.81)" xlink:href="#linear-gradient-5"/><linearGradient id="linear-gradient-10" x1="-125.75" y1="33.83" x2="-121.05" y2="33.83" gradientTransform="matrix(1, 0, 0, -1, 160.66, 53.98)" xlink:href="#linear-gradient-5"/><linearGradient id="linear-gradient-11" x1="-125.75" y1="34.91" x2="-121.05" y2="34.91" gradientTransform="matrix(1, 0, 0, -1, 160.66, 56.16)" xlink:href="#linear-gradient-5"/><linearGradient id="linear-gradient-12" x1="232.95" y1="-222.3" x2="228.35" y2="-226.91" gradientTransform="matrix(1, 0, 0, -1, -193.39, -202.65)" xlink:href="#linear-gradient"/><linearGradient id="linear-gradient-13" x1="233.35" y1="-223.38" x2="229.1" y2="-225.83" gradientTransform="matrix(1, 0, 0, -1, -193.96, -202.08)" gradientUnits="userSpaceOnUse"><stop offset="0" stop-color="#1a1a1a"/><stop offset="0.23" stop-color="#666"/><stop offset="1" stop-color="#1a1a1a"/></linearGradient></defs><g id="Layer_2" data-name="Layer 2"><g id="Layer_1-2" data-name="Layer 1"><path class="cls-1" d="M37.26,20.88V9.47a9,9,0,0,0-9-9H0"/><rect class="cls-2" x="23.17" y="30.39" width="28.1" height="2.67"/><ellipse class="cls-3" cx="42.81" cy="30.46" rx="5.08" ry="0.05"/><path class="cls-4" d="M35.22,180V33.06h4V180c0,.47-.89.85-2,.85h0C36.12,180.82,35.22,180.44,35.22,180Z"/><rect class="cls-5" x="36.03" y="13.15" width="2.46" height="1.02" transform="translate(74.53 27.32) rotate(180)"/><rect class="cls-6" x="33.47" y="20.87" width="7.59" height="11.49" transform="translate(63.88 -10.65) rotate(90)"/><path class="cls-7" d="M35.61,10.51h3.31a0,0,0,0,1,0,0v2.32a.7.7,0,0,1-.7.7h-1.9a.7.7,0,0,1-.7-.7V10.51A0,0,0,0,1,35.61,10.51Z" transform="translate(74.53 24.05) rotate(180)"/><rect class="cls-8" x="35.61" y="13.96" width="3.31" height="3.61" transform="translate(74.53 31.53) rotate(180)"/><rect class="cls-9" x="35.09" y="17.97" width="4.34" height="3.61" transform="translate(74.53 39.54) rotate(180)"/><path class="cls-10" d="M34.92,17.43h4.69a0,0,0,0,1,0,0v.3a.62.62,0,0,1-.62.62H35.54a.62.62,0,0,1-.62-.62v-.3A0,0,0,0,1,34.92,17.43Z" transform="translate(74.53 35.79) rotate(180)"/><rect class="cls-11" x="34.92" y="18.68" width="4.69" height="0.77" transform="translate(74.53 38.14) rotate(180)"/><rect class="cls-12" x="34.92" y="19.77" width="4.69" height="0.77" transform="translate(74.53 40.31) rotate(180)"/><rect class="cls-13" x="34.92" y="20.86" width="4.69" height="0.77" transform="translate(74.53 42.49) rotate(180)"/><rect class="cls-14" x="37.06" y="17.55" width="0.4" height="8.81" transform="translate(59.22 -15.31) rotate(90)"/><rect class="cls-15" x="36.98" y="18.12" width="0.58" height="8.81" transform="translate(59.79 -14.74) rotate(90)"/><ellipse class="cls-3" cx="39.86" cy="22.84" rx="2.33" ry="0.04"/><ellipse class="cls-3" cx="37.92" cy="13.96" rx="0.83" ry="0.01"/><ellipse class="cls-3" cx="37.92" cy="20.86" rx="0.83" ry="0.02"/><ellipse class="cls-3" cx="37.92" cy="19.79" rx="0.83" ry="0.02"/><ellipse class="cls-3" cx="37.92" cy="18.68" rx="0.83" ry="0.02"/><ellipse class="cls-3" cx="37.92" cy="17.43" rx="0.83" ry="0.02"/></g></g></svg>