<svg xmlns="http://www.w3.org/2000/svg" xmlns:xlink="http://www.w3.org/1999/xlink" viewBox="0 0 83.48 51.2"><defs><style>.cls-1{fill:#ccc;}.cls-2{fill:url(#linear-gradient);}.cls-3{fill:none;stroke:#ccc;stroke-miterlimit:10;}.cls-4{fill:url(#linear-gradient-2);}.cls-5{fill:#ededed;}.cls-6{fill:url(#linear-gradient-3);}.cls-7{fill:url(#linear-gradient-4);}.cls-8{fill:url(#linear-gradient-5);}.cls-9{fill:url(#linear-gradient-6);}.cls-10{fill:url(#linear-gradient-7);}.cls-11{fill:url(#linear-gradient-8);}.cls-12{fill:url(#linear-gradient-9);}.cls-13{fill:url(#linear-gradient-10);}.cls-14{fill:url(#linear-gradient-11);}.cls-15{fill:url(#linear-gradient-12);}.cls-16{fill:url(#linear-gradient-13);}.cls-17{fill:url(#linear-gradient-14);}</style><linearGradient id="linear-gradient" x1="40.61" y1="21.24" x2="40.61" y2="6.87" gradientUnits="userSpaceOnUse"><stop offset="0" stop-color="#3e3f40"/><stop offset="0.08" stop-color="#333"/><stop offset="0.23" stop-color="#666"/><stop offset="0.29" stop-color="gray"/><stop offset="0.36" stop-color="#b3b3b3"/><stop offset="0.48" stop-color="#868686"/><stop offset="0.57" stop-color="#666"/><stop offset="0.82" stop-color="#4d4d4d"/><stop offset="0.93" stop-color="#333"/><stop offset="1" stop-color="#373839"/></linearGradient><linearGradient id="linear-gradient-2" x1="2504.34" y1="595.89" x2="2504.34" y2="623.99" gradientTransform="matrix(-1, 0, 0, 1, 2536.5, -595.89)" gradientUnits="userSpaceOnUse"><stop offset="0" stop-color="#3e3f40"/><stop offset="0.08" stop-color="#6a6c6e"/><stop offset="0.27" stop-color="#d9dadb"/><stop offset="0.28" stop-color="#d6d7d8"/><stop offset="0.37" stop-color="#a4a6a7"/><stop offset="0.41" stop-color="#a8a8a8"/><stop offset="0.49" stop-color="#8e8e8e"/><stop offset="0.68" stop-color="#747577"/><stop offset="0.7" stop-color="#707172"/><stop offset="0.74" stop-color="#686868"/><stop offset="0.82" stop-color="#939393"/><stop offset="0.93" stop-color="#5b5b5b"/><stop offset="1" stop-color="#373839"/></linearGradient><linearGradient id="linear-gradient-3" x1="58.49" y1="-27.59" x2="58.49" y2="-30.7" gradientTransform="matrix(1, 0, 0, -1, 0, -15.09)" xlink:href="#linear-gradient-2"/><linearGradient id="linear-gradient-4" x1="256.43" y1="-160.72" x2="258.89" y2="-160.72" gradientTransform="matrix(1, 0, 0, -1, -243.83, -146.79)" gradientUnits="userSpaceOnUse"><stop offset="0" stop-color="#0b1110"/><stop offset="0.08" stop-color="#373e3e"/><stop offset="0.27" stop-color="#a6acab"/><stop offset="0.28" stop-color="#a3a9a8"/><stop offset="0.37" stop-color="#717877"/><stop offset="0.41" stop-color="#757a78"/><stop offset="0.49" stop-color="#5b605e"/><stop offset="0.68" stop-color="#414747"/><stop offset="0.7" stop-color="#3d4342"/><stop offset="0.74" stop-color="#353a38"/><stop offset="0.82" stop-color="#606563"/><stop offset="0.93" stop-color="#282d2b"/><stop offset="1" stop-color="#040a09"/></linearGradient><linearGradient id="linear-gradient-5" x1="31.58" y1="-290.08" x2="31.58" y2="-301.57" gradientTransform="matrix(1, 0, 0, -1, -4.8, -281.89)" xlink:href="#linear-gradient-2"/><linearGradient id="linear-gradient-6" x1="256.01" y1="-162.36" x2="259.31" y2="-162.36" gradientTransform="matrix(1, 0, 0, -1, -245.46, -148.42)" gradientUnits="userSpaceOnUse"><stop offset="0" stop-color="#646566"/><stop offset="0.34" stop-color="#e6e6e6"/><stop offset="0.44" stop-color="#cacccd"/><stop offset="0.55" stop-color="#b4b4b4"/><stop offset="0.65" stop-color="#9a9b9d"/><stop offset="0.8" stop-color="#818181"/><stop offset="0.93" stop-color="#5d5e5f"/></linearGradient><linearGradient id="linear-gradient-7" x1="256.01" y1="-158.62" x2="259.31" y2="-158.62" gradientTransform="matrix(1, 0, 0, -1, -241.72, -144.68)" xlink:href="#linear-gradient-6"/><linearGradient id="linear-gradient-8" x1="255.49" y1="-154.61" x2="259.83" y2="-154.61" gradientTransform="matrix(1, 0, 0, -1, -237.72, -140.67)" xlink:href="#linear-gradient-4"/><linearGradient id="linear-gradient-9" x1="255.31" y1="-156.49" x2="260.01" y2="-156.49" gradientTransform="matrix(1, 0, 0, -1, -239.6, -142.55)" xlink:href="#linear-gradient-6"/><linearGradient id="linear-gradient-10" x1="255.31" y1="-155.31" x2="260.01" y2="-155.31" gradientTransform="matrix(1, 0, 0, -1, -238.42, -141.37)" xlink:href="#linear-gradient-6"/><linearGradient id="linear-gradient-11" x1="255.31" y1="-154.23" x2="260.01" y2="-154.23" gradientTransform="matrix(1, 0, 0, -1, -237.33, -140.29)" xlink:href="#linear-gradient-6"/><linearGradient id="linear-gradient-12" x1="255.31" y1="-153.14" x2="260.01" y2="-153.14" gradientTransform="matrix(1, 0, 0, -1, -236.25, -139.2)" xlink:href="#linear-gradient-6"/><linearGradient id="linear-gradient-13" x1="29.22" y1="-293.53" x2="24.62" y2="-298.13" gradientTransform="matrix(1, 0, 0, -1, -4.8, -281.89)" xlink:href="#linear-gradient-2"/><linearGradient id="linear-gradient-14" x1="29.62" y1="-294.6" x2="25.37" y2="-297.05" gradientTransform="matrix(1, 0, 0, -1, -4.8, -281.89)" gradientUnits="userSpaceOnUse"><stop offset="0" stop-color="#1a1a1a"/><stop offset="0.23" stop-color="#666"/><stop offset="1" stop-color="#1a1a1a"/></linearGradient></defs><g id="Layer_2" data-name="Layer 2"><g id="Layer_1-2" data-name="Layer 1"><rect class="cls-1" x="33.79" y="4.38" width="13.63" height="19.36"/><rect class="cls-2" x="33.79" y="6.87" width="13.63" height="14.37"/><path class="cls-3" d="M20.88,13.94H9.47a9,9,0,0,0-9,9V51.2"/><rect class="cls-4" x="30.82" width="2.67" height="28.1"/><ellipse class="cls-5" cx="30.91" cy="14.05" rx="0.07" ry="10.67"/><path class="cls-6" d="M82.62,12.5H33.5v3.11H82.62c.48,0,.86-.7.86-1.56h0C83.48,13.19,83.1,12.5,82.62,12.5Z"/><rect class="cls-7" x="12.6" y="13.43" width="2.46" height="1.02" transform="translate(27.77 0.11) rotate(90)"/><rect class="cls-8" x="22.99" y="8.19" width="7.59" height="11.49"/><path class="cls-9" d="M10.54,12.43h3.31a0,0,0,0,1,0,0v2.32a.7.7,0,0,1-.7.7h-1.9a.7.7,0,0,1-.7-.7V12.43A0,0,0,0,1,10.54,12.43Z" transform="translate(26.14 1.74) rotate(90)"/><rect class="cls-10" x="14.28" y="12.14" width="3.31" height="3.61" transform="translate(29.88 -2) rotate(90)"/><rect class="cls-11" x="17.77" y="12.14" width="4.34" height="3.61" transform="translate(33.88 -6) rotate(90)"/><path class="cls-12" d="M15.72,13.48h4.69a0,0,0,0,1,0,0v.3a.62.62,0,0,1-.62.62H16.34a.62.62,0,0,1-.62-.62v-.3A0,0,0,0,1,15.72,13.48Z" transform="translate(32 -4.12) rotate(90)"/><rect class="cls-13" x="16.89" y="13.55" width="4.69" height="0.77" transform="translate(33.18 -5.3) rotate(90)"/><rect class="cls-14" x="17.98" y="13.55" width="4.69" height="0.77" transform="translate(34.27 -6.39) rotate(90)"/><rect class="cls-15" x="19.07" y="13.55" width="4.69" height="0.77" transform="translate(35.35 -7.47) rotate(90)"/><rect class="cls-16" x="21.92" y="9.53" width="0.4" height="8.81"/><rect class="cls-17" x="22.41" y="9.53" width="0.58" height="8.81"/><ellipse class="cls-5" cx="23.01" cy="11.35" rx="0.04" ry="2.33"/><ellipse class="cls-5" cx="14.13" cy="13.28" rx="0.01" ry="0.83"/><ellipse class="cls-5" cx="10.68" cy="13.46" rx="0.01" ry="0.65"/><ellipse class="cls-5" cx="21.03" cy="13.28" rx="0.02" ry="0.83"/><ellipse class="cls-5" cx="19.96" cy="13.28" rx="0.02" ry="0.83"/><ellipse class="cls-5" cx="18.85" cy="13.28" rx="0.02" ry="0.83"/><ellipse class="cls-5" cx="17.6" cy="13.28" rx="0.02" ry="0.83"/></g></g></svg>