<svg xmlns="http://www.w3.org/2000/svg" xmlns:xlink="http://www.w3.org/1999/xlink" viewBox="0 0 58.92 51.2"><defs><style>.cls-1{fill:none;stroke:#ccc;stroke-miterlimit:10;}.cls-2{fill:url(#linear-gradient);}.cls-3{fill:#ededed;}.cls-4{fill:url(#linear-gradient-2);}.cls-5{fill:url(#linear-gradient-3);}.cls-6{fill:url(#linear-gradient-4);}.cls-7{fill:url(#linear-gradient-5);}.cls-8{fill:url(#linear-gradient-6);}.cls-9{fill:url(#linear-gradient-7);}.cls-10{fill:url(#linear-gradient-8);}.cls-11{fill:url(#linear-gradient-9);}.cls-12{fill:url(#linear-gradient-10);}.cls-13{fill:url(#linear-gradient-11);}.cls-14{fill:url(#linear-gradient-12);}.cls-15{fill:url(#linear-gradient-13);}</style><linearGradient id="linear-gradient" x1="2984.69" y1="-801.46" x2="2984.69" y2="-773.36" gradientTransform="matrix(1, 0, 0, -1, -2957.93, -750.26)" gradientUnits="userSpaceOnUse"><stop offset="0" stop-color="#3e3f40"/><stop offset="0.08" stop-color="#6a6c6e"/><stop offset="0.27" stop-color="#d9dadb"/><stop offset="0.28" stop-color="#d6d7d8"/><stop offset="0.37" stop-color="#a4a6a7"/><stop offset="0.41" stop-color="#a8a8a8"/><stop offset="0.49" stop-color="#8e8e8e"/><stop offset="0.68" stop-color="#747577"/><stop offset="0.7" stop-color="#707172"/><stop offset="0.74" stop-color="#686868"/><stop offset="0.82" stop-color="#939393"/><stop offset="0.93" stop-color="#5b5b5b"/><stop offset="1" stop-color="#373839"/></linearGradient><linearGradient id="linear-gradient-2" x1="-474.7" y1="382.59" x2="-474.7" y2="379.63" gradientTransform="matrix(-1, 0, 0, 1, -461.99, -343.95)" xlink:href="#linear-gradient"/><linearGradient id="linear-gradient-3" x1="-667.65" y1="-1154.9" x2="-665.19" y2="-1154.9" gradientTransform="matrix(1, 0, 0, -1, 711.51, -1117.64)" gradientUnits="userSpaceOnUse"><stop offset="0" stop-color="#0b1110"/><stop offset="0.08" stop-color="#373e3e"/><stop offset="0.27" stop-color="#a6acab"/><stop offset="0.28" stop-color="#a3a9a8"/><stop offset="0.37" stop-color="#717877"/><stop offset="0.41" stop-color="#757a78"/><stop offset="0.49" stop-color="#5b605e"/><stop offset="0.68" stop-color="#414747"/><stop offset="0.7" stop-color="#3d4342"/><stop offset="0.74" stop-color="#353a38"/><stop offset="0.82" stop-color="#606563"/><stop offset="0.93" stop-color="#282d2b"/><stop offset="1" stop-color="#040a09"/></linearGradient><linearGradient id="linear-gradient-4" x1="-489.32" y1="120.17" x2="-489.32" y2="108.68" gradientTransform="matrix(1, 0, 0, -1, 521.46, 151.68)" xlink:href="#linear-gradient"/><linearGradient id="linear-gradient-5" x1="-668.07" y1="-1156.54" x2="-664.76" y2="-1156.54" gradientTransform="matrix(1, 0, 0, -1, 713.14, -1119.27)" gradientUnits="userSpaceOnUse"><stop offset="0" stop-color="#646566"/><stop offset="0.34" stop-color="#e6e6e6"/><stop offset="0.44" stop-color="#cacccd"/><stop offset="0.55" stop-color="#b4b4b4"/><stop offset="0.65" stop-color="#9a9b9d"/><stop offset="0.8" stop-color="#818181"/><stop offset="0.93" stop-color="#5d5e5f"/></linearGradient><linearGradient id="linear-gradient-6" x1="-668.07" y1="-1152.8" x2="-664.76" y2="-1152.8" gradientTransform="matrix(1, 0, 0, -1, 709.4, -1115.53)" xlink:href="#linear-gradient-5"/><linearGradient id="linear-gradient-7" x1="-668.59" y1="-1148.79" x2="-664.24" y2="-1148.79" gradientTransform="matrix(1, 0, 0, -1, 705.39, -1111.53)" xlink:href="#linear-gradient-3"/><linearGradient id="linear-gradient-8" x1="-668.76" y1="-1150.67" x2="-664.07" y2="-1150.67" gradientTransform="matrix(1, 0, 0, -1, 707.27, -1113.41)" xlink:href="#linear-gradient-5"/><linearGradient id="linear-gradient-9" x1="-668.76" y1="-1149.49" x2="-664.07" y2="-1149.49" gradientTransform="matrix(1, 0, 0, -1, 706.09, -1112.23)" xlink:href="#linear-gradient-5"/><linearGradient id="linear-gradient-10" x1="-668.76" y1="-1148.41" x2="-664.07" y2="-1148.41" gradientTransform="matrix(1, 0, 0, -1, 705.01, -1111.14)" xlink:href="#linear-gradient-5"/><linearGradient id="linear-gradient-11" x1="-668.76" y1="-1147.32" x2="-664.07" y2="-1147.32" gradientTransform="matrix(1, 0, 0, -1, 703.92, -1110.06)" xlink:href="#linear-gradient-5"/><linearGradient id="linear-gradient-12" x1="-491.68" y1="116.72" x2="-496.29" y2="112.12" gradientTransform="matrix(1, 0, 0, -1, 530.78, 151.68)" xlink:href="#linear-gradient"/><linearGradient id="linear-gradient-13" x1="-491.28" y1="115.65" x2="-495.53" y2="113.19" gradientTransform="matrix(1, 0, 0, -1, 529.63, 151.68)" gradientUnits="userSpaceOnUse"><stop offset="0" stop-color="#1a1a1a"/><stop offset="0.23" stop-color="#666"/><stop offset="1" stop-color="#1a1a1a"/></linearGradient></defs><g id="Layer_2" data-name="Layer 2"><g id="Layer_1-2" data-name="Layer 1"><path class="cls-1" d="M38,37.26H49.45a9,9,0,0,0,9-9V0"/><rect class="cls-2" x="25.42" y="23.1" width="2.67" height="28.1"/><ellipse class="cls-3" cx="25.49" cy="39.61" rx="0.07" ry="10.67"/><path class="cls-4" d="M.86,38.63H25.42v-3H.86c-.48,0-.86.66-.86,1.48H0C0,38,.38,38.63.86,38.63Z"/><rect class="cls-5" x="43.86" y="36.76" width="2.46" height="1.02" transform="translate(7.83 82.35) rotate(-90)"/><rect class="cls-6" x="28.34" y="31.52" width="7.59" height="11.49" transform="translate(64.27 74.53) rotate(180)"/><path class="cls-7" d="M45.07,35.75h3.31a0,0,0,0,1,0,0v2.32a.7.7,0,0,1-.7.7h-1.9a.7.7,0,0,1-.7-.7V35.75A0,0,0,0,1,45.07,35.75Z" transform="translate(9.46 83.99) rotate(-90)"/><rect class="cls-8" x="41.33" y="35.46" width="3.31" height="3.61" transform="translate(5.72 80.25) rotate(-90)"/><rect class="cls-9" x="36.81" y="35.46" width="4.34" height="3.61" transform="translate(1.71 76.24) rotate(-90)"/><path class="cls-10" d="M38.51,36.8H43.2a0,0,0,0,1,0,0v.3a.62.62,0,0,1-.62.62H39.13a.62.62,0,0,1-.62-.62v-.3A0,0,0,0,1,38.51,36.8Z" transform="translate(3.59 78.12) rotate(-90)"/><rect class="cls-11" x="37.33" y="36.88" width="4.69" height="0.77" transform="translate(2.41 76.94) rotate(-90)"/><rect class="cls-12" x="36.25" y="36.88" width="4.69" height="0.77" transform="translate(1.33 75.86) rotate(-90)"/><rect class="cls-13" x="35.16" y="36.88" width="4.69" height="0.77" transform="translate(0.24 74.77) rotate(-90)"/><rect class="cls-14" x="36.6" y="32.86" width="0.4" height="8.81" transform="translate(73.59 74.53) rotate(180)"/><rect class="cls-15" x="35.93" y="32.86" width="0.58" height="8.81" transform="translate(72.44 74.53) rotate(180)"/><ellipse class="cls-3" cx="35.91" cy="39.86" rx="0.04" ry="2.33"/><ellipse class="cls-3" cx="44.79" cy="37.92" rx="0.01" ry="0.83"/><ellipse class="cls-3" cx="48.24" cy="37.75" rx="0.01" ry="0.65"/><ellipse class="cls-3" cx="37.89" cy="37.92" rx="0.02" ry="0.83"/><ellipse class="cls-3" cx="38.96" cy="37.92" rx="0.02" ry="0.83"/><ellipse class="cls-3" cx="40.06" cy="37.92" rx="0.02" ry="0.83"/><ellipse class="cls-3" cx="41.32" cy="37.92" rx="0.02" ry="0.83"/></g></g></svg>