<svg xmlns="http://www.w3.org/2000/svg" xmlns:xlink="http://www.w3.org/1999/xlink" viewBox="0 0 126.12 153.43"><defs><style>.cls-1{isolation:isolate;}.cls-2{fill:url(#linear-gradient);}.cls-3{mix-blend-mode:multiply;opacity:0.71;fill:url(#linear-gradient-2);}.cls-4{fill:#c6c4a5;}.cls-5{fill:#fff;}.cls-6{fill:#1a1a1a;}</style><linearGradient id="linear-gradient" x1="0.12" y1="76.73" x2="126.12" y2="76.73" gradientUnits="userSpaceOnUse"><stop offset="0.08" stop-color="#6a6c6e"/><stop offset="0.27" stop-color="#d9dadb"/><stop offset="0.28" stop-color="#d6d7d8"/><stop offset="0.37" stop-color="#a4a6a7"/><stop offset="0.41" stop-color="#a8a8a8"/><stop offset="0.49" stop-color="#8e8e8e"/><stop offset="0.68" stop-color="#747577"/><stop offset="0.7" stop-color="#707172"/><stop offset="0.74" stop-color="#686868"/><stop offset="0.82" stop-color="#939393"/><stop offset="0.93" stop-color="#5b5b5b"/></linearGradient><linearGradient id="linear-gradient-2" x1="125.12" y1="148.82" x2="1.12" y2="148.82" gradientUnits="userSpaceOnUse"><stop offset="0" stop-color="#3e3f40"/><stop offset="0.08" stop-color="#333"/><stop offset="0.57" stop-color="#666"/><stop offset="0.82" stop-color="#4d4d4d"/><stop offset="0.93" stop-color="#333"/><stop offset="1" stop-color="#373839"/></linearGradient></defs><g class="cls-1"><g id="Layer_2" data-name="Layer 2"><g id="Layer_1-2" data-name="Layer 1"><path class="cls-2" d="M121.65,0h-3.44a1.12,1.12,0,0,0-1.09,1.15V132.52a6.21,6.21,0,0,1-6,6.36H15.16a6.21,6.21,0,0,1-6-6.36V1.19A1.12,1.12,0,0,0,8,0H4.59A4.59,4.59,0,0,0,.12,4.74V153.43h126V4.74A4.59,4.59,0,0,0,121.65,0Z"/><rect class="cls-3" x="1.12" y="144.21" width="124" height="9.22"/><path class="cls-4" d="M1.12,151.5V4.74A3.57,3.57,0,0,1,4.59,1.09H8a.09.09,0,0,1,.09.1V132.52a7.24,7.24,0,0,0,7,7.41h95.92a7.24,7.24,0,0,0,7-7.41V1.19a.09.09,0,0,1,.09-.1h3.44a3.57,3.57,0,0,1,3.47,3.65V151.5C123.1,145.41,3.05,145.41,1.12,151.5Z"/><path class="cls-5" d="M9.11,1.19a1.19,1.19,0,0,0-.4-.88A1.2,1.2,0,0,0,7.79.06h-2a12,12,0,0,0-2,.08A4.22,4.22,0,0,0,2,1,4.73,4.73,0,0,0,.2,4.32c0,1.31,0,2.65,0,4,.05,5.32,0,10.64,0,16L.13,56.19h0L0,24.26c0-5.32,0-10.64,0-16,0-1.33,0-2.65.05-4A4.8,4.8,0,0,1,2,.87,4.42,4.42,0,0,1,3.8.07,13.33,13.33,0,0,1,5.8,0h2a1.25,1.25,0,0,1,1,.28,1.17,1.17,0,0,1,.39.9Z"/><path class="cls-5" d="M121.67,0l-3.1,0a1.58,1.58,0,0,0-.75.1,1.05,1.05,0,0,0-.52.52,1.53,1.53,0,0,0-.1.74V2.2l0,6.22,0,12.42c0,8.28,0,16.57-.12,24.85-.11-8.28-.08-16.57-.13-24.85l0-12.42,0-6.22V1.43a1.63,1.63,0,0,1,.13-.78,1.17,1.17,0,0,1,.57-.55,1.6,1.6,0,0,1,.78-.09Z"/><path class="cls-6" d="M125.15,151.43a1.47,1.47,0,0,0-.71-.64,7.17,7.17,0,0,0-.91-.36,16.86,16.86,0,0,0-1.89-.48c-1.27-.26-2.56-.45-3.85-.62-2.58-.32-5.18-.54-7.78-.72-5.19-.39-10.4-.62-15.6-.78q-15.63-.51-31.27-.47t-31.26.47c-5.21.16-10.41.39-15.61.77-2.59.19-5.19.4-7.77.73-1.3.16-2.58.35-3.86.61a18.1,18.1,0,0,0-1.89.49,5.28,5.28,0,0,0-.9.36,1.41,1.41,0,0,0-.7.64,1.38,1.38,0,0,1,.68-.67,7.3,7.3,0,0,1,.9-.41,17.58,17.58,0,0,1,1.88-.55c1.27-.3,2.56-.53,3.85-.73,2.58-.4,5.17-.7,7.77-.95,5.2-.49,10.41-.8,15.62-1.06,10.43-.5,20.86-.65,31.29-.7s20.87.2,31.3.7c5.21.26,10.42.58,15.62,1.06,2.59.26,5.19.55,7.77.95,1.29.2,2.58.43,3.85.73a18.35,18.35,0,0,1,1.88.56,5.49,5.49,0,0,1,.89.4A1.52,1.52,0,0,1,125.15,151.43Z"/></g></g></g></svg>