<svg xmlns="http://www.w3.org/2000/svg" xmlns:xlink="http://www.w3.org/1999/xlink" viewBox="0 0 132.03 139.73"><defs><style>.cls-1{fill:url(#linear-gradient);}.cls-2{fill:url(#linear-gradient-2);}.cls-3{fill:url(#linear-gradient-3);}.cls-4{fill:url(#linear-gradient-4);}.cls-5{fill:url(#linear-gradient-5);}.cls-6{fill:url(#linear-gradient-6);}</style><linearGradient id="linear-gradient" x1="9.94" y1="69.86" x2="122.12" y2="69.86" gradientUnits="userSpaceOnUse"><stop offset="0.08" stop-color="#6a6c6e"/><stop offset="0.27" stop-color="#d9dadb"/><stop offset="0.28" stop-color="#d6d7d8"/><stop offset="0.37" stop-color="#a4a6a7"/><stop offset="0.41" stop-color="#a8a8a8"/><stop offset="0.49" stop-color="#8e8e8e"/><stop offset="0.68" stop-color="#747577"/><stop offset="0.7" stop-color="#707172"/><stop offset="0.74" stop-color="#686868"/><stop offset="0.82" stop-color="#939393"/><stop offset="0.93" stop-color="#5b5b5b"/></linearGradient><linearGradient id="linear-gradient-2" x1="66.03" x2="66.03" y2="139.73" gradientUnits="userSpaceOnUse"><stop offset="0" stop-color="#333" stop-opacity="0"/><stop offset="0" stop-color="#686868" stop-opacity="0.11"/><stop offset="0" stop-color="#a4a4a4" stop-opacity="0.24"/><stop offset="0" stop-color="#cfcfcf" stop-opacity="0.33"/><stop offset="0" stop-color="#e8e8e8" stop-opacity="0.38"/><stop offset="0" stop-color="#f1f1f1" stop-opacity="0.4"/><stop offset="0" stop-color="#dedede" stop-opacity="0.4"/><stop offset="0" stop-color="#ababab" stop-opacity="0.4"/><stop offset="0.01" stop-color="#585858" stop-opacity="0.4"/><stop offset="0.01" stop-opacity="0.4"/><stop offset="0.01" stop-opacity="0.28"/><stop offset="0.03" stop-opacity="0"/><stop offset="0.95" stop-opacity="0"/><stop offset="0.97" stop-color="#080808" stop-opacity="0.26"/><stop offset="1" stop-color="#1a1a1a" stop-opacity="0.8"/></linearGradient><linearGradient id="linear-gradient-3" x1="11.67" y1="21.45" x2="21.22" y2="21.45" gradientUnits="userSpaceOnUse"><stop offset="0" stop-color="#666"/><stop offset="0" stop-color="#656565"/><stop offset="0.01" stop-color="#4f5051"/><stop offset="0.03" stop-color="#424344"/><stop offset="0.04" stop-color="#3e3f40"/><stop offset="0.17" stop-color="#6a6c6e"/><stop offset="0.31" stop-color="#686868"/><stop offset="0.47" stop-color="#8e8e8e"/><stop offset="0.57" stop-color="#d9dadb"/><stop offset="0.62" stop-color="#a5a6a8"/><stop offset="0.68" stop-color="#747577"/><stop offset="0.76" stop-color="#89898a"/><stop offset="0.82" stop-color="#939393"/><stop offset="0.88" stop-color="#a8a8a8"/><stop offset="0.93" stop-color="#5b5b5b"/><stop offset="1" stop-color="#373839"/></linearGradient><linearGradient id="linear-gradient-4" x1="7.21" y1="20.36" x2="7.21" y2="22.36" gradientUnits="userSpaceOnUse"><stop offset="0" stop-color="#3e3f40"/><stop offset="0.08" stop-color="#6a6c6e"/><stop offset="0.27" stop-color="#d9dadb"/><stop offset="0.28" stop-color="#d6d7d8"/><stop offset="0.37" stop-color="#a4a6a7"/><stop offset="0.41" stop-color="#a8a8a8"/><stop offset="0.49" stop-color="#8e8e8e"/><stop offset="0.68" stop-color="#747577"/><stop offset="0.7" stop-color="#707172"/><stop offset="0.74" stop-color="#686868"/><stop offset="0.82" stop-color="#939393"/><stop offset="0.93" stop-color="#5b5b5b"/><stop offset="1" stop-color="#373839"/></linearGradient><linearGradient id="linear-gradient-5" x1="-290.3" y1="21.45" x2="-280.76" y2="21.45" gradientTransform="matrix(1, 0, 0, -1, 405.75, 42.91)" xlink:href="#linear-gradient-3"/><linearGradient id="linear-gradient-6" x1="-294.77" y1="20.36" x2="-294.77" y2="22.36" gradientTransform="matrix(-1, 0, 0, 1, -169.94, 0)" xlink:href="#linear-gradient-4"/></defs><g id="Layer_2" data-name="Layer 2"><g id="Layer_1-2" data-name="Layer 1"><path class="cls-1" d="M122.12.37a.37.37,0,0,0-.38-.37H10.32a.38.38,0,0,0-.38.38V.53a.34.34,0,0,0,.38.36H11A1.12,1.12,0,0,1,12,2V133.37a6.21,6.21,0,0,0,6,6.36H114a6.21,6.21,0,0,0,6-6.36V2a1.07,1.07,0,0,1,1-1.14h.73A.34.34,0,0,0,122,.77a.33.33,0,0,0,.11-.27Z"/><path class="cls-2" d="M122.12.37a.37.37,0,0,0-.38-.37H10.32a.38.38,0,0,0-.38.38V.53a.34.34,0,0,0,.38.36H11A1.12,1.12,0,0,1,12,2V133.37a6.21,6.21,0,0,0,6,6.36H114a6.21,6.21,0,0,0,6-6.36V2a1.07,1.07,0,0,1,1-1.14h.73A.34.34,0,0,0,122,.77a.33.33,0,0,0,.11-.27Z"/><path class="cls-3" d="M11.81,17.2h3.54a1.33,1.33,0,0,1,1.33,1.33v5.84a1.33,1.33,0,0,1-1.33,1.33H11.81a.24.24,0,0,1-.24-.24v-8A.24.24,0,0,1,11.81,17.2Z"/><path class="cls-4" d="M13.88,22.36H1a1,1,0,0,1,0-2H13.88a1,1,0,0,1,.53,1A1.17,1.17,0,0,1,13.88,22.36Z"/><path class="cls-5" d="M115.59,17.2h3.54a1.33,1.33,0,0,1,1.33,1.33v5.84a1.33,1.33,0,0,1-1.33,1.33h-3.54a.24.24,0,0,1-.24-.24v-8a.24.24,0,0,1,.24-.24Z" transform="translate(235.81 42.91) rotate(-180)"/><path class="cls-6" d="M118.15,22.36H131a1,1,0,0,0,0-2H118.15a1,1,0,0,0-.53,1A1.17,1.17,0,0,0,118.15,22.36Z"/></g></g></svg>