<svg xmlns="http://www.w3.org/2000/svg" xmlns:xlink="http://www.w3.org/1999/xlink" viewBox="0 0 126.13 181.43"><defs><style>.cls-1{isolation:isolate;}.cls-2{fill:url(#linear-gradient);}.cls-3{fill:url(#linear-gradient-3);}.cls-4{fill:url(#linear-gradient-4);}.cls-5{mix-blend-mode:multiply;opacity:0.71;fill:url(#linear-gradient-5);}.cls-6{fill:#c6c4a5;}.cls-7{fill:#fff;}.cls-8{fill:#1a1a1a;}</style><linearGradient id="linear-gradient" x1="126.13" y1="84.78" x2="0.13" y2="84.78" gradientUnits="userSpaceOnUse"><stop offset="0" stop-color="#3e3f40"/><stop offset="0.08" stop-color="#333"/><stop offset="0.23" stop-color="#666"/><stop offset="0.29" stop-color="gray"/><stop offset="0.36" stop-color="#b3b3b3"/><stop offset="0.48" stop-color="#868686"/><stop offset="0.57" stop-color="#666"/><stop offset="0.82" stop-color="#4d4d4d"/><stop offset="0.93" stop-color="#333"/><stop offset="1" stop-color="#373839"/></linearGradient><linearGradient id="linear-gradient-3" x1="63.13" y1="0.23" x2="63.13" y2="169.34" gradientUnits="userSpaceOnUse"><stop offset="0.92" stop-opacity="0"/><stop offset="0.95" stop-color="#0b0b0b" stop-opacity="0.13"/><stop offset="0.98" stop-color="#2a2a2a" stop-opacity="0.49"/><stop offset="0.99" stop-color="#333" stop-opacity="0.6"/></linearGradient><linearGradient id="linear-gradient-4" x1="0.1" y1="90.73" x2="126.1" y2="90.73" gradientUnits="userSpaceOnUse"><stop offset="0.08" stop-color="#6a6c6e"/><stop offset="0.27" stop-color="#d9dadb"/><stop offset="0.28" stop-color="#d6d7d8"/><stop offset="0.37" stop-color="#a4a6a7"/><stop offset="0.41" stop-color="#a8a8a8"/><stop offset="0.49" stop-color="#8e8e8e"/><stop offset="0.68" stop-color="#747577"/><stop offset="0.7" stop-color="#707172"/><stop offset="0.74" stop-color="#686868"/><stop offset="0.82" stop-color="#939393"/><stop offset="0.93" stop-color="#5b5b5b"/></linearGradient><linearGradient id="linear-gradient-5" x1="125.1" y1="176.81" x2="1.1" y2="176.81" gradientUnits="userSpaceOnUse"><stop offset="0" stop-color="#3e3f40"/><stop offset="0.08" stop-color="#333"/><stop offset="0.57" stop-color="#666"/><stop offset="0.82" stop-color="#4d4d4d"/><stop offset="0.93" stop-color="#333"/><stop offset="1" stop-color="#373839"/></linearGradient></defs><g class="cls-1"><g id="Layer_2" data-name="Layer 2"><g id="Layer_1-2" data-name="Layer 1"><path class="cls-2" d="M4.6.23H121.66a4.47,4.47,0,0,1,4.47,4.47V169.34a0,0,0,0,1,0,0H.13a0,0,0,0,1,0,0V4.7A4.47,4.47,0,0,1,4.6.23Z"/><path class="cls-2" d="M4.6.23H121.66a4.47,4.47,0,0,1,4.47,4.47V169.34a0,0,0,0,1,0,0H.13a0,0,0,0,1,0,0V4.7A4.47,4.47,0,0,1,4.6.23Z"/><path class="cls-3" d="M121.66.23H4.6A4.47,4.47,0,0,0,.13,4.7V169.34h126V4.7A4.47,4.47,0,0,0,121.66.23Z"/><path class="cls-4" d="M121.63,0H118.2a1.12,1.12,0,0,0-1.1,1.15V160.52a6.2,6.2,0,0,1-6,6.35H15.14a6.2,6.2,0,0,1-6-6.35V1.18A1.12,1.12,0,0,0,8,0H4.58A4.6,4.6,0,0,0,.1,4.73v176.7h126V4.73A4.59,4.59,0,0,0,121.63,0Z"/><rect class="cls-5" x="1.1" y="172.2" width="124" height="9.22"/><path class="cls-6" d="M1.1,179.49V4.73A3.57,3.57,0,0,1,4.58,1.08H8a.09.09,0,0,1,.09.1V160.52a7.24,7.24,0,0,0,7,7.4h95.92a7.23,7.23,0,0,0,7-7.4V1.18a.09.09,0,0,1,.1-.1h3.43a3.56,3.56,0,0,1,3.47,3.65V179.49C123.09,173.4,3,173.4,1.1,179.49Z"/><path class="cls-7" d="M9.09,1.18A1.15,1.15,0,0,0,8.33.09,9.72,9.72,0,0,0,6.9.05C6,.07,5,0,4,.1A4.55,4.55,0,0,0,.23,3.83,22.51,22.51,0,0,0,.16,6.68l0,2.87,0,5.74v23L.12,84.18h0L0,38.26v-23L0,9.55l0-2.87a21.24,21.24,0,0,1,.1-2.87A4.62,4.62,0,0,1,4,0C5,0,5.94,0,6.9,0a8.67,8.67,0,0,1,1.44,0,1.18,1.18,0,0,1,.78,1.12Z"/><path class="cls-7" d="M121.66,0h-2.43c-.4,0-.82,0-1.21,0a1.09,1.09,0,0,0-.81.78c-.09,1.6,0,3.23,0,4.85l0,9.71,0,19.42c0,13,0,25.9-.12,38.85-.11-13-.08-25.9-.13-38.85l0-19.42,0-9.71c0-1.62,0-3.24.08-4.86A1.14,1.14,0,0,1,118,0c.41,0,.81,0,1.22,0Z"/><path class="cls-8" d="M125.13,179.42a1.43,1.43,0,0,0-.71-.64,7,7,0,0,0-.9-.36,18,18,0,0,0-1.89-.48c-1.28-.26-2.56-.45-3.86-.62-2.58-.32-5.17-.54-7.77-.72-5.2-.38-10.4-.61-15.61-.78q-15.63-.51-31.26-.47t-31.26.47c-5.21.16-10.42.4-15.61.78-2.6.18-5.2.4-7.78.72-1.29.16-2.58.36-3.85.62a16.86,16.86,0,0,0-1.89.48,7,7,0,0,0-.9.36,1.39,1.39,0,0,0-.71.64,1.45,1.45,0,0,1,.69-.67,5.91,5.91,0,0,1,.89-.4,18.35,18.35,0,0,1,1.88-.56c1.27-.3,2.56-.53,3.85-.73,2.58-.4,5.18-.69,7.78-.95,5.19-.48,10.4-.8,15.61-1.06,10.43-.5,20.86-.65,31.3-.69s20.87.19,31.29.69c5.21.26,10.42.58,15.62,1.06,2.6.26,5.19.55,7.77.95,1.29.21,2.58.43,3.85.73a17,17,0,0,1,1.88.56,6,6,0,0,1,.9.4A1.49,1.49,0,0,1,125.13,179.42Z"/></g></g></g></svg>