<svg xmlns="http://www.w3.org/2000/svg" xmlns:xlink="http://www.w3.org/1999/xlink" viewBox="0 0 126 181.49"><defs><style>.cls-1{fill:url(#linear-gradient);}.cls-2{fill:#2e3031;}.cls-3{fill:#b0b4b5;}.cls-4{fill:url(#linear-gradient-2);}.cls-5{opacity:0.58;}.cls-6{fill:#fff;}</style><linearGradient id="linear-gradient" y1="90.74" x2="126" y2="90.74" gradientUnits="userSpaceOnUse"><stop offset="0" stop-color="#3e3f40"/><stop offset="0.08" stop-color="#6a6c6e"/><stop offset="0.27" stop-color="#d9dadb"/><stop offset="0.28" stop-color="#d6d7d8"/><stop offset="0.37" stop-color="#a4a6a7"/><stop offset="0.41" stop-color="#a8a8a8"/><stop offset="0.49" stop-color="#8e8e8e"/><stop offset="0.68" stop-color="#747577"/><stop offset="0.7" stop-color="#707172"/><stop offset="0.74" stop-color="#686868"/><stop offset="0.82" stop-color="#939393"/><stop offset="0.93" stop-color="#5b5b5b"/><stop offset="1" stop-color="#373839"/></linearGradient><linearGradient id="linear-gradient-2" x1="63" x2="63" y2="181.49" gradientUnits="userSpaceOnUse"><stop offset="0" stop-color="#fff" stop-opacity="0.4"/><stop offset="0.03" stop-color="#fff" stop-opacity="0.1"/><stop offset="0.91" stop-color="#0f0f0f" stop-opacity="0.01"/><stop offset="0.96" stop-opacity="0"/><stop offset="0.97" stop-opacity="0.4"/><stop offset="0.99" stop-color="#fff" stop-opacity="0"/></linearGradient></defs><g id="Layer_2" data-name="Layer 2"><g id="Layer_1-2" data-name="Layer 1"><path class="cls-1" d="M4.47,0H121.53A4.47,4.47,0,0,1,126,4.47v177a0,0,0,0,1,0,0H0a0,0,0,0,1,0,0V4.47A4.47,4.47,0,0,1,4.47,0Z"/><path class="cls-2" d="M72,145.49a9,9,0,1,1-9-9A9,9,0,0,1,72,145.49Z"/><path class="cls-3" d="M70.61,145.49A7.61,7.61,0,1,1,63,137.88,7.61,7.61,0,0,1,70.61,145.49Z"/><circle class="cls-2" cx="63" cy="145.49" r="0.91"/><polygon class="cls-2" points="63 138.64 63.43 147.47 62.57 147.47 63 138.64"/><path class="cls-4" d="M121.53,0H4.47A4.47,4.47,0,0,0,0,4.47v177H126V4.47A4.47,4.47,0,0,0,121.53,0Z"/><g class="cls-5"><path class="cls-6" d="M1.21,5.28A4.68,4.68,0,0,1,4.56,1.85a8.82,8.82,0,0,1,2.49-.28l2.47,0,9.87-.15c6.59-.09,13.18-.14,19.76-.09s13.18,0,19.77.12,13.17.17,19.76.29c-6.59.15-13.17.28-19.76.35s-13.17.12-19.75.18-13.17,0-19.76,0L9.53,2.07,7.06,2a10.24,10.24,0,0,0-2.42.14A4.5,4.5,0,0,0,1.21,5.28Z"/></g></g></g></svg>