<svg xmlns="http://www.w3.org/2000/svg" xmlns:xlink="http://www.w3.org/1999/xlink" viewBox="0 0 126.15 283.58"><defs><style>.cls-1{isolation:isolate;}.cls-2{fill:url(#linear-gradient);}.cls-3{fill:url(#linear-gradient-2);}.cls-4{fill:url(#linear-gradient-3);}.cls-5{mix-blend-mode:multiply;opacity:0.71;fill:url(#linear-gradient-4);}.cls-6{fill:#c6c4a5;}.cls-7{fill:#fff;}.cls-8{fill:#1a1a1a;}.cls-9{fill:url(#linear-gradient-5);}.cls-10{fill:url(#radial-gradient);}.cls-11{fill:url(#linear-gradient-6);}</style><linearGradient id="linear-gradient" x1="126.15" y1="200.93" x2="0.15" y2="200.93" gradientUnits="userSpaceOnUse"><stop offset="0" stop-color="#3e3f40"/><stop offset="0.08" stop-color="#333"/><stop offset="0.23" stop-color="#666"/><stop offset="0.29" stop-color="gray"/><stop offset="0.36" stop-color="#b3b3b3"/><stop offset="0.48" stop-color="#868686"/><stop offset="0.57" stop-color="#666"/><stop offset="0.82" stop-color="#4d4d4d"/><stop offset="0.93" stop-color="#333"/><stop offset="1" stop-color="#373839"/></linearGradient><linearGradient id="linear-gradient-2" x1="63.15" y1="130.38" x2="63.15" y2="271.49" gradientUnits="userSpaceOnUse"><stop offset="0.92" stop-opacity="0"/><stop offset="0.95" stop-color="#0b0b0b" stop-opacity="0.13"/><stop offset="0.98" stop-color="#2a2a2a" stop-opacity="0.49"/><stop offset="0.99" stop-color="#333" stop-opacity="0.6"/></linearGradient><linearGradient id="linear-gradient-3" x1="0.12" y1="206.88" x2="126.12" y2="206.88" gradientUnits="userSpaceOnUse"><stop offset="0.08" stop-color="#6a6c6e"/><stop offset="0.27" stop-color="#d9dadb"/><stop offset="0.28" stop-color="#d6d7d8"/><stop offset="0.37" stop-color="#a4a6a7"/><stop offset="0.41" stop-color="#a8a8a8"/><stop offset="0.49" stop-color="#8e8e8e"/><stop offset="0.68" stop-color="#747577"/><stop offset="0.7" stop-color="#707172"/><stop offset="0.74" stop-color="#686868"/><stop offset="0.82" stop-color="#939393"/><stop offset="0.93" stop-color="#5b5b5b"/></linearGradient><linearGradient id="linear-gradient-4" x1="125.12" y1="278.97" x2="1.12" y2="278.97" gradientUnits="userSpaceOnUse"><stop offset="0" stop-color="#3e3f40"/><stop offset="0.08" stop-color="#333"/><stop offset="0.57" stop-color="#666"/><stop offset="0.82" stop-color="#4d4d4d"/><stop offset="0.93" stop-color="#333"/><stop offset="1" stop-color="#373839"/></linearGradient><linearGradient id="linear-gradient-5" x1="7.16" y1="67.16" x2="119.26" y2="67.16" gradientUnits="userSpaceOnUse"><stop offset="0" stop-color="#babbbd"/><stop offset="0.39" stop-color="#d9dadb"/><stop offset="0.4" stop-color="#d8d9da"/><stop offset="0.44" stop-color="#a8a8a8"/><stop offset="0.85" stop-color="#8e8e8e"/><stop offset="0.99" stop-color="#e6e6e6"/></linearGradient><radialGradient id="radial-gradient" cx="57.08" cy="169.02" r="225.73" gradientUnits="userSpaceOnUse"><stop offset="0" stop-color="#252627"/><stop offset="0.21" stop-color="#4d4d4d"/><stop offset="0.26" stop-color="#676767"/><stop offset="0.28" stop-color="#4d4d4d"/><stop offset="0.36" stop-color="#343434"/><stop offset="0.93" stop-color="#1a1a1a"/><stop offset="1" stop-color="#1e1f20"/></radialGradient><linearGradient id="linear-gradient-6" x1="47.18" y1="51.99" x2="77.09" y2="51.99" gradientUnits="userSpaceOnUse"><stop offset="0" stop-color="#3e3f40"/><stop offset="0.1" stop-color="#6a6c6e"/><stop offset="0.12" stop-color="#727476"/><stop offset="0.26" stop-color="#a4a6a7"/><stop offset="0.28" stop-color="#a8a8a8"/><stop offset="0.45" stop-color="#8e8e8e"/><stop offset="0.63" stop-color="#747577"/><stop offset="0.75" stop-color="#515151"/><stop offset="0.89" stop-color="#5b5b5b"/><stop offset="1" stop-color="#373839"/></linearGradient></defs><g class="cls-1"><g id="Layer_2" data-name="Layer 2"><g id="Layer_1-2" data-name="Layer 1"><path class="cls-2" d="M4.62,130.38H121.67a4.47,4.47,0,0,1,4.47,4.47V271.49a0,0,0,0,1,0,0H.15a0,0,0,0,1,0,0V134.85A4.47,4.47,0,0,1,4.62,130.38Z"/><path class="cls-3" d="M121.67,130.38H4.62a4.47,4.47,0,0,0-4.47,4.47V271.49h126V134.85A4.48,4.48,0,0,0,121.67,130.38Z"/><path class="cls-4" d="M121.65,130.18h-3.44a1.12,1.12,0,0,0-1.09,1.15V262.67a6.2,6.2,0,0,1-6,6.35H15.16a6.2,6.2,0,0,1-6-6.35V131.33A1.12,1.12,0,0,0,8,130.18H4.59a4.59,4.59,0,0,0-4.47,4.71V283.58h126V134.89A4.59,4.59,0,0,0,121.65,130.18Z"/><rect class="cls-5" x="1.12" y="274.35" width="124" height="9.22"/><path class="cls-6" d="M1.12,281.64V134.89a3.57,3.57,0,0,1,3.47-3.66H8a.1.1,0,0,1,.09.1V262.67a7.24,7.24,0,0,0,7,7.4h95.92a7.24,7.24,0,0,0,7-7.4V131.33a.1.1,0,0,1,.09-.1h3.44a3.57,3.57,0,0,1,3.47,3.66V281.64C123.1,275.55,3.05,275.55,1.12,281.64Z"/><path class="cls-7" d="M9.11,131.33a1.15,1.15,0,0,0-.4-.87,1.21,1.21,0,0,0-.92-.26h-2a12,12,0,0,0-2,.09,4.09,4.09,0,0,0-1.78.79A4.75,4.75,0,0,0,.2,134.46c0,1.32,0,2.66,0,4,.05,5.32,0,10.64,0,16l-.1,31.92h0L0,154.41c0-5.32,0-10.64,0-16,0-1.34,0-2.66.05-4A4.76,4.76,0,0,1,2,131a4.18,4.18,0,0,1,1.83-.8,12.13,12.13,0,0,1,2-.07h2a1.29,1.29,0,0,1,1,.27,1.19,1.19,0,0,1,.39.9Z"/><path class="cls-7" d="M121.67,130.18l-3.1,0a1.58,1.58,0,0,0-.75.1,1.14,1.14,0,0,0-.52.52,1.53,1.53,0,0,0-.1.74v.78l0,6.21,0,12.43c0,8.28,0,16.56-.12,24.85-.11-8.29-.08-16.57-.13-24.85l0-12.43,0-6.21v-.78a1.63,1.63,0,0,1,.13-.78,1.17,1.17,0,0,1,.57-.55,1.73,1.73,0,0,1,.78-.09Z"/><path class="cls-8" d="M125.15,281.57a1.45,1.45,0,0,0-.71-.63,6,6,0,0,0-.91-.37,16.86,16.86,0,0,0-1.89-.48c-1.27-.26-2.56-.45-3.85-.61-2.58-.33-5.18-.55-7.78-.73-5.19-.38-10.4-.61-15.6-.78q-15.63-.5-31.27-.46T31.88,278c-5.21.17-10.41.4-15.61.78-2.6.18-5.19.4-7.77.72-1.3.17-2.58.36-3.86.62a18,18,0,0,0-1.89.48,7.67,7.67,0,0,0-.9.36,1.41,1.41,0,0,0-.7.64,1.43,1.43,0,0,1,.68-.67,6,6,0,0,1,.9-.4,17.63,17.63,0,0,1,1.88-.56c1.27-.3,2.56-.53,3.85-.73,2.58-.4,5.17-.69,7.77-.95,5.2-.48,10.41-.8,15.62-1.06,10.43-.5,20.86-.65,31.29-.69s20.87.2,31.3.69c5.21.27,10.42.58,15.62,1.06,2.59.26,5.19.55,7.77.95,1.29.21,2.58.43,3.85.74a16.08,16.08,0,0,1,1.88.55,6.51,6.51,0,0,1,.89.4A1.52,1.52,0,0,1,125.15,281.57Z"/><path class="cls-9" d="M96.07,110.43h-19V4.47A4.47,4.47,0,0,0,72.62,0h-21a4.47,4.47,0,0,0-4.47,4.47v106H30.35c-12.8,0-23.19,8.84-23.19,19.75h.95a1.11,1.11,0,0,1,1.09,1.15h0v3h108v-3.05a1.1,1.1,0,0,1,1.1-1.1h.94C119.26,119.27,108.88,110.43,96.07,110.43Z"/><path class="cls-10" d="M96.07,111.43h-20v-7.8c-1.61-.73-3.45-11-6-11.14-6.47-.35-6.88-1.77-8.75-3.7s-4.26,4.39-7.3,4c-2-.26-4.23-1.75-5.89-3.09v21.74H30.35c-11.77,0-21.42,7.79-22.13,17.59a.14.14,0,0,0,.14.16A1.84,1.84,0,0,1,10.21,131v3.31h106v-3.28a1.87,1.87,0,0,1,1.87-1.87c.09,0,.13,0,.13-.1C117.54,119.25,107.86,111.43,96.07,111.43Z"/><path class="cls-11" d="M72.67,0H51.61a4.44,4.44,0,0,0-4.43,4.46V92.57L77.09,104V4.46A4.44,4.44,0,0,0,72.67,0Z"/></g></g></g></svg>