<svg xmlns="http://www.w3.org/2000/svg" xmlns:xlink="http://www.w3.org/1999/xlink" viewBox="0 0 126 271.79"><defs><style>.cls-1{fill:#d1d2d3;opacity:0.68;}.cls-2{fill:url(#radial-gradient);}.cls-3{fill:url(#linear-gradient);}.cls-4{fill:#edffff;}.cls-5{fill:url(#linear-gradient-2);}.cls-6{fill:#2e3031;}.cls-7{fill:#b0b4b5;}.cls-8{fill:url(#linear-gradient-3);}.cls-9{fill:#cecece;}.cls-10{fill:#161616;}.cls-11{opacity:0.58;}.cls-12{fill:#fff;}</style><radialGradient id="radial-gradient" cx="72.1" cy="113.14" fx="26.483691623219606" fy="119.64137494278857" r="83.62" gradientTransform="matrix(-0.7, -0.71, 0.52, -0.52, 63.55, 223.25)" gradientUnits="userSpaceOnUse"><stop offset="0.03" stop-color="#3e3f40"/><stop offset="0.07" stop-color="#6a6c6e"/><stop offset="0.37" stop-color="#a4a6a7"/><stop offset="0.41" stop-color="#a8a8a8"/><stop offset="0.49" stop-color="#d9dadb"/><stop offset="0.52" stop-color="#bebfc0"/><stop offset="0.58" stop-color="#8e8e8e"/><stop offset="0.68" stop-color="#747577"/><stop offset="0.71" stop-color="#707172"/><stop offset="0.77" stop-color="#686868"/><stop offset="0.82" stop-color="#939393"/><stop offset="0.93" stop-color="#5b5b5b"/></radialGradient><linearGradient id="linear-gradient" x1="47.31" y1="35.44" x2="77.22" y2="35.44" gradientUnits="userSpaceOnUse"><stop offset="0" stop-color="#3e3f40"/><stop offset="0.1" stop-color="#6a6c6e"/><stop offset="0.12" stop-color="#727476"/><stop offset="0.26" stop-color="#a4a6a7"/><stop offset="0.28" stop-color="#a8a8a8"/><stop offset="0.45" stop-color="#8e8e8e"/><stop offset="0.63" stop-color="#747577"/><stop offset="0.75" stop-color="#515151"/><stop offset="0.89" stop-color="#5b5b5b"/><stop offset="1" stop-color="#373839"/></linearGradient><linearGradient id="linear-gradient-2" y1="180.66" x2="126" y2="180.66" gradientUnits="userSpaceOnUse"><stop offset="0" stop-color="#3e3f40"/><stop offset="0.08" stop-color="#6a6c6e"/><stop offset="0.27" stop-color="#d9dadb"/><stop offset="0.28" stop-color="#d6d7d8"/><stop offset="0.37" stop-color="#a4a6a7"/><stop offset="0.41" stop-color="#a8a8a8"/><stop offset="0.49" stop-color="#8e8e8e"/><stop offset="0.68" stop-color="#747577"/><stop offset="0.7" stop-color="#707172"/><stop offset="0.74" stop-color="#686868"/><stop offset="0.82" stop-color="#939393"/><stop offset="0.93" stop-color="#5b5b5b"/><stop offset="1" stop-color="#373839"/></linearGradient><linearGradient id="linear-gradient-3" x1="63" y1="90.16" x2="63" y2="271.16" gradientUnits="userSpaceOnUse"><stop offset="0" stop-color="#fff" stop-opacity="0.4"/><stop offset="0.03" stop-color="#fff" stop-opacity="0.1"/><stop offset="0.91" stop-color="#0f0f0f" stop-opacity="0.01"/><stop offset="0.96" stop-opacity="0"/><stop offset="0.97" stop-opacity="0.4"/><stop offset="0.99" stop-color="#fff" stop-opacity="0"/></linearGradient></defs><g id="Layer_2" data-name="Layer 2"><g id="Layer_1-2" data-name="Layer 1"><path class="cls-1" d="M24.54,72.24a16.45,16.45,0,0,0-9.28,6.13c-.25.37.16.81.64.69l10.76-.92a3.87,3.87,0,0,0,3.51-2.64,2.52,2.52,0,0,0,.09-.45C30.45,72.93,27.46,71.6,24.54,72.24Z"/><path class="cls-2" d="M118.05,90.44H7.37c0-10.91,10.25-19.75,22.9-19.75H95.15c12.64,0,22.9,8.84,22.9,19.75Z"/><path class="cls-3" d="M51.78,0h21a4.47,4.47,0,0,1,4.47,4.47V70.88a0,0,0,0,1,0,0H47.31a0,0,0,0,1,0,0V4.47A4.47,4.47,0,0,1,51.78,0Z"/><path class="cls-4" d="M46.86,70.64l1.36-.08,3.59-.14,5.08-.12,5.82,0,5.82,0,5.07.12,3.59.14,1.37.08-1.37.08-3.59.14L68.53,71l-5.82,0-5.82,0-5.08-.12-3.59-.14Z"/><path class="cls-5" d="M4.47,90.16H121.53A4.47,4.47,0,0,1,126,94.63V271.16a0,0,0,0,1,0,0H0a0,0,0,0,1,0,0V94.63A4.47,4.47,0,0,1,4.47,90.16Z"/><path class="cls-6" d="M72,235.16a9,9,0,1,1-9-9A9,9,0,0,1,72,235.16Z"/><path class="cls-7" d="M70.61,235.16A7.61,7.61,0,1,1,63,227.55,7.61,7.61,0,0,1,70.61,235.16Z"/><circle class="cls-6" cx="63" cy="235.16" r="0.91"/><polygon class="cls-6" points="63 228.31 63.43 237.14 62.57 237.14 63 228.31"/><path class="cls-8" d="M121.53,90.16H4.47A4.47,4.47,0,0,0,0,94.63V271.16H126V94.63A4.47,4.47,0,0,0,121.53,90.16Z"/><path class="cls-9" d="M5.65,90.16l4.57-.08,12.06-.14,17-.13,19.54,0,19.54,0,17,.12,12.05.15,4.58.08-4.58.08-12.05.14-17,.13-19.54,0L39.33,90.5l-17-.12-12.06-.14Z"/><path class="cls-10" d="M20.68,271.27l4.53-.1L37.14,271,54,270.83l19.34-.07,19.34.07,16.86.15,11.93.19,4.53.1-4.53.1-11.93.19-16.86.16-19.34.07L54,271.72l-16.86-.16-11.93-.19Z"/><g class="cls-11"><path class="cls-12" d="M1.33,95.45A4.66,4.66,0,0,1,4.68,92a8.75,8.75,0,0,1,2.48-.28l2.47,0,9.88-.15c6.59-.09,13.17-.14,19.76-.09s13.18,0,19.77.12,13.17.17,19.76.29c-6.59.15-13.18.28-19.76.35s-13.17.12-19.75.18-13.17,0-19.76,0l-9.88-.13-2.47,0a10.76,10.76,0,0,0-2.42.14A4.51,4.51,0,0,0,1.33,95.45Z"/></g></g></g></svg>