<svg xmlns="http://www.w3.org/2000/svg" xmlns:xlink="http://www.w3.org/1999/xlink" viewBox="0 0 132.83 139.73"><defs><style>.cls-1{fill:url(#linear-gradient);}.cls-2{fill:url(#linear-gradient-2);}.cls-3{fill:url(#linear-gradient-3);}.cls-4{fill:url(#linear-gradient-4);}.cls-5{fill:#b3b3b3;}.cls-6{fill:url(#linear-gradient-5);}.cls-7{fill:url(#linear-gradient-6);}</style><linearGradient id="linear-gradient" x1="7.25" y1="20.36" x2="7.25" y2="22.36" gradientUnits="userSpaceOnUse"><stop offset="0" stop-color="#3e3f40"/><stop offset="0.08" stop-color="#6a6c6e"/><stop offset="0.27" stop-color="#d9dadb"/><stop offset="0.28" stop-color="#d6d7d8"/><stop offset="0.37" stop-color="#a4a6a7"/><stop offset="0.41" stop-color="#a8a8a8"/><stop offset="0.49" stop-color="#8e8e8e"/><stop offset="0.68" stop-color="#747577"/><stop offset="0.7" stop-color="#707172"/><stop offset="0.74" stop-color="#686868"/><stop offset="0.82" stop-color="#939393"/><stop offset="0.93" stop-color="#5b5b5b"/><stop offset="1" stop-color="#373839"/></linearGradient><linearGradient id="linear-gradient-2" x1="7.56" y1="20.36" x2="7.56" y2="22.36" gradientTransform="matrix(-1, 0, 0, 1, 133.14, 0)" xlink:href="#linear-gradient"/><linearGradient id="linear-gradient-3" x1="11.74" y1="21.45" x2="21.35" y2="21.45" gradientUnits="userSpaceOnUse"><stop offset="0" stop-color="#666"/><stop offset="0" stop-color="#656565"/><stop offset="0.01" stop-color="#4f5051"/><stop offset="0.03" stop-color="#424344"/><stop offset="0.04" stop-color="#3e3f40"/><stop offset="0.17" stop-color="#6a6c6e"/><stop offset="0.31" stop-color="#686868"/><stop offset="0.47" stop-color="#8e8e8e"/><stop offset="0.57" stop-color="#d9dadb"/><stop offset="0.62" stop-color="#a5a6a8"/><stop offset="0.68" stop-color="#747577"/><stop offset="0.76" stop-color="#89898a"/><stop offset="0.82" stop-color="#939393"/><stop offset="0.88" stop-color="#a8a8a8"/><stop offset="0.93" stop-color="#5b5b5b"/><stop offset="1" stop-color="#373839"/></linearGradient><linearGradient id="linear-gradient-4" x1="12.06" y1="21.45" x2="21.66" y2="21.45" gradientTransform="matrix(1, 0, 0, -1, 104.09, 42.91)" xlink:href="#linear-gradient-3"/><linearGradient id="linear-gradient-5" x1="121.23" y1="69.36" x2="11.69" y2="69.36" gradientUnits="userSpaceOnUse"><stop offset="0" stop-color="#3e3f40"/><stop offset="0.08" stop-color="#333"/><stop offset="0.23" stop-color="#666"/><stop offset="0.29" stop-color="gray"/><stop offset="0.36" stop-color="#b3b3b3"/><stop offset="0.48" stop-color="#868686"/><stop offset="0.57" stop-color="#666"/><stop offset="0.82" stop-color="#4d4d4d"/><stop offset="0.93" stop-color="#333"/><stop offset="1" stop-color="#373839"/></linearGradient><linearGradient id="linear-gradient-6" x1="66.46" x2="66.46" y2="138.73" gradientUnits="userSpaceOnUse"><stop offset="0.95" stop-opacity="0"/><stop offset="1" stop-color="#1a1a1a" stop-opacity="0.8"/></linearGradient></defs><g id="Layer_2" data-name="Layer 2"><g id="Layer_1-2" data-name="Layer 1"><path class="cls-1" d="M14,22.36H1a1,1,0,1,1,0-2H14a1,1,0,0,1,.54,1A1.17,1.17,0,0,1,14,22.36Z"/><path class="cls-2" d="M118.87,22.36h12.95a1,1,0,1,0,0-2H118.87a1,1,0,0,0-.54,1A1.17,1.17,0,0,0,118.87,22.36Z"/><path class="cls-3" d="M11.88,17.2h3.57a1.34,1.34,0,0,1,1.34,1.34v5.83a1.34,1.34,0,0,1-1.34,1.34H11.88a.24.24,0,0,1-.24-.24v-8A.24.24,0,0,1,11.88,17.2Z"/><path class="cls-4" d="M116.28,17.2h3.57a1.34,1.34,0,0,1,1.34,1.34v5.83a1.34,1.34,0,0,1-1.34,1.34h-3.57a.24.24,0,0,1-.24-.24v-8a.24.24,0,0,1,.24-.24Z" transform="translate(237.23 42.91) rotate(-180)"/><path class="cls-5" d="M121.23,0c-1,0-1.85,1.34-1.85,2.38v131a5.22,5.22,0,0,1-5,5.36H18.42a5.22,5.22,0,0,1-5-5.36V2.17c0-.92-.77-2.17-1.69-2.17h-1a.38.38,0,0,0-.38.38V.53a.34.34,0,0,0,.38.36h.67A1.12,1.12,0,0,1,12.38,2V133.37a6.21,6.21,0,0,0,6,6.36h95.92a6.21,6.21,0,0,0,6-6.36V2a1.07,1.07,0,0,1,1-1.14h.73a.37.37,0,0,0,.27-.12.36.36,0,0,0,.1-.27V.37a.37.37,0,0,0-.38-.37Z"/><path class="cls-6" d="M119.36,0H11.69c.92,0,1.69,1.25,1.69,2.17v131.2a5.22,5.22,0,0,0,5,5.36h95.92a5.22,5.22,0,0,0,5-5.36V2.38c0-1,.82-2.38,1.85-2.38Z"/><path class="cls-7" d="M119.36,0H11.69c.92,0,1.69,1.25,1.69,2.17v131.2a5.22,5.22,0,0,0,5,5.36h95.92a5.22,5.22,0,0,0,5-5.36V2.38c0-1,.82-2.38,1.85-2.38Z"/></g></g></svg>