<svg xmlns="http://www.w3.org/2000/svg" xmlns:xlink="http://www.w3.org/1999/xlink" viewBox="0 0 126.13 319.94"><defs><style>.cls-1{isolation:isolate;}.cls-2{fill:url(#linear-gradient);}.cls-3{fill:url(#linear-gradient-2);}.cls-4{fill:url(#linear-gradient-3);}.cls-5{mix-blend-mode:multiply;opacity:0.71;fill:url(#linear-gradient-4);}.cls-6{fill:#c6c4a5;}.cls-7{fill:#fff;}.cls-8{fill:#1a1a1a;}.cls-9{fill:url(#linear-gradient-5);}.cls-10{fill:url(#radial-gradient);}.cls-11{fill:url(#linear-gradient-6);}</style><linearGradient id="linear-gradient" x1="126.13" y1="245.98" x2="0.13" y2="245.98" gradientUnits="userSpaceOnUse"><stop offset="0" stop-color="#3e3f40"/><stop offset="0.08" stop-color="#333"/><stop offset="0.23" stop-color="#666"/><stop offset="0.29" stop-color="gray"/><stop offset="0.36" stop-color="#b3b3b3"/><stop offset="0.48" stop-color="#868686"/><stop offset="0.57" stop-color="#666"/><stop offset="0.82" stop-color="#4d4d4d"/><stop offset="0.93" stop-color="#333"/><stop offset="1" stop-color="#373839"/></linearGradient><linearGradient id="linear-gradient-2" x1="63.13" y1="184.1" x2="63.13" y2="307.86" gradientUnits="userSpaceOnUse"><stop offset="0.92" stop-opacity="0"/><stop offset="0.95" stop-color="#0b0b0b" stop-opacity="0.13"/><stop offset="0.98" stop-color="#2a2a2a" stop-opacity="0.49"/><stop offset="0.99" stop-color="#333" stop-opacity="0.6"/></linearGradient><linearGradient id="linear-gradient-3" x1="0.1" y1="251.92" x2="126.1" y2="251.92" gradientUnits="userSpaceOnUse"><stop offset="0.08" stop-color="#6a6c6e"/><stop offset="0.27" stop-color="#d9dadb"/><stop offset="0.28" stop-color="#d6d7d8"/><stop offset="0.37" stop-color="#a4a6a7"/><stop offset="0.41" stop-color="#a8a8a8"/><stop offset="0.49" stop-color="#8e8e8e"/><stop offset="0.68" stop-color="#747577"/><stop offset="0.7" stop-color="#707172"/><stop offset="0.74" stop-color="#686868"/><stop offset="0.82" stop-color="#939393"/><stop offset="0.93" stop-color="#5b5b5b"/></linearGradient><linearGradient id="linear-gradient-4" x1="125.1" y1="315.33" x2="1.1" y2="315.33" gradientUnits="userSpaceOnUse"><stop offset="0" stop-color="#3e3f40"/><stop offset="0.08" stop-color="#333"/><stop offset="0.57" stop-color="#666"/><stop offset="0.82" stop-color="#4d4d4d"/><stop offset="0.93" stop-color="#333"/><stop offset="1" stop-color="#373839"/></linearGradient><linearGradient id="linear-gradient-5" x1="7.14" y1="94.02" x2="119.24" y2="94.02" gradientUnits="userSpaceOnUse"><stop offset="0" stop-color="#babbbd"/><stop offset="0.39" stop-color="#d9dadb"/><stop offset="0.4" stop-color="#d8d9da"/><stop offset="0.44" stop-color="#a8a8a8"/><stop offset="0.85" stop-color="#8e8e8e"/><stop offset="0.99" stop-color="#e6e6e6"/></linearGradient><radialGradient id="radial-gradient" cx="57.06" cy="222.74" r="225.73" gradientUnits="userSpaceOnUse"><stop offset="0" stop-color="#252627"/><stop offset="0.21" stop-color="#4d4d4d"/><stop offset="0.26" stop-color="#676767"/><stop offset="0.28" stop-color="#4d4d4d"/><stop offset="0.36" stop-color="#343434"/><stop offset="0.93" stop-color="#1a1a1a"/><stop offset="1" stop-color="#1e1f20"/></radialGradient><linearGradient id="linear-gradient-6" x1="47.16" y1="78.85" x2="77.08" y2="78.85" gradientUnits="userSpaceOnUse"><stop offset="0" stop-color="#3e3f40"/><stop offset="0.1" stop-color="#6a6c6e"/><stop offset="0.12" stop-color="#727476"/><stop offset="0.26" stop-color="#a4a6a7"/><stop offset="0.28" stop-color="#a8a8a8"/><stop offset="0.45" stop-color="#8e8e8e"/><stop offset="0.63" stop-color="#747577"/><stop offset="0.75" stop-color="#515151"/><stop offset="0.89" stop-color="#5b5b5b"/><stop offset="1" stop-color="#373839"/></linearGradient></defs><g class="cls-1"><g id="Layer_2" data-name="Layer 2"><g id="Layer_1-2" data-name="Layer 1"><path class="cls-2" d="M4.6,184.1H121.66a4.47,4.47,0,0,1,4.47,4.47V307.86a0,0,0,0,1,0,0H.13a0,0,0,0,1,0,0V188.57A4.47,4.47,0,0,1,4.6,184.1Z"/><path class="cls-3" d="M121.66,184.1H4.6a4.47,4.47,0,0,0-4.47,4.47V307.86h126V188.57A4.47,4.47,0,0,0,121.66,184.1Z"/><path class="cls-4" d="M121.63,183.9H118.2a1.12,1.12,0,0,0-1.1,1.15V299a6.2,6.2,0,0,1-6,6.35H15.14a6.21,6.21,0,0,1-6-6.35v-114A1.12,1.12,0,0,0,8,183.9H4.58A4.59,4.59,0,0,0,.1,188.6V319.94h126V188.6A4.59,4.59,0,0,0,121.63,183.9Z"/><rect class="cls-5" x="1.1" y="310.72" width="124" height="9.22"/><path class="cls-6" d="M1.1,318V188.6A3.57,3.57,0,0,1,4.58,185H8a.09.09,0,0,1,.09.1V299a7.24,7.24,0,0,0,7,7.4h95.92a7.23,7.23,0,0,0,7-7.4v-114a.09.09,0,0,1,.1-.1h3.43a3.56,3.56,0,0,1,3.47,3.65V318C123.09,311.92,3,311.92,1.1,318Z"/><path class="cls-7" d="M9.09,185.05A1.15,1.15,0,0,0,8.33,184a9.72,9.72,0,0,0-1.43,0c-1,0-1.92,0-2.86,0A4.58,4.58,0,0,0,.23,187.7a22.51,22.51,0,0,0-.07,2.85l0,2.87,0,5.74v23L.12,268.05h0L0,222.13v-23l0-5.74,0-2.87a21.24,21.24,0,0,1,.1-2.87A4.62,4.62,0,0,1,4,183.91c1-.08,1.91,0,2.87,0a8.67,8.67,0,0,1,1.44.05,1.18,1.18,0,0,1,.78,1.12Z"/><path class="cls-7" d="M121.66,183.9h-2.43c-.4,0-.82,0-1.21,0a1.09,1.09,0,0,0-.81.78c-.09,1.6,0,3.23,0,4.85l0,9.71,0,19.42c0,13,0,25.9-.12,38.85-.11-13-.08-25.9-.13-38.85l0-19.42,0-9.71c0-1.63,0-3.24.08-4.86a1.13,1.13,0,0,1,.86-.81c.41,0,.81,0,1.22,0Z"/><path class="cls-8" d="M125.13,317.94a1.43,1.43,0,0,0-.71-.64,7,7,0,0,0-.9-.36,18,18,0,0,0-1.89-.48c-1.28-.26-2.56-.45-3.86-.62-2.58-.32-5.17-.54-7.77-.72-5.2-.38-10.4-.62-15.61-.78q-15.63-.51-31.26-.47t-31.26.47c-5.21.16-10.42.39-15.61.78-2.6.18-5.2.4-7.78.72-1.29.16-2.58.36-3.85.62a14.94,14.94,0,0,0-1.89.48,7,7,0,0,0-.9.36,1.39,1.39,0,0,0-.71.64,1.45,1.45,0,0,1,.69-.67,5.91,5.91,0,0,1,.89-.4,18.35,18.35,0,0,1,1.88-.56c1.27-.3,2.56-.53,3.85-.73,2.58-.4,5.18-.7,7.78-.95,5.19-.48,10.4-.8,15.61-1.06,10.43-.5,20.86-.65,31.3-.7s20.87.2,31.29.7c5.21.26,10.42.58,15.62,1.06,2.6.26,5.19.55,7.77.95,1.29.21,2.58.43,3.85.73a17,17,0,0,1,1.88.56,6,6,0,0,1,.9.4A1.49,1.49,0,0,1,125.13,317.94Z"/><path class="cls-9" d="M96.05,164.15h-19V4.47A4.48,4.48,0,0,0,72.6,0h-21a4.48,4.48,0,0,0-4.48,4.47V164.15H30.34c-12.81,0-23.2,8.84-23.2,19.75h1a1.12,1.12,0,0,1,1.1,1.15h0v3h108V185a1.1,1.1,0,0,1,1.1-1.1h.94C119.24,173,108.86,164.15,96.05,164.15Z"/><path class="cls-10" d="M96.05,165.15h-20v-7.8c-1.62-.73-3.45-11-6-11.14-6.47-.35-6.87-1.77-8.74-3.7s-4.27,4.39-7.3,4c-2-.26-4.23-1.75-5.9-3.09v21.74H30.34c-11.77,0-21.43,7.79-22.14,17.59a.15.15,0,0,0,.15.16,1.84,1.84,0,0,1,1.84,1.84v3.31h106v-3.28a1.88,1.88,0,0,1,1.88-1.87c.08,0,.12,0,.12-.1C117.53,173,107.85,165.15,96.05,165.15Z"/><path class="cls-11" d="M72.65,0H51.59a4.45,4.45,0,0,0-4.43,4.46V146.29l29.92,11.42V4.46A4.44,4.44,0,0,0,72.65,0Z"/></g></g></g></svg>