<svg xmlns="http://www.w3.org/2000/svg" xmlns:xlink="http://www.w3.org/1999/xlink" viewBox="0 0 60.98 66.67"><defs><style>.cls-1{fill:#ccc;}.cls-2{fill:url(#linear-gradient);}.cls-3{fill:url(#linear-gradient-2);}.cls-4{fill:none;stroke:#ccc;stroke-miterlimit:10;}.cls-5{fill:url(#linear-gradient-3);}.cls-6{fill:#ededed;}.cls-7{fill:url(#linear-gradient-4);}.cls-8{fill:url(#linear-gradient-5);}.cls-9{fill:url(#linear-gradient-6);}.cls-10{fill:url(#linear-gradient-7);}.cls-11{fill:url(#linear-gradient-8);}.cls-12{fill:url(#linear-gradient-9);}.cls-13{fill:url(#linear-gradient-10);}.cls-14{fill:url(#linear-gradient-11);}.cls-15{fill:url(#linear-gradient-12);}.cls-16{fill:url(#linear-gradient-13);}.cls-17{fill:url(#linear-gradient-14);}.cls-18{fill:url(#linear-gradient-15);}</style><linearGradient id="linear-gradient" x1="23.83" y1="16.87" x2="23.83" y2="2.49" gradientUnits="userSpaceOnUse"><stop offset="0" stop-color="#3e3f40"/><stop offset="0.08" stop-color="#333"/><stop offset="0.23" stop-color="#666"/><stop offset="0.29" stop-color="gray"/><stop offset="0.36" stop-color="#b3b3b3"/><stop offset="0.48" stop-color="#868686"/><stop offset="0.57" stop-color="#666"/><stop offset="0.82" stop-color="#4d4d4d"/><stop offset="0.93" stop-color="#333"/><stop offset="1" stop-color="#373839"/></linearGradient><linearGradient id="linear-gradient-2" x1="-258.84" y1="-728.16" x2="-258.84" y2="-742.54" gradientTransform="translate(759.18 -237.48) rotate(-90)" gradientUnits="userSpaceOnUse"><stop offset="0.04" stop-color="#3e3f40"/><stop offset="0.11" stop-color="#666"/><stop offset="0.15" stop-color="#818181"/><stop offset="0.23" stop-color="#b3b3b3"/><stop offset="0.42" stop-color="#909090"/><stop offset="0.46" stop-color="#868686"/><stop offset="0.59" stop-color="#666"/><stop offset="0.84" stop-color="#4d4d4d"/><stop offset="0.95" stop-color="#373839"/></linearGradient><linearGradient id="linear-gradient-3" x1="3511.6" y1="-35.22" x2="3511.6" y2="-7.12" gradientTransform="matrix(0, 1, 1, 0, 45, -3477.09)" gradientUnits="userSpaceOnUse"><stop offset="0" stop-color="#3e3f40"/><stop offset="0.08" stop-color="#6a6c6e"/><stop offset="0.27" stop-color="#d9dadb"/><stop offset="0.28" stop-color="#d6d7d8"/><stop offset="0.37" stop-color="#a4a6a7"/><stop offset="0.41" stop-color="#a8a8a8"/><stop offset="0.49" stop-color="#8e8e8e"/><stop offset="0.68" stop-color="#747577"/><stop offset="0.7" stop-color="#707172"/><stop offset="0.74" stop-color="#686868"/><stop offset="0.82" stop-color="#939393"/><stop offset="0.93" stop-color="#5b5b5b"/><stop offset="1" stop-color="#373839"/></linearGradient><linearGradient id="linear-gradient-4" x1="-788.42" y1="-168.92" x2="-788.42" y2="-172.61" gradientTransform="matrix(0, -1, -1, 0, -146.94, -767.96)" xlink:href="#linear-gradient-3"/><linearGradient id="linear-gradient-5" x1="98" y1="-1468.03" x2="100.46" y2="-1468.03" gradientTransform="matrix(1, 0, 0, -1, -75.51, -1415.2)" gradientUnits="userSpaceOnUse"><stop offset="0" stop-color="#0b1110"/><stop offset="0.08" stop-color="#373e3e"/><stop offset="0.27" stop-color="#a6acab"/><stop offset="0.28" stop-color="#a3a9a8"/><stop offset="0.37" stop-color="#717877"/><stop offset="0.41" stop-color="#757a78"/><stop offset="0.49" stop-color="#5b605e"/><stop offset="0.68" stop-color="#414747"/><stop offset="0.7" stop-color="#3d4342"/><stop offset="0.74" stop-color="#353a38"/><stop offset="0.82" stop-color="#606563"/><stop offset="0.93" stop-color="#282d2b"/><stop offset="1" stop-color="#040a09"/></linearGradient><linearGradient id="linear-gradient-6" x1="-803.05" y1="-431.71" x2="-803.05" y2="-443.2" gradientTransform="matrix(1, 0, 0, -1, 826.77, -397.57)" xlink:href="#linear-gradient-3"/><linearGradient id="linear-gradient-7" x1="97.58" y1="-1469.67" x2="100.89" y2="-1469.67" gradientTransform="matrix(1, 0, 0, -1, -75.51, -1415.2)" gradientUnits="userSpaceOnUse"><stop offset="0" stop-color="#646566"/><stop offset="0.34" stop-color="#e6e6e6"/><stop offset="0.44" stop-color="#cacccd"/><stop offset="0.55" stop-color="#b4b4b4"/><stop offset="0.65" stop-color="#9a9b9d"/><stop offset="0.8" stop-color="#818181"/><stop offset="0.93" stop-color="#5d5e5f"/></linearGradient><linearGradient id="linear-gradient-8" x1="97.58" y1="-1465.93" x2="100.89" y2="-1465.93" xlink:href="#linear-gradient-7"/><linearGradient id="linear-gradient-9" x1="97.06" y1="-1461.92" x2="101.4" y2="-1461.92" xlink:href="#linear-gradient-5"/><linearGradient id="linear-gradient-10" x1="96.89" y1="-1463.8" x2="101.58" y2="-1463.8" xlink:href="#linear-gradient-7"/><linearGradient id="linear-gradient-11" x1="96.89" y1="-1462.62" x2="101.58" y2="-1462.62" xlink:href="#linear-gradient-7"/><linearGradient id="linear-gradient-12" x1="96.89" y1="-1461.54" x2="101.58" y2="-1461.54" xlink:href="#linear-gradient-7"/><linearGradient id="linear-gradient-13" x1="96.89" y1="-1460.45" x2="101.58" y2="-1460.45" xlink:href="#linear-gradient-7"/><linearGradient id="linear-gradient-14" x1="-805.41" y1="-435.15" x2="-810.01" y2="-439.76" gradientTransform="matrix(1, 0, 0, -1, 831.43, -392.91)" xlink:href="#linear-gradient-3"/><linearGradient id="linear-gradient-15" x1="-805.01" y1="-436.23" x2="-809.26" y2="-438.68" gradientTransform="matrix(1, 0, 0, -1, 830.85, -393.48)" gradientUnits="userSpaceOnUse"><stop offset="0" stop-color="#1a1a1a"/><stop offset="0.23" stop-color="#666"/><stop offset="1" stop-color="#1a1a1a"/></linearGradient></defs><g id="Layer_2" data-name="Layer 2"><g id="Layer_1-2" data-name="Layer 1"><rect class="cls-1" width="47.67" height="19.36"/><rect class="cls-2" y="2.49" width="47.67" height="14.37"/><rect class="cls-1" x="16.02" y="15" width="15.63" height="19.36" transform="translate(-0.85 48.51) rotate(-90)"/><path class="cls-3" d="M31,16.87V32.49H16.65V16.87s1-6.63,7.18-6.63S31,16.87,31,16.87Z"/><path class="cls-4" d="M23.72,45.79V57.2a9,9,0,0,0,9,9H61"/><rect class="cls-5" x="9.78" y="33.17" width="28.1" height="2.67"/><ellipse class="cls-6" cx="21.37" cy="33.24" rx="10.67" ry="0.07"/><path class="cls-7" d="M22,8.61V33.17h3.69V8.61c0-.48-.83-.86-1.85-.86h0C22.81,7.75,22,8.13,22,8.61Z"/><rect class="cls-8" x="22.49" y="52.33" width="2.46" height="1.02"/><rect class="cls-9" x="19.92" y="34.14" width="7.59" height="11.49" transform="translate(-16.16 63.6) rotate(-90)"/><path class="cls-10" d="M22.07,53h3.31a0,0,0,0,1,0,0v2.32a.7.7,0,0,1-.7.7h-1.9a.7.7,0,0,1-.7-.7V53A0,0,0,0,1,22.07,53Z"/><rect class="cls-11" x="22.07" y="48.93" width="3.31" height="3.61"/><rect class="cls-12" x="21.55" y="44.92" width="4.34" height="3.61"/><path class="cls-13" d="M21.37,48.14h4.69a0,0,0,0,1,0,0v.3a.62.62,0,0,1-.62.62H22a.62.62,0,0,1-.62-.62v-.3A0,0,0,0,1,21.37,48.14Z"/><rect class="cls-14" x="21.37" y="47.04" width="4.69" height="0.77"/><rect class="cls-15" x="21.37" y="45.96" width="4.69" height="0.77"/><rect class="cls-16" x="21.37" y="44.87" width="4.69" height="0.77"/><rect class="cls-17" x="23.52" y="40.14" width="0.4" height="8.81" transform="translate(-20.82 68.27) rotate(-90)"/><rect class="cls-18" x="23.43" y="39.57" width="0.58" height="8.81" transform="translate(-20.25 67.69) rotate(-90)"/><ellipse class="cls-6" cx="21.13" cy="43.66" rx="2.33" ry="0.04"/><ellipse class="cls-6" cx="23.06" cy="52.53" rx="0.83" ry="0.01"/><ellipse class="cls-6" cx="23.24" cy="55.99" rx="0.65" ry="0.01"/><ellipse class="cls-6" cx="23.06" cy="45.64" rx="0.83" ry="0.02"/><ellipse class="cls-6" cx="23.06" cy="46.71" rx="0.83" ry="0.02"/><ellipse class="cls-6" cx="23.06" cy="47.81" rx="0.83" ry="0.02"/><ellipse class="cls-6" cx="23.06" cy="49.06" rx="0.83" ry="0.02"/></g></g></svg>