<svg xmlns="http://www.w3.org/2000/svg" xmlns:xlink="http://www.w3.org/1999/xlink" viewBox="0 0 66.67 60.98"><defs><style>.cls-1{fill:#ccc;}.cls-2{fill:url(#linear-gradient);}.cls-3{fill:url(#linear-gradient-2);}.cls-4{fill:none;stroke:#ccc;stroke-miterlimit:10;}.cls-5{fill:url(#linear-gradient-3);}.cls-6{fill:#ededed;}.cls-7{fill:url(#linear-gradient-4);}.cls-8{fill:url(#linear-gradient-5);}.cls-9{fill:url(#linear-gradient-6);}.cls-10{fill:url(#linear-gradient-7);}.cls-11{fill:url(#linear-gradient-8);}.cls-12{fill:url(#linear-gradient-9);}.cls-13{fill:url(#linear-gradient-10);}.cls-14{fill:url(#linear-gradient-11);}.cls-15{fill:url(#linear-gradient-12);}.cls-16{fill:url(#linear-gradient-13);}.cls-17{fill:url(#linear-gradient-14);}.cls-18{fill:url(#linear-gradient-15);}</style><linearGradient id="linear-gradient" x1="525.29" y1="-545.28" x2="525.29" y2="-559.65" gradientTransform="translate(-468.31 576.3)" gradientUnits="userSpaceOnUse"><stop offset="0" stop-color="#3e3f40"/><stop offset="0.08" stop-color="#333"/><stop offset="0.23" stop-color="#666"/><stop offset="0.29" stop-color="gray"/><stop offset="0.36" stop-color="#b3b3b3"/><stop offset="0.48" stop-color="#868686"/><stop offset="0.57" stop-color="#666"/><stop offset="0.82" stop-color="#4d4d4d"/><stop offset="0.93" stop-color="#333"/><stop offset="1" stop-color="#373839"/></linearGradient><linearGradient id="linear-gradient-2" x1="426.56" y1="-170.52" x2="426.56" y2="-184.89" gradientTransform="translate(-381.26 201.54)" gradientUnits="userSpaceOnUse"><stop offset="0.04" stop-color="#3e3f40"/><stop offset="0.11" stop-color="#666"/><stop offset="0.15" stop-color="#818181"/><stop offset="0.23" stop-color="#b3b3b3"/><stop offset="0.42" stop-color="#909090"/><stop offset="0.46" stop-color="#868686"/><stop offset="0.59" stop-color="#666"/><stop offset="0.84" stop-color="#4d4d4d"/><stop offset="0.95" stop-color="#373839"/></linearGradient><linearGradient id="linear-gradient-3" x1="2893.27" y1="522.43" x2="2893.27" y2="550.53" gradientTransform="matrix(-1, 0, 0, 1, 2925.43, -512.65)" gradientUnits="userSpaceOnUse"><stop offset="0" stop-color="#3e3f40"/><stop offset="0.08" stop-color="#6a6c6e"/><stop offset="0.27" stop-color="#d9dadb"/><stop offset="0.28" stop-color="#d6d7d8"/><stop offset="0.37" stop-color="#a4a6a7"/><stop offset="0.41" stop-color="#a8a8a8"/><stop offset="0.49" stop-color="#8e8e8e"/><stop offset="0.68" stop-color="#747577"/><stop offset="0.7" stop-color="#707172"/><stop offset="0.74" stop-color="#686868"/><stop offset="0.82" stop-color="#939393"/><stop offset="0.93" stop-color="#5b5b5b"/><stop offset="1" stop-color="#373839"/></linearGradient><linearGradient id="linear-gradient-4" x1="-103.02" y1="-547.57" x2="-103.02" y2="-550.37" gradientTransform="matrix(1, 0, 0, -1, 149.23, -525.14)" xlink:href="#linear-gradient-3"/><linearGradient id="linear-gradient-5" x1="599.46" y1="-726.45" x2="601.92" y2="-726.45" gradientTransform="matrix(1, 0, 0, -1, -586.86, -702.73)" gradientUnits="userSpaceOnUse"><stop offset="0" stop-color="#0b1110"/><stop offset="0.08" stop-color="#373e3e"/><stop offset="0.27" stop-color="#a6acab"/><stop offset="0.28" stop-color="#a3a9a8"/><stop offset="0.37" stop-color="#717877"/><stop offset="0.41" stop-color="#757a78"/><stop offset="0.49" stop-color="#5b605e"/><stop offset="0.68" stop-color="#414747"/><stop offset="0.7" stop-color="#3d4342"/><stop offset="0.74" stop-color="#353a38"/><stop offset="0.82" stop-color="#606563"/><stop offset="0.93" stop-color="#282d2b"/><stop offset="1" stop-color="#040a09"/></linearGradient><linearGradient id="linear-gradient-6" x1="-117.65" y1="-809.91" x2="-117.65" y2="-821.4" gradientTransform="matrix(1, 0, 0, -1, 144.43, -791.94)" xlink:href="#linear-gradient-3"/><linearGradient id="linear-gradient-7" x1="599.04" y1="-728.08" x2="602.35" y2="-728.08" gradientTransform="matrix(1, 0, 0, -1, -588.5, -704.36)" gradientUnits="userSpaceOnUse"><stop offset="0" stop-color="#646566"/><stop offset="0.34" stop-color="#e6e6e6"/><stop offset="0.44" stop-color="#cacccd"/><stop offset="0.55" stop-color="#b4b4b4"/><stop offset="0.65" stop-color="#9a9b9d"/><stop offset="0.8" stop-color="#818181"/><stop offset="0.93" stop-color="#5d5e5f"/></linearGradient><linearGradient id="linear-gradient-8" x1="599.04" y1="-724.34" x2="602.35" y2="-724.34" gradientTransform="matrix(1, 0, 0, -1, -584.76, -700.62)" xlink:href="#linear-gradient-7"/><linearGradient id="linear-gradient-9" x1="598.52" y1="-720.34" x2="602.87" y2="-720.34" gradientTransform="matrix(1, 0, 0, -1, -580.75, -696.61)" xlink:href="#linear-gradient-5"/><linearGradient id="linear-gradient-10" x1="598.35" y1="-722.21" x2="603.04" y2="-722.21" gradientTransform="matrix(1, 0, 0, -1, -582.63, -698.49)" xlink:href="#linear-gradient-7"/><linearGradient id="linear-gradient-11" x1="598.35" y1="-721.04" x2="603.04" y2="-721.04" gradientTransform="matrix(1, 0, 0, -1, -581.45, -697.32)" xlink:href="#linear-gradient-7"/><linearGradient id="linear-gradient-12" x1="598.35" y1="-719.95" x2="603.04" y2="-719.95" gradientTransform="matrix(1, 0, 0, -1, -580.37, -696.23)" xlink:href="#linear-gradient-7"/><linearGradient id="linear-gradient-13" x1="598.35" y1="-718.86" x2="603.04" y2="-718.86" gradientTransform="matrix(1, 0, 0, -1, -579.28, -695.14)" xlink:href="#linear-gradient-7"/><linearGradient id="linear-gradient-14" x1="-120" y1="-813.35" x2="-124.61" y2="-817.96" gradientTransform="matrix(1, 0, 0, -1, 144.43, -791.94)" xlink:href="#linear-gradient-3"/><linearGradient id="linear-gradient-15" x1="-119.61" y1="-814.43" x2="-123.86" y2="-816.88" gradientTransform="matrix(1, 0, 0, -1, 144.43, -791.94)" gradientUnits="userSpaceOnUse"><stop offset="0" stop-color="#1a1a1a"/><stop offset="0.23" stop-color="#666"/><stop offset="1" stop-color="#1a1a1a"/></linearGradient></defs><g id="Layer_2" data-name="Layer 2"><g id="Layer_1-2" data-name="Layer 1"><rect class="cls-1" x="33.16" y="14.15" width="47.67" height="19.36" transform="translate(80.82 -33.16) rotate(90)"/><rect class="cls-2" x="33.16" y="16.65" width="47.67" height="14.37" transform="translate(80.82 -33.16) rotate(90)"/><rect class="cls-1" x="34.18" y="14.15" width="15.63" height="19.36"/><path class="cls-3" d="M49.8,31H34.18V16.65H49.8s6.63,1,6.63,7.18S49.8,31,49.8,31Z"/><path class="cls-4" d="M20.88,23.72H9.47a9,9,0,0,0-9,9V61"/><rect class="cls-5" x="30.82" y="9.78" width="2.67" height="28.1"/><ellipse class="cls-6" cx="33.43" cy="21.37" rx="0.07" ry="10.67"/><path class="cls-7" d="M58.06,22.43H33.5v2.8H58.06c.47,0,.86-.62.86-1.4h0C58.92,23.06,58.53,22.43,58.06,22.43Z"/><rect class="cls-8" x="12.6" y="23.21" width="2.46" height="1.02" transform="translate(37.55 9.89) rotate(90)"/><rect class="cls-9" x="22.99" y="17.98" width="7.59" height="11.49"/><path class="cls-10" d="M10.54,22.21h3.31a0,0,0,0,1,0,0v2.32a.7.7,0,0,1-.7.7h-1.9a.7.7,0,0,1-.7-.7V22.21A0,0,0,0,1,10.54,22.21Z" transform="translate(35.92 11.52) rotate(90)"/><rect class="cls-11" x="14.28" y="21.92" width="3.31" height="3.61" transform="translate(39.66 7.78) rotate(90)"/><rect class="cls-12" x="17.77" y="21.92" width="4.34" height="3.61" transform="translate(43.66 3.78) rotate(90)"/><path class="cls-13" d="M15.72,23.26h4.69a0,0,0,0,1,0,0v.3a.62.62,0,0,1-.62.62H16.34a.62.62,0,0,1-.62-.62v-.3A0,0,0,0,1,15.72,23.26Z" transform="translate(41.78 5.66) rotate(90)"/><rect class="cls-14" x="16.89" y="23.33" width="4.69" height="0.77" transform="translate(42.96 4.48) rotate(90)"/><rect class="cls-15" x="17.98" y="23.33" width="4.69" height="0.77" transform="translate(44.05 3.39) rotate(90)"/><rect class="cls-16" x="19.07" y="23.33" width="4.69" height="0.77" transform="translate(45.13 2.31) rotate(90)"/><rect class="cls-17" x="21.92" y="19.32" width="0.4" height="8.81"/><rect class="cls-18" x="22.41" y="19.32" width="0.58" height="8.81"/><ellipse class="cls-6" cx="23.01" cy="21.13" rx="0.04" ry="2.33"/><ellipse class="cls-6" cx="14.13" cy="23.06" rx="0.01" ry="0.83"/><ellipse class="cls-6" cx="10.68" cy="23.24" rx="0.01" ry="0.65"/><ellipse class="cls-6" cx="21.03" cy="23.06" rx="0.02" ry="0.83"/><ellipse class="cls-6" cx="19.96" cy="23.06" rx="0.02" ry="0.83"/><ellipse class="cls-6" cx="18.85" cy="23.06" rx="0.02" ry="0.83"/><ellipse class="cls-6" cx="17.6" cy="23.06" rx="0.02" ry="0.83"/></g></g></svg>