<svg xmlns="http://www.w3.org/2000/svg" xmlns:xlink="http://www.w3.org/1999/xlink" viewBox="0 0 66.67 83.95"><defs><style>.cls-1{fill:#ccc;}.cls-2{fill:url(#linear-gradient);}.cls-3{fill:url(#linear-gradient-2);}.cls-4{fill:none;stroke:#ccc;stroke-miterlimit:10;}.cls-5{fill:url(#linear-gradient-3);}.cls-6{fill:#ededed;}.cls-7{fill:url(#linear-gradient-4);}.cls-8{fill:url(#linear-gradient-5);}.cls-9{fill:url(#linear-gradient-6);}.cls-10{fill:url(#linear-gradient-7);}.cls-11{fill:url(#linear-gradient-8);}.cls-12{fill:url(#linear-gradient-9);}.cls-13{fill:url(#linear-gradient-10);}.cls-14{fill:url(#linear-gradient-11);}.cls-15{fill:url(#linear-gradient-12);}.cls-16{fill:url(#linear-gradient-13);}.cls-17{fill:url(#linear-gradient-14);}.cls-18{fill:url(#linear-gradient-15);}</style><linearGradient id="linear-gradient" x1="409.56" y1="-178.1" x2="409.56" y2="-192.47" gradientTransform="translate(-352.57 227.26)" gradientUnits="userSpaceOnUse"><stop offset="0" stop-color="#3e3f40"/><stop offset="0.08" stop-color="#333"/><stop offset="0.23" stop-color="#666"/><stop offset="0.29" stop-color="gray"/><stop offset="0.36" stop-color="#b3b3b3"/><stop offset="0.48" stop-color="#868686"/><stop offset="0.57" stop-color="#666"/><stop offset="0.82" stop-color="#4d4d4d"/><stop offset="0.93" stop-color="#333"/><stop offset="1" stop-color="#373839"/></linearGradient><linearGradient id="linear-gradient-2" x1="426.56" y1="-142.79" x2="426.56" y2="-157.17" gradientTransform="translate(-381.26 201.54)" gradientUnits="userSpaceOnUse"><stop offset="0.04" stop-color="#3e3f40"/><stop offset="0.11" stop-color="#666"/><stop offset="0.15" stop-color="#818181"/><stop offset="0.23" stop-color="#b3b3b3"/><stop offset="0.42" stop-color="#909090"/><stop offset="0.46" stop-color="#868686"/><stop offset="0.59" stop-color="#666"/><stop offset="0.84" stop-color="#4d4d4d"/><stop offset="0.95" stop-color="#373839"/></linearGradient><linearGradient id="linear-gradient-3" x1="3126.57" y1="550.15" x2="3126.57" y2="578.26" gradientTransform="matrix(-1, 0, 0, 1, 3158.73, -512.65)" gradientUnits="userSpaceOnUse"><stop offset="0" stop-color="#3e3f40"/><stop offset="0.08" stop-color="#6a6c6e"/><stop offset="0.27" stop-color="#d9dadb"/><stop offset="0.28" stop-color="#d6d7d8"/><stop offset="0.37" stop-color="#a4a6a7"/><stop offset="0.41" stop-color="#a8a8a8"/><stop offset="0.49" stop-color="#8e8e8e"/><stop offset="0.68" stop-color="#747577"/><stop offset="0.7" stop-color="#707172"/><stop offset="0.74" stop-color="#686868"/><stop offset="0.82" stop-color="#939393"/><stop offset="0.93" stop-color="#5b5b5b"/><stop offset="1" stop-color="#373839"/></linearGradient><linearGradient id="linear-gradient-4" x1="47.44" y1="50.18" x2="47.44" y2="52.94" gradientTransform="matrix(1, 0, 0, 1, 0, 0)" xlink:href="#linear-gradient-3"/><linearGradient id="linear-gradient-5" x1="493.31" y1="-592.57" x2="495.77" y2="-592.57" gradientTransform="matrix(1, 0, 0, -1, -480.71, -541.13)" gradientUnits="userSpaceOnUse"><stop offset="0" stop-color="#0b1110"/><stop offset="0.08" stop-color="#373e3e"/><stop offset="0.27" stop-color="#a6acab"/><stop offset="0.28" stop-color="#a3a9a8"/><stop offset="0.37" stop-color="#717877"/><stop offset="0.41" stop-color="#757a78"/><stop offset="0.49" stop-color="#5b605e"/><stop offset="0.68" stop-color="#414747"/><stop offset="0.7" stop-color="#3d4342"/><stop offset="0.74" stop-color="#353a38"/><stop offset="0.82" stop-color="#606563"/><stop offset="0.93" stop-color="#282d2b"/><stop offset="1" stop-color="#040a09"/></linearGradient><linearGradient id="linear-gradient-6" x1="-117.65" y1="-336.58" x2="-117.65" y2="-348.07" gradientTransform="matrix(1, 0, 0, -1, 144.43, -290.88)" xlink:href="#linear-gradient-3"/><linearGradient id="linear-gradient-7" x1="492.89" y1="-594.2" x2="496.2" y2="-594.2" gradientTransform="matrix(1, 0, 0, -1, -482.35, -542.76)" gradientUnits="userSpaceOnUse"><stop offset="0" stop-color="#646566"/><stop offset="0.34" stop-color="#e6e6e6"/><stop offset="0.44" stop-color="#cacccd"/><stop offset="0.55" stop-color="#b4b4b4"/><stop offset="0.65" stop-color="#9a9b9d"/><stop offset="0.8" stop-color="#818181"/><stop offset="0.93" stop-color="#5d5e5f"/></linearGradient><linearGradient id="linear-gradient-8" x1="492.89" y1="-590.47" x2="496.2" y2="-590.47" gradientTransform="matrix(1, 0, 0, -1, -478.61, -539.02)" xlink:href="#linear-gradient-7"/><linearGradient id="linear-gradient-9" x1="492.37" y1="-586.46" x2="496.72" y2="-586.46" gradientTransform="matrix(1, 0, 0, -1, -474.6, -535.01)" xlink:href="#linear-gradient-5"/><linearGradient id="linear-gradient-10" x1="492.2" y1="-588.34" x2="496.89" y2="-588.34" gradientTransform="matrix(1, 0, 0, -1, -476.48, -536.89)" xlink:href="#linear-gradient-7"/><linearGradient id="linear-gradient-11" x1="492.2" y1="-587.16" x2="496.89" y2="-587.16" gradientTransform="matrix(1, 0, 0, -1, -475.3, -535.72)" xlink:href="#linear-gradient-7"/><linearGradient id="linear-gradient-12" x1="492.2" y1="-586.07" x2="496.89" y2="-586.07" gradientTransform="matrix(1, 0, 0, -1, -474.22, -534.63)" xlink:href="#linear-gradient-7"/><linearGradient id="linear-gradient-13" x1="492.2" y1="-584.99" x2="496.89" y2="-584.99" gradientTransform="matrix(1, 0, 0, -1, -473.13, -533.54)" xlink:href="#linear-gradient-7"/><linearGradient id="linear-gradient-14" x1="-120" y1="-340.03" x2="-124.61" y2="-344.63" gradientTransform="matrix(1, 0, 0, -1, 144.43, -290.88)" xlink:href="#linear-gradient-3"/><linearGradient id="linear-gradient-15" x1="-119.61" y1="-341.1" x2="-123.86" y2="-343.55" gradientTransform="matrix(1, 0, 0, -1, 144.43, -290.88)" gradientUnits="userSpaceOnUse"><stop offset="0" stop-color="#1a1a1a"/><stop offset="0.23" stop-color="#666"/><stop offset="1" stop-color="#1a1a1a"/></linearGradient></defs><g id="Layer_2" data-name="Layer 2"><g id="Layer_1-2" data-name="Layer 1"><rect class="cls-1" x="15.01" y="32.3" width="83.95" height="19.36" transform="translate(98.96 -15.01) rotate(90)"/><rect class="cls-2" x="15.01" y="34.79" width="83.95" height="14.37" transform="translate(98.96 -15.01) rotate(90)"/><rect class="cls-1" x="34.18" y="41.88" width="15.63" height="19.36"/><path class="cls-3" d="M49.8,58.74H34.18V44.37H49.8s6.63,1,6.63,7.19S49.8,58.74,49.8,58.74Z"/><path class="cls-4" d="M20.88,51.45H9.47a9,9,0,0,0-9,9V77.2"/><rect class="cls-5" x="30.82" y="37.51" width="2.67" height="28.1"/><ellipse class="cls-6" cx="33.43" cy="49.1" rx="0.07" ry="10.67"/><path class="cls-7" d="M60.85,50.18H33.5v2.76H60.85c.53,0,.53,0,.53-1.38S61.38,50.18,60.85,50.18Z"/><rect class="cls-8" x="12.6" y="50.94" width="2.46" height="1.02" transform="translate(65.27 37.62) rotate(90)"/><rect class="cls-9" x="22.99" y="45.7" width="7.59" height="11.49"/><path class="cls-10" d="M10.54,49.93h3.31a0,0,0,0,1,0,0v2.32a.7.7,0,0,1-.7.7h-1.9a.7.7,0,0,1-.7-.7V49.93A0,0,0,0,1,10.54,49.93Z" transform="translate(63.64 39.25) rotate(90)"/><rect class="cls-11" x="14.28" y="49.64" width="3.31" height="3.61" transform="translate(67.38 35.51) rotate(90)"/><rect class="cls-12" x="17.77" y="49.64" width="4.34" height="3.61" transform="translate(71.39 31.5) rotate(90)"/><path class="cls-13" d="M15.72,51h4.69a0,0,0,0,1,0,0v.3a.62.62,0,0,1-.62.62H16.34a.62.62,0,0,1-.62-.62V51A0,0,0,0,1,15.72,51Z" transform="translate(69.51 33.38) rotate(90)"/><rect class="cls-14" x="16.89" y="51.06" width="4.69" height="0.77" transform="translate(70.69 32.2) rotate(90)"/><rect class="cls-15" x="17.98" y="51.06" width="4.69" height="0.77" transform="translate(71.77 31.12) rotate(90)"/><rect class="cls-16" x="19.07" y="51.06" width="4.69" height="0.77" transform="translate(72.86 30.03) rotate(90)"/><rect class="cls-17" x="21.92" y="47.04" width="0.4" height="8.81"/><rect class="cls-18" x="22.41" y="47.04" width="0.58" height="8.81"/><ellipse class="cls-6" cx="23.01" cy="48.85" rx="0.04" ry="2.33"/><ellipse class="cls-6" cx="14.13" cy="50.79" rx="0.01" ry="0.83"/><ellipse class="cls-6" cx="10.68" cy="50.96" rx="0.01" ry="0.65"/><ellipse class="cls-6" cx="21.03" cy="50.79" rx="0.02" ry="0.83"/><ellipse class="cls-6" cx="19.96" cy="50.79" rx="0.02" ry="0.83"/><ellipse class="cls-6" cx="18.85" cy="50.79" rx="0.02" ry="0.83"/><ellipse class="cls-6" cx="17.6" cy="50.79" rx="0.02" ry="0.83"/></g></g></svg>