<svg xmlns="http://www.w3.org/2000/svg" xmlns:xlink="http://www.w3.org/1999/xlink" viewBox="0 0 66.67 60.98"><defs><style>.cls-1{fill:#ccc;}.cls-2{fill:url(#linear-gradient);}.cls-3{fill:url(#linear-gradient-2);}.cls-4{fill:none;stroke:#ccc;stroke-miterlimit:10;}.cls-5{fill:url(#linear-gradient-3);}.cls-6{fill:#ededed;}.cls-7{fill:url(#linear-gradient-4);}.cls-8{fill:url(#linear-gradient-5);}.cls-9{fill:url(#linear-gradient-6);}.cls-10{fill:url(#linear-gradient-7);}.cls-11{fill:url(#linear-gradient-8);}.cls-12{fill:url(#linear-gradient-9);}.cls-13{fill:url(#linear-gradient-10);}.cls-14{fill:url(#linear-gradient-11);}.cls-15{fill:url(#linear-gradient-12);}.cls-16{fill:url(#linear-gradient-13);}.cls-17{fill:url(#linear-gradient-14);}.cls-18{fill:url(#linear-gradient-15);}</style><linearGradient id="linear-gradient" x1="-641.42" y1="-586.41" x2="-641.42" y2="-600.78" gradientTransform="translate(651.1 630.75)" gradientUnits="userSpaceOnUse"><stop offset="0" stop-color="#3e3f40"/><stop offset="0.08" stop-color="#333"/><stop offset="0.23" stop-color="#666"/><stop offset="0.29" stop-color="gray"/><stop offset="0.36" stop-color="#b3b3b3"/><stop offset="0.48" stop-color="#868686"/><stop offset="0.57" stop-color="#666"/><stop offset="0.82" stop-color="#4d4d4d"/><stop offset="0.93" stop-color="#333"/><stop offset="1" stop-color="#373839"/></linearGradient><linearGradient id="linear-gradient-2" x1="231.05" y1="-1477.55" x2="231.05" y2="-1491.92" gradientTransform="translate(252.42 -1447.58) rotate(180)" gradientUnits="userSpaceOnUse"><stop offset="0.04" stop-color="#3e3f40"/><stop offset="0.11" stop-color="#666"/><stop offset="0.15" stop-color="#818181"/><stop offset="0.23" stop-color="#b3b3b3"/><stop offset="0.42" stop-color="#909090"/><stop offset="0.46" stop-color="#868686"/><stop offset="0.59" stop-color="#666"/><stop offset="0.84" stop-color="#4d4d4d"/><stop offset="0.95" stop-color="#373839"/></linearGradient><linearGradient id="linear-gradient-3" x1="2992.44" y1="-784.6" x2="2992.44" y2="-756.5" gradientTransform="matrix(1, 0, 0, -1, -2957.93, -733.4)" gradientUnits="userSpaceOnUse"><stop offset="0" stop-color="#3e3f40"/><stop offset="0.08" stop-color="#6a6c6e"/><stop offset="0.27" stop-color="#d9dadb"/><stop offset="0.28" stop-color="#d6d7d8"/><stop offset="0.37" stop-color="#a4a6a7"/><stop offset="0.41" stop-color="#a8a8a8"/><stop offset="0.49" stop-color="#8e8e8e"/><stop offset="0.68" stop-color="#747577"/><stop offset="0.7" stop-color="#707172"/><stop offset="0.74" stop-color="#686868"/><stop offset="0.82" stop-color="#939393"/><stop offset="0.93" stop-color="#5b5b5b"/><stop offset="1" stop-color="#373839"/></linearGradient><linearGradient id="linear-gradient-4" x1="-298.53" y1="382.77" x2="-298.53" y2="379.44" gradientTransform="matrix(-1, 0, 0, 1, -278.07, -343.95)" xlink:href="#linear-gradient-3"/><linearGradient id="linear-gradient-5" x1="-567.26" y1="-1062.26" x2="-564.8" y2="-1062.26" gradientTransform="matrix(1, 0, 0, -1, 618.86, -1025)" gradientUnits="userSpaceOnUse"><stop offset="0" stop-color="#0b1110"/><stop offset="0.08" stop-color="#373e3e"/><stop offset="0.27" stop-color="#a6acab"/><stop offset="0.28" stop-color="#a3a9a8"/><stop offset="0.37" stop-color="#717877"/><stop offset="0.41" stop-color="#757a78"/><stop offset="0.49" stop-color="#5b605e"/><stop offset="0.68" stop-color="#414747"/><stop offset="0.7" stop-color="#3d4342"/><stop offset="0.74" stop-color="#353a38"/><stop offset="0.82" stop-color="#606563"/><stop offset="0.93" stop-color="#282d2b"/><stop offset="1" stop-color="#040a09"/></linearGradient><linearGradient id="linear-gradient-6" x1="-313.15" y1="120.17" x2="-313.15" y2="108.68" gradientTransform="matrix(1, 0, 0, -1, 353.04, 151.68)" xlink:href="#linear-gradient-3"/><linearGradient id="linear-gradient-7" x1="-567.68" y1="-1063.9" x2="-564.37" y2="-1063.9" gradientTransform="matrix(1, 0, 0, -1, 620.5, -1026.63)" gradientUnits="userSpaceOnUse"><stop offset="0" stop-color="#646566"/><stop offset="0.34" stop-color="#e6e6e6"/><stop offset="0.44" stop-color="#cacccd"/><stop offset="0.55" stop-color="#b4b4b4"/><stop offset="0.65" stop-color="#9a9b9d"/><stop offset="0.8" stop-color="#818181"/><stop offset="0.93" stop-color="#5d5e5f"/></linearGradient><linearGradient id="linear-gradient-8" x1="-567.68" y1="-1060.16" x2="-564.37" y2="-1060.16" gradientTransform="matrix(1, 0, 0, -1, 616.76, -1022.89)" xlink:href="#linear-gradient-7"/><linearGradient id="linear-gradient-9" x1="-568.2" y1="-1056.15" x2="-563.85" y2="-1056.15" gradientTransform="matrix(1, 0, 0, -1, 612.75, -1018.89)" xlink:href="#linear-gradient-5"/><linearGradient id="linear-gradient-10" x1="-568.37" y1="-1058.03" x2="-563.68" y2="-1058.03" gradientTransform="matrix(1, 0, 0, -1, 614.63, -1020.76)" xlink:href="#linear-gradient-7"/><linearGradient id="linear-gradient-11" x1="-568.37" y1="-1056.85" x2="-563.68" y2="-1056.85" gradientTransform="matrix(1, 0, 0, -1, 613.45, -1019.59)" xlink:href="#linear-gradient-7"/><linearGradient id="linear-gradient-12" x1="-568.37" y1="-1055.77" x2="-563.68" y2="-1055.77" gradientTransform="matrix(1, 0, 0, -1, 612.37, -1018.5)" xlink:href="#linear-gradient-7"/><linearGradient id="linear-gradient-13" x1="-568.37" y1="-1054.68" x2="-563.68" y2="-1054.68" gradientTransform="matrix(1, 0, 0, -1, 611.28, -1017.41)" xlink:href="#linear-gradient-7"/><linearGradient id="linear-gradient-14" x1="-315.51" y1="116.72" x2="-320.12" y2="112.12" gradientTransform="matrix(1, 0, 0, -1, 362.36, 151.68)" xlink:href="#linear-gradient-3"/><linearGradient id="linear-gradient-15" x1="-315.12" y1="115.65" x2="-319.36" y2="113.19" gradientTransform="matrix(1, 0, 0, -1, 361.21, 151.68)" gradientUnits="userSpaceOnUse"><stop offset="0" stop-color="#1a1a1a"/><stop offset="0.23" stop-color="#666"/><stop offset="1" stop-color="#1a1a1a"/></linearGradient></defs><g id="Layer_2" data-name="Layer 2"><g id="Layer_1-2" data-name="Layer 1"><rect class="cls-1" x="-14.15" y="27.47" width="47.67" height="19.36" transform="translate(-27.47 46.83) rotate(-90)"/><rect class="cls-2" x="-14.15" y="29.97" width="47.67" height="14.37" transform="translate(-27.47 46.83) rotate(-90)"/><rect class="cls-1" x="16.87" y="27.47" width="15.63" height="19.36" transform="translate(49.36 74.3) rotate(180)"/><path class="cls-3" d="M16.87,30H32.49V44.34H16.87s-6.63-1-6.63-7.19S16.87,30,16.87,30Z"/><path class="cls-4" d="M45.79,37.26H57.2a9,9,0,0,0,9-9V0"/><rect class="cls-5" x="33.17" y="23.1" width="2.67" height="28.1"/><ellipse class="cls-6" cx="33.24" cy="39.61" rx="0.07" ry="10.67"/><path class="cls-7" d="M8.61,38.82H33.17V35.49H8.61c-.48,0-.86.74-.86,1.66h0C7.75,38.07,8.13,38.82,8.61,38.82Z"/><rect class="cls-8" x="51.61" y="36.76" width="2.46" height="1.02" transform="translate(15.57 90.1) rotate(-90)"/><rect class="cls-9" x="36.09" y="31.52" width="7.59" height="11.49" transform="translate(79.77 74.53) rotate(180)"/><path class="cls-10" d="M52.82,35.75h3.31a0,0,0,0,1,0,0v2.32a.7.7,0,0,1-.7.7h-1.9a.7.7,0,0,1-.7-.7V35.75A0,0,0,0,1,52.82,35.75Z" transform="translate(17.21 91.74) rotate(-90)"/><rect class="cls-11" x="49.08" y="35.46" width="3.31" height="3.61" transform="translate(13.47 88) rotate(-90)"/><rect class="cls-12" x="44.55" y="35.46" width="4.34" height="3.61" transform="translate(9.46 83.99) rotate(-90)"/><path class="cls-13" d="M46.26,36.8H51a0,0,0,0,1,0,0v.3a.62.62,0,0,1-.62.62H46.88a.62.62,0,0,1-.62-.62v-.3A0,0,0,0,1,46.26,36.8Z" transform="translate(11.34 85.87) rotate(-90)"/><rect class="cls-14" x="45.08" y="36.88" width="4.69" height="0.77" transform="translate(10.16 84.69) rotate(-90)"/><rect class="cls-15" x="43.99" y="36.88" width="4.69" height="0.77" transform="translate(9.08 83.61) rotate(-90)"/><rect class="cls-16" x="42.91" y="36.88" width="4.69" height="0.77" transform="translate(7.99 82.52) rotate(-90)"/><rect class="cls-17" x="44.34" y="32.86" width="0.4" height="8.81" transform="translate(89.09 74.53) rotate(180)"/><rect class="cls-18" x="43.68" y="32.86" width="0.58" height="8.81" transform="translate(87.94 74.53) rotate(180)"/><ellipse class="cls-6" cx="43.66" cy="39.86" rx="0.04" ry="2.33"/><ellipse class="cls-6" cx="52.53" cy="37.92" rx="0.01" ry="0.83"/><ellipse class="cls-6" cx="55.99" cy="37.75" rx="0.01" ry="0.65"/><ellipse class="cls-6" cx="45.64" cy="37.92" rx="0.02" ry="0.83"/><ellipse class="cls-6" cx="46.71" cy="37.92" rx="0.02" ry="0.83"/><ellipse class="cls-6" cx="47.81" cy="37.92" rx="0.02" ry="0.83"/><ellipse class="cls-6" cx="49.06" cy="37.92" rx="0.02" ry="0.83"/></g></g></svg>