<svg xmlns="http://www.w3.org/2000/svg" xmlns:xlink="http://www.w3.org/1999/xlink" viewBox="0 0 54.52 46.75"><defs><style>.cls-1{fill:url(#linear-gradient);}.cls-2{fill:#ad2828;}.cls-3{fill:#eaeaea;}.cls-4{fill:#333;}.cls-5{fill:#fff;}.cls-6{fill:url(#linear-gradient-2);}.cls-7{fill:url(#linear-gradient-3);}</style><linearGradient id="linear-gradient" x1="-194.7" y1="614.84" x2="-173.71" y2="614.84" gradientTransform="translate(-587.65 -147.96) rotate(-90)" gradientUnits="userSpaceOnUse"><stop offset="0" stop-color="#3e3f40"/><stop offset="0.08" stop-color="#6a6c6e"/><stop offset="0.27" stop-color="#d9dadb"/><stop offset="0.28" stop-color="#d6d7d8"/><stop offset="0.37" stop-color="#a4a6a7"/><stop offset="0.41" stop-color="#a8a8a8"/><stop offset="0.49" stop-color="#8e8e8e"/><stop offset="0.68" stop-color="#747577"/><stop offset="0.7" stop-color="#707172"/><stop offset="0.74" stop-color="#686868"/><stop offset="0.82" stop-color="#939393"/><stop offset="0.93" stop-color="#5b5b5b"/><stop offset="1" stop-color="#373839"/></linearGradient><linearGradient id="linear-gradient-2" x1="-645.06" y1="-644.48" x2="-627.44" y2="-644.48" gradientTransform="matrix(0, -1, -1, 0, -592.82, -600.79)" xlink:href="#linear-gradient"/><linearGradient id="linear-gradient-3" x1="-645.06" y1="-595.72" x2="-627.44" y2="-595.72" gradientTransform="matrix(0, -1, -1, 0, -592.82, -600.79)" xlink:href="#linear-gradient"/></defs><g id="Layer_2" data-name="Layer 2"><g id="Layer_1-2" data-name="Layer 1"><path class="cls-1" d="M33,24.68H48.36a.11.11,0,0,1,.11.1V46.64a.11.11,0,0,1-.11.11H36.84a3,3,0,0,1-3.15-2.89v-.35H21.88v.22a2.92,2.92,0,0,1-.65,1.88,3.25,3.25,0,0,1-2.51,1.14H5.92V24.68H22V18.63H33Z"/><path class="cls-2" d="M41.15,11.81H38.52V10.44h2.63a3.73,3.73,0,0,0,3.72-3.72V0h1.36V6.72A5.1,5.1,0,0,1,41.15,11.81Z"/><path class="cls-3" d="M42.83,6.72V0h1.36V6.72a3,3,0,0,1-3,3H38.52V8.4h2.63A1.68,1.68,0,0,0,42.83,6.72Z"/><path class="cls-4" d="M35.27,7V3.92a2.21,2.21,0,0,0-2.21-2.21H20.7a2.22,2.22,0,0,0-2.22,2.21V18.57H35.27v-5.4"/><path class="cls-4" d="M35.61,13.17h2.57V7H35.61"/><path class="cls-5" d="M18.57,12.22c-.08,0-.1-.09-.09-.14v-.19l0-.38,0-.76,0-1.51,0-3V4.7a4.45,4.45,0,0,1,.15-1.53,2.39,2.39,0,0,1,1-1.18A2.41,2.41,0,0,1,21,1.71,2.3,2.3,0,0,0,18.7,3.23a4.47,4.47,0,0,0-.1,1.47V6.21l0,3,0,1.51,0,.76v.57C18.48,12.14,18.49,12.21,18.57,12.22Z"/><path class="cls-5" d="M23.51,18.57c-1.68.1-3.35.15-5,.19H18.3v-.2c0-1.24,0-2.47-.05-3.71s0-2.47,0-3.7c0-2.47.09-4.94.22-7.41q.21,3.71.23,7.41c0,1.23,0,2.47,0,3.7s0,2.47,0,3.71l-.2-.19C20.16,18.42,21.83,18.46,23.51,18.57Z"/><path class="cls-6" d="M49,26.65h5.31V44.27H49Z"/><path class="cls-5" d="M49.33,26.65a19.07,19.07,0,0,1,2.49-.24c.83,0,1.66,0,2.49.05h.21l0,.18a15.44,15.44,0,0,1-.19,1.65,15.44,15.44,0,0,1-.19-1.65l.19.19c-.83.06-1.66.07-2.49.05A19.07,19.07,0,0,1,49.33,26.65Z"/><path class="cls-7" d="M5.55,26.76v17.4a.11.11,0,0,1-.11.11H.36a.11.11,0,0,1-.12-.11V26.76a.11.11,0,0,1,.12-.11H5.44A.11.11,0,0,1,5.55,26.76Z"/><path class="cls-5" d="M5.92,44.27c0-3.29-.13-6.57-.15-9.85l-.08-9.84v-.22h.23q9.12-.06,18.24,0l9.12.07,9.12.15-9.12.14-9.12.08q-9.12,0-18.24,0l.22-.22-.07,9.84C6.05,37.7,6,41,5.92,44.27Z"/><path class="cls-5" d="M.24,38.11q-.19-3-.22-6c0-2,0-4,0-6v-.22H.24c1.77,0,3.54.09,5.31.21-1.77.12-3.54.17-5.31.21L.46,26c0,2,0,4,0,6S.37,36.1.24,38.11Z"/><path class="cls-5" d="M21.89,23.77c-.07-.86-.12-1.71-.15-2.57s-.07-1.71-.07-2.57v-.21h.22q2.66,0,5.31,0c1.76,0,3.53.09,5.3.22-1.77.13-3.54.2-5.3.22s-3.54,0-5.31,0l.21-.22c0,.86-.05,1.71-.07,2.57S22,22.91,21.89,23.77Z"/></g></g></svg>