<svg xmlns="http://www.w3.org/2000/svg" xmlns:xlink="http://www.w3.org/1999/xlink" viewBox="0 0 46.75 54.52"><defs><style>.cls-1{fill:url(#linear-gradient);}.cls-2{fill:#ad2828;}.cls-3{fill:#eaeaea;}.cls-4{fill:#333;}.cls-5{fill:#fff;}.cls-6{fill:url(#linear-gradient-2);}.cls-7{fill:url(#linear-gradient-3);}</style><linearGradient id="linear-gradient" x1="-781.96" y1="279.88" x2="-760.97" y2="279.88" gradientTransform="translate(-735.21 307.2) rotate(180)" gradientUnits="userSpaceOnUse"><stop offset="0" stop-color="#3e3f40"/><stop offset="0.08" stop-color="#6a6c6e"/><stop offset="0.27" stop-color="#d9dadb"/><stop offset="0.28" stop-color="#d6d7d8"/><stop offset="0.37" stop-color="#a4a6a7"/><stop offset="0.41" stop-color="#a8a8a8"/><stop offset="0.49" stop-color="#8e8e8e"/><stop offset="0.68" stop-color="#747577"/><stop offset="0.7" stop-color="#707172"/><stop offset="0.74" stop-color="#686868"/><stop offset="0.82" stop-color="#939393"/><stop offset="0.93" stop-color="#5b5b5b"/><stop offset="1" stop-color="#373839"/></linearGradient><linearGradient id="linear-gradient-2" x1="-1232.31" y1="-495.4" x2="-1214.7" y2="-495.4" gradientTransform="matrix(-1, 0, 0, 1, -1188.05, 498.26)" xlink:href="#linear-gradient"/><linearGradient id="linear-gradient-3" x1="-1232.31" y1="-446.65" x2="-1214.7" y2="-446.65" gradientTransform="matrix(-1, 0, 0, 1, -1188.05, 498.26)" xlink:href="#linear-gradient"/></defs><g id="Layer_2" data-name="Layer 2"><g id="Layer_1-2" data-name="Layer 1"><path class="cls-1" d="M24.68,21.55V6.16a.12.12,0,0,1,.1-.12H46.64a.12.12,0,0,1,.11.12V17.67a3,3,0,0,1-2.89,3.15h-.35V32.64h.22a2.87,2.87,0,0,1,1.88.65,3.23,3.23,0,0,1,1.14,2.5V48.6H24.68V32.55H18.63v-11Z"/><path class="cls-2" d="M11.81,13.37V16H10.44V13.37A3.73,3.73,0,0,0,6.72,9.64H0V8.29H6.72A5.1,5.1,0,0,1,11.81,13.37Z"/><path class="cls-3" d="M6.72,11.69H0V10.33H6.72a3,3,0,0,1,3,3V16H8.4V13.37A1.68,1.68,0,0,0,6.72,11.69Z"/><path class="cls-4" d="M7,19.24H3.92a2.22,2.22,0,0,0-2.21,2.22V33.82A2.21,2.21,0,0,0,3.92,36H18.57V19.24h-5.4"/><path class="cls-4" d="M13.17,18.9V16.34H7V18.9"/><path class="cls-5" d="M12.22,36c0,.08-.09.1-.14.09h-.57l-.76,0-1.51,0-3,0H4.7A4.23,4.23,0,0,1,3.17,36,2.3,2.3,0,0,1,2,35a2.4,2.4,0,0,1-.28-1.48,2.28,2.28,0,0,0,1.52,2.29,4.75,4.75,0,0,0,1.47.11H6.21l3,0,1.51,0,.76,0,.38,0h.19C12.14,36,12.21,36,12.22,36Z"/><path class="cls-5" d="M18.57,31c.1,1.67.15,3.35.19,5v.19h-.2c-1.24,0-2.47,0-3.71,0s-2.47,0-3.7,0q-3.71,0-7.41-.23c2.47-.13,4.94-.21,7.41-.22,1.23,0,2.47,0,3.7,0s2.47,0,3.71.05l-.19.19C18.42,34.36,18.46,32.68,18.57,31Z"/><path class="cls-6" d="M26.65,5.51V.2H44.27V5.51Z"/><path class="cls-5" d="M26.65,5.18a19.07,19.07,0,0,1-.24-2.49c0-.83,0-1.66.05-2.49V0h.18A15.44,15.44,0,0,1,28.3.2a13.26,13.26,0,0,1-1.65.2l.19-.2c.06.83.07,1.66.05,2.49A19.07,19.07,0,0,1,26.65,5.18Z"/><path class="cls-7" d="M26.76,49h17.4a.11.11,0,0,1,.11.11v5.09a.11.11,0,0,1-.11.11H26.76a.11.11,0,0,1-.11-.11V49.07A.11.11,0,0,1,26.76,49Z"/><path class="cls-5" d="M44.27,48.6c-3.29,0-6.57.13-9.85.15l-9.84.07h-.22V48.6q-.06-9.12,0-18.24l.07-9.12.15-9.12.14,9.12.08,9.12q0,9.12,0,18.24l-.22-.22,9.84.07C37.7,48.47,41,48.55,44.27,48.6Z"/><path class="cls-5" d="M38.11,54.27q-3,.19-6,.22c-2,0-4,0-6,0h-.22v-.21c0-1.77.09-3.54.21-5.31.12,1.77.17,3.54.21,5.31L26,54.06c2,0,4-.05,6,0S36.1,54.14,38.11,54.27Z"/><path class="cls-5" d="M23.77,32.63c-.86.06-1.71.11-2.57.14s-1.71.08-2.57.08h-.21v-.22q0-2.66,0-5.31c0-1.77.09-3.54.22-5.31.13,1.77.2,3.54.22,5.31s0,3.54,0,5.31l-.22-.22c.86,0,1.71.05,2.57.08S22.91,32.57,23.77,32.63Z"/></g></g></svg>