<svg xmlns="http://www.w3.org/2000/svg" xmlns:xlink="http://www.w3.org/1999/xlink" viewBox="0 0 54.52 46.75"><defs><style>.cls-1{fill:url(#linear-gradient);}.cls-2{fill:#ad2828;}.cls-3{fill:#eaeaea;}.cls-4{fill:#333;}.cls-5{fill:#fff;}.cls-6{fill:url(#linear-gradient-2);}.cls-7{fill:url(#linear-gradient-3);}</style><linearGradient id="linear-gradient" x1="-455.26" y1="-83.19" x2="-434.26" y2="-83.19" gradientTransform="translate(-55.87 455.26) rotate(90)" gradientUnits="userSpaceOnUse"><stop offset="0" stop-color="#3e3f40"/><stop offset="0.08" stop-color="#6a6c6e"/><stop offset="0.27" stop-color="#d9dadb"/><stop offset="0.28" stop-color="#d6d7d8"/><stop offset="0.37" stop-color="#a4a6a7"/><stop offset="0.41" stop-color="#a8a8a8"/><stop offset="0.49" stop-color="#8e8e8e"/><stop offset="0.68" stop-color="#747577"/><stop offset="0.7" stop-color="#707172"/><stop offset="0.74" stop-color="#686868"/><stop offset="0.82" stop-color="#939393"/><stop offset="0.93" stop-color="#5b5b5b"/><stop offset="1" stop-color="#373839"/></linearGradient><linearGradient id="linear-gradient-2" x1="-905.61" y1="-344.19" x2="-888" y2="-344.19" gradientTransform="matrix(0, 1, 1, 0, 347.05, 908.09)" xlink:href="#linear-gradient"/><linearGradient id="linear-gradient-3" x1="-905.61" y1="-295.43" x2="-888" y2="-295.43" gradientTransform="matrix(0, 1, 1, 0, 347.05, 908.09)" xlink:href="#linear-gradient"/></defs><g id="Layer_2" data-name="Layer 2"><g id="Layer_1-2" data-name="Layer 1"><path class="cls-1" d="M21.55,22.07H6.16A.12.12,0,0,1,6,22V.11A.12.12,0,0,1,6.16,0H17.67a3,3,0,0,1,3.15,2.89v.35H32.64V3a2.86,2.86,0,0,1,.65-1.87A3.23,3.23,0,0,1,35.79,0H48.6V22.07H32.55v6h-11Z"/><path class="cls-2" d="M13.37,34.94H16V36.3H13.37A3.73,3.73,0,0,0,9.64,40v6.72H8.29V40A5.1,5.1,0,0,1,13.37,34.94Z"/><path class="cls-3" d="M11.69,40v6.72H10.33V40a3,3,0,0,1,3-3H16v1.35H13.37A1.69,1.69,0,0,0,11.69,40Z"/><path class="cls-4" d="M19.24,39.71v3.11A2.22,2.22,0,0,0,21.46,45H33.82A2.21,2.21,0,0,0,36,42.82V28.17H19.24v5.41"/><path class="cls-4" d="M18.9,33.58H16.34v6.13H18.9"/><path class="cls-5" d="M36,34.53c.08,0,.1.08.09.14v.57l0,.75,0,1.52,0,3v1.52A4.25,4.25,0,0,1,36,43.58a2.27,2.27,0,0,1-1,1.17,2.47,2.47,0,0,1-1.48.29,2.28,2.28,0,0,0,2.29-1.53,4.66,4.66,0,0,0,.11-1.46V40.53l0-3L36,36l0-.75,0-.38v-.19C36,34.61,36,34.53,36,34.53Z"/><path class="cls-5" d="M31,28.18c1.67-.11,3.35-.16,5-.2h.19v.2c0,1.23,0,2.47,0,3.7s0,2.47,0,3.71q0,3.7-.23,7.41c-.13-2.47-.21-4.94-.22-7.41,0-1.24,0-2.47,0-3.71s0-2.47.05-3.7l.19.19C34.36,28.33,32.68,28.28,31,28.18Z"/><path class="cls-6" d="M5.51,20.1H.2V2.48H5.51Z"/><path class="cls-5" d="M5.18,20.1a19,19,0,0,1-2.49.23c-.83,0-1.66,0-2.49,0l-.2,0V20.1A15.44,15.44,0,0,1,.2,18.45,13.26,13.26,0,0,1,.4,20.1l-.2-.2c.83-.06,1.66-.06,2.49,0A17.49,17.49,0,0,1,5.18,20.1Z"/><path class="cls-7" d="M49,20V2.58a.11.11,0,0,1,.11-.1h5.09a.11.11,0,0,1,.11.1V20a.11.11,0,0,1-.11.11H49.07A.11.11,0,0,1,49,20Z"/><path class="cls-5" d="M48.6,2.48c0,3.28.13,6.56.15,9.84l.07,9.85v.22H48.6q-9.12,0-18.24,0l-9.12-.08-9.12-.14L21.24,22,30.36,22q9.12,0,18.24,0l-.22.22.07-9.85C48.47,9,48.55,5.76,48.6,2.48Z"/><path class="cls-5" d="M54.27,8.63c.13,2,.2,4,.22,6s0,4,0,6v.22h-.21c-1.77,0-3.54-.09-5.31-.21,1.77-.13,3.54-.18,5.31-.22l-.21.22c0-2-.05-4,0-6S54.14,10.64,54.27,8.63Z"/><path class="cls-5" d="M32.63,23c.06.85.11,1.71.14,2.57s.08,1.71.08,2.56v.22h-.22c-1.77,0-3.54,0-5.31,0s-3.54-.09-5.31-.22c1.77-.13,3.54-.19,5.31-.22s3.54,0,5.31,0l-.22.21c0-.85.05-1.71.08-2.56S32.57,23.83,32.63,23Z"/></g></g></svg>