<svg xmlns="http://www.w3.org/2000/svg" xmlns:xlink="http://www.w3.org/1999/xlink" viewBox="0 0 46.75 54.52"><defs><style>.cls-1{fill:url(#linear-gradient);}.cls-2{fill:#ad2828;}.cls-3{fill:#eaeaea;}.cls-4{fill:#333;}.cls-5{fill:#fff;}.cls-6{fill:url(#linear-gradient-2);}.cls-7{fill:url(#linear-gradient-3);}</style><linearGradient id="linear-gradient" x1="-304.04" y1="267.41" x2="-283.05" y2="267.41" gradientTransform="translate(304.04 -240.21)" gradientUnits="userSpaceOnUse"><stop offset="0" stop-color="#3e3f40"/><stop offset="0.08" stop-color="#6a6c6e"/><stop offset="0.27" stop-color="#d9dadb"/><stop offset="0.28" stop-color="#d6d7d8"/><stop offset="0.37" stop-color="#a4a6a7"/><stop offset="0.41" stop-color="#a8a8a8"/><stop offset="0.49" stop-color="#8e8e8e"/><stop offset="0.68" stop-color="#747577"/><stop offset="0.7" stop-color="#707172"/><stop offset="0.74" stop-color="#686868"/><stop offset="0.82" stop-color="#939393"/><stop offset="0.93" stop-color="#5b5b5b"/><stop offset="1" stop-color="#373839"/></linearGradient><linearGradient id="linear-gradient-2" x1="-754.4" y1="-900.06" x2="-736.78" y2="-900.06" gradientTransform="matrix(1, 0, 0, -1, 756.88, -848.41)" xlink:href="#linear-gradient"/><linearGradient id="linear-gradient-3" x1="-754.4" y1="-851.31" x2="-736.78" y2="-851.31" gradientTransform="matrix(1, 0, 0, -1, 756.88, -848.41)" xlink:href="#linear-gradient"/></defs><g id="Layer_2" data-name="Layer 2"><g id="Layer_1-2" data-name="Layer 1"><path class="cls-1" d="M22.07,33V48.36a.11.11,0,0,1-.11.11H.11A.11.11,0,0,1,0,48.36V36.84a3,3,0,0,1,2.89-3.15h.35V21.88H3a2.92,2.92,0,0,1-1.87-.65A3.25,3.25,0,0,1,0,18.72V5.92H22.07V22h6V33Z"/><path class="cls-2" d="M34.94,41.15V38.52H36.3v2.63A3.73,3.73,0,0,0,40,44.87h6.72v1.36H40A5.1,5.1,0,0,1,34.94,41.15Z"/><path class="cls-3" d="M40,42.83h6.72v1.36H40a3,3,0,0,1-3-3V38.52h1.35v2.63A1.69,1.69,0,0,0,40,42.83Z"/><path class="cls-4" d="M39.71,35.27h3.11A2.21,2.21,0,0,0,45,33.06V20.7a2.22,2.22,0,0,0-2.22-2.22H28.17V35.27h5.41"/><path class="cls-4" d="M33.58,35.61v2.57h6.13V35.61"/><path class="cls-5" d="M34.53,18.57c0-.08.08-.1.14-.09h.19l.38,0,.75,0,1.52,0,3,0h1.52a4.48,4.48,0,0,1,1.53.15,2.37,2.37,0,0,1,1.17,1A2.49,2.49,0,0,1,45,21a2.29,2.29,0,0,0-1.53-2.29,4.39,4.39,0,0,0-1.46-.1H40.53l-3,0-1.52,0-.75,0h-.57C34.61,18.48,34.53,18.49,34.53,18.57Z"/><path class="cls-5" d="M28.18,23.51c-.11-1.68-.16-3.35-.2-5V18.3h.2c1.23,0,2.47,0,3.7-.05s2.47,0,3.71,0c2.47,0,4.94.09,7.41.22q-3.7.21-7.41.23c-1.24,0-2.47,0-3.71,0s-2.47,0-3.7,0l.19-.2C28.33,20.16,28.28,21.83,28.18,23.51Z"/><path class="cls-6" d="M20.1,49v5.31H2.48V49Z"/><path class="cls-5" d="M20.1,49.33a19,19,0,0,1,.23,2.49c0,.83,0,1.66,0,2.49l0,.21-.17,0a15.44,15.44,0,0,1-1.65-.19,15.44,15.44,0,0,1,1.65-.19l-.2.19c-.06-.83-.06-1.66,0-2.49A17.49,17.49,0,0,1,20.1,49.33Z"/><path class="cls-7" d="M20,5.55H2.58a.11.11,0,0,1-.1-.11V.36a.11.11,0,0,1,.1-.12H20a.11.11,0,0,1,.11.12V5.44A.11.11,0,0,1,20,5.55Z"/><path class="cls-5" d="M2.48,5.92c3.28,0,6.56-.13,9.84-.15l9.85-.08h.22v.23q0,9.12,0,18.24l-.08,9.12-.14,9.12L22,33.28,22,24.16q0-9.12,0-18.24l.22.22-9.85-.07C9,6.05,5.76,6,2.48,5.92Z"/><path class="cls-5" d="M8.63.24c2-.13,4-.2,6-.22s4,0,6,0h.22V.24c0,1.77-.09,3.54-.21,5.31C20.58,3.78,20.53,2,20.49.24l.22.22c-2,0-4,0-6,0S10.64.37,8.63.24Z"/><path class="cls-5" d="M23,21.89c.85-.07,1.71-.12,2.57-.15s1.71-.07,2.56-.07h.22v.22c0,1.77,0,3.54,0,5.31s-.09,3.53-.22,5.3c-.13-1.77-.19-3.54-.22-5.3s0-3.54,0-5.31l.21.21c-.85,0-1.71-.05-2.56-.07S23.83,22,23,21.89Z"/></g></g></svg>