<svg xmlns="http://www.w3.org/2000/svg" xmlns:xlink="http://www.w3.org/1999/xlink" viewBox="0 0 46.75 54.52"><defs><style>.cls-1{fill:url(#linear-gradient);}.cls-2{fill:#ad2828;}.cls-3{fill:#eaeaea;}.cls-4{fill:#333;}.cls-5{fill:#fff;}.cls-6{fill:url(#linear-gradient-2);}.cls-7{fill:url(#linear-gradient-3);}</style><linearGradient id="linear-gradient" x1="-787.49" y1="-25.99" x2="-766.5" y2="-25.99" gradientTransform="matrix(-1, 0, 0, 1, -740.75, 53.18)" gradientUnits="userSpaceOnUse"><stop offset="0" stop-color="#3e3f40"/><stop offset="0.08" stop-color="#6a6c6e"/><stop offset="0.27" stop-color="#d9dadb"/><stop offset="0.28" stop-color="#d6d7d8"/><stop offset="0.37" stop-color="#a4a6a7"/><stop offset="0.41" stop-color="#a8a8a8"/><stop offset="0.49" stop-color="#8e8e8e"/><stop offset="0.68" stop-color="#747577"/><stop offset="0.7" stop-color="#707172"/><stop offset="0.74" stop-color="#686868"/><stop offset="0.82" stop-color="#939393"/><stop offset="0.93" stop-color="#5b5b5b"/><stop offset="1" stop-color="#373839"/></linearGradient><linearGradient id="linear-gradient-2" x1="-1237.84" y1="-812.03" x2="-1220.23" y2="-812.03" gradientTransform="translate(-1193.58 -760.37) rotate(180)" xlink:href="#linear-gradient"/><linearGradient id="linear-gradient-3" x1="-1237.84" y1="-763.27" x2="-1220.23" y2="-763.27" gradientTransform="translate(-1193.58 -760.37) rotate(180)" xlink:href="#linear-gradient"/></defs><g id="Layer_2" data-name="Layer 2"><g id="Layer_1-2" data-name="Layer 1"><path class="cls-1" d="M24.68,33V48.36a.11.11,0,0,0,.1.11H46.64a.11.11,0,0,0,.11-.11V36.84a3,3,0,0,0-2.89-3.15h-.35V21.88h.22a2.92,2.92,0,0,0,1.88-.65,3.25,3.25,0,0,0,1.14-2.51V5.92H24.68V22H18.63V33Z"/><path class="cls-2" d="M11.81,41.15V38.52H10.44v2.63a3.73,3.73,0,0,1-3.72,3.72H0v1.36H6.72A5.1,5.1,0,0,0,11.81,41.15Z"/><path class="cls-3" d="M6.72,42.83H0v1.36H6.72a3,3,0,0,0,3-3V38.52H8.4v2.63A1.68,1.68,0,0,1,6.72,42.83Z"/><path class="cls-4" d="M7,35.27H3.92a2.21,2.21,0,0,1-2.21-2.21V20.7a2.22,2.22,0,0,1,2.21-2.22H18.57V35.27h-5.4"/><path class="cls-4" d="M13.17,35.61v2.57H7V35.61"/><path class="cls-5" d="M12.22,18.57c0-.08-.08-.09-.14-.08h-.57l-.76,0-1.51,0-3,0H4.7a4.47,4.47,0,0,0-1.47.1A2.3,2.3,0,0,0,1.71,21,2.41,2.41,0,0,1,2,19.51a2.39,2.39,0,0,1,1.18-1,4.45,4.45,0,0,1,1.53-.15H6.21l3,0,1.51,0,.76,0,.38,0h.19C12.13,18.47,12.22,18.49,12.22,18.57Z"/><path class="cls-5" d="M18.57,23.51c-.11-1.68-.15-3.35-.19-5l.19.2c-1.24,0-2.47,0-3.71,0s-2.47,0-3.7,0q-3.71,0-7.41-.23c2.47-.13,4.94-.21,7.41-.22,1.23,0,2.47,0,3.7,0s2.47,0,3.71.05h.2v.18C18.72,20.16,18.67,21.83,18.57,23.51Z"/><path class="cls-6" d="M26.65,49v5.31H44.27V49Z"/><path class="cls-5" d="M26.65,49.33a19.07,19.07,0,0,1,.24,2.49c0,.83,0,1.66-.05,2.49l-.19-.19a15.44,15.44,0,0,1,1.65.19,15.44,15.44,0,0,1-1.65.19l-.18,0v-.21c-.06-.83-.07-1.66-.05-2.49A19.07,19.07,0,0,1,26.65,49.33Z"/><path class="cls-7" d="M26.76,5.55h17.4a.11.11,0,0,0,.11-.11V.36a.11.11,0,0,0-.11-.12H26.76a.11.11,0,0,0-.11.12V5.44A.11.11,0,0,0,26.76,5.55Z"/><path class="cls-5" d="M44.27,5.92c-3.29,0-6.57.13-9.85.15l-9.84.07.22-.22q0,9.12,0,18.24l-.08,9.12-.14,9.12-.15-9.12-.07-9.12q0-9.12,0-18.24V5.69h.22l9.84.08C37.7,5.79,41,5.87,44.27,5.92Z"/><path class="cls-5" d="M38.11.24c-2,.13-4,.2-6,.23s-4,0-6,0l.21-.22c0,1.77-.09,3.54-.21,5.31C25.92,3.78,25.87,2,25.83.24V0H26c2,0,4,0,6,0S36.1.11,38.11.24Z"/><path class="cls-5" d="M23.77,21.89c-.86.06-1.71.11-2.57.14s-1.71.07-2.57.07l.22-.21c0,1.77,0,3.54,0,5.31s-.09,3.53-.22,5.3c-.13-1.77-.19-3.54-.22-5.3s0-3.54,0-5.31v-.22h.21c.86,0,1.71,0,2.57.07S22.91,21.82,23.77,21.89Z"/></g></g></svg>